<svg width="520" height="380" viewBox="0 0 520 380" fill="none" xmlns="http://www.w3.org/2000/svg">
<rect width="520" height="380" fill="#CFE1F6"/>
<path d="M147.623 159.818C131.334 159.818 118.083 173.009 118.083 189.234C118.079 194.646 119.577 199.953 122.412 204.563C122.499 205.995 120.355 211.758 118.234 216.394L116.231 220.771L120.521 218.565C124.134 216.7 129.978 214.097 131.78 214.055C136.518 217.057 142.014 218.646 147.623 218.637C163.912 218.637 177.164 205.448 177.164 189.232C177.164 173.015 163.906 159.815 147.623 159.815M158.302 213.034L123.763 178.468C125.184 175.358 127.201 172.557 129.7 170.223L166.704 207.068C164.323 209.593 161.465 211.623 158.296 213.038M133.398 211.134C132.923 210.842 132.372 210.698 131.815 210.72C129.86 210.72 126.056 212.255 123.046 213.62C123.297 213.009 123.556 212.356 123.808 211.696C126.257 205.274 125.911 203.859 125.348 202.954C123.353 199.756 122.08 196.161 121.619 192.42L144.406 215.095C140.486 214.619 136.725 213.261 133.404 211.124M139.915 164.298C142.413 163.533 145.011 163.146 147.623 163.151C162.068 163.151 173.822 174.849 173.822 189.232C173.822 191.83 173.431 194.414 172.662 196.896L139.915 164.298Z" fill="black"/>
<path d="M144.406 215.103C140.486 214.627 136.724 213.269 133.404 211.132C132.929 210.84 132.378 210.696 131.821 210.718C129.866 210.718 126.062 212.253 123.052 213.618C123.303 213.007 123.562 212.354 123.815 211.694C126.263 205.272 125.917 203.857 125.354 202.952C123.359 199.754 122.086 196.159 121.625 192.418L144.406 215.103Z" fill="#FEE600"/>
<path d="M166.704 207.068C164.323 209.594 161.465 211.623 158.296 213.038L123.763 178.468C125.184 175.358 127.201 172.557 129.7 170.223L166.704 207.068Z" fill="#FEE600"/>
<path d="M173.822 189.225C173.822 191.824 173.431 194.408 172.662 196.89L139.915 164.298C142.413 163.533 145.011 163.146 147.623 163.151C162.068 163.151 173.822 174.849 173.822 189.232" fill="#FEE600"/>
<path fill-rule="evenodd" clip-rule="evenodd" d="M160.79 172.514C160.527 172.774 160.173 172.919 159.804 172.919C159.435 172.919 159.08 172.774 158.818 172.514C158.624 172.32 158.493 172.072 158.44 171.802C158.387 171.533 158.415 171.254 158.52 171.001C158.626 170.747 158.804 170.531 159.033 170.378C159.261 170.226 159.529 170.145 159.804 170.145C160.078 170.145 160.347 170.226 160.575 170.378C160.804 170.531 160.982 170.747 161.087 171.001C161.193 171.254 161.221 171.533 161.168 171.802C161.115 172.072 160.983 172.32 160.79 172.514Z" fill="black"/>
<path fill-rule="evenodd" clip-rule="evenodd" d="M166.29 177.987C166.096 178.182 165.848 178.315 165.578 178.369C165.309 178.423 165.029 178.396 164.774 178.291C164.52 178.186 164.303 178.008 164.15 177.779C163.997 177.551 163.915 177.282 163.915 177.006C163.915 176.731 163.997 176.462 164.15 176.234C164.303 176.005 164.52 175.827 164.774 175.722C165.029 175.617 165.309 175.589 165.578 175.644C165.848 175.698 166.096 175.831 166.29 176.026C166.548 176.287 166.693 176.639 166.693 177.006C166.693 177.374 166.548 177.726 166.29 177.987Z" fill="black"/>
<path d="M167.251 165.659C166.966 165.659 166.688 165.571 166.454 165.409C166.304 165.305 166.176 165.172 166.078 165.018C165.979 164.865 165.913 164.693 165.881 164.513C165.849 164.334 165.853 164.15 165.893 163.972C165.932 163.794 166.007 163.625 166.112 163.476L170.433 157.35C170.646 157.049 170.97 156.843 171.333 156.78C171.697 156.716 172.071 156.799 172.374 157.011C172.673 157.221 172.877 157.541 172.94 157.901C173.004 158.261 172.921 158.632 172.712 158.931L168.395 165.067C168.266 165.25 168.094 165.4 167.895 165.503C167.696 165.606 167.475 165.66 167.251 165.659Z" fill="black"/>
<path d="M172.691 171.215C172.395 171.219 172.105 171.127 171.864 170.954C171.624 170.78 171.445 170.535 171.355 170.252C171.265 169.97 171.267 169.666 171.362 169.385C171.457 169.105 171.64 168.862 171.883 168.692L178.054 164.394C178.357 164.182 178.732 164.1 179.095 164.164C179.459 164.228 179.783 164.433 179.995 164.736C180.101 164.885 180.176 165.054 180.216 165.232C180.256 165.411 180.26 165.596 180.228 165.776C180.196 165.956 180.129 166.128 180.03 166.282C179.931 166.436 179.802 166.569 179.651 166.673L173.489 170.965C173.255 171.128 172.976 171.216 172.691 171.215Z" fill="black"/>
<path d="M196.572 157.959C204.429 157.019 208.494 156.748 213.776 156.748C227.933 156.748 235.113 161.056 235.113 169.405C235.113 173.712 233.421 176.204 229.085 178.356C234.03 180.04 236.75 183.808 236.75 188.921C236.75 195.049 233.021 199.289 226.251 201.106C223.204 201.845 218.794 202.251 212.975 202.251C207.081 202.251 203.017 201.912 196.582 200.837L196.572 157.959ZM211.678 174.857H216.689C217.977 174.857 219.535 172.771 219.535 171.089C219.535 168.259 217.706 166.78 214.251 166.78C213.776 166.78 212.627 166.846 211.678 166.915V174.857ZM211.678 191.349C212.461 191.48 213.254 191.549 214.048 191.556C218.586 191.556 220.347 190.344 220.347 187.181C220.347 184.488 217.977 182.804 214.116 182.804H211.678V191.349Z" fill="black"/>
<path d="M275.55 187.311V189.194C275.618 191.755 276.636 192.764 279.279 192.764L277.52 201.176C275.423 201.974 273.193 202.363 270.949 202.322C265.936 202.322 263.158 200.841 261.669 197.207C258.621 200.706 255.1 202.322 250.493 202.322C245.819 202.322 241.62 200.236 239.994 197.072C238.91 195.053 238.573 192.832 238.573 188.051V168.932H253.882V185.426C253.882 188.254 254.692 189.263 256.792 189.263C258.147 189.263 259.027 188.792 260.245 187.514V168.932H275.554L275.55 187.311Z" fill="black"/>
<path d="M313.346 173.78L301.086 190.139H314.429L312.668 201.176H281.512L279.818 196.128L292.011 179.771H281.309V168.934H311.382L313.346 173.78Z" fill="black"/>
<path d="M349.246 173.78L336.986 190.139H350.329L348.569 201.176H317.41L315.718 196.128L327.911 179.771H317.207V168.934H347.282L349.246 173.78Z" fill="black"/>
<path d="M368.685 157.019H352.362V201.178H368.685V157.019Z" fill="black"/>
<path d="M401.062 179.771H391.172V184.417C391.172 188.792 392.324 190.205 395.982 190.205C397.47 190.205 398.827 189.938 401.331 189.194L403.771 198.686C399.504 201.11 394.899 202.255 389.751 202.255C380.267 202.255 376.474 198.485 376.474 189.194V179.771H370.581V170.279C377.692 169.473 382.095 165.769 384.601 158.566H391.172V168.924H401.062V179.771Z" fill="black"/>
<path d="M401.041 160.909C401.046 161.374 400.912 161.83 400.657 162.218C400.402 162.607 400.037 162.911 399.609 163.091C399.181 163.272 398.708 163.321 398.252 163.232C397.796 163.143 397.376 162.92 397.047 162.591C396.718 162.263 396.494 161.844 396.404 161.388C396.314 160.932 396.361 160.46 396.541 160.031C396.72 159.602 397.023 159.236 397.411 158.98C397.799 158.724 398.254 158.59 398.719 158.593C399.025 158.587 399.329 158.643 399.613 158.757C399.897 158.872 400.155 159.042 400.372 159.258C400.588 159.474 400.759 159.732 400.874 160.015C400.989 160.299 401.046 160.603 401.041 160.909ZM400.658 160.909C400.665 160.651 400.62 160.393 400.525 160.153C400.429 159.912 400.286 159.694 400.104 159.51C399.922 159.327 399.704 159.182 399.464 159.085C399.224 158.989 398.967 158.942 398.708 158.947C398.448 158.943 398.189 158.991 397.948 159.088C397.706 159.186 397.487 159.331 397.303 159.516C397.119 159.701 396.975 159.921 396.878 160.162C396.781 160.404 396.735 160.663 396.74 160.924C396.733 161.186 396.778 161.448 396.874 161.692C396.969 161.937 397.113 162.16 397.296 162.348C397.48 162.536 397.699 162.685 397.941 162.787C398.184 162.889 398.444 162.94 398.707 162.939C398.969 162.938 399.229 162.885 399.471 162.781C399.712 162.678 399.93 162.527 400.112 162.338C400.294 162.148 400.436 161.924 400.53 161.679C400.624 161.433 400.667 161.172 400.658 160.909ZM399.384 161.324L399.968 162.218H399.398L398.88 161.423H398.29V162.218H397.72V159.617H398.808C399.498 159.617 399.908 159.975 399.908 160.526C399.918 160.699 399.873 160.871 399.778 161.016C399.684 161.161 399.546 161.273 399.384 161.334V161.324ZM398.775 160.98C399.146 160.98 399.359 160.806 399.359 160.516C399.359 160.226 399.152 160.058 398.775 160.058H398.284V160.98H398.775Z" fill="black"/>
<path d="M205.442 205.798C208.007 205.798 210.015 206.465 211.466 207.799C212.918 209.133 213.644 210.975 213.646 213.324C213.646 215.672 212.919 217.51 211.466 218.84C210.014 220.17 208.006 220.837 205.442 220.839C202.886 220.839 200.88 220.173 199.425 218.84C197.969 217.508 197.239 215.669 197.235 213.324C197.235 210.976 197.963 209.134 199.42 207.799C200.877 206.464 202.885 205.796 205.442 205.798ZM205.442 208.518C204.188 208.518 203.216 208.938 202.526 209.779C201.835 210.62 201.49 211.805 201.49 213.334C201.49 214.853 201.835 216.035 202.526 216.879C203.216 217.722 204.188 218.14 205.442 218.13C206.703 218.13 207.679 217.709 208.369 216.868C209.06 216.027 209.405 214.846 209.405 213.324C209.405 211.796 209.06 210.611 208.369 209.769C207.679 208.927 206.703 208.51 205.442 208.518Z" fill="#231F20" stroke="#231F20" stroke-width="4" stroke-miterlimit="10"/>
<path d="M217.414 209.682H221.143L223.15 217.179L225.168 209.682H228.362L230.371 217.1L232.373 209.682H236.101L232.951 220.558H228.768L226.75 213.075L224.741 220.552H220.565L217.414 209.682Z" fill="#231F20" stroke="#231F20" stroke-width="4" stroke-miterlimit="10"/>
<path d="M252.622 213.935V220.564H248.777V215.489C248.79 214.841 248.767 214.193 248.707 213.548C248.686 213.271 248.604 213.002 248.467 212.76C248.315 212.533 248.105 212.35 247.858 212.232C247.585 212.102 247.286 212.036 246.983 212.042C246.626 212.025 246.27 212.093 245.943 212.239C245.616 212.385 245.329 212.605 245.102 212.883C244.647 213.442 244.419 214.217 244.419 215.207V220.558H240.595V209.682H244.419V211.275C244.932 210.69 245.556 210.213 246.256 209.873C246.93 209.566 247.662 209.411 248.402 209.421C249.783 209.421 250.832 209.806 251.549 210.575C252.266 211.344 252.624 212.464 252.622 213.935Z" fill="#231F20" stroke="#231F20" stroke-width="4" stroke-miterlimit="10"/>
<path d="M265.862 206.061H280.57V208.887H275.271V220.558H271.159V208.887H265.862V206.061Z" fill="#231F20" stroke="#231F20" stroke-width="4" stroke-miterlimit="10"/>
<path d="M296.444 213.935V220.564H292.599V215.509C292.611 214.855 292.587 214.2 292.529 213.548C292.508 213.271 292.426 213.002 292.288 212.76C292.137 212.532 291.926 212.35 291.679 212.232C291.406 212.102 291.106 212.036 290.803 212.042C290.446 212.024 290.09 212.092 289.763 212.238C289.437 212.384 289.149 212.605 288.924 212.883C288.468 213.442 288.241 214.217 288.241 215.207V220.558H284.417V205.448H288.241V211.275C288.753 210.689 289.378 210.212 290.078 209.873C290.751 209.565 291.484 209.411 292.224 209.421C293.605 209.421 294.654 209.806 295.371 210.575C296.088 211.344 296.445 212.464 296.444 213.935Z" fill="#231F20" stroke="#231F20" stroke-width="4" stroke-miterlimit="10"/>
<path d="M313.835 215.091V216.081H304.894C304.986 216.897 305.31 217.509 305.865 217.916C306.423 218.331 307.197 218.538 308.196 218.538C309.03 218.534 309.861 218.424 310.667 218.211C311.566 217.974 312.438 217.644 313.269 217.227V219.905C312.385 220.211 311.477 220.447 310.555 220.609C309.659 220.768 308.751 220.848 307.842 220.848C305.678 220.848 303.995 220.348 302.795 219.348C301.595 218.348 300.995 216.945 300.995 215.138C300.995 213.365 301.585 211.97 302.764 210.954C303.944 209.937 305.565 209.429 307.628 209.429C309.509 209.429 311.014 209.944 312.142 210.973C313.27 212.001 313.835 213.374 313.835 215.091ZM309.899 213.935C309.91 213.639 309.86 213.344 309.75 213.069C309.641 212.794 309.475 212.545 309.263 212.338C308.812 211.924 308.216 211.706 307.605 211.731C306.956 211.702 306.317 211.903 305.801 212.298C305.317 212.716 305.008 213.3 304.935 213.935H309.899Z" fill="#231F20" stroke="#231F20" stroke-width="4" stroke-miterlimit="10"/>
<path d="M328.323 206.061H339.42V208.887H332.429V211.58H338.998V214.405H332.429V217.72H339.65V220.545H328.317L328.323 206.061Z" fill="#231F20" stroke="#231F20" stroke-width="4" stroke-miterlimit="10"/>
<path d="M343.493 209.682H347.315L350.296 217.198L353.267 209.682H357.101L352.391 220.558H348.191L343.493 209.682Z" fill="#231F20" stroke="#231F20" stroke-width="4" stroke-miterlimit="10"/>
<path d="M373.104 215.091V216.081H364.163C364.254 216.897 364.578 217.509 365.135 217.916C365.691 218.324 366.468 218.531 367.463 218.538C368.298 218.534 369.129 218.424 369.937 218.211C370.835 217.974 371.707 217.644 372.537 217.227V219.905C371.652 220.212 370.745 220.447 369.823 220.609C368.928 220.768 368.02 220.848 367.111 220.848C364.946 220.848 363.264 220.348 362.065 219.348C360.866 218.348 360.266 216.945 360.265 215.138C360.265 213.365 360.854 211.97 362.032 210.954C363.21 209.937 364.832 209.429 366.898 209.429C368.776 209.429 370.28 209.944 371.41 210.973C372.539 212.001 373.104 213.374 373.104 215.091ZM369.168 213.935C369.18 213.639 369.13 213.344 369.02 213.069C368.911 212.793 368.744 212.544 368.532 212.338C368.309 212.133 368.048 211.973 367.764 211.869C367.48 211.765 367.178 211.718 366.875 211.731C366.226 211.702 365.587 211.903 365.071 212.298C364.587 212.716 364.278 213.3 364.205 213.935H369.168Z" fill="#231F20" stroke="#231F20" stroke-width="4" stroke-miterlimit="10"/>
<path d="M389.927 213.935V220.564H386.082V215.489C386.094 214.841 386.072 214.193 386.014 213.548C385.993 213.271 385.911 213.002 385.774 212.76C385.622 212.533 385.412 212.35 385.165 212.232C384.891 212.102 384.591 212.037 384.288 212.042C383.931 212.025 383.575 212.093 383.248 212.239C382.921 212.385 382.634 212.605 382.407 212.883C381.952 213.442 381.725 214.217 381.726 215.207V220.558H377.902V209.682H381.732V211.275C382.244 210.69 382.868 210.213 383.568 209.873C384.242 209.566 384.975 209.411 385.716 209.421C387.097 209.421 388.145 209.806 388.86 210.575C389.576 211.344 389.931 212.464 389.927 213.935Z" fill="#231F20" stroke="#231F20" stroke-width="4" stroke-miterlimit="10"/>
<path d="M399.548 206.595V209.682H403.484V212.168H399.548V216.781C399.548 217.287 399.657 217.627 399.879 217.805C400.101 217.983 400.538 218.072 401.192 218.072H403.158V220.558H399.879C398.368 220.558 397.299 220.271 396.67 219.698C396.042 219.125 395.726 218.153 395.723 216.781V212.168H393.822V209.682H395.723V206.595H399.548Z" fill="#231F20" stroke="#231F20" stroke-width="4" stroke-miterlimit="10"/>
</svg>
