<svg width="701" height="513" viewBox="0 0 701 513" fill="none" xmlns="http://www.w3.org/2000/svg">
<rect x="0.907471" y="0.908691" width="700" height="511.538" fill="#2A3950"/>
<rect x="200.907" y="207.598" width="300" height="98.1601" fill="#2A3950"/>
<g clip-path="url(#clip0_466_3775)">
<path d="M281.999 290.772C275.835 296.938 265.842 296.938 259.678 290.772C259.582 290.676 259.487 290.577 259.391 290.481L245.624 276.697L245.52 276.597L239.372 270.443C238.863 269.934 238.394 269.396 237.968 268.835C233.28 262.681 233.713 253.864 239.281 248.2C240.434 247.03 242.323 246.847 243.595 247.886C245.063 249.092 245.146 251.261 243.834 252.571C243.627 252.782 243.432 252.997 243.245 253.219C243.182 253.299 243.118 253.375 243.059 253.458C242.506 254.163 242.068 254.931 241.746 255.731C241.647 255.978 241.559 256.225 241.484 256.476C241.472 256.507 241.46 256.539 241.452 256.575C241.388 256.794 241.333 257.013 241.285 257.236C241.237 257.459 241.193 257.686 241.158 257.912C241.114 258.215 241.086 258.518 241.074 258.82C241.066 258.912 241.066 259.007 241.066 259.103C241.066 259.158 241.062 259.218 241.062 259.274C241.062 259.334 241.066 259.393 241.066 259.449C241.066 259.545 241.066 259.636 241.074 259.728C241.074 259.763 241.078 259.799 241.078 259.835C241.078 259.847 241.078 259.863 241.082 259.879C241.086 259.978 241.094 260.078 241.106 260.181C241.11 260.257 241.122 260.329 241.13 260.404C241.142 260.48 241.15 260.556 241.158 260.635C241.178 260.755 241.197 260.87 241.217 260.989C241.225 261.021 241.229 261.053 241.233 261.085C241.253 261.18 241.277 261.276 241.297 261.376C241.309 261.427 241.321 261.479 241.333 261.531C241.349 261.602 241.372 261.674 241.392 261.746C241.412 261.821 241.428 261.897 241.452 261.973C241.48 262.064 241.512 262.16 241.543 262.251C241.559 262.303 241.575 262.355 241.591 262.407C241.631 262.518 241.671 262.625 241.714 262.733C241.73 262.769 241.742 262.805 241.754 262.84C241.798 262.948 241.85 263.059 241.897 263.167C241.913 263.199 241.925 263.23 241.937 263.262C241.997 263.39 242.06 263.513 242.12 263.636C242.128 263.648 242.136 263.664 242.144 263.68C242.283 263.943 242.434 264.198 242.597 264.449C242.605 264.464 242.613 264.476 242.621 264.488C242.685 264.584 242.752 264.679 242.82 264.771C242.844 264.807 242.868 264.843 242.892 264.878C243.063 265.109 243.245 265.336 243.44 265.555C243.46 265.575 243.48 265.599 243.5 265.623C243.595 265.726 243.695 265.83 243.794 265.933C243.81 265.945 243.822 265.961 243.834 265.973C243.834 265.973 243.866 266.005 243.882 266.021L253.283 275.431L264.144 286.302C269.417 291.58 279.355 289.331 280.655 279.559C280.918 277.596 280.25 275.618 278.85 274.217L273.473 268.835L268.606 263.963C268.606 263.963 268.598 263.955 268.578 263.935C268.558 263.915 268.542 263.899 268.522 263.879C267.687 263 267.389 261.734 267.735 260.56C268.26 258.792 268.57 256.949 268.649 255.066C269.019 255.437 269.329 255.751 269.588 256.006L269.715 256.133C269.755 256.177 269.795 256.213 269.83 256.253C269.906 256.324 269.974 256.392 270.033 256.452C270.097 256.515 270.157 256.575 270.2 256.623C270.264 256.686 270.618 257.041 270.618 257.041L281.709 268.142L281.999 268.429C288.16 274.599 288.16 284.602 281.999 290.772V290.772Z" fill="#FA0476"/>
<path d="M281.904 244.913C281.808 245.009 281.709 245.104 281.614 245.2L270.2 256.624C270.156 256.576 270.097 256.516 270.033 256.453C269.973 256.393 269.906 256.325 269.83 256.254C269.795 256.214 269.755 256.178 269.715 256.134L269.588 256.007C269.329 255.752 269.019 255.438 268.649 255.067C268.657 254.793 268.669 254.522 268.673 254.247V254.092C268.677 253.117 268.613 252.158 268.494 251.214C268.363 250.187 268.729 249.16 269.46 248.428L277.438 240.443C282.449 235.428 280.671 226.201 272.109 224.175C269.457 223.546 266.669 224.417 264.74 226.348L259.415 231.682C258.85 232.247 258.103 232.534 257.359 232.534C256.659 232.534 255.959 232.283 255.402 231.777C253.971 230.476 253.919 228.243 255.283 226.877L259.296 222.861L259.582 222.57C265.746 216.405 275.74 216.405 281.904 222.57C288.064 228.74 288.064 238.743 281.904 244.913V244.913Z" fill="#6ED29D"/>
<path d="M268.549 254.968C268.581 255 268.613 255.032 268.646 255.064C268.613 255.032 268.581 255 268.549 254.968Z" fill="#3D9546"/>
<path d="M256.563 265.153C255.413 266.323 253.521 266.502 252.252 265.463C250.78 264.261 250.701 262.088 252.009 260.778C252.216 260.567 252.411 260.352 252.598 260.13C252.662 260.05 252.725 259.974 252.785 259.891C253.338 259.186 253.775 258.418 254.097 257.618C254.197 257.371 254.284 257.124 254.36 256.873C254.372 256.842 254.383 256.81 254.391 256.774C254.455 256.555 254.511 256.336 254.558 256.113C254.606 255.89 254.65 255.663 254.686 255.436C254.729 255.134 254.757 254.831 254.769 254.529C254.777 254.437 254.777 254.342 254.777 254.246C254.777 254.191 254.781 254.131 254.781 254.075C254.781 254.015 254.777 253.956 254.777 253.9C254.777 253.804 254.777 253.713 254.769 253.621C254.769 253.586 254.765 253.55 254.765 253.514C254.765 253.502 254.765 253.486 254.765 253.47C254.761 253.371 254.753 253.271 254.741 253.168C254.737 253.092 254.725 253.02 254.718 252.945C254.706 252.869 254.698 252.793 254.69 252.714C254.67 252.594 254.65 252.479 254.63 252.36C254.622 252.328 254.618 252.296 254.614 252.264C254.594 252.168 254.57 252.073 254.551 251.973C254.539 251.922 254.527 251.87 254.515 251.818C254.499 251.747 254.475 251.675 254.455 251.603C254.435 251.528 254.419 251.452 254.395 251.376C254.368 251.285 254.336 251.189 254.304 251.098C254.288 251.046 254.272 250.994 254.256 250.942C254.216 250.831 254.177 250.724 254.133 250.616C254.117 250.58 254.105 250.544 254.093 250.509C254.049 250.401 253.998 250.29 253.95 250.182C253.934 250.15 253.922 250.119 253.91 250.087C253.851 249.959 253.787 249.836 253.727 249.713C253.719 249.701 253.711 249.685 253.703 249.669C253.564 249.406 253.413 249.151 253.25 248.9C253.242 248.885 253.234 248.873 253.226 248.861C253.163 248.765 253.095 248.67 253.027 248.578C253.004 248.542 252.98 248.506 252.956 248.471C252.785 248.24 252.602 248.013 252.407 247.794C252.387 247.774 252.367 247.75 252.347 247.726C252.252 247.623 252.152 247.519 252.053 247.416C252.037 247.404 252.025 247.388 252.013 247.376C252.013 247.376 251.981 247.344 251.966 247.328L242.568 237.922L242.489 237.843L231.704 227.047C226.431 221.769 216.492 224.018 215.192 233.79C214.93 235.753 215.598 237.731 216.998 239.132L227.242 249.386L227.274 249.418C228.152 250.298 228.471 251.595 228.117 252.789C227.592 254.557 227.282 256.4 227.202 258.283C227.111 258.191 227.019 258.099 226.936 258.02C226.848 257.932 226.769 257.849 226.689 257.773C226.534 257.614 226.391 257.471 226.263 257.343C226.172 257.256 226.092 257.176 226.017 257.1C225.981 257.061 225.945 257.025 225.914 256.993C225.878 256.961 225.846 256.929 225.818 256.897C225.754 256.834 225.695 256.774 225.647 256.73C225.583 256.662 225.23 256.308 225.23 256.308L214.138 245.207L213.848 244.92C207.684 238.75 207.684 228.747 213.844 222.577C220.008 216.411 230.002 216.411 236.166 222.577C236.261 222.673 236.357 222.772 236.452 222.868L256.471 242.906C256.98 243.415 257.45 243.953 257.875 244.514C262.568 250.672 262.13 259.489 256.563 265.153V265.153Z" fill="#FDB800"/>
<path d="M240.561 286.477L236.552 290.49L236.266 290.78C230.102 296.946 220.108 296.946 213.944 290.78C207.784 284.611 207.784 274.607 213.944 268.438C214.039 268.342 214.139 268.247 214.234 268.151L225.644 256.731C225.692 256.775 225.751 256.834 225.815 256.898C225.843 256.93 225.874 256.962 225.91 256.994C225.942 257.026 225.978 257.061 226.014 257.101C226.089 257.177 226.169 257.256 226.26 257.344C226.387 257.471 226.531 257.615 226.686 257.774L226.932 258.021C227.016 258.104 227.107 258.196 227.199 258.287C227.187 258.558 227.175 258.829 227.175 259.103V259.259C227.171 260.234 227.235 261.193 227.354 262.137C227.485 263.163 227.119 264.19 226.387 264.923L218.41 272.908C213.399 277.923 215.173 287.15 223.735 289.18C226.391 289.805 229.175 288.937 231.104 287.007L236.433 281.673C236.998 281.108 237.745 280.821 238.489 280.821C239.189 280.821 239.889 281.072 240.445 281.577C241.873 282.875 241.929 285.108 240.561 286.477V286.477Z" fill="#A361FF"/>
<path d="M227.296 258.383C227.264 258.351 227.231 258.319 227.199 258.287C227.231 258.319 227.264 258.351 227.296 258.383Z" fill="#3D9546"/>
<path d="M235.24 283.972C235.24 285.715 236.652 287.132 238.398 287.132C240.143 287.132 241.555 285.719 241.555 283.972C241.555 282.224 240.143 280.811 238.398 280.811C236.656 280.811 235.24 282.224 235.24 283.972Z" stroke="#706F6F" stroke-width="0.75" stroke-miterlimit="10"/>
</g>
<path d="M317.249 239.039C320.308 239.039 322.677 239.686 324.357 240.979C326.038 242.229 327.201 243.932 327.847 246.088C328.536 248.201 328.881 250.572 328.881 253.202V270.534C328.881 271.482 328.558 272.28 327.912 272.926C327.308 273.53 326.555 273.832 325.65 273.832C324.702 273.832 323.927 273.53 323.324 272.926C322.72 272.28 322.419 271.482 322.419 270.534V253.267C322.419 251.714 322.203 250.335 321.773 249.128C321.342 247.877 320.588 246.886 319.511 246.153C318.477 245.377 317.012 244.989 315.117 244.989C313.351 244.989 311.8 245.377 310.464 246.153C309.129 246.886 308.073 247.877 307.298 249.128C306.565 250.335 306.199 251.714 306.199 253.267V270.534C306.199 271.482 305.876 272.28 305.23 272.926C304.627 273.53 303.873 273.832 302.968 273.832C302.021 273.832 301.245 273.53 300.642 272.926C300.039 272.28 299.737 271.482 299.737 270.534V243.113C299.737 242.165 300.039 241.389 300.642 240.785C301.245 240.138 302.021 239.815 302.968 239.815C303.873 239.815 304.627 240.138 305.23 240.785C305.876 241.389 306.199 242.165 306.199 243.113V246.735L305.036 247.382C305.338 246.433 305.855 245.485 306.587 244.536C307.362 243.544 308.289 242.639 309.366 241.82C310.443 240.958 311.649 240.289 312.984 239.815C314.32 239.298 315.741 239.039 317.249 239.039Z" fill="white"/>
<path d="M352.402 274.185C348.827 274.185 345.725 273.453 343.097 271.987C340.469 270.478 338.423 268.43 336.958 265.843C335.537 263.213 334.826 260.217 334.826 256.854C334.826 253.06 335.58 249.826 337.087 247.153C338.638 244.437 340.641 242.368 343.097 240.945C345.553 239.479 348.159 238.746 350.916 238.746C353.027 238.746 355.03 239.177 356.926 240.04C358.821 240.859 360.501 242.023 361.966 243.532C363.474 244.998 364.659 246.744 365.52 248.77C366.382 250.753 366.834 252.93 366.877 255.302C366.834 256.164 366.489 256.875 365.843 257.436C365.197 257.996 364.443 258.277 363.582 258.277H338.444L336.894 252.78H361.191L359.963 253.944V252.327C359.877 250.818 359.381 249.503 358.477 248.382C357.572 247.218 356.452 246.334 355.116 245.731C353.781 245.084 352.381 244.76 350.916 244.76C349.624 244.76 348.374 244.976 347.168 245.407C346.005 245.795 344.949 246.442 344.002 247.347C343.097 248.253 342.365 249.46 341.805 250.969C341.288 252.435 341.029 254.267 341.029 256.466C341.029 258.837 341.525 260.906 342.515 262.674C343.506 264.442 344.842 265.821 346.522 266.813C348.202 267.762 350.054 268.236 352.079 268.236C353.673 268.236 354.987 268.085 356.021 267.783C357.055 267.438 357.917 267.029 358.606 266.554C359.295 266.08 359.898 265.627 360.415 265.196C361.061 264.808 361.708 264.614 362.354 264.614C363.129 264.614 363.775 264.895 364.292 265.455C364.809 265.972 365.068 266.597 365.068 267.33C365.068 268.279 364.594 269.141 363.646 269.917C362.483 271.038 360.868 272.03 358.8 272.892C356.775 273.754 354.642 274.185 352.402 274.185Z" fill="white"/>
<path d="M376.134 239.333C377.211 239.333 378.095 239.785 378.784 240.691L400.819 268.499C401.293 269.059 401.53 269.706 401.53 270.439C401.53 271.301 401.185 272.056 400.496 272.702C399.807 273.349 399.053 273.673 398.234 273.673C397.201 273.673 396.317 273.22 395.585 272.314L373.55 244.506C373.076 243.946 372.839 243.299 372.839 242.566C372.839 241.661 373.162 240.906 373.808 240.303C374.497 239.656 375.273 239.333 376.134 239.333ZM376.199 273.673C375.467 273.673 374.756 273.392 374.067 272.832C373.377 272.271 373.033 271.581 373.033 270.762C373.033 270.029 373.291 269.361 373.808 268.758L384.083 256.017L387.378 261.32L378.784 272.314C378.095 273.22 377.233 273.673 376.199 273.673ZM398.17 239.333C399.075 239.333 399.807 239.634 400.367 240.238C400.97 240.798 401.272 241.467 401.272 242.243C401.272 242.588 401.207 242.954 401.078 243.342C400.992 243.687 400.798 244.01 400.496 244.312L390.351 257.052L386.991 252.267L395.585 240.82C396.317 239.828 397.179 239.333 398.17 239.333Z" fill="white"/>
<path d="M432.81 239.039C433.714 239.039 434.468 239.362 435.071 240.009C435.717 240.613 436.041 241.389 436.041 242.337V259.346C436.041 263.829 434.791 267.343 432.293 269.887C429.794 272.387 426.261 273.638 421.695 273.638C417.171 273.638 413.66 272.387 411.162 269.887C408.706 267.343 407.479 263.829 407.479 259.346V242.337C407.479 241.389 407.78 240.613 408.383 240.009C408.986 239.362 409.762 239.039 410.71 239.039C411.614 239.039 412.368 239.362 412.971 240.009C413.617 240.613 413.941 241.389 413.941 242.337V259.346C413.941 262.148 414.587 264.239 415.879 265.619C417.215 266.998 419.153 267.688 421.695 267.688C424.28 267.688 426.24 266.998 427.575 265.619C428.911 264.239 429.579 262.148 429.579 259.346V242.337C429.579 241.389 429.88 240.613 430.483 240.009C431.086 239.362 431.862 239.039 432.81 239.039Z" fill="white"/>
<path d="M459.194 239.039C462.382 239.039 464.838 239.837 466.561 241.432C468.284 242.984 469.426 245.097 469.986 247.77L468.952 247.446L469.404 246.411C469.964 245.291 470.804 244.17 471.924 243.049C473.087 241.885 474.466 240.936 476.06 240.203C477.654 239.427 479.356 239.039 481.165 239.039C484.137 239.039 486.442 239.686 488.079 240.979C489.716 242.229 490.858 243.932 491.504 246.088C492.15 248.201 492.473 250.572 492.473 253.202V270.34C492.473 271.288 492.172 272.086 491.569 272.732C490.966 273.336 490.19 273.638 489.242 273.638C488.338 273.638 487.562 273.336 486.916 272.732C486.313 272.086 486.011 271.288 486.011 270.34V253.267C486.011 251.758 485.796 250.378 485.365 249.128C484.977 247.877 484.267 246.886 483.233 246.153C482.242 245.377 480.863 244.989 479.097 244.989C477.417 244.989 475.909 245.377 474.574 246.153C473.281 246.886 472.269 247.877 471.537 249.128C470.804 250.378 470.438 251.758 470.438 253.267V270.34C470.438 271.288 470.136 272.086 469.533 272.732C468.93 273.336 468.155 273.638 467.207 273.638C466.259 273.638 465.484 273.336 464.881 272.732C464.278 272.086 463.976 271.288 463.976 270.34V253.202C463.976 251.693 463.761 250.313 463.33 249.063C462.942 247.813 462.253 246.821 461.262 246.088C460.271 245.355 458.893 244.989 457.126 244.989C455.446 244.989 453.96 245.355 452.668 246.088C451.375 246.821 450.363 247.813 449.63 249.063C448.941 250.313 448.597 251.693 448.597 253.202V270.34C448.597 271.288 448.273 272.086 447.627 272.732C447.024 273.336 446.27 273.638 445.366 273.638C444.418 273.638 443.642 273.336 443.039 272.732C442.436 272.086 442.135 271.288 442.135 270.34V242.919C442.135 241.971 442.436 241.195 443.039 240.591C443.642 239.944 444.418 239.621 445.366 239.621C446.27 239.621 447.024 239.944 447.627 240.591C448.273 241.195 448.597 241.971 448.597 242.919V246.735L447.369 247.446C447.67 246.498 448.166 245.528 448.855 244.536C449.544 243.544 450.406 242.639 451.44 241.82C452.517 241.001 453.701 240.332 454.994 239.815C456.286 239.298 457.686 239.039 459.194 239.039Z" fill="white"/>
<defs>
<clipPath id="clip0_466_3775">
<rect width="77.7903" height="77.8511" fill="white" transform="translate(209.024 217.753)"/>
</clipPath>
</defs>
</svg>
