<svg width="700" height="513" viewBox="0 0 700 513" fill="none" xmlns="http://www.w3.org/2000/svg">
<rect y="0.817383" width="700" height="511.538" fill="#F9F5EE"/>
<g clip-path="url(#clip0_466_3752)">
<path d="M294.674 331.768C293.862 331.768 293.063 331.458 292.457 330.916C291.979 330.478 291.644 329.936 291.489 329.342C290.78 329.226 290.11 328.865 289.607 328.336C289.001 327.69 288.678 326.865 288.704 326L288.781 323.82L288.382 323.794C286.757 323.703 285.429 322.336 285.429 320.723L285.351 242.645L279.884 191.355C279.794 190.49 280.065 189.652 280.632 189.058C281.161 188.503 281.87 188.232 282.618 188.284L285.287 188.452V184.194C285.287 183.394 285.596 182.632 286.151 182.103C286.667 181.613 287.337 181.368 288.034 181.419L369.039 186.219L403.675 181.884C404.977 181.716 406.267 182.09 407.286 182.929C408.382 183.819 409.078 185.187 409.194 186.684L409.4 189.445C409.581 189.574 409.761 189.729 409.929 189.884C410.948 190.877 411.541 192.297 411.528 193.794V196.903C413.101 197.806 414.146 199.613 414.068 201.677L412.869 234.581L418.891 312.865L420.077 321.213C420.181 321.923 420.039 322.658 419.691 323.29L420.039 327.794C420.116 328.723 419.768 329.665 419.11 330.361C418.44 331.071 417.511 331.471 416.557 331.471C416.544 331.471 416.518 331.471 416.506 331.471L323.262 329.923L294.868 331.781C294.803 331.781 294.726 331.781 294.662 331.781L294.674 331.768ZM292.031 329.381C292.173 329.82 292.444 330.207 292.792 330.529C293.346 331.032 294.094 331.303 294.842 331.252L316.996 329.807L292.018 329.394L292.031 329.381ZM329.516 329.484L416.518 330.929C417.369 330.955 418.169 330.594 418.749 329.974C419.304 329.381 419.6 328.581 419.536 327.794L419.239 323.91C418.582 324.645 417.653 325.071 416.673 325.084L411.012 325.174V326.594C411.012 327.523 410.625 328.387 409.929 329.032C409.233 329.69 408.304 330.039 407.35 329.987L359.6 327.484L329.504 329.458L329.516 329.484ZM363.972 327.226L407.389 329.497C408.188 329.536 408.988 329.239 409.581 328.684C410.161 328.129 410.496 327.394 410.496 326.607V325.187L389.671 325.536L363.972 327.213V327.226ZM291.902 328.865C291.902 328.865 291.954 328.865 291.979 328.865L323.262 329.381L355.255 327.29L338.298 326.4L297.55 327.071C297.55 327.071 297.511 327.071 297.498 327.071C295.758 327.071 294.262 325.781 294.017 324.078L291.696 323.961L291.876 328.632C291.876 328.71 291.876 328.787 291.902 328.865ZM289.284 323.832L289.207 326C289.181 326.723 289.452 327.419 289.968 327.974C290.355 328.374 290.845 328.658 291.386 328.787C291.386 328.736 291.386 328.697 291.386 328.645L291.206 323.936L289.31 323.832H289.284ZM345.738 326.271L359.6 326.994L379.149 325.716L345.738 326.271ZM294.533 324.103C294.778 325.497 296.041 326.555 297.486 326.555C297.498 326.555 297.524 326.555 297.537 326.555L330.845 326L294.533 324.103ZM294.468 323.587L338.298 325.884L389.645 325.032L406.422 323.936C407.93 323.832 409.143 322.594 409.194 321.123L410.664 280.71L410.754 259.316L401.792 196.31L334.468 192.065L322.399 192.568L294.12 196.103L290.651 287.729L294.468 323.587ZM410.613 296.49L409.71 321.136C409.645 322.878 408.214 324.336 406.46 324.452L400.168 324.865L410.509 324.697L410.625 296.503L410.613 296.49ZM411.193 280.71L411.012 324.671L416.66 324.581C417.511 324.568 418.337 324.181 418.891 323.523C418.994 323.407 419.085 323.278 419.162 323.149L418.375 312.89L411.722 266.078L411.193 280.723V280.71ZM291.67 323.445L293.952 323.561L290.522 291.29L290.458 292.865L291.67 323.432V323.445ZM289.297 323.316L291.154 323.419L290.2 299.484L289.297 323.316ZM285.841 247.497L285.919 320.723C285.919 322.065 287.028 323.213 288.382 323.278L288.781 323.303L289.929 292.89L289.491 281.794L285.841 247.51V247.497ZM419.484 320.761L419.575 321.897C419.587 321.69 419.587 321.471 419.562 321.265L419.497 320.774L419.484 320.761ZM411.812 263.174L417.756 304.968L412.689 239.097L411.812 263.174ZM289.994 281.755L290.252 284.181L293.578 196.181L288.524 196.813C287.44 196.955 286.654 197.936 286.705 199.123L289.994 281.755ZM285.829 242.619L289.181 274.078L286.203 199.148C286.151 197.703 287.118 196.477 288.472 196.31L293.604 195.665C293.72 194.284 294.765 193.226 296.093 193.174L322.334 192.077L326.37 191.574L285.764 189.006L285.816 242.632L285.829 242.619ZM411.244 262.826V264.929L411.296 263.2L411.244 262.813V262.826ZM411.257 259.277L411.399 260.31L412.34 234.568L411.399 222.374L411.257 259.277ZM402.308 196.336L410.754 255.768L410.909 216.026L409.426 196.787L402.295 196.336H402.308ZM282.45 188.774C281.896 188.774 281.393 188.994 281.006 189.394C280.542 189.884 280.322 190.568 280.4 191.277L285.351 237.742L285.3 188.955L282.592 188.787C282.592 188.787 282.502 188.787 282.463 188.787L282.45 188.774ZM411.464 216L412.547 230.026L413.578 201.626C413.643 199.871 412.83 198.336 411.541 197.484L411.464 216.013V216ZM409.994 196.852L410.974 209.665L411.025 197.187C410.703 197.032 410.355 196.916 409.994 196.852ZM409.955 196.323C410.329 196.387 410.69 196.49 411.038 196.632V193.768C411.051 192.413 410.522 191.123 409.607 190.232C409.568 190.194 409.529 190.155 409.491 190.116L409.968 196.323H409.955ZM402.27 195.819L409.439 196.271L408.936 189.703C408.201 189.226 407.363 188.994 406.473 189.032L400.31 189.29C401.083 190.065 401.612 191.123 401.78 192.323L402.282 195.819H402.27ZM339.394 191.858L401.754 195.794L401.277 192.4C401.096 191.136 400.477 190.052 399.575 189.329L339.394 191.858ZM316.209 192.826L296.157 193.665C295.139 193.703 294.313 194.516 294.172 195.587L316.209 192.826ZM329.155 191.716L328.588 191.794L329.607 191.755L329.155 191.729V191.716ZM331.889 191.368L334.507 191.536L398.827 188.839C398.311 188.581 397.743 188.413 397.137 188.374L369.078 186.71L331.889 191.368ZM285.803 188.465L329.143 191.2L366.28 186.555L288.021 181.923C287.453 181.897 286.925 182.09 286.512 182.477C286.061 182.903 285.803 183.535 285.803 184.194V188.477V188.465ZM406.641 188.516C407.428 188.516 408.188 188.71 408.885 189.084L408.704 186.71C408.601 185.342 407.982 184.142 406.989 183.316C406.074 182.568 404.926 182.232 403.765 182.387L371.876 186.387L397.176 187.884C398.13 187.935 399.007 188.271 399.742 188.813L406.447 188.529C406.512 188.529 406.589 188.529 406.654 188.529L406.641 188.516Z" fill="#EE6352"/>
<path d="M274.765 228.349C274.765 228.349 258.865 219.626 250.922 219.626C242.979 219.626 230.664 224.413 230.664 238.181C230.664 256.568 271.167 261.703 271.167 274.103C271.167 283.755 262.45 287.355 252.714 287.355C238.865 287.355 235.126 265.962 230.664 261.51C227.801 258.645 224.668 257.097 222.115 256.374C220.567 255.936 219.368 257.768 220.374 259.032C223.03 262.374 224.41 266.568 224.242 270.839C224.062 275.678 224.062 281.136 225.493 281.136C231.696 281.136 236.312 289.923 250.922 289.923C264.513 289.923 276.815 279.807 276.815 270.762C276.815 250.426 234.765 249.394 234.765 231.432C234.765 224.761 244.5 221.084 250.922 221.084C260.413 221.084 268.201 232.284 270.148 235.02C272.714 238.607 272.199 242.71 272.199 243.226C272.199 243.742 273.23 243.226 273.23 241.174C273.23 239.123 273.23 237.071 273.746 234.503C274.262 231.936 275.28 230.4 275.28 229.368C275.28 228.336 274.765 228.336 274.765 228.336V228.349Z" fill="#105535"/>
<path d="M314.752 271.445C314.752 271.445 311.67 288.374 299.626 288.374C295.667 288.374 292.727 287.381 290.574 286.039C287.092 283.884 285.029 280.039 284.965 275.948L284.5 242.194H278.35V240.658H278.633C289.22 240.374 288.176 224.852 288.085 223.794C288.085 223.768 288.111 223.755 288.137 223.768C288.382 223.871 289.697 225.252 292.186 224.258C294.752 223.226 294.236 222.723 297.318 221.69C299.936 220.813 301.07 221.432 301.354 221.639C301.38 221.664 301.354 221.69 301.328 221.703C300.864 221.716 300.503 221.884 300.219 222.09C299.678 222.503 299.394 223.161 299.368 223.845C299.033 234.697 289.697 239.11 284.784 240.684L313.217 240.71C312.495 240.71 311.812 240.697 311.167 240.697C311.051 240.697 310.497 240.813 310.406 240.89C310.058 241.161 309.491 241.626 309.633 241.729H310.136C310.432 241.884 310.729 242.052 311.012 242.232H293.733V271.213C293.733 271.213 293.127 286.865 300.916 286.865C310.226 286.865 314.249 270.955 314.249 270.955L314.765 271.471L314.752 271.445Z" fill="#105535"/>
<path d="M359.884 242.219C359.368 242.735 355.268 245.303 353.733 248.89C352.199 252.477 333.217 296.09 331.167 298.658C329.117 301.226 329.117 306.348 316.299 306.348C310.664 306.348 310.471 304.632 290.664 308.916C289.31 309.213 283.817 311.729 281.741 314.942C281.29 315.639 280.219 315.355 280.155 314.542C280.013 312.916 279.536 311.316 278.646 309.948C278.543 309.781 278.44 309.613 278.35 309.445C277.834 308.413 283.985 295.084 295.783 295.084C307.582 295.084 309.117 300.219 323.469 300.219C323.469 300.219 328.085 299.703 329.62 297.652C330.806 296.077 332.676 291.148 333.475 288.968C333.72 288.297 333.695 287.548 333.398 286.89L315.255 246.348C315.255 246.348 313.578 243.845 310.999 242.232C310.716 242.052 310.419 241.884 310.123 241.729H309.62C309.478 241.639 310.045 241.174 310.393 240.903C310.484 240.826 311.038 240.71 311.154 240.71C311.799 240.71 312.482 240.71 313.205 240.723C318.221 240.787 324.552 241.019 325.003 240.71C326.112 239.91 328.794 238.955 331.077 241.148C331.103 241.174 331.077 241.213 331.051 241.213C330.406 241.161 329.362 239.935 325.519 243.794C325.519 243.794 325.003 244.31 325.003 245.329C325.003 246.258 335.848 272.632 337.976 277.806C338.105 278.129 338.569 278.142 338.711 277.806L349.607 252.761C349.607 252.761 351.141 250.219 349.607 246.748C348.072 243.277 346.022 243.277 344.99 242.245C344.139 241.394 343.998 240.89 343.972 240.748C343.972 240.723 343.985 240.71 344.01 240.71C344.178 240.735 344.861 240.89 346.809 241.265C349.104 241.716 359.317 241.768 360.129 240.955C360.903 240.181 360.387 241.729 359.871 242.232L359.884 242.219Z" fill="#105535"/>
<path d="M313.217 240.696V242.206H311.012C310.729 242.026 310.432 241.858 310.136 241.703H309.633C309.491 241.613 310.058 241.148 310.406 240.877C310.497 240.8 311.051 240.684 311.167 240.684C311.812 240.684 312.495 240.684 313.217 240.696Z" fill="#105535"/>
<path d="M365.003 223.226C365.003 223.226 364.552 222.852 363.972 222.71C361.921 222.194 362.94 221.174 362.94 221.174C362.94 221.174 370.123 220.142 371.141 218.09C372.147 216.078 374.146 215.045 375.667 216.478C375.693 216.503 375.667 216.555 375.642 216.542C375.293 216.516 374.21 216.568 374.21 217.961V286.323H374.275C374.275 287.871 375.074 289.213 376.261 289.91H362.992C364.178 289.213 364.977 287.871 364.977 286.323V223.213L365.003 223.226Z" fill="#105535"/>
<path d="M380.967 289.923H394.236C393.05 289.226 392.25 287.884 392.25 286.335H392.186V243.626C392.186 241.961 393.72 242.219 393.72 242.219C392.186 240.684 390.135 241.703 389.104 243.755C388.072 245.806 380.903 246.839 380.903 246.839C380.903 246.839 379.871 247.871 381.934 248.374C382.398 248.49 382.721 248.606 382.966 248.71V286.335C382.966 287.884 382.166 289.226 380.98 289.923H380.967Z" fill="#105535"/>
<path d="M385.519 240.864C385.519 235.51 387.17 233.755 392.186 233.755C387.17 233.755 385.519 231.987 385.519 226.645C385.519 232 383.868 233.755 378.852 233.755C383.868 233.755 385.519 235.522 385.519 240.864Z" fill="#105535"/>
<path d="M464.99 317.316C464.99 311.961 466.641 310.206 471.657 310.206C466.641 310.206 464.99 308.439 464.99 303.097C464.99 308.452 463.34 310.206 458.324 310.206C463.34 310.206 464.99 311.974 464.99 317.316Z" fill="#105535"/>
<path d="M229.645 214.193C229.645 208.839 231.296 207.084 236.312 207.084C231.296 207.084 229.645 205.316 229.645 199.974C229.645 205.329 227.995 207.084 222.979 207.084C227.995 207.084 229.645 208.852 229.645 214.193Z" fill="#105535"/>
<path d="M406.499 231.393C406.499 226.31 406.538 220.851 413.204 220.851C419.871 220.851 420.89 225.793 422.94 228.361C424.99 230.929 429.258 230.864 429.684 230.89C430.11 230.929 431.657 217.587 431.657 217.587C430.122 219.122 429.607 220.671 426.022 220.155C422.437 219.639 420.374 217.587 413.204 217.587C404.99 217.587 400.903 225.277 400.903 230.413C400.903 236.387 404.513 240.013 408.923 241.703H398.852C397.318 241.703 398.427 242.851 398.427 242.851C398.427 242.851 401.418 243.755 402.953 244.787C403.572 245.2 403.855 246.593 403.984 248.129V286.348C403.984 287.897 403.185 289.239 401.999 289.935H415.267C414.081 289.239 413.282 287.897 413.282 286.348H413.217V242.735C413.901 242.813 414.597 242.851 415.267 242.851C421.934 242.851 430.651 243.239 430.651 243.239V241.703C430.651 241.703 421.418 241.187 417.834 241.187C413.733 241.187 406.512 237.6 406.512 231.393H406.499Z" fill="#105535"/>
<path d="M444.475 241.69C445.584 240.903 448.266 239.948 450.548 242.129C450.574 242.155 450.548 242.194 450.522 242.194C449.878 242.142 448.833 240.916 444.978 244.774C444.978 244.774 444.462 245.29 444.462 246.31C444.462 247.239 455.306 273.613 457.434 278.787C457.563 279.11 458.027 279.123 458.169 278.787L469.065 253.742C469.065 253.742 470.6 251.2 469.065 247.729C467.531 244.258 465.48 244.258 464.449 243.226C463.598 242.374 463.456 241.884 463.43 241.729C463.43 241.703 463.443 241.69 463.469 241.69C463.637 241.729 464.32 241.871 466.267 242.258C468.562 242.71 478.775 242.748 479.575 241.948C480.348 241.174 479.833 242.723 479.317 243.226C478.801 243.729 474.7 246.31 473.166 249.897C471.631 253.484 452.65 297.097 450.6 299.665C448.549 302.232 448.549 307.355 435.732 307.355C430.097 307.355 429.903 305.639 410.097 309.923C408.743 310.219 403.25 312.736 401.174 315.948C400.722 316.645 399.652 316.361 399.588 315.536C399.446 313.91 398.969 312.31 398.092 310.942C397.989 310.774 397.885 310.606 397.795 310.439C397.279 309.406 403.43 296.077 415.229 296.077C427.028 296.077 428.562 301.213 442.914 301.213C442.914 301.213 447.531 300.697 449.065 298.645C450.252 297.071 452.121 292.142 452.921 289.961C453.166 289.29 453.14 288.542 452.843 287.884L434.7 247.342C434.7 247.342 432.637 244.271 429.568 242.723H429.065C428.923 242.632 429.491 242.168 429.839 241.897C429.929 241.819 430.484 241.703 430.6 241.703C435.732 241.703 443.933 242.064 444.449 241.703L444.475 241.69Z" fill="#105535"/>
</g>
<defs>
<clipPath id="clip0_466_3752">
<rect width="260" height="150.361" fill="white" transform="translate(220 181.406)"/>
</clipPath>
</defs>
</svg>
