<svg width="520" height="380" viewBox="0 0 520 380" fill="none" xmlns="http://www.w3.org/2000/svg">
<rect width="520" height="380" fill="#F9F5EE"/>
<g clip-path="url(#clip0_466_3752)">
<path d="M204.674 265.361C203.862 265.361 203.063 265.052 202.457 264.51C201.979 264.071 201.644 263.529 201.489 262.936C200.78 262.819 200.11 262.458 199.607 261.929C199.001 261.284 198.678 260.458 198.704 259.594L198.781 257.413L198.382 257.387C196.757 257.297 195.429 255.929 195.429 254.316L195.351 176.239L189.884 124.948C189.794 124.084 190.065 123.245 190.632 122.652C191.161 122.097 191.87 121.826 192.618 121.877L195.287 122.045V117.787C195.287 116.987 195.596 116.226 196.151 115.697C196.667 115.206 197.337 114.961 198.034 115.013L279.039 119.813L313.675 115.477C314.977 115.31 316.267 115.684 317.286 116.523C318.382 117.413 319.078 118.781 319.194 120.277L319.4 123.039C319.581 123.168 319.761 123.323 319.929 123.477C320.948 124.471 321.541 125.89 321.528 127.387V130.497C323.101 131.4 324.146 133.206 324.068 135.271L322.869 168.174L328.891 246.458L330.077 254.807C330.181 255.516 330.039 256.252 329.691 256.884L330.039 261.387C330.116 262.316 329.768 263.258 329.11 263.955C328.44 264.665 327.511 265.065 326.557 265.065C326.544 265.065 326.518 265.065 326.506 265.065L233.262 263.516L204.868 265.374C204.803 265.374 204.726 265.374 204.662 265.374L204.674 265.361ZM202.031 262.974C202.173 263.413 202.444 263.8 202.792 264.123C203.346 264.626 204.094 264.897 204.842 264.845L226.996 263.4L202.018 262.987L202.031 262.974ZM239.516 263.078L326.518 264.523C327.369 264.548 328.169 264.187 328.749 263.568C329.304 262.974 329.6 262.174 329.536 261.387L329.239 257.503C328.582 258.239 327.653 258.665 326.673 258.678L321.012 258.768V260.187C321.012 261.116 320.625 261.981 319.929 262.626C319.233 263.284 318.304 263.632 317.35 263.581L269.6 261.078L239.504 263.052L239.516 263.078ZM273.972 260.819L317.389 263.09C318.188 263.129 318.988 262.832 319.581 262.278C320.161 261.723 320.496 260.987 320.496 260.2V258.781L299.671 259.129L273.972 260.807V260.819ZM201.902 262.458C201.902 262.458 201.954 262.458 201.979 262.458L233.262 262.974L265.255 260.884L248.298 259.994L207.55 260.665C207.55 260.665 207.511 260.665 207.498 260.665C205.758 260.665 204.262 259.374 204.017 257.671L201.696 257.555L201.876 262.226C201.876 262.303 201.876 262.381 201.902 262.458ZM199.284 257.426L199.207 259.594C199.181 260.316 199.452 261.013 199.968 261.568C200.355 261.968 200.845 262.252 201.386 262.381C201.386 262.329 201.386 262.29 201.386 262.239L201.206 257.529L199.31 257.426H199.284ZM255.738 259.865L269.6 260.587L289.149 259.31L255.738 259.865ZM204.533 257.697C204.778 259.09 206.041 260.148 207.486 260.148C207.498 260.148 207.524 260.148 207.537 260.148L240.845 259.594L204.533 257.697ZM204.468 257.181L248.298 259.478L299.645 258.626L316.422 257.529C317.93 257.426 319.143 256.187 319.194 254.716L320.664 214.303L320.754 192.91L311.792 129.903L244.468 125.658L232.399 126.161L204.12 129.697L200.651 221.323L204.468 257.181ZM320.613 230.084L319.71 254.729C319.645 256.471 318.214 257.929 316.46 258.045L310.168 258.458L320.509 258.29L320.625 230.097L320.613 230.084ZM321.193 214.303L321.012 258.265L326.66 258.174C327.511 258.161 328.337 257.774 328.891 257.116C328.994 257 329.085 256.871 329.162 256.742L328.375 246.484L321.722 199.671L321.193 214.316V214.303ZM201.67 257.039L203.952 257.155L200.522 224.884L200.458 226.458L201.67 257.026V257.039ZM199.297 256.91L201.154 257.013L200.2 233.077L199.297 256.91ZM195.841 181.09L195.919 254.316C195.919 255.658 197.028 256.807 198.382 256.871L198.781 256.897L199.929 226.484L199.491 215.387L195.841 181.103V181.09ZM329.484 254.355L329.575 255.49C329.587 255.284 329.587 255.065 329.562 254.858L329.497 254.368L329.484 254.355ZM321.812 196.768L327.756 238.561L322.689 172.69L321.812 196.768ZM199.994 215.348L200.252 217.774L203.578 129.774L198.524 130.406C197.44 130.548 196.654 131.529 196.705 132.716L199.994 215.348ZM195.829 176.213L199.181 207.671L196.203 132.742C196.151 131.297 197.118 130.071 198.472 129.903L203.604 129.258C203.72 127.877 204.765 126.819 206.093 126.768L232.334 125.671L236.37 125.168L195.764 122.6L195.816 176.226L195.829 176.213ZM321.244 196.419V198.523L321.296 196.794L321.244 196.406V196.419ZM321.257 192.871L321.399 193.903L322.34 168.161L321.399 155.968L321.257 192.871ZM312.308 129.929L320.754 189.361L320.909 149.619L319.426 130.381L312.295 129.929H312.308ZM192.45 122.368C191.896 122.368 191.393 122.587 191.006 122.987C190.542 123.477 190.322 124.161 190.4 124.871L195.351 171.336L195.3 122.548L192.592 122.381C192.592 122.381 192.502 122.381 192.463 122.381L192.45 122.368ZM321.464 149.594L322.547 163.619L323.578 135.219C323.643 133.465 322.83 131.929 321.541 131.077L321.464 149.606V149.594ZM319.994 130.445L320.974 143.258L321.025 130.781C320.703 130.626 320.355 130.51 319.994 130.445ZM319.955 129.916C320.329 129.981 320.69 130.084 321.038 130.226V127.361C321.051 126.006 320.522 124.716 319.607 123.826C319.568 123.787 319.529 123.748 319.491 123.71L319.968 129.916H319.955ZM312.27 129.413L319.439 129.864L318.936 123.297C318.201 122.819 317.363 122.587 316.473 122.626L310.31 122.884C311.083 123.658 311.612 124.716 311.78 125.916L312.282 129.413H312.27ZM249.394 125.452L311.754 129.387L311.277 125.994C311.096 124.729 310.477 123.645 309.575 122.923L249.394 125.452ZM226.209 126.419L206.157 127.258C205.139 127.297 204.313 128.11 204.172 129.181L226.209 126.419ZM239.155 125.31L238.588 125.387L239.607 125.348L239.155 125.323V125.31ZM241.889 124.961L244.507 125.129L308.827 122.432C308.311 122.174 307.743 122.006 307.137 121.968L279.078 120.303L241.889 124.961ZM195.803 122.058L239.143 124.794L276.28 120.148L198.021 115.516C197.453 115.49 196.925 115.684 196.512 116.071C196.061 116.497 195.803 117.129 195.803 117.787V122.071V122.058ZM316.641 122.11C317.428 122.11 318.188 122.303 318.885 122.677L318.704 120.303C318.601 118.935 317.982 117.735 316.989 116.91C316.074 116.161 314.926 115.826 313.765 115.981L281.876 119.981L307.176 121.477C308.13 121.529 309.007 121.864 309.742 122.406L316.447 122.123C316.512 122.123 316.589 122.123 316.654 122.123L316.641 122.11Z" fill="#EE6352"/>
<path d="M184.765 161.942C184.765 161.942 168.865 153.219 160.922 153.219C152.979 153.219 140.664 158.006 140.664 171.774C140.664 190.161 181.167 195.297 181.167 207.697C181.167 217.348 172.45 220.948 162.714 220.948C148.865 220.948 145.126 199.555 140.664 195.103C137.801 192.239 134.668 190.69 132.115 189.968C130.567 189.529 129.368 191.361 130.374 192.626C133.03 195.968 134.41 200.161 134.242 204.432C134.062 209.271 134.062 214.729 135.493 214.729C141.696 214.729 146.312 223.516 160.922 223.516C174.513 223.516 186.815 213.4 186.815 204.355C186.815 184.019 144.765 182.987 144.765 165.026C144.765 158.355 154.5 154.677 160.922 154.677C170.413 154.677 178.201 165.877 180.148 168.613C182.714 172.2 182.199 176.303 182.199 176.819C182.199 177.335 183.23 176.819 183.23 174.768C183.23 172.716 183.23 170.664 183.746 168.097C184.262 165.529 185.28 163.993 185.28 162.961C185.28 161.929 184.765 161.929 184.765 161.929V161.942Z" fill="#105535"/>
<path d="M224.752 205.039C224.752 205.039 221.67 221.968 209.626 221.968C205.667 221.968 202.727 220.974 200.574 219.632C197.092 217.477 195.029 213.632 194.965 209.542L194.5 175.787H188.35V174.252H188.633C199.22 173.968 198.176 158.445 198.085 157.387C198.085 157.361 198.111 157.348 198.137 157.361C198.382 157.464 199.697 158.845 202.186 157.852C204.752 156.819 204.236 156.316 207.318 155.284C209.936 154.406 211.07 155.026 211.354 155.232C211.38 155.258 211.354 155.284 211.328 155.297C210.864 155.31 210.503 155.477 210.219 155.684C209.678 156.097 209.394 156.755 209.368 157.439C209.033 168.29 199.697 172.703 194.784 174.277L223.217 174.303C222.495 174.303 221.812 174.29 221.167 174.29C221.051 174.29 220.497 174.406 220.406 174.484C220.058 174.755 219.491 175.219 219.633 175.323H220.136C220.432 175.477 220.729 175.645 221.012 175.826H203.733V204.806C203.733 204.806 203.127 220.458 210.916 220.458C220.226 220.458 224.249 204.548 224.249 204.548L224.765 205.064L224.752 205.039Z" fill="#105535"/>
<path d="M269.884 175.813C269.368 176.329 265.268 178.897 263.733 182.484C262.199 186.071 243.217 229.684 241.167 232.252C239.117 234.819 239.117 239.942 226.299 239.942C220.664 239.942 220.471 238.226 200.664 242.51C199.31 242.806 193.817 245.323 191.741 248.535C191.29 249.232 190.219 248.948 190.155 248.135C190.013 246.51 189.536 244.91 188.646 243.542C188.543 243.374 188.44 243.206 188.35 243.039C187.834 242.006 193.985 228.677 205.783 228.677C217.582 228.677 219.117 233.813 233.469 233.813C233.469 233.813 238.085 233.297 239.62 231.245C240.806 229.671 242.676 224.742 243.475 222.561C243.72 221.89 243.695 221.142 243.398 220.484L225.255 179.942C225.255 179.942 223.578 177.439 220.999 175.826C220.716 175.645 220.419 175.477 220.123 175.323H219.62C219.478 175.232 220.045 174.768 220.393 174.497C220.484 174.419 221.038 174.303 221.154 174.303C221.799 174.303 222.482 174.303 223.205 174.316C228.221 174.381 234.552 174.613 235.003 174.303C236.112 173.503 238.794 172.548 241.077 174.742C241.103 174.768 241.077 174.806 241.051 174.806C240.406 174.755 239.362 173.529 235.519 177.387C235.519 177.387 235.003 177.903 235.003 178.923C235.003 179.852 245.848 206.226 247.976 211.4C248.105 211.723 248.569 211.735 248.711 211.4L259.607 186.355C259.607 186.355 261.141 183.813 259.607 180.342C258.072 176.871 256.022 176.871 254.99 175.839C254.139 174.987 253.998 174.484 253.972 174.342C253.972 174.316 253.985 174.303 254.01 174.303C254.178 174.329 254.861 174.484 256.809 174.858C259.104 175.31 269.317 175.361 270.129 174.548C270.903 173.774 270.387 175.323 269.871 175.826L269.884 175.813Z" fill="#105535"/>
<path d="M223.217 174.29V175.8H221.012C220.729 175.619 220.432 175.452 220.136 175.297H219.633C219.491 175.206 220.058 174.742 220.406 174.471C220.497 174.393 221.051 174.277 221.167 174.277C221.812 174.277 222.495 174.277 223.217 174.29Z" fill="#105535"/>
<path d="M275.003 156.819C275.003 156.819 274.552 156.445 273.972 156.303C271.921 155.787 272.94 154.768 272.94 154.768C272.94 154.768 280.123 153.735 281.141 151.684C282.147 149.671 284.146 148.639 285.667 150.071C285.693 150.097 285.667 150.148 285.642 150.135C285.293 150.11 284.21 150.161 284.21 151.555V219.916H284.275C284.275 221.464 285.074 222.806 286.261 223.503H272.992C274.178 222.806 274.977 221.464 274.977 219.916V156.806L275.003 156.819Z" fill="#105535"/>
<path d="M290.967 223.516H304.236C303.05 222.819 302.25 221.477 302.25 219.929H302.186V177.219C302.186 175.555 303.72 175.813 303.72 175.813C302.186 174.277 300.135 175.297 299.104 177.348C298.072 179.4 290.903 180.432 290.903 180.432C290.903 180.432 289.871 181.464 291.934 181.968C292.398 182.084 292.721 182.2 292.966 182.303V219.929C292.966 221.477 292.166 222.819 290.98 223.516H290.967Z" fill="#105535"/>
<path d="M295.519 174.458C295.519 169.103 297.17 167.348 302.186 167.348C297.17 167.348 295.519 165.58 295.519 160.239C295.519 165.593 293.868 167.348 288.852 167.348C293.868 167.348 295.519 169.116 295.519 174.458Z" fill="#105535"/>
<path d="M374.99 250.91C374.99 245.555 376.641 243.8 381.657 243.8C376.641 243.8 374.99 242.032 374.99 236.69C374.99 242.045 373.34 243.8 368.324 243.8C373.34 243.8 374.99 245.568 374.99 250.91Z" fill="#105535"/>
<path d="M139.645 147.787C139.645 142.432 141.296 140.677 146.312 140.677C141.296 140.677 139.645 138.91 139.645 133.568C139.645 138.922 137.995 140.677 132.979 140.677C137.995 140.677 139.645 142.445 139.645 147.787Z" fill="#105535"/>
<path d="M316.499 164.987C316.499 159.903 316.538 154.445 323.204 154.445C329.871 154.445 330.89 159.387 332.94 161.955C334.99 164.523 339.258 164.458 339.684 164.484C340.11 164.523 341.657 151.181 341.657 151.181C340.122 152.716 339.607 154.265 336.022 153.748C332.437 153.232 330.374 151.181 323.204 151.181C314.99 151.181 310.903 158.871 310.903 164.006C310.903 169.981 314.513 173.606 318.923 175.297H308.852C307.318 175.297 308.427 176.445 308.427 176.445C308.427 176.445 311.418 177.348 312.953 178.381C313.572 178.794 313.855 180.187 313.984 181.723V219.942C313.984 221.49 313.185 222.832 311.999 223.529H325.267C324.081 222.832 323.282 221.49 323.282 219.942H323.217V176.329C323.901 176.406 324.597 176.445 325.267 176.445C331.934 176.445 340.651 176.832 340.651 176.832V175.297C340.651 175.297 331.418 174.781 327.834 174.781C323.733 174.781 316.512 171.194 316.512 164.987H316.499Z" fill="#105535"/>
<path d="M354.475 175.284C355.584 174.497 358.266 173.542 360.548 175.723C360.574 175.748 360.548 175.787 360.522 175.787C359.878 175.735 358.833 174.51 354.978 178.368C354.978 178.368 354.462 178.884 354.462 179.903C354.462 180.832 365.306 207.206 367.434 212.381C367.563 212.703 368.027 212.716 368.169 212.381L379.065 187.335C379.065 187.335 380.6 184.793 379.065 181.323C377.531 177.852 375.48 177.852 374.449 176.819C373.598 175.968 373.456 175.477 373.43 175.322C373.43 175.297 373.443 175.284 373.469 175.284C373.637 175.323 374.32 175.464 376.267 175.852C378.562 176.303 388.775 176.342 389.575 175.542C390.348 174.768 389.833 176.316 389.317 176.819C388.801 177.323 384.7 179.903 383.166 183.49C381.631 187.077 362.65 230.69 360.6 233.258C358.549 235.826 358.549 240.948 345.732 240.948C340.097 240.948 339.903 239.232 320.097 243.516C318.743 243.813 313.25 246.329 311.174 249.542C310.722 250.239 309.652 249.955 309.588 249.129C309.446 247.503 308.969 245.903 308.092 244.535C307.989 244.368 307.885 244.2 307.795 244.032C307.279 243 313.43 229.671 325.229 229.671C337.028 229.671 338.562 234.806 352.914 234.806C352.914 234.806 357.531 234.29 359.065 232.239C360.252 230.664 362.121 225.735 362.921 223.555C363.166 222.884 363.14 222.135 362.843 221.477L344.7 180.935C344.7 180.935 342.637 177.864 339.568 176.316H339.065C338.923 176.226 339.491 175.761 339.839 175.49C339.929 175.413 340.484 175.297 340.6 175.297C345.732 175.297 353.933 175.658 354.449 175.297L354.475 175.284Z" fill="#105535"/>
</g>
<defs>
<clipPath id="clip0_466_3752">
<rect width="260" height="150.361" fill="white" transform="translate(130 115)"/>
</clipPath>
</defs>
</svg>
