<svg width="345" height="345" viewBox="0 0 345 345" fill="none" xmlns="http://www.w3.org/2000/svg">
<g filter="url(#filter0_d_3334_40963)">
<circle cx="170.903" cy="170.254" r="170" fill="#822848"/>
</g>
<g clip-path="url(#clip0_3334_40963)">
<path d="M270.839 123.006L283.788 236.213H170.921L201.773 123.006H270.839Z" fill="black"/>
<path d="M272.702 114.132L265.914 138.359H153.531L160.319 114.132H272.702Z" fill="#105535"/>
<path d="M265.914 138.655H153.531C153.486 138.655 153.441 138.645 153.4 138.624C153.359 138.604 153.323 138.574 153.295 138.538C153.268 138.501 153.249 138.459 153.241 138.414C153.232 138.369 153.234 138.323 153.246 138.279L160.034 114.052C160.052 113.99 160.089 113.936 160.14 113.897C160.192 113.858 160.255 113.836 160.319 113.836H272.702C272.795 113.836 272.882 113.88 272.938 113.954C272.994 114.028 273.012 114.123 272.987 114.213L266.199 138.439C266.182 138.501 266.144 138.556 266.093 138.595C266.041 138.634 265.979 138.655 265.914 138.655ZM153.922 138.063H265.69L272.312 114.429H160.544L153.922 138.063Z" fill="black"/>
<path d="M265.914 138.359L240.446 229.288H128.053L153.532 138.359H265.914Z" fill="white"/>
<path d="M240.446 229.571H128.053C127.964 229.571 127.881 229.53 127.827 229.46C127.773 229.389 127.756 229.297 127.78 229.212L153.259 138.283C153.276 138.223 153.311 138.171 153.36 138.134C153.41 138.096 153.47 138.076 153.531 138.076H265.914C266.003 138.076 266.086 138.117 266.14 138.188C266.193 138.259 266.211 138.35 266.187 138.436L240.718 229.365C240.702 229.424 240.666 229.477 240.617 229.514C240.568 229.551 240.508 229.571 240.446 229.571ZM128.426 229.005H240.232L265.541 138.642H153.746L128.426 229.005ZM177.66 129.463C170.682 129.463 165.004 123.784 165.004 116.806C165.004 109.827 170.682 104.149 177.66 104.149C183.565 104.149 188.632 108.158 189.982 113.898C190 113.975 189.986 114.055 189.945 114.122C189.904 114.189 189.838 114.236 189.761 114.254C189.723 114.263 189.684 114.265 189.646 114.259C189.607 114.253 189.57 114.239 189.537 114.218C189.504 114.198 189.475 114.171 189.453 114.139C189.43 114.108 189.414 114.072 189.405 114.034C188.119 108.562 183.29 104.741 177.66 104.741C171.008 104.741 165.596 110.153 165.596 116.806C165.596 123.458 171.008 128.87 177.66 128.87C177.824 128.87 177.957 129.003 177.957 129.166C177.957 129.33 177.824 129.463 177.66 129.463ZM211.141 129.463C204.163 129.463 198.485 123.784 198.485 116.806C198.485 109.827 204.163 104.149 211.141 104.149C217.046 104.149 222.113 108.158 223.463 113.898C223.481 113.975 223.467 114.055 223.426 114.122C223.385 114.189 223.319 114.236 223.242 114.254C223.078 114.292 222.924 114.192 222.886 114.034C221.6 108.562 216.771 104.741 211.141 104.741C204.489 104.741 199.077 110.153 199.077 116.806C199.077 123.458 204.489 128.87 211.141 128.87C211.305 128.87 211.438 129.003 211.438 129.166C211.438 129.33 211.305 129.463 211.141 129.463ZM244.622 129.463C237.644 129.463 231.966 123.784 231.966 116.806C231.966 109.827 237.644 104.149 244.622 104.149C250.527 104.149 255.594 108.158 256.944 113.898C256.962 113.975 256.948 114.055 256.907 114.122C256.866 114.189 256.8 114.236 256.723 114.254C256.685 114.263 256.646 114.265 256.608 114.259C256.569 114.253 256.532 114.239 256.499 114.218C256.466 114.198 256.438 114.171 256.415 114.139C256.392 114.108 256.376 114.072 256.367 114.034C255.081 108.562 250.252 104.741 244.622 104.741C237.97 104.741 232.558 110.153 232.558 116.806C232.558 123.458 237.97 128.87 244.622 128.87C244.786 128.87 244.919 129.003 244.919 129.166C244.919 129.33 244.786 129.463 244.622 129.463Z" fill="black"/>
<path d="M177.262 173.322H152.733C152.688 173.322 152.644 173.312 152.604 173.292C152.564 173.273 152.529 173.245 152.501 173.21C152.473 173.175 152.454 173.134 152.444 173.09C152.434 173.047 152.435 173.002 152.445 172.958L158.208 148.429C158.223 148.364 158.26 148.306 158.312 148.265C158.365 148.223 158.429 148.201 158.496 148.201H183.026C183.116 148.201 183.202 148.242 183.257 148.313C183.314 148.384 183.334 148.476 183.314 148.564L177.55 173.093C177.535 173.158 177.498 173.216 177.446 173.258C177.394 173.299 177.329 173.322 177.262 173.322ZM153.107 172.73H177.028L182.652 148.793H158.731L153.107 172.73ZM210.986 173.322H186.457C186.412 173.322 186.368 173.312 186.328 173.292C186.288 173.273 186.252 173.245 186.225 173.21C186.197 173.175 186.177 173.134 186.168 173.09C186.158 173.047 186.158 173.002 186.168 172.958L191.931 148.429C191.947 148.364 191.983 148.306 192.036 148.265C192.088 148.223 192.153 148.201 192.22 148.201H216.749C216.84 148.201 216.925 148.242 216.981 148.313C217.037 148.384 217.058 148.476 217.037 148.564L211.274 173.093C211.259 173.158 211.222 173.216 211.169 173.258C211.117 173.299 211.052 173.322 210.986 173.322H210.986ZM186.83 172.73H210.751L216.376 148.793H192.454L186.83 172.73Z" fill="black"/>
<path d="M244.709 173.026H220.18L225.943 148.497H250.472L244.709 173.026Z" fill="#F4D251"/>
<path d="M244.709 173.322H220.18C220.135 173.322 220.091 173.312 220.051 173.292C220.011 173.273 219.976 173.245 219.948 173.21C219.92 173.175 219.901 173.134 219.891 173.09C219.881 173.047 219.882 173.002 219.892 172.958L225.655 148.429C225.67 148.364 225.707 148.306 225.759 148.265C225.811 148.223 225.876 148.201 225.943 148.201H250.473C250.563 148.201 250.649 148.242 250.704 148.313C250.761 148.384 250.781 148.476 250.761 148.564L244.997 173.093C244.982 173.158 244.945 173.216 244.893 173.258C244.841 173.299 244.776 173.322 244.709 173.322ZM220.553 172.73H244.474L250.099 148.793H226.177L220.553 172.73ZM171.09 204.435H146.56C146.515 204.435 146.471 204.425 146.431 204.405C146.391 204.386 146.356 204.358 146.328 204.323C146.3 204.288 146.281 204.247 146.271 204.203C146.261 204.16 146.262 204.115 146.272 204.071L152.035 179.542C152.051 179.477 152.087 179.419 152.14 179.378C152.192 179.336 152.257 179.314 152.324 179.314H176.853C176.943 179.314 177.029 179.355 177.084 179.426C177.141 179.497 177.161 179.589 177.141 179.677L171.378 204.206C171.362 204.271 171.326 204.329 171.273 204.371C171.221 204.412 171.156 204.435 171.09 204.435ZM146.934 203.843H170.855L176.479 179.906H152.558L146.934 203.843Z" fill="black"/>
<path d="M204.813 204.139H180.284L186.047 179.61H210.576L204.813 204.139Z" fill="#F4D251"/>
<path d="M204.813 204.435H180.283C180.239 204.435 180.195 204.425 180.155 204.405C180.114 204.386 180.079 204.357 180.052 204.322C180.024 204.288 180.004 204.247 179.995 204.203C179.985 204.16 179.985 204.115 179.995 204.071L185.759 179.542C185.774 179.477 185.811 179.419 185.863 179.378C185.915 179.336 185.98 179.314 186.047 179.313H210.576C210.667 179.313 210.752 179.355 210.808 179.426C210.864 179.497 210.885 179.589 210.864 179.677L205.101 204.206C205.086 204.271 205.049 204.329 204.997 204.371C204.944 204.412 204.88 204.435 204.813 204.435H204.813ZM180.657 203.842H204.579L210.202 179.906H186.282L180.657 203.842ZM238.536 204.435H214.007C213.962 204.435 213.918 204.425 213.878 204.405C213.838 204.386 213.803 204.357 213.775 204.322C213.747 204.288 213.728 204.247 213.718 204.203C213.708 204.16 213.709 204.115 213.719 204.071L219.482 179.542C219.497 179.477 219.534 179.419 219.587 179.378C219.639 179.336 219.704 179.314 219.77 179.313H244.299C244.39 179.313 244.475 179.355 244.531 179.426C244.588 179.497 244.608 179.589 244.588 179.677L238.825 204.206C238.809 204.271 238.773 204.329 238.72 204.371C238.668 204.412 238.603 204.435 238.536 204.435ZM214.381 203.842H238.302L243.926 179.906H220.005L214.381 203.842Z" fill="black"/>
<path d="M178.866 134.609C181.572 134.609 183.765 132.415 183.765 129.71C183.765 127.004 181.572 124.811 178.866 124.811C176.161 124.811 173.967 127.004 173.967 129.71C173.967 132.415 176.161 134.609 178.866 134.609Z" fill="black"/>
<path d="M213.117 134.609C215.822 134.609 218.016 132.415 218.016 129.71C218.016 127.004 215.822 124.811 213.117 124.811C210.411 124.811 208.218 127.004 208.218 129.71C208.218 132.415 210.411 134.609 213.117 134.609Z" fill="black"/>
<path d="M247.367 134.609C250.073 134.609 252.266 132.415 252.266 129.71C252.266 127.004 250.073 124.811 247.367 124.811C244.662 124.811 242.468 127.004 242.468 129.71C242.468 132.415 244.662 134.609 247.367 134.609Z" fill="black"/>
<path d="M195.43 194.619C195.405 194.619 195.381 194.615 195.357 194.609C195.307 194.596 195.261 194.571 195.224 194.535C195.187 194.499 195.16 194.455 195.146 194.405L192.151 184.091L189.928 183.791C189.851 183.781 189.78 183.74 189.733 183.677C189.685 183.615 189.664 183.536 189.674 183.458C189.697 183.297 189.85 183.184 190.007 183.204L192.421 183.53C192.478 183.538 192.531 183.562 192.574 183.599C192.618 183.637 192.649 183.686 192.665 183.741L195.574 193.757L215.373 173.79C215.428 173.734 215.503 173.703 215.581 173.703C215.66 173.702 215.735 173.733 215.791 173.788C215.819 173.815 215.841 173.848 215.856 173.884C215.871 173.919 215.879 173.958 215.879 173.997C215.879 174.036 215.872 174.074 215.857 174.11C215.842 174.146 215.821 174.179 215.793 174.206L195.64 194.531C195.613 194.558 195.58 194.581 195.544 194.596C195.508 194.611 195.469 194.619 195.43 194.619H195.43ZM144.846 164.838C144.846 164.838 143.97 174.213 138.506 169.897C133.043 165.58 127.647 155.463 127.647 155.463L106.469 158.192C106.469 158.192 104.85 149.73 117.126 146.223C129.401 142.716 138.844 141.906 138.844 141.906C138.844 141.906 144.374 152.158 144.846 164.838Z" fill="black"/>
<path d="M141.117 171.329C140.27 171.329 139.334 170.928 138.323 170.129C133.277 166.142 128.244 157.167 127.484 155.783L106.507 158.486C106.353 158.509 106.209 158.402 106.178 158.248C106.162 158.161 104.652 149.479 117.045 145.939C129.207 142.464 138.724 141.62 138.818 141.612C138.937 141.603 139.048 141.663 139.104 141.766C139.16 141.869 144.673 152.224 145.142 164.828C145.143 164.84 145.143 164.853 145.141 164.866C145.122 165.077 144.628 170.051 142.118 171.125C141.8 171.262 141.466 171.329 141.118 171.329L141.117 171.329ZM127.648 155.167C127.756 155.167 127.857 155.227 127.909 155.324C127.962 155.425 133.339 165.437 138.69 169.665C139.935 170.648 141.011 170.955 141.885 170.581C144.007 169.673 144.516 165.156 144.55 164.829C144.114 153.264 139.388 143.617 138.673 142.22C137.258 142.359 128.351 143.323 117.207 146.508C106.572 149.547 106.594 156.402 106.726 157.861L127.61 155.17C127.622 155.168 127.635 155.167 127.648 155.167Z" fill="black"/>
<path d="M154.901 166.619C154.89 167.633 154.707 168.432 154.308 168.972C151.793 172.392 143.883 168.615 140.646 160.338C137.408 152.072 136.329 149.007 136.329 149.007L112.588 150.086C112.588 150.086 100.89 166.274 114.563 169.511C122.387 171.367 131.441 174.4 137.764 176.655H137.775C142.491 178.339 145.675 179.59 145.675 179.59C145.675 179.59 145.383 183.357 141.693 185.148C140.419 185.774 138.725 186.162 136.502 186.065C127.869 185.698 114.746 184.263 114.746 184.263L90.1847 198.206L65.537 173.677L95.138 143.763C95.138 143.763 104.138 135.486 113.753 134.622C130.34 133.133 142.081 134.622 142.081 134.622C142.081 134.622 146.041 135.701 149.096 145.414C150.229 148.997 151.524 152.741 152.614 156.184C153.93 160.382 154.934 164.137 154.901 166.619Z" fill="#F4D251"/>
<path d="M90.1846 198.501C90.1458 198.502 90.1074 198.494 90.0716 198.479C90.0358 198.464 90.0033 198.442 89.9759 198.415L65.3283 173.886C65.3008 173.859 65.2789 173.826 65.2639 173.79C65.2489 173.755 65.2411 173.716 65.241 173.677C65.2408 173.639 65.2483 173.6 65.263 173.564C65.2778 173.528 65.2994 173.496 65.3267 173.468L94.928 143.554C95.0286 143.461 104.123 135.19 113.727 134.327C130.155 132.852 142 134.313 142.119 134.328C142.327 134.382 146.311 135.57 149.378 145.325C149.952 147.142 150.569 149.001 151.179 150.841C151.772 152.628 152.359 154.398 152.895 156.094C154.053 159.785 155.232 163.922 155.197 166.622C155.185 167.745 154.972 168.57 154.546 169.147C153.762 170.214 152.449 170.685 150.844 170.476C147.413 170.025 142.713 166.435 140.37 160.446C137.624 153.433 136.418 150.13 136.124 149.312L112.747 150.375C112.016 151.429 106.677 159.418 108.668 164.763C109.493 166.981 111.499 168.481 114.631 169.222C122.457 171.079 131.563 174.129 137.835 176.365C137.849 176.368 137.863 176.372 137.875 176.376C142.541 178.041 145.751 179.302 145.783 179.314C145.842 179.338 145.892 179.379 145.926 179.433C145.959 179.487 145.975 179.55 145.97 179.613C145.957 179.773 145.622 183.569 141.822 185.414C140.36 186.132 138.563 186.449 136.49 186.36C128.331 186.013 116.018 184.698 114.81 184.567L90.3306 198.462C90.2863 198.488 90.2359 198.501 90.1847 198.501L90.1846 198.501ZM65.9549 173.675L90.2341 197.837L114.6 184.006C114.654 183.974 114.717 183.961 114.778 183.969C114.91 183.983 127.99 185.407 136.515 185.769C138.489 185.854 140.189 185.557 141.562 184.882C144.555 183.429 145.22 180.583 145.351 179.781C144.56 179.474 141.66 178.356 137.705 176.944C137.691 176.941 137.678 176.938 137.665 176.933C131.407 174.701 122.307 171.652 114.494 169.799C111.158 169.008 109.011 167.384 108.112 164.969C105.879 158.968 112.083 150.279 112.348 149.913C112.374 149.876 112.408 149.847 112.447 149.825C112.486 149.804 112.53 149.792 112.574 149.79L136.316 148.711C136.456 148.685 136.565 148.785 136.608 148.908C136.619 148.939 137.724 152.066 140.921 160.23C143.18 166.006 147.662 169.462 150.921 169.889C151.897 170.02 153.235 169.932 154.069 168.795C154.415 168.329 154.595 167.596 154.605 166.616V166.615C154.64 163.997 153.475 159.918 152.331 156.272C151.795 154.579 151.209 152.812 150.617 151.027C150.006 149.185 149.389 147.323 148.813 145.503C145.861 136.113 142.04 134.918 142.002 134.907C141.927 134.901 130.139 133.449 113.78 134.917C104.378 135.761 95.428 143.898 95.3384 143.98L65.9548 173.675H65.9549Z" fill="black"/>
<path d="M154.901 166.619C151.955 166.608 148.513 162 148.146 159.853C147.898 158.342 150.552 156.993 152.614 156.184C153.93 160.382 154.934 164.137 154.901 166.619Z" fill="white"/>
<path d="M154.901 166.915H154.9C151.758 166.903 148.248 162.204 147.854 159.902C147.632 158.55 149.197 157.207 152.505 155.908C152.543 155.893 152.584 155.886 152.624 155.887C152.665 155.889 152.705 155.899 152.741 155.916C152.778 155.934 152.81 155.959 152.837 155.989C152.864 156.02 152.884 156.056 152.896 156.095C154.054 159.785 155.232 163.922 155.198 166.622C155.197 166.7 155.165 166.775 155.11 166.829C155.054 166.884 154.979 166.915 154.901 166.915ZM152.426 156.577C149.73 157.676 148.28 158.846 148.437 159.804C148.772 161.76 151.902 165.995 154.604 166.305C154.551 163.758 153.494 160.002 152.426 156.577H152.426ZM136.329 149.303C136.287 149.303 136.245 149.294 136.207 149.276C136.168 149.259 136.134 149.233 136.106 149.201C136.081 149.172 136.061 149.138 136.049 149.101C136.036 149.064 136.031 149.025 136.034 148.986C136.037 148.948 136.047 148.91 136.064 148.875C136.082 148.84 136.106 148.809 136.135 148.784L139.324 146C139.353 145.974 139.387 145.955 139.424 145.942C139.461 145.93 139.5 145.925 139.538 145.927C139.577 145.93 139.615 145.94 139.65 145.958C139.685 145.975 139.716 145.999 139.741 146.028C139.767 146.058 139.786 146.092 139.799 146.129C139.811 146.165 139.816 146.204 139.813 146.243C139.811 146.282 139.801 146.32 139.783 146.354C139.766 146.389 139.742 146.42 139.713 146.446L136.524 149.229C136.47 149.277 136.401 149.303 136.329 149.303ZM102.603 169.459C102.488 169.459 102.384 169.385 102.337 169.269C102.276 169.117 102.363 168.941 102.515 168.88C102.853 168.744 109.104 168.694 112.8 168.676C112.949 168.679 113.097 168.807 113.098 168.97C113.098 169.049 113.067 169.124 113.012 169.18C112.957 169.236 112.881 169.267 112.803 169.268C108.978 169.287 103.132 169.347 102.708 169.438C102.673 169.452 102.638 169.459 102.603 169.459V169.459Z" fill="black"/>
<path d="M145.675 179.59C145.675 179.59 145.383 183.356 141.693 185.148C140.108 184.65 138.603 183.927 137.225 183C132.908 180.13 137.764 176.655 137.764 176.655H137.775C142.491 178.338 145.675 179.59 145.675 179.59Z" fill="white"/>
<path d="M141.692 185.444C141.662 185.444 141.633 185.439 141.604 185.43C139.992 184.924 138.462 184.188 137.06 183.246C135.806 182.412 135.16 181.436 135.142 180.346C135.105 178.219 137.491 176.487 137.592 176.414C137.669 176.358 137.784 176.342 137.875 176.376C142.541 178.042 145.751 179.302 145.783 179.315C145.842 179.338 145.892 179.38 145.926 179.433C145.959 179.487 145.975 179.55 145.97 179.613C145.957 179.774 145.622 183.57 141.822 185.414C141.781 185.434 141.737 185.444 141.692 185.444H141.692ZM137.82 176.985C137.36 177.348 135.705 178.766 135.733 180.337C135.749 181.221 136.306 182.034 137.389 182.753C138.711 183.642 140.152 184.341 141.668 184.83C144.57 183.362 145.222 180.574 145.351 179.782C144.568 179.477 141.716 178.378 137.82 176.985ZM114.746 184.559C114.697 184.559 114.648 184.547 114.605 184.523L111.618 182.891C111.584 182.873 111.554 182.848 111.529 182.817C111.505 182.787 111.487 182.752 111.476 182.715C111.465 182.678 111.461 182.639 111.465 182.6C111.469 182.561 111.481 182.524 111.5 182.49C111.578 182.346 111.759 182.292 111.901 182.372L114.888 184.003C114.946 184.035 114.992 184.084 115.018 184.145C115.044 184.205 115.05 184.273 115.034 184.336C115.017 184.4 114.98 184.457 114.928 184.497C114.876 184.537 114.812 184.559 114.746 184.559Z" fill="black"/>
<path d="M31.1985 201.529L57.098 175.36L88.9329 206.385L64.9219 236.062L31.1985 201.529Z" fill="#105535"/>
<path d="M64.922 236.358C64.8825 236.358 64.8434 236.35 64.807 236.335C64.7706 236.32 64.7377 236.297 64.7102 236.269L30.9868 201.736C30.9325 201.681 30.9023 201.606 30.9026 201.528C30.9029 201.451 30.9337 201.376 30.9884 201.321L56.888 175.152C56.9428 175.096 57.0175 175.065 57.0956 175.064C57.1738 175.063 57.249 175.094 57.3048 175.148L89.1397 206.174C89.1925 206.225 89.2243 206.295 89.2286 206.368C89.233 206.442 89.2098 206.514 89.1634 206.572L65.1524 236.248C65.1261 236.281 65.0932 236.307 65.0559 236.326C65.0186 236.345 64.9776 236.356 64.9359 236.358C64.9311 236.358 64.9269 236.358 64.9221 236.358H64.922ZM31.6138 201.531L64.9014 235.617L88.5331 206.409L57.1018 175.777L31.6138 201.531Z" fill="black"/>
<path d="M59.0762 177.288L64.2473 172.392L92.575 200.585L87.7051 205.189L59.0762 177.288Z" fill="white"/>
<path d="M87.7054 205.485C87.6282 205.485 87.554 205.455 87.4988 205.401L58.8698 177.499C58.8411 177.472 58.8184 177.438 58.803 177.402C58.7876 177.365 58.7798 177.325 58.7802 177.285C58.7805 177.246 58.7889 177.206 58.8048 177.17C58.8208 177.133 58.8439 177.1 58.8729 177.073L64.0443 172.177C64.1002 172.125 64.1745 172.096 64.2513 172.097C64.3282 172.098 64.4017 172.129 64.4563 172.183L92.784 200.375C92.841 200.432 92.8725 200.509 92.8715 200.589C92.8709 200.628 92.8624 200.667 92.8465 200.704C92.8305 200.74 92.8075 200.773 92.7787 200.8L87.9088 205.404C87.8541 205.456 87.7812 205.485 87.7055 205.485L87.7054 205.485ZM59.5037 177.291L87.7085 204.778L92.15 200.58L64.2423 172.805L59.5037 177.291Z" fill="black"/>
<path d="M78.4112 210.875C80.3691 210.875 81.9563 209.288 81.9563 207.33C81.9563 205.372 80.3691 203.785 78.4112 203.785C76.4533 203.785 74.8661 205.372 74.8661 207.33C74.8661 209.288 76.4533 210.875 78.4112 210.875Z" fill="black"/>
<path d="M172.369 188.899L65.5369 153.636L68.9596 143.267L175.791 178.53L189.968 188.899H172.369Z" fill="#F9F5EE"/>
<path d="M189.968 189.195H172.369C172.337 189.195 172.306 189.19 172.276 189.18L65.4443 153.916C65.4073 153.904 65.3731 153.885 65.3436 153.86C65.3141 153.834 65.29 153.803 65.2725 153.769C65.2551 153.734 65.2447 153.696 65.2419 153.657C65.2391 153.618 65.2439 153.58 65.2562 153.543L68.6791 143.174C68.7302 143.019 68.8983 142.932 69.0527 142.986L175.884 178.249C175.914 178.259 175.941 178.273 175.967 178.291L190.143 188.66C190.193 188.697 190.231 188.749 190.25 188.808C190.269 188.868 190.269 188.931 190.249 188.991C190.23 189.05 190.192 189.102 190.142 189.138C190.091 189.175 190.03 189.195 189.968 189.195ZM172.416 188.603H189.062L175.654 178.797L69.148 143.64L65.9106 153.447L172.416 188.603Z" fill="black"/>
<path d="M84.8703 148.518L81.9563 159.055L65.5369 153.636L68.9596 143.267L84.8703 148.518Z" fill="#105535"/>
<path d="M81.9566 159.351C81.9255 159.351 81.8939 159.346 81.8638 159.336L65.4443 153.916C65.4073 153.904 65.3731 153.885 65.3436 153.86C65.3141 153.834 65.29 153.803 65.2725 153.769C65.2551 153.734 65.2447 153.696 65.2419 153.657C65.2391 153.618 65.2439 153.58 65.2562 153.543L68.6791 143.174C68.7302 143.019 68.8983 142.932 69.0527 142.986L84.9633 148.237C85.0355 148.261 85.0957 148.312 85.1315 148.379C85.1673 148.446 85.176 148.524 85.1557 148.597L82.2417 159.134C82.2311 159.173 82.2127 159.209 82.1877 159.24C82.1627 159.271 82.1316 159.297 82.0963 159.316C82.0534 159.339 82.0054 159.351 81.9567 159.351L81.9566 159.351ZM65.9106 153.447L81.7543 158.677L84.5101 148.711L69.148 143.64L65.9106 153.447Z" fill="black"/>
<path d="M175.791 178.53C175.791 178.53 173.406 180.137 174.036 183.498C174.036 183.498 170.522 184.825 172.369 188.899H189.968L175.791 178.53Z" fill="white"/>
<path d="M189.968 189.195H172.369C172.312 189.195 172.256 189.178 172.208 189.148C172.16 189.117 172.122 189.073 172.099 189.021C171.463 187.618 171.365 186.366 171.806 185.298C172.285 184.139 173.263 183.542 173.706 183.322C173.193 179.966 175.524 178.353 175.626 178.284C175.677 178.25 175.736 178.233 175.797 178.234C175.858 178.235 175.917 178.255 175.966 178.291L190.143 188.66C190.193 188.697 190.231 188.749 190.25 188.808C190.269 188.867 190.269 188.931 190.249 188.99C190.23 189.05 190.192 189.101 190.142 189.138C190.091 189.175 190.03 189.195 189.968 189.195ZM172.562 188.603H189.062L175.796 178.9C175.291 179.319 173.83 180.792 174.327 183.443C174.339 183.512 174.327 183.582 174.294 183.642C174.26 183.703 174.206 183.749 174.141 183.774C174.128 183.779 172.866 184.275 172.351 185.531C171.994 186.397 172.066 187.43 172.562 188.603Z" fill="black"/>
<path d="M182.583 183.498L181.38 188.899H189.968L182.583 183.498Z" fill="black"/>
<path d="M97.6396 236.062H153.532C153.532 236.062 150.895 224.899 142.942 227.253C134.99 229.606 136.558 218.263 129.733 218.908C122.909 219.554 120.935 229.141 114.221 226.423C107.508 223.704 106.216 229.514 102.251 231.635C98.2851 233.756 93.9506 232.557 93.3972 236.062H97.6396Z" fill="white"/>
<path d="M153.531 236.358H93.3972C93.3544 236.358 93.3121 236.349 93.2733 236.331C93.2344 236.313 93.1999 236.287 93.1721 236.254C93.1443 236.222 93.1238 236.184 93.1122 236.143C93.1006 236.101 93.098 236.058 93.1047 236.016C93.4783 233.649 95.4406 233.242 97.7127 232.771C99.0811 232.487 100.633 232.165 102.111 231.375C103.313 230.732 104.286 229.711 105.228 228.724C107.346 226.504 109.534 224.207 114.332 226.148C117.86 227.578 119.974 225.469 122.421 223.03C124.449 221.006 126.548 218.913 129.705 218.614C133.086 218.296 134.511 220.734 135.89 223.093C137.41 225.698 138.848 228.157 142.858 226.969C144.854 226.377 146.703 226.562 148.351 227.519C152.322 229.822 153.76 235.743 153.819 235.994C153.84 236.082 153.819 236.175 153.763 236.246C153.735 236.281 153.7 236.309 153.66 236.329C153.62 236.348 153.576 236.358 153.531 236.358L153.531 236.358ZM93.7607 235.766H153.145C152.766 234.445 151.258 229.888 148.053 228.03C146.55 227.16 144.859 226.994 143.026 227.537C138.569 228.855 136.948 226.077 135.379 223.392C134.035 221.092 132.769 218.917 129.761 219.203C126.815 219.482 124.794 221.498 122.839 223.449C120.352 225.93 118.003 228.273 114.11 226.697C109.687 224.906 107.73 226.959 105.656 229.133C104.682 230.154 103.675 231.209 102.39 231.896C100.836 232.727 99.2408 233.058 97.8329 233.351C95.7436 233.784 94.1981 234.105 93.7607 235.766Z" fill="black"/>
<path d="M254.715 125.055H310.606C310.606 125.055 307.97 113.892 300.017 116.245C292.065 118.599 293.633 107.256 286.808 107.901C279.984 108.547 278.01 118.134 271.296 115.415C264.582 112.697 263.291 118.507 259.326 120.628C255.36 122.749 251.026 121.55 250.472 125.055H254.715Z" fill="white"/>
<path d="M310.607 125.35H250.472C250.43 125.35 250.387 125.341 250.348 125.323C250.31 125.305 250.275 125.279 250.247 125.247C250.219 125.214 250.199 125.176 250.187 125.135C250.176 125.093 250.173 125.05 250.18 125.008C250.554 122.642 252.516 122.235 254.787 121.763C256.156 121.48 257.708 121.158 259.186 120.367C260.388 119.724 261.361 118.703 262.303 117.716C264.421 115.495 266.611 113.2 271.408 115.141C274.937 116.57 277.05 114.463 279.496 112.022C281.525 109.998 283.622 107.905 286.78 107.606C290.16 107.283 291.586 109.726 292.965 112.086C294.486 114.69 295.923 117.148 299.934 115.961C301.928 115.37 303.778 115.555 305.426 116.511C309.397 118.814 310.835 124.735 310.895 124.986C310.915 125.074 310.895 125.167 310.838 125.238C310.811 125.273 310.775 125.302 310.735 125.321C310.695 125.34 310.651 125.351 310.607 125.351V125.35ZM250.836 124.758H310.22C309.841 123.437 308.333 118.88 305.128 117.022C303.626 116.152 301.935 115.986 300.101 116.529C295.646 117.844 294.022 115.07 292.454 112.384C291.11 110.084 289.843 107.91 286.836 108.195C283.89 108.474 281.869 110.49 279.914 112.441C277.427 114.923 275.076 117.266 271.185 115.69C266.765 113.898 264.805 115.951 262.731 118.125C261.758 119.146 260.751 120.201 259.465 120.888C257.912 121.72 256.315 122.051 254.908 122.343C252.818 122.776 251.273 123.097 250.836 124.758Z" fill="black"/>
</g>
<defs>
<filter id="filter0_d_3334_40963" x="0.902588" y="0.253906" width="344" height="344" filterUnits="userSpaceOnUse" color-interpolation-filters="sRGB">
<feFlood flood-opacity="0" result="BackgroundImageFix"/>
<feColorMatrix in="SourceAlpha" type="matrix" values="0 0 0 0 0 0 0 0 0 0 0 0 0 0 0 0 0 0 127 0" result="hardAlpha"/>
<feOffset dx="4" dy="4"/>
<feComposite in2="hardAlpha" operator="out"/>
<feColorMatrix type="matrix" values="0 0 0 0 0.0862745 0 0 0 0 0.113725 0 0 0 0 0.137255 0 0 0 1 0"/>
<feBlend mode="normal" in2="BackgroundImageFix" result="effect1_dropShadow_3334_40963"/>
<feBlend mode="normal" in="SourceGraphic" in2="effect1_dropShadow_3334_40963" result="shape"/>
</filter>
<clipPath id="clip0_3334_40963">
<rect width="280" height="132.209" fill="white" transform="translate(30.9026 104.149)"/>
</clipPath>
</defs>
</svg>
