<svg width="345" height="345" viewBox="0 0 345 345" fill="none" xmlns="http://www.w3.org/2000/svg">
<g filter="url(#filter0_d_3334_41048)">
<circle cx="170.903" cy="170.363" r="170" fill="#F4D251"/>
</g>
<path d="M49.2487 147.208L42.1959 146.182L40.1442 151.696V160.288V171.059L39.3748 180.035L40.1442 188.627V199.912V212.991L42.1959 217.479L52.8392 220.172L63.739 221.839H72.587L82.7174 220.172L89.6419 217.479L91.8219 214.658V210.427V201.579L93.7454 191.063V169.264L94.643 158.108L93.7454 148.875L81.3068 149.644V138.745L73.6129 139.642V148.875L72.587 149.644H66.0472L57.9685 148.875V132.205L50.2746 133.102L49.2487 147.208Z" fill="white"/>
<path d="M133.741 158.249L128.335 159.272L125.851 167.308L128.335 190.687L131.403 212.019L130.526 233.06L131.403 247.087L134.472 248.694L143.969 249.717L158.288 251.763L177.721 249.717L190.58 245.918L194.525 242.411L193.794 235.69V228.53V217.572V203.106L194.525 187.764L193.794 161.902L192.771 158.249L182.251 159.272L180.205 161.902V156.204V143.93H173.63V160.295H167.493H153.759H140.024V149.482V142.031L133.741 143.93V158.249Z" fill="white"/>
<path d="M40.5973 112.125V96.708H45.3955V112.125H40.5973Z" fill="white"/>
<path d="M292.608 100.676V81.8706H299.278V100.676H292.608Z" fill="white"/>
<path d="M183.557 115.65V87.6978H194.329V115.65H183.557Z" fill="white"/>
<path d="M121.529 115.881V95.7144H127.247V115.881H121.529Z" fill="white"/>
<path d="M223.514 122.17L221.339 122.948L218.691 128.142L221.339 143.991L223.514 161.332V196.246L226.96 205.778L232.472 206.582L237.411 208.879H246.254L264.859 206.582L283.808 199.921L292.651 194.867V187.288V176.952L291.848 162.94L290.469 152.604L289.091 141.579V127.568V118.725L288.058 112.408V107.699L274.85 112.982L260.495 117.232L259.461 110.8L257.624 96.3296L248.091 98.3969L249.24 119.873L223.514 122.17Z" fill="white"/>
<path d="M242.68 176.593C242.824 176.577 242.955 176.504 243.046 176.391C243.137 176.278 243.18 176.134 243.166 175.99L242.733 170.876C242.706 170.548 242.419 170.335 242.151 170.37L237.778 170.778C237.635 170.795 237.503 170.868 237.413 170.98C237.322 171.093 237.279 171.236 237.292 171.38L237.724 176.497C237.753 176.823 238.039 177.035 238.306 177.001L242.68 176.593ZM244.175 185.843L243.744 180.729C243.739 180.658 243.721 180.587 243.689 180.523C243.658 180.458 243.613 180.401 243.559 180.353C243.505 180.306 243.442 180.27 243.374 180.248C243.305 180.225 243.233 180.216 243.162 180.222L238.788 180.631C238.644 180.648 238.513 180.721 238.422 180.834C238.331 180.946 238.288 181.09 238.302 181.234L238.733 186.348C238.762 186.668 239.04 186.889 239.315 186.855L243.689 186.445C243.833 186.429 243.965 186.356 244.055 186.244C244.146 186.131 244.189 185.987 244.175 185.843ZM244.638 190.313L240.264 190.722C240.12 190.739 239.989 190.811 239.898 190.924C239.807 191.037 239.764 191.18 239.778 191.324L240.21 196.441C240.239 196.763 240.521 196.98 240.792 196.946L245.166 196.536C245.309 196.52 245.441 196.447 245.532 196.334C245.623 196.222 245.666 196.078 245.652 195.934L245.219 190.819C245.189 190.482 244.883 190.271 244.638 190.313ZM48.2118 184.05H55.1409C55.2823 184.05 55.4179 183.994 55.5178 183.894C55.6178 183.794 55.674 183.658 55.674 183.517V161.504C55.674 161.362 55.6178 161.227 55.5178 161.127C55.4179 161.027 55.2823 160.971 55.1409 160.971H48.2118C48.0705 160.971 47.9349 161.027 47.8349 161.127C47.735 161.227 47.6788 161.362 47.6788 161.504V183.517C47.6788 183.658 47.735 183.794 47.8349 183.894C47.9349 183.994 48.0705 184.05 48.2118 184.05ZM58.2057 184.05H65.1348C65.2762 184.05 65.4118 183.994 65.5117 183.894C65.6117 183.794 65.6678 183.658 65.6678 183.517V168.233C65.6678 168.092 65.6117 167.957 65.5117 167.857C65.4118 167.757 65.2762 167.7 65.1348 167.7H58.2057C58.0644 167.7 57.9288 167.757 57.8288 167.857C57.7289 167.957 57.6727 168.092 57.6727 168.233V183.517C57.6727 183.658 57.7289 183.794 57.8288 183.894C57.9288 183.994 58.0644 184.05 58.2057 184.05ZM68.5994 183.909H75.5285C75.6699 183.909 75.8054 183.853 75.9054 183.753C76.0053 183.653 76.0615 183.518 76.0615 183.376V172.861C76.0615 172.72 76.0053 172.584 75.9054 172.484C75.8054 172.384 75.6699 172.328 75.5285 172.328H68.5994C68.458 172.328 68.3225 172.384 68.2225 172.484C68.1225 172.584 68.0664 172.72 68.0664 172.861V183.376C68.0664 183.518 68.1225 183.653 68.2225 183.753C68.3225 183.853 68.458 183.909 68.5994 183.909ZM77.927 179.451V183.517C77.927 183.658 77.9832 183.794 78.0831 183.894C78.1831 183.994 78.3187 184.05 78.46 184.05H85.3891C85.5305 184.05 85.6661 183.994 85.766 183.894C85.866 183.794 85.9221 183.658 85.9221 183.517V179.451C85.9221 179.31 85.866 179.174 85.766 179.074C85.6661 178.974 85.5305 178.918 85.3891 178.918H78.46C78.3187 178.918 78.1831 178.974 78.0831 179.074C77.9832 179.174 77.927 179.31 77.927 179.451ZM203.184 264.278C203.184 260.29 188.263 258.138 174.224 258.138C160.185 258.138 145.264 260.29 145.264 264.278C145.264 268.266 160.185 270.421 174.224 270.421C188.263 270.421 203.184 268.268 203.184 264.279V264.278ZM304.545 217.354C304.545 213.365 289.624 211.214 275.584 211.214C261.545 211.214 246.624 213.365 246.624 217.354C246.624 221.343 261.545 223.497 275.584 223.497C289.624 223.497 304.545 221.343 304.545 217.354Z" fill="#105535"/>
<path d="M64.5135 244.061C80.5079 244.061 93.4739 241.311 93.4739 237.92C93.4739 234.528 80.5079 231.778 64.5135 231.778C48.5191 231.778 35.553 234.528 35.553 237.92C35.553 241.311 48.5191 244.061 64.5135 244.061Z" fill="#105535"/>
<path d="M307.954 88.6441L300.6 91.1961C300.588 87.8595 300.775 84.5218 301.163 81.1628C301.259 80.3356 300.353 79.519 299.564 79.5638L292.426 79.9721C291.382 80.0328 290.783 80.9315 290.881 81.7875C290.563 86.0623 290.488 90.3517 290.654 94.6351C280.632 98.0916 270.602 101.524 260.564 104.933C260.213 101.695 259.809 98.4632 259.353 95.2385C259.227 94.3537 258.141 93.9539 257.386 94.1213C254.058 94.8579 250.368 95.296 247.187 96.5454C247.139 96.5646 247.1 96.5912 247.056 96.6136C246.446 96.7714 245.958 97.2586 246.012 98.0879L246.782 109.608C205.223 123.746 162.687 138.05 118.909 142.09C93.1688 133.679 69.031 121.065 46.8408 105.42C46.7907 102.291 46.9016 99.1625 47.2118 96.0252C47.2928 95.2022 46.4123 94.3739 45.6128 94.4262L40.4937 94.7673C39.5162 94.8313 38.9821 95.5316 38.9587 96.2864C38.8926 96.7725 38.8094 99.0282 38.7903 99.51C37.6709 98.6625 36.5442 97.8214 35.4376 96.9548C33.8354 95.7001 31.5573 97.9483 33.1766 99.2158C35.0065 100.644 36.8515 102.053 38.7114 103.441C38.7039 106.448 38.8062 109.452 39.045 112.459C39.109 113.281 39.7252 114.111 40.6441 114.058C42.306 113.962 43.5831 114.031 45.2546 114.388C46.1681 114.585 47.3973 113.945 47.28 112.846C47.1626 111.704 47.0691 110.559 46.9996 109.413C66.8179 123.179 88.1884 134.55 110.822 142.705C101.688 143.274 92.5025 143.373 83.258 142.908C83.3582 141.692 83.4968 140.477 83.6887 139.262C83.8401 138.293 83.2836 137.19 82.1462 137.237L74.021 137.578C72.9902 137.621 72.2685 138.731 72.4614 139.632C72.3825 140.426 72.3314 141.22 72.2802 142.013C67.8275 141.525 63.4003 140.894 58.9902 140.116C59.0691 137.506 59.2642 134.895 59.5818 132.277C59.6831 131.448 58.7674 130.636 57.9828 130.678L49.8576 131.117C48.8023 131.175 48.1797 132.135 48.3151 133.013C48.1887 134.601 48.0949 136.192 48.0337 137.784C43.2552 136.617 38.526 135.256 33.8578 133.706C31.9006 133.052 31.0616 136.14 33.0082 136.789C37.9351 138.427 42.9301 139.853 47.9793 141.063C47.9655 142.426 47.9761 143.789 48.0113 145.15C45.8771 144.817 43.743 144.484 41.6077 144.162C40.5268 144 39.675 144.58 39.5844 145.704C36.1284 188.293 38.5675 197.18 39.4352 217.553C39.464 218.255 39.9096 218.91 40.6078 219.096C57.6939 223.626 75.9708 226.18 92.2637 217.667C93.3575 217.094 93.2317 214.973 95.4085 213.313C95.4743 213.262 95.5275 213.198 95.564 213.124C95.6005 213.049 95.6191 212.968 95.6185 212.885C95.4533 193.167 96.1483 172.731 97.6844 152.145C97.8273 150.21 96.5864 149.417 95.6825 148.294C95.7869 147.418 95.2912 146.52 94.174 146.642C90.4888 147.045 86.7972 147.352 83.0971 147.563C83.0907 147.075 83.096 146.586 83.1045 146.098C95.0066 146.706 106.818 146.392 118.541 145.338C122.999 146.784 127.498 148.101 132.033 149.288C131.974 151.925 131.993 154.562 132.087 157.201C130.536 157.041 128.985 156.88 127.434 156.726C126.455 156.63 125.625 158.037 125.587 158.149L122.67 166.909C122.64 167 122.635 167.097 122.656 167.19C127.741 190.728 128.981 216.331 126.344 243.289C126.336 243.372 126.348 243.456 126.379 243.534C126.409 243.612 126.457 243.682 126.519 243.738C128.51 245.529 128.311 246.014 129.742 247.575C129.753 247.727 129.754 247.88 129.769 248.032C129.831 248.704 130.218 249.418 130.942 249.573C152.334 254.138 175.462 256.257 195.048 244.627C195.517 244.347 195.866 243.804 195.841 243.244C193.857 198.572 197.93 186.341 195.297 158.965C195.191 157.863 195.102 156.303 193.315 156.592C189.519 157.206 185.71 157.738 181.891 158.188C181.861 157.58 181.831 156.971 181.813 156.363C194.344 156.655 206.796 155.884 219.195 154.141C219.675 160.554 219.851 166.991 220.024 173.335C220.298 183.473 220.582 193.955 222.118 203.91C222.172 204.256 222.168 204.022 224.195 205.846C225.908 207.394 226.29 207.77 226.712 207.542C226.787 207.498 226.849 207.436 226.894 207.362C227.047 207.366 227.195 207.353 227.329 207.307C229.273 206.606 231.864 209.714 243.596 210.331C272.11 211.823 292.205 196.521 292.815 196.521C293.696 196.521 294.393 195.788 294.414 194.922C294.961 173.458 291.824 152.159 290.827 130.774C296.936 127.598 302.855 124.114 308.686 120.455C310.425 119.365 308.822 116.596 307.071 117.694C301.713 121.056 296.272 124.261 290.687 127.224C290.456 120.576 290.452 113.918 290.875 107.242C290.943 106.17 289.589 104.817 288.245 105.447C279.649 109.473 270.702 112.703 261.516 115.097C261.343 112.792 261.143 110.489 260.915 108.188C270.894 104.8 280.865 101.387 290.828 97.9504C290.893 98.929 290.946 99.9066 291.037 100.884C291.112 101.706 291.709 102.537 292.636 102.483C294.907 102.351 296.986 102.459 299.233 102.89C300.129 103.063 301.397 102.464 301.258 101.349C300.977 99.089 300.787 96.8186 300.688 94.5434L308.805 91.7281C310.737 91.0565 309.907 87.9672 307.954 88.6441ZM42.0683 97.8609L43.8879 97.7393C43.544 102.139 43.5572 106.559 43.9274 110.957C43.3347 110.888 42.7393 110.847 42.1429 110.833C41.8636 106.508 41.838 102.189 42.0683 97.8609ZM75.6989 153.639C75.2564 149.343 75.2157 145.015 75.5774 140.712L80.3158 140.512C79.7863 144.939 79.8067 149.414 80.3766 153.835C78.8222 153.683 77.2606 153.618 75.6989 153.639ZM72.132 147.765C67.7587 147.638 63.3939 147.304 59.052 146.765C58.9954 145.624 58.9616 144.481 58.9507 143.338C63.3321 144.095 67.7304 144.713 72.1502 145.196C72.1331 146.053 72.1171 146.909 72.132 147.765ZM51.5718 151.858C51.0801 145.993 51.0366 140.1 51.4417 134.229L56.2047 133.972C55.5814 140.003 55.6043 146.084 56.2729 152.11C54.7134 151.92 53.1427 151.835 51.5718 151.858ZM92.4492 150.007C91.1657 169.833 88.6649 189.6 89.6861 209.503C89.8812 213.294 89.8673 212.614 89.8599 215.334C90.0731 216.146 89.7959 216.284 89.0294 215.751C85.5489 218.92 76.9664 219.706 72.5968 220.038C62.4515 220.809 52.35 218.848 42.5703 216.302C41.6589 196.967 39.4992 187.573 42.645 147.537C44.4679 147.814 46.2907 148.097 48.1126 148.38C48.2032 150.084 48.33 151.786 48.4963 153.492C48.5773 154.316 49.1647 155.142 50.0954 155.091C52.6932 154.948 55.0918 155.066 57.6641 155.533C58.5553 155.695 59.8366 155.116 59.6895 153.992C59.5177 152.661 59.3766 151.326 59.2663 149.989C63.5847 150.511 67.9074 150.853 72.2578 150.968C72.3495 152.401 72.4785 153.835 72.6597 155.27C72.7642 156.094 73.3089 156.916 74.2587 156.869C76.8054 156.744 79.301 156.826 81.8274 157.2C83.0896 157.385 84.0128 156.517 83.7953 155.233C83.545 153.748 83.3618 152.253 83.2463 150.751C86.3196 150.574 89.3866 150.321 92.4492 150.007ZM250.951 124.146L249.284 99.1881C251.584 98.4482 254.073 98.0336 256.463 97.5688C257.594 105.794 258.365 114.065 258.776 122.358C256.221 123.163 253.603 123.761 250.951 124.146ZM247.343 118.005C240.564 119.018 233.77 119.57 226.941 119.665C233.655 117.437 240.341 115.172 247.003 112.907L247.343 118.005ZM172.015 155.87C172.037 156.936 172.052 158.001 172.1 159.067C161.999 159.646 152.004 159.197 141.942 158.217C141.825 156.006 141.78 153.792 141.808 151.578C151.775 153.651 161.865 155.085 172.015 155.87ZM179.011 162.729C177.853 162.572 176.686 162.498 175.517 162.505C175.101 156.635 175.065 150.745 175.409 144.87L178.954 144.643C178.434 150.661 178.452 156.714 179.011 162.729ZM135.542 161.944C135.126 156.075 135.089 150.184 135.433 144.309L138.979 144.083C138.456 150.101 138.475 156.154 139.035 162.168C137.877 162.012 136.71 161.937 135.542 161.944ZM126.653 144.483C128.525 144.262 130.395 144.025 132.262 143.767C132.216 144.514 132.185 145.259 132.15 146.005C130.31 145.52 128.477 145.013 126.653 144.483ZM189.564 244.022C183.772 246.95 177.455 248.683 171.033 249.504C158.277 251.133 145.393 249.335 132.891 246.718C132.489 238.437 135.234 232.474 132.935 197.401C134.404 197.414 135.637 197.577 137.004 197.604C168.985 198.211 189.139 196.033 190.564 196.061C191.126 196.077 191.758 196.351 192.502 196.3C192.016 209.379 191.383 222.458 192.218 235.551C192.778 244.382 192.998 242.288 189.564 244.022ZM192.18 159.974C192.832 167.243 192.982 174.507 192.895 181.77C192.097 180.043 190.251 176.472 187.981 171.5C187.919 171.36 187.814 171.242 187.683 171.163C187.551 171.084 187.398 171.047 187.245 171.058C187.096 171.068 186.954 171.123 186.837 171.216C186.721 171.31 186.636 171.437 186.594 171.58C186.24 172.753 178.703 186.908 177.92 187.877C177.869 187.916 177.345 188.24 174.07 188.264C173.596 186.974 172.766 185.461 171.797 184.137C171.747 184.068 171.681 184.012 171.605 183.974C171.529 183.936 171.445 183.917 171.36 183.918C171.275 183.919 171.191 183.94 171.116 183.98C171.041 184.02 170.977 184.077 170.928 184.147C170.652 184.49 168.438 186.958 167.538 187.878C166.489 186.215 162.016 178.037 160.475 175.266C160.432 175.189 160.37 175.124 160.295 175.076C160.22 175.029 160.134 175.001 160.046 174.995C159.958 174.989 159.869 175.005 159.788 175.041C159.708 175.078 159.637 175.134 159.584 175.205C155.051 181.238 150.938 185.828 149.318 187.738C148.7 188.447 148.167 189.06 147.578 189.341C147.184 189.481 144.465 189.383 142.652 189.533C141.814 187.683 140.744 185.766 140.28 183.886C140.26 183.806 140.222 183.731 140.168 183.668C140.114 183.604 140.046 183.555 139.969 183.523C139.892 183.491 139.809 183.477 139.726 183.483C139.643 183.488 139.563 183.513 139.491 183.556C136.722 185.187 136.21 186.1 132.292 188.631C131.501 179.103 130.451 169.597 129.256 160.11C130.252 160.21 131.249 160.311 132.247 160.415C132.31 161.471 132.361 162.53 132.449 163.587C132.516 164.405 133.127 165.246 134.048 165.186C136.219 165.045 138.261 165.171 140.396 165.63C141.306 165.824 142.543 165.186 142.422 164.088C142.323 163.205 142.236 162.32 142.161 161.435C152.218 162.407 162.206 162.846 172.303 162.254C172.347 162.886 172.372 163.516 172.424 164.148C172.492 164.967 173.103 165.808 174.023 165.747C176.194 165.606 178.237 165.732 180.372 166.19C181.281 166.385 182.519 165.747 182.398 164.648C182.277 163.554 182.174 162.458 182.088 161.361C185.461 160.962 188.826 160.496 192.18 159.975V159.974ZM181.774 153.165C181.781 149.758 181.954 146.35 182.307 142.933C182.391 142.109 181.504 141.283 180.708 141.334L173.821 141.773C172.772 141.839 172.212 142.668 172.28 143.495C172.076 146.549 171.974 149.608 171.974 152.669C161.865 151.881 151.817 150.434 141.896 148.337C141.983 146.344 142.128 144.355 142.33 142.371C142.336 142.323 142.326 142.275 142.325 142.226C167.909 137.903 193.085 130.674 217.895 122.635L215.085 128.917C215.032 129.033 215.023 129.163 215.059 129.285C217.12 136.338 218.257 143.625 218.932 150.97C206.628 152.724 194.199 153.459 181.774 153.166V153.165ZM287.583 109.243C286.134 137.516 291.773 165.488 291.23 193.738C290.453 194.105 269.342 209.119 241.907 207.025C232.337 206.294 230.722 204.671 228.289 204.193C224.564 177.124 227.545 149.602 221.328 122.83C230.123 123.022 238.854 122.455 247.556 121.183L247.874 125.954C247.928 126.74 248.567 127.655 249.473 127.553C253.398 127.11 257.117 126.32 260.869 125.056C261.514 124.839 262.075 124.239 262.042 123.515C261.962 121.788 261.85 120.067 261.739 118.344C270.598 116.056 279.245 113.011 287.583 109.243ZM294.118 99.2467C293.698 93.8671 293.66 88.4644 294.006 83.0795C295.269 83.0081 296.533 82.9366 297.794 82.8631C297.262 88.3846 297.281 93.9454 297.851 99.4631C296.613 99.3111 295.366 99.2388 294.118 99.2467Z" fill="#105535"/>
<path d="M194.682 85.8908C194.554 85.006 193.47 84.6074 192.714 84.7737C189.386 85.5113 185.697 85.9495 182.515 87.1988C181.722 87.508 181.283 87.8662 181.341 88.7403L182.198 101.58C164.528 103.196 146.772 103.665 129.041 102.982C129.11 100.411 129.273 97.8387 129.538 95.2611C129.623 94.4381 128.736 93.6109 127.939 93.6621L121.053 94.1013C120.005 94.1684 119.443 94.9967 119.512 95.8229C119.367 98.0377 119.275 100.256 119.237 102.475C90.862 100.54 62.8322 95.6204 35.5102 87.6956C33.5295 87.121 32.6852 90.2071 34.6606 90.7796C62.2395 98.779 90.5561 103.717 119.198 105.672C119.211 109.273 119.359 112.873 119.656 116.476C119.724 117.295 120.335 118.136 121.255 118.075C123.427 117.935 125.469 118.06 127.604 118.518C128.514 118.713 129.751 118.075 129.63 116.976C129.229 113.39 129.019 109.786 129.001 106.178C146.828 106.868 164.645 106.391 182.41 104.76L183.202 116.607C183.256 117.394 183.896 118.307 184.801 118.206C188.727 117.763 192.445 116.973 196.197 115.709C196.842 115.493 197.404 114.892 197.37 114.167C197.2 110.494 196.94 106.833 196.631 103.175C235.133 98.0797 272.622 87.5869 308.11 71.7704C309.986 70.9357 308.361 68.1779 306.496 69.0094C271.487 84.6127 234.361 95.0085 196.369 100.013C195.919 95.2963 195.356 90.5898 194.682 85.8908ZM122.75 114.833C122.334 108.963 122.297 103.073 122.641 97.1981L126.187 96.9721C125.666 102.99 125.685 109.042 126.243 115.057C125.085 114.9 123.918 114.826 122.75 114.833ZM184.612 89.8404C186.912 89.1017 189.401 88.6859 191.791 88.2222C192.922 96.4474 193.694 104.718 194.105 113.01C191.549 113.816 188.932 114.414 186.28 114.799L184.612 89.8404ZM246.551 157.951C248.037 159.195 249.47 160.499 250.846 161.862C254.457 157.039 254.256 150.229 250.328 145.646L246.014 149.498C248.078 151.848 248.283 155.361 246.551 157.951Z" fill="#105535"/>
<path d="M241.361 160.803C237.849 160.803 235.001 157.79 235.001 154.073C235.001 150.357 237.849 147.343 241.361 147.343C242.031 147.343 242.676 147.454 243.282 147.657L247.942 143.497C246.08 142.228 243.869 141.482 241.493 141.482C234.917 141.482 229.568 147.13 229.568 154.073C229.568 161.016 234.917 166.665 241.493 166.665C244.164 166.665 246.624 165.721 248.613 164.15C247.19 162.739 245.707 161.389 244.167 160.106C243.302 160.562 242.339 160.801 241.361 160.803ZM251.26 173.556L276.809 167.954C278.818 167.513 277.968 164.431 275.959 164.871C267.442 166.736 258.926 168.605 250.411 170.473C248.401 170.913 249.251 173.996 251.26 173.556ZM269.916 176.27L253.645 180.692C251.66 181.231 252.502 184.317 254.494 183.776L270.767 179.354C272.751 178.815 271.909 175.729 269.916 176.27ZM268.239 186.587L258.285 189.656C256.324 190.26 257.161 193.348 259.135 192.739C262.452 191.717 265.771 190.694 269.089 189.671C271.05 189.065 270.213 185.978 268.239 186.587ZM184.347 205.136C169.422 208.38 154.283 209.245 139.084 207.774C137.038 207.574 137.051 210.773 139.084 210.972C154.563 212.469 170.005 211.523 185.197 208.22C187.208 207.783 186.357 204.699 184.347 205.136ZM183.143 220.972C170.922 223.883 158.542 224.786 146.029 223.718C143.979 223.543 143.99 226.742 146.029 226.916C158.822 228.008 171.509 227.029 183.993 224.055C185.994 223.578 185.148 220.494 183.143 220.972ZM173.709 234.826C167.844 235.839 161.961 236.357 156.013 236.423C153.955 236.444 153.951 239.642 156.013 239.621C162.23 239.547 168.432 238.976 174.558 237.911C176.584 237.56 175.724 234.478 173.709 234.826ZM81.1155 195.18C82.3649 193.546 79.589 191.951 78.3545 193.567C70.5843 203.737 57.0022 186.112 45.8975 196.324C44.3795 197.72 46.6459 199.977 48.1585 198.586C57.4435 190.047 71.2655 208.075 81.1155 195.18ZM79.7499 205.177C72.9519 213.34 62.5945 200.942 52.6795 207.94C51.0112 209.118 52.607 211.892 54.2935 210.701C62.7896 204.706 74.2791 216.723 82.012 207.439C83.32 205.869 81.0696 203.594 79.7499 205.177Z" fill="#105535"/>
<defs>
<filter id="filter0_d_3334_41048" x="0.902588" y="0.363281" width="344" height="344" filterUnits="userSpaceOnUse" color-interpolation-filters="sRGB">
<feFlood flood-opacity="0" result="BackgroundImageFix"/>
<feColorMatrix in="SourceAlpha" type="matrix" values="0 0 0 0 0 0 0 0 0 0 0 0 0 0 0 0 0 0 127 0" result="hardAlpha"/>
<feOffset dx="4" dy="4"/>
<feComposite in2="hardAlpha" operator="out"/>
<feColorMatrix type="matrix" values="0 0 0 0 0.0862745 0 0 0 0 0.113725 0 0 0 0 0.137255 0 0 0 1 0"/>
<feBlend mode="normal" in2="BackgroundImageFix" result="effect1_dropShadow_3334_41048"/>
<feBlend mode="normal" in="SourceGraphic" in2="effect1_dropShadow_3334_41048" result="shape"/>
</filter>
</defs>
</svg>
