<svg width="345" height="345" viewBox="0 0 345 345" fill="none" xmlns="http://www.w3.org/2000/svg">
<g filter="url(#filter0_d_3334_41008)">
<circle cx="170.903" cy="170.254" r="170" fill="#F4D251"/>
</g>
<path d="M240.83 100.346C248.015 102.764 252.265 105.688 252.174 108.732C252.082 111.903 248.563 126.641 247.229 129.515C245.937 132.262 240.821 132.957 233.317 131.875C236.631 138.695 237.527 143.775 235.296 145.841C233.065 147.907 220.734 155.491 217.86 156.557C214.986 157.623 210.875 154.526 206.283 148.49C203.866 155.675 200.942 159.928 197.904 159.837C194.733 159.741 179.99 156.221 177.116 154.875C174.368 153.584 173.67 148.468 174.755 140.964C167.941 144.278 162.858 145.171 160.792 142.94C158.726 140.709 151.14 128.377 150.077 125.506C149.013 122.635 152.113 118.522 158.143 113.936C150.959 111.513 146.711 108.589 146.801 105.55C146.895 102.377 150.409 87.636 151.747 84.7619C153.038 82.0143 158.154 81.3192 165.655 82.4018C162.345 75.5877 161.449 70.5046 163.683 68.4385C165.916 66.3722 178.244 58.7862 181.118 57.7229C183.993 56.6596 188.1 59.7588 192.684 65.7898C195.11 58.6049 198.033 54.357 201.071 54.4477C204.242 54.5439 218.983 58.058 221.857 59.3934C224.605 60.6847 225.302 65.8007 224.217 73.3045C231.034 69.9908 236.117 69.0979 238.184 71.3289C240.25 73.56 247.833 85.8912 248.899 88.7652C249.965 91.6391 246.864 95.7551 240.83 100.346Z" fill="white"/>
<path d="M197.994 161.489H197.843C194.483 161.39 179.454 157.804 176.412 156.373C173.371 154.941 172.147 150.68 172.774 143.682C166.295 146.402 161.864 146.534 159.586 144.066C157.308 141.599 149.695 129.196 148.529 126.086C147.356 122.932 149.475 119.036 154.83 114.486C148.301 111.878 145.048 108.864 145.15 105.507C145.252 102.149 148.835 87.1169 150.26 84.0754C151.686 81.0338 155.956 79.8083 162.954 80.4347C160.234 73.9587 160.102 69.5267 162.57 67.2463C165.037 64.9658 177.442 57.355 180.553 56.1873C183.707 55.0167 187.6 57.1352 192.15 62.4902C194.703 56.0526 197.662 52.7939 200.959 52.7939H201.11C204.476 52.8956 219.499 56.4785 222.542 57.9072C225.584 59.336 226.806 63.6003 226.182 70.5983C232.658 67.8782 237.09 67.7464 239.371 70.2137C241.652 72.6811 249.262 85.0865 250.427 88.1967C251.6 91.3483 249.479 95.2443 244.124 99.7998C250.652 102.399 253.906 105.413 253.806 108.779C253.707 112.145 250.122 127.163 248.694 130.21C247.264 133.257 243 134.477 236 133.851C238.723 140.332 238.854 144.764 236.386 147.039C233.919 149.314 221.514 156.931 218.406 158.09C215.252 159.263 211.353 157.145 206.8 151.793C204.256 158.236 201.291 161.489 197.994 161.489ZM174.744 139.319C174.981 139.318 175.215 139.369 175.43 139.468C175.644 139.566 175.836 139.709 175.992 139.888C176.146 140.067 176.26 140.277 176.328 140.504C176.393 140.731 176.41 140.969 176.377 141.203C175.229 149.152 176.36 152.708 177.805 153.386C180.49 154.645 194.983 158.104 197.942 158.192H197.984C199.58 158.192 202.17 155.513 204.713 147.968C204.808 147.684 204.979 147.432 205.207 147.238C205.435 147.044 205.712 146.916 206.008 146.867C206.303 146.819 206.605 146.852 206.884 146.962C207.163 147.073 207.405 147.257 207.587 147.495C212.446 153.886 215.777 155.571 217.275 155.013C219.929 154.026 232.084 146.556 234.164 144.632C235.335 143.55 235.335 139.819 231.825 132.595C231.695 132.326 231.64 132.026 231.667 131.728C231.693 131.43 231.801 131.145 231.978 130.903C232.154 130.661 232.392 130.472 232.669 130.356C232.945 130.24 233.246 130.201 233.543 130.243C241.492 131.392 245.047 130.257 245.726 128.814C246.984 126.13 250.438 111.645 250.529 108.683C250.575 107.086 247.912 104.468 240.302 101.91C240.018 101.815 239.764 101.644 239.57 101.415C239.375 101.187 239.248 100.91 239.199 100.614C239.15 100.318 239.183 100.015 239.294 99.7359C239.406 99.4575 239.591 99.2144 239.829 99.0333C246.223 94.1728 247.91 90.8427 247.355 89.3479C246.365 86.6938 238.892 74.5357 236.966 72.4557C235.884 71.2853 232.153 71.2853 224.934 74.794C224.665 74.9254 224.366 74.981 224.066 74.9545C223.768 74.9282 223.482 74.821 223.24 74.6444C222.998 74.4678 222.809 74.2285 222.693 73.9523C222.577 73.6761 222.537 73.3734 222.579 73.0767C223.732 65.1279 222.596 61.5725 221.154 60.8939C218.469 59.6244 203.982 56.1817 201.017 56.0937H200.976C199.379 56.0937 196.786 58.7728 194.241 66.3149C194.145 66.5984 193.975 66.8505 193.746 67.0441C193.518 67.2377 193.241 67.3656 192.946 67.4139C192.65 67.4622 192.348 67.4291 192.069 67.3182C191.791 67.2074 191.548 67.023 191.368 66.7847C186.51 60.3938 183.182 58.7095 181.688 59.2646C179.031 60.2537 166.875 67.7272 164.795 69.6532C163.625 70.7358 163.625 74.4669 167.134 81.6849C167.264 81.9541 167.319 82.254 167.293 82.5521C167.266 82.8503 167.158 83.1354 166.982 83.3772C166.806 83.6189 166.567 83.808 166.291 83.9242C166.015 84.0405 165.713 84.0795 165.416 84.0369C157.468 82.8883 153.912 84.0204 153.233 85.4656C151.975 88.1473 148.521 102.638 148.433 105.603C148.384 107.194 151.044 109.809 158.654 112.378C158.938 112.474 159.19 112.645 159.384 112.874C159.577 113.102 159.705 113.379 159.753 113.674C159.802 113.969 159.769 114.272 159.658 114.55C159.547 114.828 159.363 115.071 159.124 115.252C152.733 120.11 151.049 123.44 151.607 124.935C152.593 127.592 160.067 139.744 161.99 141.824C163.075 142.995 166.806 142.995 174.025 139.486C174.249 139.376 174.495 139.318 174.744 139.319Z" fill="#101014"/>
<path d="M202.452 145.259C202.149 145.259 201.854 145.176 201.596 145.019C201.339 144.863 201.129 144.639 200.989 144.371L181.536 107.122C181.387 106.839 181.326 106.517 181.358 106.199L183.308 86.1413C183.333 85.8774 183.42 85.6232 183.564 85.4003C183.707 85.1774 183.903 84.9924 184.133 84.861L192.576 80.1461C192.822 80.0074 193.101 79.9346 193.384 79.9346C193.667 79.9346 193.945 80.0074 194.192 80.1461L210.145 89.183C210.413 89.335 210.635 89.5597 210.782 89.8313L231.664 128.386C231.768 128.578 231.832 128.789 231.853 129.006C231.875 129.223 231.853 129.443 231.79 129.652C231.726 129.861 231.621 130.055 231.481 130.223C231.342 130.391 231.17 130.529 230.977 130.63L203.209 145.075C202.975 145.196 202.715 145.259 202.452 145.259ZM184.686 106.031L203.157 141.387L227.976 128.474L208.122 91.8123L193.387 83.4652L186.518 87.3119L184.686 106.031Z" fill="#101014"/>
<path d="M194.554 99.6433C193.598 99.6426 192.656 99.4143 191.805 98.9771C190.953 98.5398 190.22 97.9063 189.661 97.1289C189.104 96.3515 188.74 95.4526 188.599 94.5064C188.457 93.5603 188.544 92.5943 188.851 91.6881C189.157 90.7819 189.674 89.9616 190.361 89.2952C191.047 88.6288 191.882 88.1353 192.797 87.8556C193.711 87.5759 194.68 87.5181 195.621 87.6868C196.563 87.8556 197.451 88.2461 198.211 88.8259C199.215 89.5908 199.953 90.6511 200.321 91.8574C200.689 93.0637 200.671 94.3554 200.266 95.5501C199.862 96.745 199.092 97.7827 198.067 98.517C197.041 99.2513 195.81 99.6453 194.549 99.6433H194.554ZM194.554 90.8894C193.906 90.8908 193.28 91.1225 192.787 91.5431C192.295 91.9638 191.967 92.546 191.863 93.1858C191.761 93.8256 191.889 94.4811 192.225 95.0355C192.559 95.5898 193.081 96.0065 193.696 96.2115C194.311 96.4165 194.978 96.396 195.58 96.1541C196.181 95.912 196.677 95.4642 196.978 94.8905C197.279 94.3169 197.367 93.6547 197.225 93.0223C197.083 92.3901 196.721 91.8288 196.203 91.4389C195.732 91.082 195.156 90.889 194.565 90.8894H194.554Z" fill="#101014"/>
<path d="M258.988 227.816C267.088 241.413 268.47 253.338 257.994 263.515C247.88 273.343 236.452 272.077 223.649 264.34C219.865 278.823 212.548 287.694 198.445 287.694C183.847 287.694 176.522 278.187 172.854 262.79C159.256 270.885 147.331 272.266 137.149 261.785C127.321 251.671 128.587 240.243 136.325 227.44C121.856 223.649 112.97 216.345 112.97 202.23C112.97 187.624 122.477 180.307 137.874 176.639C129.774 163.039 128.392 151.114 138.874 140.934C148.988 131.106 160.416 132.37 173.22 140.11C177.011 125.641 181.995 139.376 196.11 139.376C210.71 139.376 220.36 126.279 224.028 141.676C237.628 133.576 249.553 132.194 259.727 142.668C269.555 152.782 268.289 164.212 260.552 177.013C275.029 180.802 283.906 188.114 283.906 202.222C283.906 216.831 274.384 224.148 258.988 227.816Z" fill="#101014"/>
<path d="M248.548 218.2C256.647 231.796 258.03 243.722 247.553 253.898C237.439 263.726 226.012 262.461 213.208 254.723C209.425 269.206 202.107 278.078 188.004 278.078C173.406 278.078 166.081 268.57 162.413 253.173C148.815 261.268 136.891 262.65 126.708 252.168C116.88 242.054 118.147 230.626 125.884 217.823C111.415 214.03 102.529 206.728 102.529 192.613C102.529 178.007 112.036 170.691 127.433 167.023C119.334 153.422 117.952 141.497 128.434 131.318C138.547 121.489 149.975 122.753 162.779 130.493C166.57 116.024 173.882 107.139 187.997 107.139C202.597 107.139 209.919 116.654 213.587 132.051C227.188 123.951 239.112 122.569 249.287 133.043C259.115 143.157 257.848 154.587 250.11 167.388C264.588 171.176 273.465 178.489 273.465 192.596C273.465 207.214 263.942 214.532 248.548 218.2Z" fill="#822848"/>
<path d="M189.048 263.195C183.076 263.195 178.184 261.249 174.51 257.424C171.576 254.355 169.362 250.077 167.776 244.387C162.589 247.214 157.978 248.607 153.731 248.64H153.579C148.326 248.64 143.573 246.488 139.446 242.241C139.295 242.085 139.176 241.902 139.096 241.7C139.016 241.5 138.977 241.285 138.98 241.068C138.983 240.852 139.029 240.638 139.115 240.439C139.201 240.24 139.325 240.061 139.48 239.91C139.636 239.759 139.819 239.64 140.02 239.56C140.221 239.48 140.436 239.441 140.653 239.443C140.869 239.446 141.083 239.493 141.282 239.578C141.481 239.665 141.661 239.788 141.812 239.943C148.667 247.002 156.742 247.165 167.991 240.471C168.213 240.34 168.463 240.261 168.72 240.244C168.978 240.226 169.236 240.269 169.474 240.37C169.712 240.471 169.923 240.625 170.09 240.823C170.257 241.02 170.376 241.254 170.436 241.504C173.459 254.235 179.209 259.913 189.048 259.913C195.733 259.913 200.588 257.166 203.885 251.528C204.12 251.184 204.476 250.942 204.882 250.849C205.288 250.757 205.715 250.821 206.075 251.031C206.435 251.24 206.703 251.579 206.824 251.976C206.946 252.375 206.912 252.805 206.729 253.179C202.846 259.826 196.895 263.195 189.048 263.195Z" fill="white"/>
<path d="M223.533 249.61C219.385 249.61 214.886 248.269 209.996 245.592L209.785 246.39C209.729 246.599 209.632 246.795 209.501 246.967C209.369 247.139 209.204 247.283 209.016 247.391C208.829 247.5 208.621 247.57 208.407 247.598C208.193 247.628 207.975 247.614 207.765 247.558C207.556 247.502 207.36 247.405 207.188 247.274C207.016 247.142 206.871 246.977 206.762 246.789C206.654 246.602 206.584 246.394 206.555 246.18C206.527 245.966 206.541 245.748 206.597 245.538L207.367 242.666C207.433 242.42 207.556 242.192 207.725 242C207.895 241.809 208.106 241.66 208.344 241.564C208.581 241.469 208.837 241.43 209.092 241.451C209.347 241.471 209.593 241.55 209.811 241.683C220.344 248.052 228.094 247.923 234.944 241.265C242.003 234.413 242.163 226.341 235.464 215.092C235.332 214.869 235.254 214.62 235.235 214.362C235.219 214.105 235.262 213.846 235.363 213.608C235.462 213.37 235.618 213.158 235.815 212.992C236.012 212.825 236.245 212.706 236.497 212.646C246.14 210.347 251.652 206.517 253.84 200.592C253.914 200.389 254.029 200.203 254.176 200.045C254.323 199.885 254.499 199.756 254.697 199.667C254.893 199.576 255.106 199.525 255.323 199.517C255.538 199.508 255.755 199.542 255.958 199.618C256.161 199.692 256.347 199.807 256.507 199.954C256.665 200.101 256.794 200.278 256.884 200.474C256.975 200.672 257.026 200.883 257.035 201.1C257.043 201.317 257.008 201.533 256.933 201.736C254.537 208.221 248.786 212.671 239.379 215.303C242.206 220.49 243.602 225.102 243.638 229.349C243.682 234.662 241.53 239.469 237.244 243.636C233.142 247.618 228.597 249.607 223.533 249.61Z" fill="white"/>
<path d="M256.562 195.682C256.125 195.682 255.706 195.509 255.397 195.199C255.087 194.891 254.914 194.471 254.914 194.034C254.914 184.481 249.602 178.832 237.692 175.713C237.443 175.648 237.214 175.526 237.022 175.357C236.829 175.188 236.679 174.975 236.582 174.738C236.486 174.5 236.446 174.243 236.467 173.988C236.487 173.732 236.567 173.484 236.7 173.265C239.448 168.731 240.936 164.747 241.275 161.112C241.314 160.677 241.526 160.275 241.863 159.996C242.199 159.716 242.632 159.582 243.067 159.622C243.502 159.662 243.904 159.873 244.184 160.209C244.464 160.546 244.599 160.979 244.558 161.415C244.223 165.041 242.923 168.885 240.596 173.111C252.444 176.757 258.211 183.618 258.211 194.034C258.211 194.471 258.037 194.891 257.728 195.199C257.418 195.509 257 195.682 256.562 195.682Z" fill="white"/>
<path d="M237.467 148.63C237.246 148.631 237.027 148.586 236.823 148.5C236.62 148.415 236.437 148.289 236.283 148.13C229.427 141.074 221.354 140.915 210.108 147.614C209.887 147.746 209.636 147.825 209.377 147.842C209.12 147.86 208.861 147.817 208.623 147.717C208.385 147.616 208.173 147.461 208.007 147.264C207.839 147.066 207.72 146.832 207.661 146.581C204.638 133.845 198.887 128.172 189.048 128.172C188.611 128.172 188.191 127.998 187.882 127.689C187.574 127.38 187.4 126.96 187.4 126.523C187.4 126.086 187.574 125.667 187.882 125.357C188.191 125.048 188.611 124.875 189.048 124.875C195.025 124.875 199.915 126.82 203.586 130.661C206.523 133.733 208.735 138.011 210.322 143.698C215.508 140.871 220.118 139.478 224.366 139.442H224.523C229.773 139.442 234.524 141.594 238.647 145.836C238.874 146.068 239.025 146.362 239.085 146.68C239.146 146.999 239.109 147.328 238.983 147.626C238.857 147.924 238.647 148.179 238.377 148.358C238.107 148.537 237.79 148.633 237.467 148.633V148.63Z" fill="white"/>
<path d="M135.742 234.727C135.386 234.725 135.039 234.609 134.754 234.395C134.469 234.179 134.262 233.878 134.162 233.537C132.563 228.042 133.651 221.95 137.492 214.955C125.653 211.312 119.888 204.45 119.888 194.034C119.888 188.055 121.834 183.165 125.672 179.494C128.741 176.56 133.019 174.348 138.707 172.76C135.88 167.575 134.484 162.962 134.451 158.717C134.41 153.403 136.561 148.594 140.85 144.429C148.321 137.17 157.258 136.524 168.12 142.478C170.106 135.994 172.994 131.419 176.911 128.531C177.086 128.403 177.284 128.31 177.494 128.258C177.705 128.206 177.924 128.196 178.136 128.228C178.351 128.261 178.556 128.335 178.743 128.447C178.927 128.559 179.088 128.706 179.217 128.88C179.346 129.055 179.438 129.253 179.49 129.463C179.542 129.673 179.553 129.891 179.52 130.105C179.487 130.319 179.413 130.525 179.301 130.71C179.191 130.896 179.042 131.057 178.869 131.186C175.178 133.906 172.513 138.549 170.725 145.38C170.659 145.628 170.537 145.857 170.368 146.05C170.199 146.242 169.987 146.393 169.749 146.489C169.511 146.585 169.254 146.625 168.999 146.605C168.743 146.584 168.496 146.504 168.276 146.372C157.748 140.008 149.997 140.137 143.147 146.795C136.088 153.664 135.926 161.728 142.625 172.974C142.757 173.195 142.835 173.446 142.852 173.704C142.87 173.961 142.827 174.22 142.726 174.458C142.626 174.696 142.471 174.908 142.274 175.076C142.077 175.242 141.843 175.361 141.592 175.421C128.862 178.444 123.183 184.195 123.183 194.034C123.183 203.585 128.488 209.234 140.394 212.352C140.642 212.418 140.871 212.54 141.064 212.709C141.256 212.878 141.407 213.09 141.503 213.328C141.599 213.566 141.639 213.822 141.619 214.078C141.598 214.334 141.518 214.581 141.386 214.801C137.185 221.749 135.858 227.577 137.325 232.616C137.446 233.036 137.397 233.486 137.186 233.869C136.976 234.251 136.623 234.535 136.204 234.657C136.054 234.703 135.899 234.725 135.742 234.727Z" fill="white"/>
<path d="M129.546 211.11C124.238 217.458 126.656 225.69 121.548 228.393C116.352 231.14 110.849 224.272 102.383 225.019C93.9183 225.767 89.7226 233.52 84.1176 231.737C78.614 229.975 79.5345 221.458 73.1959 216.145C66.8571 210.83 58.6171 213.254 55.9162 208.149C53.1686 202.953 60.0376 197.449 59.2874 188.988C58.5375 180.525 50.7864 176.323 52.5697 170.716C54.3226 165.22 62.8539 166.135 68.1622 159.786C73.4706 153.436 71.0554 145.201 76.1577 142.506C81.359 139.758 86.8733 146.627 95.325 145.877C103.777 145.127 107.975 137.382 113.585 139.159C119.081 140.912 118.169 149.444 124.515 154.752C130.862 160.06 139.1 157.642 141.801 162.747C144.548 167.951 137.679 173.449 138.429 181.915C139.179 190.381 146.928 194.574 145.142 200.181C143.386 205.684 134.855 204.764 129.546 211.11Z" fill="white"/>
<path d="M85.8348 233.657C85.0885 233.654 84.3472 233.537 83.6367 233.308C80.0648 232.167 78.7322 228.97 77.3172 225.585C76.122 222.696 74.8855 219.71 72.1352 217.41C69.3849 215.111 66.2197 214.421 63.1643 213.764C59.5925 212.985 56.2046 212.248 54.4489 208.929C52.6603 205.552 54.0176 202.293 55.4545 198.842C56.6882 195.884 57.9632 192.819 57.6361 189.141C57.3092 185.462 55.5067 182.659 53.7675 179.968C51.7426 176.82 49.8412 173.856 50.9898 170.215C52.1273 166.643 55.3254 165.313 58.7105 163.912C61.6009 162.717 64.5849 161.48 66.8873 158.727C69.1898 155.974 69.874 152.817 70.5416 149.762C71.322 146.19 72.0584 142.802 75.3774 141.047C78.7542 139.261 82.0128 140.618 85.4638 142.055C88.4258 143.289 91.4866 144.564 95.1683 144.237C98.8502 143.91 101.634 142.11 104.329 140.371C107.472 138.343 110.44 136.431 114.08 137.587C117.652 138.728 118.982 141.926 120.386 145.311C121.581 148.199 122.817 151.185 125.568 153.485C128.318 155.785 131.478 156.474 134.533 157.142C138.105 157.922 141.496 158.659 143.254 161.978C145.037 165.355 143.683 168.613 142.246 172.061C141.012 175.024 139.737 178.087 140.064 181.769C140.391 185.451 142.191 188.24 143.93 190.935C145.955 194.075 147.867 197.04 146.708 200.68C145.567 204.253 142.369 205.583 138.984 206.983C136.097 208.178 133.11 209.415 130.81 212.168C128.51 214.915 127.821 218.078 127.156 221.131C126.376 224.703 125.639 228.091 122.32 229.849C118.946 231.635 115.687 230.277 112.239 228.841C109.275 227.608 106.211 226.329 102.529 226.658C98.8474 226.989 96.064 228.785 93.366 230.525C90.8849 232.127 88.5109 233.657 85.8348 233.657ZM78.8064 143.506C78.1482 143.499 77.4986 143.655 76.9161 143.962C75.0477 144.951 74.501 147.078 73.7618 150.465C73.0475 153.749 72.2369 157.469 69.4152 160.843C66.5933 164.217 63.0764 165.682 59.9716 166.959C56.768 168.284 54.7869 169.198 54.1303 171.216C53.4735 173.232 54.6193 175.199 56.5399 178.175C58.3121 180.922 60.5185 184.346 60.9196 188.842C61.3207 193.336 59.7546 197.083 58.499 200.106C57.1251 203.376 56.353 205.475 57.3615 207.382C58.3697 209.289 60.48 209.8 63.8677 210.536C67.1648 211.253 70.8713 212.063 74.2427 214.883C77.614 217.701 79.0729 221.221 80.3588 224.326C81.6859 227.531 82.6008 229.527 84.6176 230.168C86.6343 230.808 88.6016 229.678 91.58 227.757C94.3276 225.986 97.7484 223.78 102.235 223.378C106.722 222.978 110.478 224.543 113.5 225.799C116.77 227.172 118.869 227.945 120.773 226.937C122.677 225.928 123.191 223.821 123.93 220.433C124.645 217.136 125.455 213.43 128.274 210.056C131.096 206.682 134.613 205.224 137.718 203.942C140.921 202.615 142.919 201.699 143.559 199.683C144.199 197.666 143.073 195.699 141.152 192.724C139.383 189.976 137.176 186.555 136.775 182.066C136.374 177.576 137.937 173.822 139.196 170.8C140.57 167.531 141.342 165.432 140.333 163.525C139.325 161.618 137.215 161.107 133.827 160.368C130.53 159.653 126.821 158.84 123.447 156.021C120.073 153.202 118.619 149.682 117.333 146.578C116.006 143.374 115.091 141.379 113.074 140.736C111.058 140.093 109.096 141.228 106.118 143.151C103.37 144.923 99.9492 147.13 95.4597 147.531C90.97 147.932 87.2169 146.369 84.1944 145.11C81.9551 144.168 80.2627 143.506 78.8064 143.506Z" fill="#101014"/>
<path d="M152.014 220.683C151.331 220.681 150.669 220.458 150.124 220.048C149.579 219.638 149.181 219.062 148.991 218.407C148.8 217.752 148.826 217.053 149.065 216.415C149.305 215.776 149.744 215.232 150.318 214.864L224.397 167.88C224.747 167.652 225.139 167.495 225.55 167.419C225.962 167.344 226.383 167.35 226.792 167.439C227.201 167.528 227.589 167.697 227.932 167.936C228.275 168.176 228.566 168.481 228.79 168.834C229.014 169.187 229.165 169.582 229.236 169.994C229.306 170.407 229.295 170.828 229.201 171.235C229.108 171.643 228.934 172.028 228.689 172.368C228.445 172.708 228.137 172.997 227.782 173.216L153.701 220.192C153.196 220.513 152.611 220.683 152.014 220.683Z" fill="white"/>
<path d="M181.624 175.279C179.128 175.276 176.697 174.469 174.695 172.978C172.693 171.486 171.225 169.39 170.506 166.998C169.789 164.607 169.86 162.048 170.71 159.7C171.559 157.353 173.143 155.341 175.226 153.964C177.308 152.586 179.779 151.916 182.272 152.052C184.765 152.188 187.148 153.123 189.068 154.72C190.987 156.316 192.342 158.487 192.932 160.914C193.521 163.34 193.314 165.892 192.339 168.19C191.446 170.293 189.954 172.087 188.048 173.348C186.143 174.608 183.909 175.28 181.624 175.279ZM181.641 158.351C180.323 158.349 179.052 158.836 178.073 159.718C177.095 160.601 176.479 161.815 176.346 163.126C176.211 164.436 176.57 165.75 177.35 166.812C178.129 167.873 179.276 168.607 180.567 168.871C181.858 169.135 183.2 168.91 184.334 168.24C185.468 167.57 186.314 166.502 186.706 165.244C187.096 163.987 187.007 162.628 186.454 161.433C185.899 160.237 184.922 159.29 183.71 158.774C183.056 158.495 182.352 158.352 181.641 158.351Z" fill="white"/>
<path d="M193.877 240.727C190.981 240.734 188.188 239.663 186.042 237.721C183.895 235.781 182.548 233.11 182.262 230.23C181.978 227.35 182.776 224.467 184.502 222.143C186.227 219.821 188.757 218.223 191.596 217.663C194.437 217.103 197.382 217.621 199.86 219.117C202.338 220.612 204.171 222.975 205.001 225.748C205.83 228.52 205.597 231.504 204.347 234.113C203.097 236.724 200.92 238.775 198.239 239.866C196.854 240.433 195.372 240.724 193.877 240.727ZM193.877 223.793C192.916 223.793 191.975 224.053 191.152 224.546C190.329 225.037 189.656 225.743 189.202 226.588C188.748 227.433 188.531 228.385 188.576 229.344C188.62 230.301 188.923 231.229 189.453 232.029C189.982 232.828 190.718 233.469 191.583 233.884C192.449 234.298 193.409 234.47 194.364 234.382C195.319 234.294 196.233 233.948 197.007 233.383C197.781 232.816 198.387 232.051 198.761 231.168C199.101 230.361 199.237 229.484 199.156 228.611C199.075 227.741 198.779 226.902 198.296 226.173C197.812 225.442 197.157 224.844 196.385 224.428C195.615 224.014 194.754 223.795 193.878 223.793H193.877Z" fill="white"/>
<path d="M128.381 114.241C127.295 114.241 126.232 113.919 125.328 113.315C124.425 112.711 123.72 111.853 123.304 110.849C122.888 109.844 122.78 108.74 122.992 107.674C123.204 106.608 123.727 105.628 124.496 104.86C125.264 104.091 126.243 103.568 127.309 103.356C128.375 103.144 129.48 103.253 130.484 103.669C131.488 104.085 132.347 104.789 132.95 105.693C133.554 106.596 133.877 107.659 133.877 108.746C133.872 110.202 133.292 111.597 132.262 112.627C131.233 113.656 129.837 114.237 128.381 114.241ZM128.381 106.528C127.947 106.528 127.522 106.657 127.16 106.899C126.799 107.14 126.517 107.484 126.351 107.885C126.184 108.287 126.141 108.729 126.226 109.155C126.31 109.582 126.52 109.973 126.827 110.281C127.135 110.588 127.526 110.797 127.953 110.882C128.379 110.967 128.821 110.924 129.223 110.757C129.624 110.591 129.967 110.309 130.209 109.948C130.451 109.586 130.579 109.161 130.579 108.726C130.579 108.143 130.348 107.584 129.936 107.172C129.523 106.76 128.964 106.528 128.381 106.528Z" fill="#822848"/>
<path d="M280.09 141.019C277.882 141.019 275.725 140.365 273.889 139.138C272.054 137.912 270.623 136.169 269.779 134.129C268.933 132.09 268.714 129.846 269.143 127.681C269.575 125.516 270.637 123.528 272.198 121.967C273.759 120.406 275.747 119.343 277.913 118.912C280.077 118.482 282.322 118.703 284.361 119.547C286.4 120.392 288.143 121.823 289.369 123.658C290.596 125.493 291.251 127.651 291.251 129.859C291.248 132.818 290.071 135.655 287.979 137.747C285.886 139.84 283.05 141.016 280.09 141.019ZM280.09 121.995C278.535 121.995 277.014 122.456 275.721 123.32C274.428 124.184 273.42 125.412 272.825 126.849C272.23 128.286 272.074 129.867 272.377 131.393C272.681 132.918 273.43 134.319 274.529 135.419C275.63 136.519 277.031 137.268 278.556 137.571C280.082 137.875 281.662 137.719 283.099 137.124C284.536 136.528 285.764 135.52 286.628 134.227C287.492 132.934 287.954 131.414 287.954 129.859C287.951 127.774 287.122 125.775 285.648 124.301C284.174 122.826 282.175 121.997 280.09 121.995Z" fill="#822848"/>
<path d="M103.158 267.145C102.051 267.145 100.968 266.816 100.047 266.201C99.1267 265.585 98.4089 264.712 97.9851 263.688C97.5613 262.665 97.4503 261.539 97.6665 260.453C97.8825 259.366 98.4157 258.368 99.1989 257.586C99.9821 256.803 100.98 256.27 102.066 256.053C103.152 255.837 104.278 255.948 105.301 256.372C106.324 256.796 107.199 257.513 107.814 258.434C108.43 259.355 108.758 260.437 108.758 261.545C108.757 263.03 108.166 264.453 107.116 265.503C106.067 266.553 104.643 267.143 103.158 267.145ZM103.158 259.242C102.703 259.242 102.258 259.378 101.879 259.631C101.501 259.883 101.206 260.243 101.031 260.664C100.857 261.084 100.811 261.548 100.9 261.994C100.989 262.441 101.208 262.851 101.53 263.173C101.852 263.495 102.263 263.715 102.709 263.803C103.156 263.893 103.619 263.846 104.04 263.673C104.46 263.498 104.82 263.202 105.073 262.824C105.326 262.445 105.461 262 105.461 261.545C105.46 260.934 105.217 260.349 104.786 259.918C104.354 259.485 103.769 259.243 103.158 259.242Z" fill="#822848"/>
<path d="M116.836 73.6758C114.92 73.6758 113.047 73.1077 111.454 72.0431C109.86 70.9786 108.619 69.4656 107.885 67.6953C107.152 65.925 106.96 63.9771 107.334 62.0978C107.708 60.2185 108.631 58.4923 109.986 57.1374C111.34 55.7824 113.067 54.8598 114.946 54.486C116.825 54.1121 118.773 54.304 120.543 55.0372C122.314 55.7705 123.827 57.0123 124.891 58.6055C125.956 60.1986 126.524 62.0718 126.524 63.9878C126.521 66.5564 125.499 69.0189 123.683 70.8351C121.867 72.6513 119.404 73.6729 116.836 73.6758ZM116.836 57.597C115.572 57.597 114.336 57.9718 113.285 58.674C112.234 59.3762 111.415 60.3744 110.931 61.5422C110.448 62.7099 110.321 63.995 110.568 65.2347C110.814 66.4744 111.423 67.6131 112.317 68.5069C113.211 69.4007 114.349 70.0094 115.589 70.2559C116.829 70.5026 118.114 70.376 119.282 69.8923C120.449 69.4085 121.448 68.5895 122.15 67.5385C122.852 66.4875 123.227 65.2519 123.227 63.9878C123.225 62.2936 122.551 60.6693 121.353 59.4712C120.155 58.2732 118.53 57.5991 116.836 57.597Z" fill="#822848"/>
<path d="M88.0549 130.361C86.7227 130.362 85.4202 129.967 84.3124 129.227C83.2045 128.488 82.3409 127.436 81.8309 126.205C81.3209 124.975 81.1872 123.62 81.447 122.314C81.7067 121.007 82.3482 119.807 83.2901 118.865C84.2322 117.923 85.4324 117.282 86.7389 117.022C88.0455 116.762 89.3999 116.896 90.6305 117.406C91.8612 117.916 92.9129 118.779 93.6527 119.887C94.3924 120.995 94.7869 122.297 94.7865 123.63C94.7836 125.414 94.0734 127.125 92.8115 128.386C91.5499 129.648 89.8393 130.358 88.0549 130.361ZM88.0549 120.195C87.3753 120.195 86.711 120.396 86.1456 120.772C85.5803 121.149 85.1393 121.685 84.8783 122.313C84.6175 122.94 84.5483 123.631 84.6798 124.297C84.8112 124.964 85.1373 125.577 85.6168 126.058C86.0963 126.539 86.7077 126.868 87.3738 127.002C88.0399 127.136 88.7308 127.07 89.3593 126.811C89.9876 126.553 90.5253 126.114 90.9046 125.55C91.2837 124.986 91.4871 124.323 91.4894 123.643C91.4908 123.191 91.403 122.743 91.2312 122.325C91.0593 121.907 90.8066 121.526 90.4877 121.206C90.1686 120.885 89.7896 120.631 89.3722 120.457C88.9547 120.283 88.5071 120.193 88.0549 120.192V120.195Z" fill="#822848"/>
<path d="M115.685 205.8L79.7433 207.901L76.3995 177.472L115.484 175.186L115.685 205.8Z" fill="white"/>
<path d="M82.1531 214.398C81.7563 214.398 81.3727 214.256 81.073 213.997C80.7732 213.736 80.5772 213.376 80.521 212.984L75.5368 178.215C75.5045 177.99 75.5195 177.76 75.5806 177.541C75.6418 177.321 75.7479 177.116 75.8923 176.939C76.0366 176.762 76.2161 176.618 76.4192 176.514C76.6225 176.411 76.845 176.349 77.0728 176.337L117.817 173.957C118.045 173.944 118.273 173.978 118.486 174.057C118.7 174.136 118.896 174.259 119.059 174.417C119.224 174.577 119.353 174.767 119.439 174.979C119.526 175.19 119.567 175.417 119.562 175.644L118.691 210.742C118.68 211.156 118.515 211.549 118.227 211.848C117.94 212.144 117.551 212.322 117.138 212.346L82.263 214.396L82.1531 214.398ZM79.0538 179.524L83.5709 211.017L115.443 209.157L116.231 177.353L79.0538 179.524Z" fill="#101014"/>
<path d="M96.8251 176.18C96.5599 176.18 96.2984 176.117 96.063 175.995C95.8276 175.874 95.6251 175.696 95.4727 175.479C95.3203 175.262 95.2226 175.011 95.1878 174.748C95.1529 174.485 95.182 174.217 95.2727 173.968C96.4402 170.835 97.7841 167.77 99.2979 164.789C102.708 158.151 105.818 154.823 108.807 154.623C110.225 154.527 112.272 155.084 113.959 158.296C115.157 160.574 115.275 162.863 114.311 165.097C111.272 172.141 97.8389 175.963 97.2757 176.123C97.1286 176.162 96.9772 176.18 96.8251 176.18ZM109.09 157.906H109.033C106.596 158.074 102.576 164.775 99.6358 171.85C103.867 170.248 109.753 167.341 111.286 163.781C111.835 162.492 111.761 161.198 111.041 159.824C110.563 158.945 109.854 157.906 109.077 157.906H109.09Z" fill="#101014"/>
<path d="M97.5423 176.137C97.4128 176.137 97.2838 176.123 97.1578 176.092C95.8251 175.774 84.0545 172.795 81.3947 166.533C80.5127 164.453 80.7188 162.214 81.991 160.054C83.7796 157.032 85.8157 156.557 87.2115 156.702C90.014 156.994 92.8 159.999 95.7289 165.885C97.0173 168.506 98.146 171.203 99.1085 173.96C99.1922 174.207 99.2158 174.472 99.1771 174.731C99.1385 174.99 99.0388 175.236 98.8863 175.448C98.7337 175.661 98.5328 175.834 98.3002 175.953C98.0673 176.074 97.8095 176.137 97.5478 176.137H97.5423ZM86.7773 159.977C86.0272 159.977 85.3101 160.92 84.832 161.73C84.0791 163.005 83.9527 164.121 84.4281 165.245C85.7277 168.303 91.0059 170.685 94.8689 171.984C92.4511 165.94 89.0798 160.208 86.8762 159.98L86.7773 159.977Z" fill="#101014"/>
<defs>
<filter id="filter0_d_3334_41008" x="0.902588" y="0.253906" width="344" height="344" filterUnits="userSpaceOnUse" color-interpolation-filters="sRGB">
<feFlood flood-opacity="0" result="BackgroundImageFix"/>
<feColorMatrix in="SourceAlpha" type="matrix" values="0 0 0 0 0 0 0 0 0 0 0 0 0 0 0 0 0 0 127 0" result="hardAlpha"/>
<feOffset dx="4" dy="4"/>
<feComposite in2="hardAlpha" operator="out"/>
<feColorMatrix type="matrix" values="0 0 0 0 0.0862745 0 0 0 0 0.113725 0 0 0 0 0.137255 0 0 0 1 0"/>
<feBlend mode="normal" in2="BackgroundImageFix" result="effect1_dropShadow_3334_41008"/>
<feBlend mode="normal" in="SourceGraphic" in2="effect1_dropShadow_3334_41008" result="shape"/>
</filter>
</defs>
</svg>
