<svg width="1339" height="1300" viewBox="0 0 1339 1300" fill="none" xmlns="http://www.w3.org/2000/svg">
<rect width="1339" height="1300" fill="white"/>
<g clip-path="url(#clip0_619_2450)">
<mask id="mask0_619_2450" style="mask-type:luminance" maskUnits="userSpaceOnUse" x="121" y="158" width="458" height="265">
<path d="M578.843 158.316H121.463V422.826H578.843V158.316Z" fill="white"/>
</mask>
<g mask="url(#mask0_619_2450)">
<path d="M252.828 422.826C251.399 422.826 249.993 422.282 248.926 421.328C248.087 420.555 247.497 419.601 247.225 418.559C245.977 418.353 244.798 417.719 243.913 416.789C242.847 415.652 242.28 414.2 242.325 412.679L242.461 408.844L241.758 408.798C238.9 408.638 236.563 406.232 236.563 403.396L236.427 266.045L226.809 175.817C226.65 174.296 227.127 172.821 228.125 171.777C229.055 170.801 230.303 170.324 231.618 170.415L236.314 170.71V163.219C236.314 161.812 236.858 160.473 237.834 159.542C238.741 158.68 239.921 158.248 241.146 158.339L383.647 166.783L444.577 159.156C446.868 158.861 449.137 159.519 450.93 160.995C452.858 162.561 454.081 164.967 454.287 167.6L454.648 172.458C454.966 172.685 455.284 172.957 455.579 173.229C457.372 174.977 458.415 177.474 458.392 180.107V185.578C461.159 187.167 462.998 190.344 462.86 193.976L460.752 251.858L471.345 389.572L473.43 404.259C473.613 405.507 473.364 406.799 472.751 407.913L473.364 415.835C473.499 417.468 472.886 419.126 471.729 420.352C470.551 421.6 468.916 422.305 467.238 422.305C467.217 422.305 467.171 422.305 467.148 422.305L303.119 419.579L253.168 422.849C253.055 422.849 252.919 422.849 252.805 422.849L252.828 422.826ZM248.178 418.627C248.427 419.398 248.904 420.079 249.516 420.647C250.492 421.532 251.807 422.007 253.123 421.918L292.094 419.375L248.155 418.65L248.178 418.627ZM314.121 418.808L467.171 421.351C468.667 421.397 470.073 420.761 471.096 419.67C472.07 418.627 472.591 417.218 472.479 415.835L471.958 409.002C470.801 410.296 469.168 411.044 467.443 411.067L457.484 411.227V413.724C457.484 415.357 456.805 416.878 455.579 418.014C454.353 419.171 452.72 419.784 451.042 419.693L367.044 415.291L314.098 418.762L314.121 418.808ZM374.732 414.836L451.11 418.831C452.517 418.899 453.923 418.376 454.966 417.401C455.988 416.425 456.576 415.131 456.576 413.747V411.25L419.942 411.863L374.732 414.813V414.836ZM247.951 417.719C247.951 417.719 248.042 417.719 248.087 417.719L303.119 418.627L359.399 414.95L329.569 413.383L257.887 414.563C257.887 414.563 257.819 414.563 257.796 414.563C254.734 414.563 252.102 412.292 251.671 409.297L247.588 409.093L247.906 417.31C247.906 417.445 247.906 417.582 247.951 417.719ZM243.346 408.867L243.21 412.679C243.165 413.95 243.641 415.176 244.548 416.153C245.229 416.855 246.091 417.356 247.044 417.582C247.044 417.491 247.044 417.424 247.044 417.333L246.726 409.047L243.391 408.867H243.346ZM342.657 413.157L367.044 414.426L401.432 412.18L342.657 413.157ZM252.578 409.342C253.009 411.794 255.233 413.655 257.773 413.655C257.796 413.655 257.841 413.655 257.864 413.655L316.457 412.679L252.578 409.342ZM252.465 408.434L329.569 412.475L419.896 410.978L449.409 409.047C452.064 408.867 454.195 406.687 454.287 404.099L456.871 333.006L457.031 295.372L441.265 184.533L322.831 177.066L301.599 177.951L251.853 184.17L245.751 345.355L252.465 408.434ZM456.782 360.767L455.192 404.121C455.08 407.186 452.562 409.752 449.477 409.955L438.407 410.682L456.599 410.387L456.805 360.79L456.782 360.767ZM457.802 333.006L457.484 410.342L467.42 410.182C468.916 410.159 470.368 409.48 471.345 408.32C471.525 408.117 471.686 407.89 471.82 407.664L470.437 389.618L458.733 307.266L457.802 333.029V333.006ZM247.543 408.185L251.558 408.389L245.524 351.619L245.41 354.389L247.543 408.162V408.185ZM243.369 407.959L246.635 408.139L244.957 366.033L243.369 407.959ZM237.289 274.58L237.425 403.396C237.425 405.757 239.376 407.776 241.758 407.89L242.461 407.936L244.48 354.434L243.709 334.913L237.289 274.602V274.58ZM472.388 403.463L472.548 405.462C472.568 405.098 472.568 404.711 472.525 404.348L472.41 403.486L472.388 403.463ZM458.89 302.159L469.348 375.68L460.434 259.803L458.89 302.159ZM244.594 334.845L245.047 339.112L250.9 184.306L242.008 185.419C240.102 185.668 238.718 187.393 238.809 189.482L244.594 334.845ZM237.267 266L243.165 321.339L237.925 189.527C237.834 186.985 239.535 184.828 241.917 184.533L250.945 183.398C251.149 180.97 252.987 179.108 255.323 179.018L301.485 177.088L308.586 176.203L237.153 171.686L237.244 266.022L237.267 266ZM457.893 301.546V305.246L457.982 302.204L457.893 301.523V301.546ZM457.916 295.304L458.165 297.12L459.821 251.835L458.165 230.385L457.916 295.304ZM442.173 184.579L457.031 289.13L457.303 219.217L454.694 185.373L442.15 184.579H442.173ZM231.323 171.277C230.348 171.277 229.463 171.663 228.783 172.367C227.966 173.229 227.58 174.433 227.717 175.681L236.427 257.419L236.337 171.595L231.573 171.3C231.573 171.3 231.414 171.3 231.346 171.3L231.323 171.277ZM458.277 219.172L460.185 243.845L461.998 193.885C462.113 190.798 460.683 188.097 458.415 186.599L458.277 219.194V219.172ZM455.693 185.487L457.415 208.027L457.507 186.077C456.94 185.805 456.327 185.6 455.693 185.487ZM455.625 184.556C456.281 184.67 456.917 184.851 457.53 185.101V180.062C457.553 177.678 456.622 175.409 455.012 173.842C454.943 173.774 454.875 173.706 454.808 173.638L455.648 184.556H455.625ZM442.104 183.671L454.717 184.465L453.832 172.912C452.54 172.072 451.065 171.663 449.5 171.731L438.656 172.185C440.017 173.547 440.947 175.409 441.242 177.52L442.127 183.671H442.104ZM331.497 176.702L441.197 183.626L440.357 177.656C440.039 175.431 438.951 173.525 437.364 172.253L331.497 176.702ZM290.71 178.405L255.437 179.88C253.645 179.948 252.193 181.378 251.943 183.262L290.71 178.405ZM313.485 176.453L312.487 176.589L314.279 176.521L313.485 176.475V176.453ZM318.294 175.84L322.899 176.135L436.049 171.391C435.141 170.937 434.141 170.642 433.076 170.574L383.715 167.646L318.294 175.84ZM237.221 170.733L313.463 175.545L378.794 167.373L241.123 159.224C240.125 159.179 239.195 159.519 238.469 160.2C237.675 160.949 237.221 162.062 237.221 163.219V170.755V170.733ZM449.795 170.823C451.179 170.823 452.517 171.164 453.743 171.822L453.425 167.646C453.242 165.239 452.153 163.128 450.406 161.676C448.796 160.359 446.777 159.769 444.737 160.041L388.639 167.078L433.144 169.711C434.823 169.802 436.364 170.392 437.659 171.345L449.455 170.846C449.567 170.846 449.704 170.846 449.818 170.846L449.795 170.823Z" fill="#EE6352"/>
<path d="M217.802 240.895C217.802 240.895 189.833 225.551 175.86 225.551C161.886 225.551 140.223 233.972 140.223 258.192C140.223 290.537 211.474 299.572 211.474 321.385C211.474 338.364 196.139 344.697 179.013 344.697C154.65 344.697 148.071 307.062 140.223 299.231C135.187 294.192 129.675 291.468 125.183 290.197C122.461 289.425 120.351 292.648 122.121 294.873C126.794 300.752 129.221 308.129 128.926 315.642C128.608 324.154 128.608 333.756 131.126 333.756C142.037 333.756 150.158 349.214 175.86 349.214C199.769 349.214 221.409 331.418 221.409 315.506C221.409 279.733 147.436 277.917 147.436 246.32C147.436 234.585 164.563 228.116 175.86 228.116C192.555 228.116 206.256 247.818 209.682 252.63C214.196 258.941 213.288 266.159 213.288 267.067C213.288 267.975 215.103 267.067 215.103 263.458C215.103 259.849 215.103 256.24 216.01 251.723C216.918 247.205 218.71 244.504 218.71 242.688C218.71 240.873 217.802 240.873 217.802 240.873V240.895Z" fill="#105535"/>
<path d="M288.145 316.71C288.145 316.71 282.723 346.491 261.536 346.491C254.572 346.491 249.4 344.743 245.612 342.382C239.487 338.591 235.858 331.827 235.744 324.632L234.928 265.252H224.107V262.55H224.606C243.23 262.051 241.393 234.744 241.234 232.883C241.234 232.838 241.279 232.815 241.325 232.838C241.756 233.019 244.069 235.448 248.447 233.7C252.962 231.884 252.054 230.999 257.476 229.183C262.081 227.64 264.077 228.729 264.576 229.092C264.621 229.138 264.576 229.183 264.53 229.206C263.714 229.228 263.079 229.524 262.58 229.887C261.627 230.613 261.128 231.771 261.083 232.974C260.493 252.063 244.069 259.827 235.427 262.596L285.445 262.641C284.175 262.641 282.973 262.618 281.838 262.618C281.634 262.618 280.659 262.823 280.5 262.959C279.888 263.436 278.89 264.253 279.139 264.434H280.024C280.546 264.707 281.067 265.002 281.566 265.32H251.169V316.301C251.169 316.301 250.103 343.835 263.805 343.835C280.182 343.835 287.26 315.847 287.26 315.847L288.167 316.755L288.145 316.71Z" fill="#105535"/>
<path d="M367.542 265.296C366.634 266.203 359.421 270.721 356.72 277.031C354.022 283.341 320.63 360.063 317.024 364.58C313.417 369.097 313.417 378.109 290.869 378.109C280.956 378.109 280.616 375.09 245.773 382.626C243.391 383.148 233.727 387.573 230.075 393.227C229.281 394.452 227.399 393.951 227.285 392.522C227.036 389.661 226.196 386.848 224.631 384.442C224.45 384.147 224.268 383.851 224.109 383.556C223.202 381.741 234.022 358.293 254.778 358.293C275.534 358.293 278.234 367.327 303.481 367.327C303.481 367.327 311.602 366.419 314.302 362.81C316.388 360.04 319.678 351.37 321.084 347.533C321.515 346.353 321.47 345.036 320.948 343.879L289.031 272.559C289.031 272.559 286.082 268.156 281.546 265.318C281.047 265.001 280.525 264.705 280.003 264.433H279.119C278.869 264.274 279.867 263.457 280.479 262.98C280.638 262.844 281.614 262.64 281.818 262.64C282.952 262.64 284.154 262.64 285.425 262.662C294.249 262.776 305.387 263.185 306.181 262.64C308.132 261.232 312.85 259.553 316.865 263.412C316.91 263.457 316.865 263.525 316.82 263.525C315.685 263.434 313.848 261.278 307.088 268.065C307.088 268.065 306.181 268.973 306.181 270.766C306.181 272.4 325.258 318.797 329.001 327.899C329.228 328.466 330.044 328.489 330.294 327.899L349.462 283.841C349.462 283.841 352.16 279.369 349.462 273.263C346.763 267.157 343.156 267.157 341.341 265.341C339.844 263.843 339.594 262.958 339.549 262.708C339.549 262.662 339.572 262.64 339.617 262.64C339.912 262.685 341.114 262.958 344.54 263.616C348.577 264.41 366.543 264.501 367.972 263.071C369.333 261.709 368.425 264.433 367.519 265.318L367.542 265.296Z" fill="#105535"/>
<path d="M285.446 262.617V265.273H281.567C281.068 264.955 280.546 264.66 280.025 264.388H279.14C278.89 264.229 279.889 263.412 280.501 262.935C280.66 262.799 281.635 262.594 281.839 262.594C282.974 262.594 284.176 262.594 285.446 262.617Z" fill="#105535"/>
<path d="M376.546 231.883C376.546 231.883 375.752 231.225 374.73 230.975C371.123 230.068 372.916 228.274 372.916 228.274C372.916 228.274 385.552 226.458 387.342 222.849C389.112 219.308 392.629 217.492 395.305 220.012C395.351 220.057 395.305 220.148 395.259 220.125C394.647 220.08 392.742 220.171 392.742 222.622V342.88H392.856C392.856 345.604 394.262 347.965 396.348 349.191H373.008C375.093 347.965 376.5 345.604 376.5 342.88V231.861L376.546 231.883Z" fill="#105535"/>
<path d="M404.629 349.213H427.969C425.883 347.987 424.477 345.627 424.477 342.903H424.363V267.77C424.363 264.842 427.063 265.296 427.063 265.296C424.363 262.595 420.756 264.388 418.943 267.997C417.127 271.606 404.515 273.422 404.515 273.422C404.515 273.422 402.701 275.238 406.33 276.123C407.147 276.327 407.714 276.532 408.144 276.713V342.903C408.144 345.627 406.737 347.987 404.652 349.213H404.629Z" fill="#105535"/>
<path d="M412.635 262.913C412.635 253.493 415.54 250.406 424.363 250.406C415.54 250.406 412.635 247.296 412.635 237.898C412.635 247.318 409.731 250.406 400.908 250.406C409.731 250.406 412.635 253.515 412.635 262.913Z" fill="#105535"/>
<path d="M552.438 397.402C552.438 387.983 555.34 384.896 564.165 384.896C555.34 384.896 552.438 381.786 552.438 372.389C552.438 381.809 549.534 384.896 540.711 384.896C549.534 384.896 552.438 388.005 552.438 397.402Z" fill="#105535"/>
<path d="M138.43 215.995C138.43 206.575 141.333 203.488 150.158 203.488C141.333 203.488 138.43 200.378 138.43 190.98C138.43 200.4 135.526 203.488 126.702 203.488C135.526 203.488 138.43 206.597 138.43 215.995Z" fill="#105535"/>
<path d="M449.543 246.252C449.543 237.308 449.612 227.707 461.339 227.707C473.066 227.707 474.859 236.4 478.466 240.917C482.072 245.435 489.58 245.321 490.33 245.366C491.078 245.435 493.799 221.964 493.799 221.964C491.101 224.665 490.193 227.389 483.888 226.481C477.581 225.573 473.951 221.964 461.339 221.964C446.888 221.964 439.698 235.492 439.698 244.527C439.698 255.036 446.049 261.415 453.808 264.388H436.092C433.391 264.388 435.344 266.408 435.344 266.408C435.344 266.408 440.606 267.997 443.304 269.813C444.393 270.54 444.894 272.991 445.12 275.692V342.926C445.12 345.65 443.714 348.01 441.626 349.236H464.968C462.88 348.01 461.474 345.65 461.474 342.926H461.362V266.204C462.565 266.34 463.788 266.408 464.968 266.408C476.696 266.408 492.031 267.089 492.031 267.089V264.388C492.031 264.388 475.788 263.48 469.483 263.48C462.27 263.48 449.566 257.17 449.566 246.252H449.543Z" fill="#105535"/>
<path d="M516.348 264.365C518.299 262.98 523.017 261.301 527.033 265.137C527.078 265.182 527.033 265.25 526.987 265.25C525.853 265.159 524.016 263.003 517.233 269.79C517.233 269.79 516.325 270.698 516.325 272.491C516.325 274.125 535.403 320.522 539.146 329.624C539.373 330.192 540.189 330.214 540.439 329.624L559.607 285.566C559.607 285.566 562.306 281.094 559.607 274.988C556.907 268.882 553.3 268.882 551.487 267.066C549.989 265.568 549.739 264.705 549.694 264.433C549.694 264.388 549.717 264.365 549.762 264.365C550.057 264.433 551.26 264.683 554.684 265.364C558.722 266.158 576.688 266.226 578.095 264.819C579.455 263.457 578.547 266.181 577.642 267.066C576.734 267.952 569.521 272.491 566.82 278.801C564.122 285.112 530.731 361.834 527.124 366.351C523.515 370.868 523.515 379.879 500.969 379.879C491.055 379.879 490.714 376.86 455.873 384.396C453.491 384.918 443.826 389.346 440.174 394.997C439.38 396.222 437.498 395.724 437.384 394.269C437.135 391.411 436.295 388.596 434.754 386.19C434.571 385.894 434.39 385.599 434.233 385.304C433.325 383.488 444.144 360.04 464.9 360.04C485.656 360.04 488.357 369.075 513.604 369.075C513.604 369.075 521.725 368.167 524.423 364.558C526.511 361.788 529.8 353.117 531.206 349.281C531.639 348.101 531.593 346.784 531.071 345.627L499.153 274.307C499.153 274.307 495.524 268.905 490.124 266.181H489.242C488.992 266.022 489.989 265.205 490.602 264.728C490.76 264.592 491.737 264.388 491.94 264.388C500.969 264.388 515.395 265.023 516.303 264.388L516.348 264.365Z" fill="#105535"/>
</g>
<path d="M203.947 477.712V458.502H206.637V477.712H203.947ZM206.005 477.712V475.242H215.556V477.712H206.005ZM223.91 478.041C222.537 478.041 221.33 477.739 220.287 477.135C219.244 476.513 218.421 475.663 217.817 474.583C217.232 473.504 216.939 472.26 216.939 470.851C216.939 469.442 217.232 468.198 217.817 467.119C218.403 466.039 219.217 465.198 220.26 464.594C221.303 463.972 222.501 463.661 223.855 463.661C225.209 463.661 226.407 463.972 227.45 464.594C228.493 465.198 229.307 466.039 229.892 467.119C230.478 468.198 230.77 469.442 230.77 470.851C230.77 472.26 230.478 473.504 229.892 474.583C229.307 475.663 228.493 476.513 227.45 477.135C226.425 477.739 225.245 478.041 223.91 478.041ZM223.91 475.653C224.733 475.653 225.465 475.452 226.105 475.05C226.745 474.629 227.239 474.062 227.587 473.348C227.953 472.635 228.136 471.802 228.136 470.851C228.136 469.899 227.953 469.067 227.587 468.354C227.239 467.64 226.736 467.082 226.078 466.68C225.419 466.259 224.678 466.048 223.855 466.048C223.013 466.048 222.272 466.259 221.632 466.68C220.992 467.082 220.488 467.64 220.123 468.354C219.757 469.067 219.574 469.899 219.574 470.851C219.574 471.802 219.757 472.635 220.123 473.348C220.488 474.062 221.001 474.629 221.659 475.05C222.318 475.452 223.068 475.653 223.91 475.653ZM239.307 483.557C238.392 483.557 237.56 483.465 236.81 483.282C236.06 483.118 235.429 482.926 234.916 482.706C234.404 482.487 234.02 482.295 233.764 482.13L234.752 480.017C234.989 480.163 235.328 480.328 235.767 480.511C236.206 480.712 236.718 480.877 237.304 481.005C237.889 481.151 238.539 481.224 239.252 481.224C240.094 481.224 240.844 481.05 241.503 480.703C242.161 480.374 242.673 479.852 243.039 479.139C243.424 478.425 243.616 477.51 243.616 476.394V463.99H246.223V476.339C246.223 477.913 245.921 479.23 245.317 480.291C244.732 481.371 243.918 482.185 242.875 482.734C241.85 483.282 240.661 483.557 239.307 483.557ZM239.06 477.519C237.816 477.519 236.727 477.236 235.794 476.669C234.88 476.083 234.157 475.278 233.626 474.254C233.114 473.211 232.858 472.013 232.858 470.659C232.858 469.25 233.114 468.024 233.626 466.981C234.157 465.939 234.88 465.124 235.794 464.539C236.727 463.954 237.816 463.661 239.06 463.661C240.194 463.661 241.182 463.954 242.024 464.539C242.884 465.124 243.542 465.948 244 467.009C244.476 468.052 244.713 469.277 244.713 470.686C244.713 472.04 244.476 473.238 244 474.281C243.542 475.306 242.884 476.102 242.024 476.669C241.182 477.236 240.194 477.519 239.06 477.519ZM239.719 475.324C240.487 475.324 241.155 475.123 241.722 474.72C242.289 474.3 242.737 473.742 243.067 473.046C243.396 472.333 243.561 471.519 243.561 470.604C243.561 469.689 243.396 468.884 243.067 468.189C242.737 467.494 242.28 466.954 241.695 466.57C241.127 466.167 240.46 465.966 239.691 465.966C238.886 465.966 238.173 466.167 237.551 466.57C236.947 466.954 236.471 467.494 236.124 468.189C235.776 468.884 235.602 469.689 235.602 470.604C235.602 471.519 235.776 472.333 236.124 473.046C236.49 473.742 236.974 474.3 237.578 474.72C238.2 475.123 238.914 475.324 239.719 475.324ZM256.042 478.041C254.67 478.041 253.463 477.739 252.42 477.135C251.377 476.513 250.554 475.663 249.95 474.583C249.364 473.504 249.072 472.26 249.072 470.851C249.072 469.442 249.364 468.198 249.95 467.119C250.535 466.039 251.349 465.198 252.392 464.594C253.435 463.972 254.633 463.661 255.987 463.661C257.341 463.661 258.54 463.972 259.582 464.594C260.625 465.198 261.439 466.039 262.025 467.119C262.61 468.198 262.903 469.442 262.903 470.851C262.903 472.26 262.61 473.504 262.025 474.583C261.439 475.663 260.625 476.513 259.582 477.135C258.558 477.739 257.378 478.041 256.042 478.041ZM256.042 475.653C256.865 475.653 257.597 475.452 258.238 475.05C258.878 474.629 259.372 474.062 259.72 473.348C260.085 472.635 260.268 471.802 260.268 470.851C260.268 469.899 260.085 469.067 259.72 468.354C259.372 467.64 258.869 467.082 258.21 466.68C257.552 466.259 256.811 466.048 255.987 466.048C255.146 466.048 254.405 466.259 253.764 466.68C253.124 467.082 252.621 467.64 252.255 468.354C251.889 469.067 251.706 469.899 251.706 470.851C251.706 471.802 251.889 472.635 252.255 473.348C252.621 474.062 253.133 474.629 253.792 475.05C254.451 475.452 255.201 475.653 256.042 475.653ZM285.028 477.712L289.666 463.99H292.273L287.608 477.712H285.028ZM275.78 477.712L280.335 463.99H282.695L278.195 477.712H275.78ZM275.588 477.712L270.922 463.99H273.557L278.085 477.712H275.588ZM285.028 477.712L280.527 463.99H282.915L287.443 477.712H285.028ZM294.519 477.712L294.574 463.99H297.154L297.126 477.712H294.519ZM295.836 461.081C295.416 461.081 295.05 460.926 294.739 460.615C294.428 460.285 294.272 459.91 294.272 459.49C294.272 459.05 294.428 458.685 294.739 458.392C295.05 458.081 295.416 457.925 295.836 457.925C296.275 457.925 296.641 458.081 296.934 458.392C297.245 458.685 297.401 459.05 297.401 459.49C297.401 459.91 297.245 460.285 296.934 460.615C296.641 460.926 296.275 461.081 295.836 461.081ZM306.244 478.041C304.871 478.041 303.81 477.693 303.06 476.998C302.31 476.285 301.935 475.269 301.935 473.952V459.709H304.542V473.568C304.542 474.245 304.707 474.766 305.036 475.132C305.384 475.48 305.878 475.653 306.518 475.653C306.701 475.653 306.902 475.617 307.122 475.544C307.341 475.47 307.607 475.324 307.918 475.104L308.906 477.135C308.43 477.446 307.973 477.675 307.533 477.821C307.113 477.968 306.683 478.041 306.244 478.041ZM299.602 466.24V463.99H308.439V466.24H299.602ZM311.507 477.712L311.479 458.2H314.087V477.712H311.507ZM321.002 477.712V470.686L323.582 469.863V477.712H321.002ZM321.002 470.686C321.002 469.442 320.856 468.5 320.563 467.86C320.27 467.201 319.868 466.744 319.356 466.487C318.862 466.231 318.294 466.094 317.654 466.076C316.52 466.076 315.642 466.469 315.02 467.256C314.398 468.043 314.087 469.149 314.087 470.576H312.989C312.989 469.131 313.199 467.896 313.62 466.872C314.041 465.829 314.645 465.033 315.431 464.484C316.236 463.935 317.188 463.661 318.285 463.661C319.95 463.661 321.249 464.173 322.182 465.198C323.134 466.204 323.6 467.759 323.582 469.863L321.002 470.686ZM333.699 483.2V463.99H336.142L336.307 466.515V483.2H333.699ZM340.807 478.041C339.655 478.041 338.648 477.739 337.788 477.135C336.947 476.532 336.297 475.69 335.84 474.611C335.383 473.531 335.154 472.278 335.154 470.851C335.154 469.406 335.383 468.152 335.84 467.091C336.297 466.012 336.947 465.17 337.788 464.566C338.648 463.963 339.655 463.661 340.807 463.661C342.033 463.661 343.112 463.963 344.045 464.566C344.978 465.17 345.701 466.012 346.213 467.091C346.744 468.152 347.009 469.406 347.009 470.851C347.009 472.278 346.744 473.531 346.213 474.611C345.701 475.69 344.978 476.532 344.045 477.135C343.112 477.739 342.033 478.041 340.807 478.041ZM340.176 475.681C340.999 475.681 341.722 475.48 342.344 475.077C342.966 474.656 343.451 474.089 343.798 473.376C344.164 472.644 344.347 471.802 344.347 470.851C344.347 469.899 344.173 469.067 343.826 468.354C343.478 467.622 342.993 467.055 342.371 466.652C341.749 466.231 341.027 466.021 340.203 466.021C339.453 466.021 338.776 466.231 338.173 466.652C337.587 467.055 337.13 467.622 336.801 468.354C336.471 469.085 336.307 469.918 336.307 470.851C336.307 471.802 336.471 472.644 336.801 473.376C337.13 474.089 337.587 474.656 338.173 475.077C338.758 475.48 339.426 475.681 340.176 475.681ZM351.449 470.329C351.449 468.848 351.733 467.64 352.3 466.707C352.867 465.774 353.599 465.079 354.495 464.621C355.392 464.164 356.334 463.935 357.322 463.935V466.405C356.499 466.405 355.712 466.533 354.962 466.789C354.23 467.027 353.626 467.43 353.151 467.997C352.693 468.546 352.465 469.296 352.465 470.247L351.449 470.329ZM349.858 477.712V463.99H352.465V477.712H349.858ZM359.588 477.712L359.643 463.99H362.223L362.195 477.712H359.588ZM360.906 461.081C360.485 461.081 360.119 460.926 359.808 460.615C359.497 460.285 359.341 459.91 359.341 459.49C359.341 459.05 359.497 458.685 359.808 458.392C360.119 458.081 360.485 457.925 360.906 457.925C361.345 457.925 361.711 458.081 362.003 458.392C362.314 458.685 362.47 459.05 362.47 459.49C362.47 459.91 362.314 460.285 362.003 460.615C361.711 460.926 361.345 461.081 360.906 461.081ZM366.017 477.712V463.99H368.459L368.624 466.515V477.712H366.017ZM375.512 477.712V470.686L378.119 469.863V477.712H375.512ZM385.007 477.712V470.686L387.587 469.863V477.712H385.007ZM375.512 470.686C375.512 469.442 375.366 468.5 375.073 467.86C374.799 467.201 374.405 466.744 373.893 466.487C373.399 466.231 372.823 466.094 372.164 466.076C371.048 466.076 370.179 466.469 369.557 467.256C368.935 468.043 368.624 469.149 368.624 470.576H367.499C367.499 469.131 367.709 467.896 368.13 466.872C368.551 465.829 369.154 465.033 369.941 464.484C370.746 463.935 371.707 463.661 372.823 463.661C374.469 463.661 375.759 464.173 376.692 465.198C377.643 466.204 378.119 467.759 378.119 469.863L375.512 470.686ZM385.007 470.686C385.007 469.442 384.861 468.5 384.568 467.86C384.275 467.201 383.882 466.744 383.388 466.487C382.894 466.231 382.318 466.094 381.659 466.076C380.543 466.076 379.674 466.469 379.052 467.256C378.43 468.043 378.119 469.149 378.119 470.576H376.994C376.994 469.131 377.204 467.896 377.625 466.872C378.046 465.829 378.65 465.033 379.436 464.484C380.241 463.935 381.202 463.661 382.318 463.661C383.964 463.661 385.254 464.173 386.187 465.198C387.139 466.204 387.605 467.759 387.587 469.863L385.007 470.686ZM399.312 477.712L399.175 475.324V470.549C399.175 469.543 399.056 468.71 398.818 468.052C398.598 467.375 398.251 466.863 397.775 466.515C397.318 466.167 396.705 465.993 395.936 465.993C395.223 465.993 394.592 466.14 394.043 466.433C393.512 466.725 393.073 467.183 392.726 467.805L390.365 466.927C390.695 466.305 391.116 465.746 391.628 465.253C392.14 464.759 392.753 464.374 393.467 464.1C394.198 463.807 395.04 463.661 395.991 463.661C397.272 463.661 398.342 463.908 399.202 464.402C400.08 464.896 400.73 465.637 401.15 466.625C401.59 467.594 401.8 468.802 401.782 470.247L401.754 477.712H399.312ZM395.305 478.041C393.677 478.041 392.405 477.675 391.491 476.943C390.594 476.193 390.146 475.159 390.146 473.842C390.146 472.433 390.612 471.363 391.546 470.631C392.497 469.881 393.814 469.506 395.497 469.506H399.312V471.564H396.211C394.948 471.564 394.061 471.766 393.549 472.168C393.037 472.552 392.78 473.092 392.78 473.787C392.78 474.428 393.018 474.931 393.494 475.297C393.988 475.644 394.665 475.818 395.525 475.818C396.275 475.818 396.915 475.644 397.446 475.297C397.995 474.949 398.415 474.492 398.708 473.924C399.019 473.339 399.175 472.69 399.175 471.976H400.41C400.41 473.842 399.98 475.324 399.12 476.422C398.26 477.501 396.988 478.041 395.305 478.041ZM406.655 470.329C406.655 468.848 406.939 467.64 407.506 466.707C408.073 465.774 408.805 465.079 409.701 464.621C410.598 464.164 411.54 463.935 412.528 463.935V466.405C411.705 466.405 410.918 466.533 410.168 466.789C409.436 467.027 408.832 467.43 408.357 467.997C407.899 468.546 407.67 469.296 407.67 470.247L406.655 470.329ZM405.063 477.712V463.99H407.67V477.712H405.063ZM416.306 483.529C415.903 483.529 415.455 483.456 414.961 483.31C414.485 483.164 413.991 482.971 413.479 482.734L414.44 480.593C414.842 480.776 415.19 480.913 415.483 481.005C415.794 481.096 416.041 481.142 416.223 481.142C416.681 481.142 417.065 481.014 417.376 480.758C417.705 480.502 417.971 480.145 418.172 479.687L419.764 475.928L424.648 463.99H427.448L420.944 479.413C420.596 480.255 420.23 480.986 419.846 481.608C419.462 482.23 418.986 482.706 418.419 483.035C417.87 483.365 417.166 483.529 416.306 483.529ZM419.05 477.712L413.04 463.99H415.812L420.779 475.9L421.575 477.712H419.05ZM442.409 478.041C441.036 478.041 439.82 477.739 438.759 477.135C437.697 476.513 436.865 475.663 436.261 474.583C435.676 473.504 435.383 472.26 435.383 470.851C435.383 469.442 435.676 468.198 436.261 467.119C436.865 466.039 437.688 465.198 438.731 464.594C439.792 463.972 441 463.661 442.354 463.661C443.689 463.661 444.887 463.972 445.949 464.594C447.028 465.216 447.833 466.103 448.364 467.256L446.004 468.244C445.656 467.567 445.153 467.036 444.494 466.652C443.854 466.268 443.113 466.076 442.271 466.076C441.448 466.076 440.716 466.277 440.076 466.68C439.436 467.082 438.932 467.649 438.567 468.381C438.201 469.095 438.018 469.918 438.018 470.851C438.018 471.784 438.201 472.607 438.567 473.321C438.932 474.034 439.445 474.601 440.103 475.022C440.762 475.425 441.503 475.626 442.326 475.626C443.168 475.626 443.918 475.416 444.576 474.995C445.235 474.556 445.729 473.97 446.058 473.238L448.446 474.199C447.915 475.406 447.11 476.349 446.031 477.026C444.97 477.702 443.762 478.041 442.409 478.041ZM457.228 478.041C455.855 478.041 454.648 477.739 453.605 477.135C452.562 476.513 451.739 475.663 451.135 474.583C450.55 473.504 450.257 472.26 450.257 470.851C450.257 469.442 450.55 468.198 451.135 467.119C451.721 466.039 452.535 465.198 453.578 464.594C454.621 463.972 455.819 463.661 457.173 463.661C458.527 463.661 459.725 463.972 460.768 464.594C461.811 465.198 462.625 466.039 463.21 467.119C463.796 468.198 464.088 469.442 464.088 470.851C464.088 472.26 463.796 473.504 463.21 474.583C462.625 475.663 461.811 476.513 460.768 477.135C459.743 477.739 458.563 478.041 457.228 478.041ZM457.228 475.653C458.051 475.653 458.783 475.452 459.423 475.05C460.063 474.629 460.557 474.062 460.905 473.348C461.271 472.635 461.454 471.802 461.454 470.851C461.454 469.899 461.271 469.067 460.905 468.354C460.557 467.64 460.054 467.082 459.396 466.68C458.737 466.259 457.996 466.048 457.173 466.048C456.331 466.048 455.59 466.259 454.95 466.68C454.31 467.082 453.806 467.64 453.441 468.354C453.075 469.067 452.892 469.899 452.892 470.851C452.892 471.802 453.075 472.635 453.441 473.348C453.806 474.062 454.319 474.629 454.977 475.05C455.636 475.452 456.386 475.653 457.228 475.653ZM466.945 477.712V458.502H469.552V477.712H466.945ZM479.363 478.041C477.99 478.041 476.783 477.739 475.74 477.135C474.697 476.513 473.874 475.663 473.27 474.583C472.685 473.504 472.392 472.26 472.392 470.851C472.392 469.442 472.685 468.198 473.27 467.119C473.856 466.039 474.67 465.198 475.713 464.594C476.755 463.972 477.954 463.661 479.308 463.661C480.662 463.661 481.86 463.972 482.903 464.594C483.946 465.198 484.76 466.039 485.345 467.119C485.931 468.198 486.223 469.442 486.223 470.851C486.223 472.26 485.931 473.504 485.345 474.583C484.76 475.663 483.946 476.513 482.903 477.135C481.878 477.739 480.698 478.041 479.363 478.041ZM479.363 475.653C480.186 475.653 480.918 475.452 481.558 475.05C482.198 474.629 482.692 474.062 483.04 473.348C483.406 472.635 483.589 471.802 483.589 470.851C483.589 469.899 483.406 469.067 483.04 468.354C482.692 467.64 482.189 467.082 481.531 466.68C480.872 466.259 480.131 466.048 479.308 466.048C478.466 466.048 477.725 466.259 477.085 466.68C476.444 467.082 475.941 467.64 475.575 468.354C475.21 469.067 475.027 469.899 475.027 470.851C475.027 471.802 475.21 472.635 475.575 473.348C475.941 474.062 476.454 474.629 477.112 475.05C477.771 475.452 478.521 475.653 479.363 475.653ZM490.671 470.329C490.671 468.848 490.955 467.64 491.522 466.707C492.089 465.774 492.821 465.079 493.717 464.621C494.614 464.164 495.556 463.935 496.544 463.935V466.405C495.721 466.405 494.934 466.533 494.184 466.789C493.452 467.027 492.848 467.43 492.373 467.997C491.915 468.546 491.687 469.296 491.687 470.247L490.671 470.329ZM489.08 477.712V463.99H491.687V477.712H489.08Z" fill="black"/>
<mask id="mask1_619_2450" style="mask-type:luminance" maskUnits="userSpaceOnUse" x="761" y="158" width="459" height="266">
<path d="M1219.18 158.316H761.795V423.187H1219.18V158.316Z" fill="white"/>
</mask>
<g mask="url(#mask1_619_2450)">
<path d="M893.162 423.187C891.733 423.187 890.327 422.643 889.259 421.687C888.419 420.914 887.832 419.96 887.559 418.915C886.311 418.71 885.131 418.074 884.246 417.141C883.18 416.004 882.613 414.55 882.659 413.027L882.794 409.187L882.091 409.141C879.233 408.981 876.898 406.573 876.898 403.73L876.761 266.192L867.142 175.841C866.984 174.318 867.46 172.841 868.459 171.795C869.388 170.818 870.636 170.34 871.951 170.431L876.646 170.727V163.226C876.646 161.817 877.191 160.476 878.167 159.544C879.075 158.68 880.255 158.248 881.479 158.339L1023.98 166.795L1084.91 159.157C1087.2 158.862 1089.47 159.521 1091.26 160.998C1093.19 162.567 1094.41 164.976 1094.62 167.613L1094.98 172.477C1095.3 172.704 1095.62 172.977 1095.91 173.25C1097.71 175 1098.75 177.5 1098.73 180.137V185.615C1101.49 187.206 1103.33 190.388 1103.19 194.025L1101.09 251.986L1111.68 389.888L1113.76 404.595C1113.95 405.843 1113.7 407.14 1113.08 408.254L1113.7 416.187C1113.83 417.822 1113.22 419.483 1112.06 420.711C1110.88 421.959 1109.25 422.664 1107.57 422.664C1107.55 422.664 1107.5 422.664 1107.48 422.664L943.451 419.938L893.501 423.21C893.389 423.21 893.252 423.21 893.139 423.21L893.162 423.187ZM888.511 418.982C888.76 419.755 889.238 420.436 889.849 421.006C890.825 421.893 892.14 422.369 893.457 422.279L932.428 419.732L888.488 419.005L888.511 418.982ZM954.454 419.165L1107.5 421.71C1109 421.756 1110.41 421.12 1111.43 420.029C1112.4 418.982 1112.92 417.573 1112.81 416.187L1112.29 409.345C1111.13 410.641 1109.5 411.391 1107.78 411.414L1097.82 411.572V414.072C1097.82 415.709 1097.14 417.232 1095.91 418.369C1094.69 419.528 1093.05 420.141 1091.38 420.05L1007.38 415.641L954.431 419.119L954.454 419.165ZM1015.07 415.185L1091.44 419.188C1092.85 419.256 1094.26 418.732 1095.3 417.756C1096.32 416.777 1096.91 415.483 1096.91 414.095V411.595L1060.28 412.208L1015.07 415.165V415.185ZM888.284 418.074C888.284 418.074 888.376 418.074 888.419 418.074L943.451 418.982L999.732 415.3L969.902 413.731L898.221 414.913C898.221 414.913 898.152 414.913 898.129 414.913C895.067 414.913 892.435 412.64 892.005 409.64L887.921 409.436L888.239 417.664C888.239 417.799 888.239 417.937 888.284 418.074ZM883.679 409.207L883.544 413.027C883.498 414.3 883.974 415.528 884.881 416.505C885.563 417.209 886.425 417.71 887.376 417.937C887.376 417.845 887.376 417.779 887.376 417.687L887.059 409.39L883.724 409.207H883.679ZM982.99 413.505L1007.38 414.778L1041.77 412.528L982.99 413.505ZM892.911 409.685C893.343 412.142 895.566 414.005 898.107 414.005C898.13 414.005 898.175 414.005 898.198 414.005L956.791 413.027L892.911 409.685ZM892.799 408.778L969.902 412.823L1060.23 411.323L1089.74 409.39C1092.4 409.207 1094.53 407.026 1094.62 404.435L1097.2 333.245L1097.36 295.559L1081.6 184.569L963.164 177.091L941.933 177.978L892.186 184.206L886.084 345.611L892.799 408.778ZM1097.12 361.044L1095.53 404.458C1095.41 407.527 1092.9 410.095 1089.81 410.301L1078.74 411.028L1096.93 410.731L1097.14 361.067L1097.12 361.044ZM1098.14 333.245L1097.82 410.687L1107.75 410.527C1109.25 410.504 1110.7 409.823 1111.68 408.663C1111.86 408.457 1112.02 408.231 1112.15 408.005L1110.77 389.933L1099.07 307.47L1098.14 333.268V333.245ZM887.875 408.526L891.891 408.732L885.858 351.884L885.744 354.657L887.875 408.503V408.526ZM883.701 408.3L886.969 408.48L885.291 366.317L883.701 408.3ZM877.623 274.739L877.758 403.73C877.758 406.095 879.709 408.117 882.091 408.231L882.794 408.277L884.813 354.702L884.042 335.155L877.623 274.761V274.739ZM1112.72 403.799L1112.88 405.8C1112.9 405.436 1112.9 405.05 1112.86 404.686L1112.74 403.822L1112.72 403.799ZM1099.22 302.355L1109.68 375.978L1100.77 259.942L1099.22 302.355ZM884.927 335.086L885.38 339.36L891.232 184.342L882.341 185.456C880.436 185.706 879.052 187.433 879.144 189.524L884.927 335.086ZM877.6 266.147L883.498 321.562L878.259 189.57C878.167 187.024 879.869 184.865 882.249 184.569L891.278 183.433C891.484 181.001 893.32 179.137 895.657 179.046L941.818 177.114L948.919 176.227L877.486 171.704L877.577 266.17L877.6 266.147ZM1098.23 301.742V305.447L1098.32 302.401L1098.23 301.719V301.742ZM1098.25 295.491L1098.5 297.31L1100.15 251.963L1098.5 230.484L1098.25 295.491ZM1082.51 184.615L1097.36 289.309L1097.64 219.301L1095.03 185.41L1082.48 184.615H1082.51ZM871.656 171.295C870.682 171.295 869.797 171.682 869.116 172.386C868.299 173.25 867.915 174.455 868.05 175.705L876.761 257.555L876.669 171.613L871.906 171.318C871.906 171.318 871.748 171.318 871.679 171.318L871.656 171.295ZM1098.61 219.255L1100.52 243.963L1102.33 193.934C1102.45 190.843 1101.02 188.138 1098.75 186.638L1098.61 219.278V219.255ZM1096.03 185.524L1097.75 208.095L1097.84 186.115C1097.27 185.842 1096.66 185.638 1096.03 185.524ZM1095.96 184.592C1096.61 184.706 1097.25 184.888 1097.86 185.138V180.092C1097.89 177.705 1096.96 175.432 1095.35 173.864C1095.28 173.795 1095.21 173.727 1095.14 173.659L1095.98 184.592H1095.96ZM1082.44 183.706L1095.05 184.501L1094.17 172.932C1092.87 172.091 1091.4 171.682 1089.83 171.75L1078.99 172.204C1080.35 173.568 1081.28 175.432 1081.58 177.546L1082.46 183.706H1082.44ZM971.83 176.728L1081.53 183.66L1080.69 177.682C1080.37 175.455 1079.28 173.545 1077.7 172.272L971.83 176.728ZM931.045 178.432L895.769 179.91C893.979 179.978 892.527 181.41 892.277 183.297L931.045 178.432ZM953.818 176.478L952.821 176.614L954.614 176.546L953.818 176.5V176.478ZM958.627 175.864L963.233 176.159L1076.38 171.409C1075.47 170.954 1074.47 170.659 1073.41 170.59L1024.05 167.658L958.627 175.864ZM877.554 170.75L953.795 175.568L1019.13 167.386L881.456 159.226C880.459 159.18 879.528 159.521 878.803 160.203C878.009 160.953 877.554 162.067 877.554 163.226V170.772V170.75ZM1090.13 170.841C1091.51 170.841 1092.85 171.181 1094.08 171.841L1093.76 167.658C1093.58 165.249 1092.49 163.135 1090.74 161.68C1089.13 160.362 1087.11 159.771 1085.07 160.044L1028.97 167.09L1073.48 169.727C1075.16 169.818 1076.7 170.409 1077.99 171.363L1089.79 170.863C1089.9 170.863 1090.04 170.863 1090.15 170.863L1090.13 170.841Z" fill="#EE6352"/>
<path d="M858.136 241.008C858.136 241.008 830.167 225.642 816.192 225.642C802.219 225.642 780.555 234.075 780.555 258.328C780.555 290.718 851.808 299.764 851.808 321.608C851.808 338.61 836.472 344.951 819.345 344.951C794.983 344.951 788.406 307.265 780.555 299.423C775.519 294.377 770.008 291.65 765.516 290.377C762.795 289.604 760.684 292.832 762.454 295.059C767.126 300.946 769.555 308.333 769.26 315.857C768.942 324.381 768.942 333.996 771.46 333.996C782.371 333.996 790.491 349.474 816.192 349.474C840.101 349.474 861.742 331.654 861.742 315.721C861.742 279.898 787.77 278.08 787.77 246.44C787.77 234.689 804.897 228.211 816.192 228.211C832.888 228.211 846.589 247.94 850.015 252.759C854.529 259.078 853.621 266.306 853.621 267.215C853.621 268.124 855.437 267.215 855.437 263.601C855.437 259.987 855.437 256.373 856.343 251.85C857.251 247.326 859.044 244.622 859.044 242.803C859.044 240.985 858.136 240.985 858.136 240.985V241.008Z" fill="#24313A"/>
<path d="M928.478 316.925C928.478 316.925 923.056 346.747 901.87 346.747C894.907 346.747 889.734 344.997 885.946 342.633C879.82 338.837 876.191 332.063 876.078 324.858L875.262 265.397H864.44V262.692H864.939C883.563 262.192 881.727 234.848 881.567 232.984C881.567 232.939 881.613 232.916 881.658 232.939C882.088 233.12 884.403 235.552 888.78 233.802C893.294 231.984 892.389 231.097 897.809 229.279C902.414 227.733 904.411 228.824 904.909 229.188C904.955 229.233 904.909 229.279 904.864 229.302C904.047 229.324 903.412 229.62 902.913 229.984C901.959 230.711 901.461 231.87 901.415 233.075C900.827 252.191 884.403 259.964 875.761 262.737L925.78 262.783C924.508 262.783 923.305 262.76 922.171 262.76C921.967 262.76 920.993 262.965 920.833 263.101C920.22 263.578 919.223 264.396 919.472 264.578H920.357C920.879 264.851 921.4 265.147 921.899 265.465H891.504V316.516C891.504 316.516 890.438 344.087 904.139 344.087C920.515 344.087 927.593 316.061 927.593 316.061L928.501 316.971L928.478 316.925Z" fill="#24313A"/>
<path d="M1007.88 265.442C1006.97 266.352 999.755 270.875 997.054 277.194C994.356 283.513 960.964 360.34 957.358 364.863C953.752 369.386 953.752 378.41 931.203 378.41C921.289 378.41 920.948 375.387 886.107 382.933C883.724 383.456 874.062 387.889 870.41 393.547C869.614 394.775 867.732 394.274 867.618 392.843C867.368 389.979 866.529 387.162 864.965 384.752C864.784 384.456 864.601 384.16 864.443 383.865C863.536 382.047 874.355 358.567 895.111 358.567C915.869 358.567 918.568 367.613 943.815 367.613C943.815 367.613 951.936 366.704 954.634 363.09C956.722 360.317 960.011 351.634 961.417 347.793C961.849 346.611 961.804 345.292 961.282 344.133L929.364 272.716C929.364 272.716 926.416 268.306 921.879 265.465C921.38 265.147 920.859 264.852 920.338 264.579H919.453C919.203 264.42 920.2 263.601 920.813 263.124C920.971 262.988 921.948 262.783 922.151 262.783C923.285 262.783 924.488 262.783 925.758 262.806C934.583 262.919 945.72 263.328 946.514 262.783C948.464 261.374 953.184 259.692 957.198 263.556C957.244 263.601 957.198 263.669 957.152 263.669C956.018 263.579 954.181 261.419 947.421 268.215C947.421 268.215 946.514 269.125 946.514 270.92C946.514 272.557 965.591 319.017 969.335 328.131C969.561 328.7 970.377 328.722 970.627 328.131L989.795 284.013C989.795 284.013 992.494 279.535 989.795 273.421C987.097 267.306 983.49 267.306 981.675 265.488C980.177 263.988 979.927 263.101 979.882 262.851C979.882 262.806 979.905 262.783 979.95 262.783C980.245 262.829 981.448 263.101 984.874 263.76C988.91 264.556 1006.88 264.647 1008.31 263.215C1009.67 261.851 1008.76 264.579 1007.85 265.465L1007.88 265.442Z" fill="#24313A"/>
<path d="M925.78 262.76V265.42H921.901C921.401 265.101 920.879 264.806 920.358 264.533H919.473C919.223 264.374 920.223 263.556 920.833 263.078C920.994 262.942 921.968 262.737 922.174 262.737C923.308 262.737 924.508 262.737 925.78 262.76Z" fill="#24313A"/>
<path d="M1016.88 231.984C1016.88 231.984 1016.09 231.325 1015.06 231.075C1011.46 230.166 1013.25 228.37 1013.25 228.37C1013.25 228.37 1025.88 226.552 1027.68 222.938C1029.45 219.392 1032.96 217.573 1035.64 220.097C1035.68 220.142 1035.64 220.233 1035.59 220.21C1034.98 220.165 1033.07 220.255 1033.07 222.71V343.133H1033.19C1033.19 345.861 1034.6 348.225 1036.68 349.452H1013.34C1015.43 348.225 1016.83 345.861 1016.83 343.133V231.961L1016.88 231.984Z" fill="#24313A"/>
<path d="M1044.96 349.475H1068.3C1066.22 348.248 1064.81 345.884 1064.81 343.156H1064.7V267.92C1064.7 264.988 1067.4 265.443 1067.4 265.443C1064.7 262.738 1061.09 264.533 1059.28 268.147C1057.46 271.761 1044.85 273.58 1044.85 273.58C1044.85 273.58 1043.03 275.398 1046.66 276.285C1047.48 276.489 1048.05 276.694 1048.48 276.876V343.156C1048.48 345.884 1047.07 348.248 1044.98 349.475H1044.96Z" fill="#24313A"/>
<path d="M1052.97 263.057C1052.97 253.624 1055.87 250.532 1064.7 250.532C1055.87 250.532 1052.97 247.418 1052.97 238.008C1052.97 247.441 1050.06 250.532 1041.24 250.532C1050.06 250.532 1052.97 253.646 1052.97 263.057Z" fill="#24313A"/>
<path d="M1192.77 397.729C1192.77 388.298 1195.67 385.206 1204.5 385.206C1195.67 385.206 1192.77 382.092 1192.77 372.682C1192.77 382.115 1189.87 385.206 1181.04 385.206C1189.87 385.206 1192.77 388.319 1192.77 397.729Z" fill="#24313A"/>
<path d="M778.764 216.073C778.764 206.64 781.666 203.549 790.491 203.549C781.666 203.549 778.764 200.435 778.764 191.025C778.764 200.458 775.859 203.549 767.034 203.549C775.859 203.549 778.764 206.663 778.764 216.073Z" fill="#24313A"/>
<path d="M1089.88 246.372C1089.88 237.417 1089.95 227.802 1101.67 227.802C1113.4 227.802 1115.19 236.507 1118.8 241.031C1122.41 245.554 1129.91 245.44 1130.66 245.486C1131.41 245.554 1134.13 222.051 1134.13 222.051C1131.43 224.756 1130.53 227.484 1124.22 226.575C1117.91 225.665 1114.29 222.051 1101.67 222.051C1087.22 222.051 1080.03 235.598 1080.03 244.645C1080.03 255.169 1086.38 261.556 1094.14 264.533H1076.43C1073.72 264.533 1075.68 266.556 1075.68 266.556C1075.68 266.556 1080.94 268.147 1083.64 269.966C1084.73 270.693 1085.23 273.148 1085.45 275.853V343.179C1085.45 345.906 1084.05 348.27 1081.96 349.498H1105.3C1103.21 348.27 1101.81 345.906 1101.81 343.179H1101.7V266.352C1102.9 266.488 1104.12 266.556 1105.3 266.556C1117.03 266.556 1132.37 267.238 1132.37 267.238V264.533C1132.37 264.533 1116.12 263.624 1109.82 263.624C1102.6 263.624 1089.9 257.305 1089.9 246.372H1089.88Z" fill="#24313A"/>
<path d="M1156.68 264.51C1158.63 263.124 1163.35 261.442 1167.37 265.283C1167.41 265.329 1167.37 265.397 1167.32 265.397C1166.19 265.306 1164.35 263.146 1157.57 269.943C1157.57 269.943 1156.66 270.852 1156.66 272.648C1156.66 274.284 1175.74 320.744 1179.48 329.859C1179.71 330.427 1180.52 330.45 1180.77 329.859L1199.94 285.74C1199.94 285.74 1202.64 281.262 1199.94 275.148C1197.24 269.034 1193.63 269.034 1191.82 267.215C1190.32 265.715 1190.07 264.851 1190.03 264.578C1190.03 264.533 1190.05 264.51 1190.1 264.51C1190.39 264.578 1191.59 264.828 1195.02 265.51C1199.06 266.306 1217.02 266.374 1218.43 264.965C1219.79 263.601 1218.88 266.329 1217.97 267.215C1217.07 268.102 1209.85 272.648 1207.15 278.967C1204.45 285.285 1171.06 362.112 1167.46 366.636C1163.85 371.159 1163.85 380.183 1141.3 380.183C1131.39 380.183 1131.05 377.159 1096.21 384.706C1093.82 385.229 1084.16 389.662 1080.51 395.322C1079.71 396.547 1077.83 396.049 1077.72 394.594C1077.47 391.729 1076.63 388.911 1075.09 386.501C1074.9 386.206 1074.72 385.911 1074.57 385.615C1073.66 383.797 1084.48 360.317 1105.23 360.317C1125.99 360.317 1128.69 369.363 1153.94 369.363C1153.94 369.363 1162.06 368.454 1164.76 364.84C1166.84 362.067 1170.13 353.384 1171.54 349.543C1171.97 348.361 1171.93 347.042 1171.4 345.883L1139.49 274.466C1139.49 274.466 1135.86 269.056 1130.46 266.329H1129.57C1129.33 266.169 1130.32 265.351 1130.94 264.874C1131.09 264.738 1132.07 264.533 1132.27 264.533C1141.3 264.533 1155.73 265.169 1156.64 264.533L1156.68 264.51Z" fill="#24313A"/>
</g>
<path d="M869.435 478.073V458.863H872.124V478.073H869.435ZM871.493 478.073V475.603H881.043V478.073H871.493ZM889.397 478.402C888.025 478.402 886.817 478.1 885.775 477.497C884.732 476.875 883.908 476.024 883.305 474.944C882.719 473.865 882.426 472.621 882.426 471.212C882.426 469.803 882.719 468.559 883.305 467.48C883.89 466.401 884.704 465.559 885.747 464.955C886.79 464.333 887.988 464.022 889.342 464.022C890.696 464.022 891.894 464.333 892.937 464.955C893.98 465.559 894.794 466.401 895.379 467.48C895.965 468.559 896.258 469.803 896.258 471.212C896.258 472.621 895.965 473.865 895.379 474.944C894.794 476.024 893.98 476.875 892.937 477.497C891.913 478.1 890.732 478.402 889.397 478.402ZM889.397 476.015C890.22 476.015 890.952 475.813 891.592 475.411C892.233 474.99 892.727 474.423 893.074 473.709C893.44 472.996 893.623 472.164 893.623 471.212C893.623 470.261 893.44 469.428 893.074 468.715C892.727 468.001 892.224 467.443 891.565 467.041C890.906 466.62 890.165 466.41 889.342 466.41C888.501 466.41 887.76 466.62 887.119 467.041C886.479 467.443 885.976 468.001 885.61 468.715C885.244 469.428 885.061 470.261 885.061 471.212C885.061 472.164 885.244 472.996 885.61 473.709C885.976 474.423 886.488 474.99 887.147 475.411C887.805 475.813 888.555 476.015 889.397 476.015ZM904.795 483.918C903.88 483.918 903.047 483.827 902.297 483.644C901.547 483.479 900.916 483.287 900.404 483.067C899.892 482.848 899.507 482.656 899.251 482.491L900.239 480.378C900.477 480.524 900.815 480.689 901.255 480.872C901.694 481.073 902.206 481.238 902.791 481.366C903.377 481.512 904.026 481.586 904.74 481.586C905.581 481.586 906.331 481.412 906.99 481.064C907.649 480.735 908.161 480.213 908.527 479.5C908.911 478.786 909.103 477.872 909.103 476.756V464.351H911.71V476.701C911.71 478.274 911.408 479.591 910.805 480.653C910.219 481.732 909.405 482.546 908.362 483.095C907.338 483.644 906.149 483.918 904.795 483.918ZM904.548 477.881C903.304 477.881 902.215 477.597 901.282 477.03C900.367 476.445 899.645 475.64 899.114 474.615C898.602 473.572 898.346 472.374 898.346 471.02C898.346 469.611 898.602 468.386 899.114 467.343C899.645 466.3 900.367 465.486 901.282 464.9C902.215 464.315 903.304 464.022 904.548 464.022C905.682 464.022 906.67 464.315 907.511 464.9C908.371 465.486 909.03 466.309 909.487 467.37C909.963 468.413 910.201 469.639 910.201 471.048C910.201 472.401 909.963 473.6 909.487 474.643C909.03 475.667 908.371 476.463 907.511 477.03C906.67 477.597 905.682 477.881 904.548 477.881ZM905.206 475.685C905.975 475.685 906.642 475.484 907.21 475.082C907.777 474.661 908.225 474.103 908.554 473.408C908.884 472.694 909.048 471.88 909.048 470.965C909.048 470.05 908.884 469.245 908.554 468.55C908.225 467.855 907.768 467.315 907.182 466.931C906.615 466.529 905.947 466.327 905.179 466.327C904.374 466.327 903.66 466.529 903.038 466.931C902.435 467.315 901.959 467.855 901.611 468.55C901.264 469.245 901.09 470.05 901.09 470.965C901.09 471.88 901.264 472.694 901.611 473.408C901.977 474.103 902.462 474.661 903.066 475.082C903.688 475.484 904.401 475.685 905.206 475.685ZM921.53 478.402C920.158 478.402 918.951 478.1 917.908 477.497C916.865 476.875 916.042 476.024 915.438 474.944C914.852 473.865 914.56 472.621 914.56 471.212C914.56 469.803 914.852 468.559 915.438 467.48C916.023 466.401 916.837 465.559 917.88 464.955C918.923 464.333 920.121 464.022 921.475 464.022C922.829 464.022 924.028 464.333 925.07 464.955C926.113 465.559 926.927 466.401 927.513 467.48C928.098 468.559 928.391 469.803 928.391 471.212C928.391 472.621 928.098 473.865 927.513 474.944C926.927 476.024 926.113 476.875 925.07 477.497C924.046 478.1 922.866 478.402 921.53 478.402ZM921.53 476.015C922.353 476.015 923.085 475.813 923.726 475.411C924.366 474.99 924.86 474.423 925.208 473.709C925.573 472.996 925.756 472.164 925.756 471.212C925.756 470.261 925.573 469.428 925.208 468.715C924.86 468.001 924.357 467.443 923.698 467.041C923.04 466.62 922.299 466.41 921.475 466.41C920.634 466.41 919.893 466.62 919.252 467.041C918.612 467.443 918.109 468.001 917.743 468.715C917.377 469.428 917.194 470.261 917.194 471.212C917.194 472.164 917.377 472.996 917.743 473.709C918.109 474.423 918.621 474.99 919.28 475.411C919.938 475.813 920.689 476.015 921.53 476.015ZM950.517 478.073L955.155 464.351H957.762L953.096 478.073H950.517ZM941.268 478.073L945.824 464.351H948.184L943.683 478.073H941.268ZM941.076 478.073L936.411 464.351H939.046L943.574 478.073H941.076ZM950.517 478.073L946.016 464.351H948.404L952.932 478.073H950.517ZM960.007 478.073L960.062 464.351H962.642L962.614 478.073H960.007ZM961.325 461.443C960.904 461.443 960.538 461.287 960.227 460.976C959.916 460.647 959.76 460.272 959.76 459.851C959.76 459.412 959.916 459.046 960.227 458.753C960.538 458.442 960.904 458.287 961.325 458.287C961.764 458.287 962.13 458.442 962.422 458.753C962.733 459.046 962.889 459.412 962.889 459.851C962.889 460.272 962.733 460.647 962.422 460.976C962.13 461.287 961.764 461.443 961.325 461.443ZM971.732 478.402C970.36 478.402 969.299 478.055 968.549 477.359C967.799 476.646 967.424 475.63 967.424 474.313V460.07H970.031V473.929C970.031 474.606 970.196 475.127 970.525 475.493C970.872 475.841 971.366 476.015 972.007 476.015C972.19 476.015 972.391 475.978 972.61 475.905C972.83 475.832 973.095 475.685 973.406 475.466L974.394 477.497C973.919 477.808 973.461 478.036 973.022 478.183C972.601 478.329 972.171 478.402 971.732 478.402ZM965.091 466.602V464.351H973.928V466.602H965.091ZM976.994 478.073L976.967 458.561H979.574V478.073H976.994ZM986.49 478.073V471.048L989.069 470.224V478.073H986.49ZM986.49 471.048C986.49 469.803 986.343 468.861 986.051 468.221C985.758 467.562 985.355 467.105 984.843 466.849C984.349 466.593 983.782 466.455 983.142 466.437C982.007 466.437 981.129 466.83 980.507 467.617C979.885 468.404 979.574 469.511 979.574 470.938H978.476C978.476 469.492 978.687 468.257 979.108 467.233C979.528 466.19 980.132 465.394 980.919 464.845C981.724 464.297 982.675 464.022 983.773 464.022C985.438 464.022 986.737 464.534 987.67 465.559C988.621 466.565 989.088 468.12 989.069 470.224L986.49 471.048ZM1004.35 478.402C1002.98 478.402 1001.91 478.055 1001.16 477.359C1000.41 476.646 1000.04 475.63 1000.04 474.313V460.07H1002.65V473.929C1002.65 474.606 1002.81 475.127 1003.14 475.493C1003.49 475.841 1003.98 476.015 1004.62 476.015C1004.81 476.015 1005.01 475.978 1005.23 475.905C1005.45 475.832 1005.71 475.685 1006.02 475.466L1007.01 477.497C1006.53 477.808 1006.08 478.036 1005.64 478.183C1005.22 478.329 1004.79 478.402 1004.35 478.402ZM997.707 466.602V464.351H1006.54V466.602H997.707ZM1015.54 478.402C1014.2 478.402 1013.02 478.1 1012 477.497C1010.98 476.875 1010.17 476.024 1009.59 474.944C1009 473.865 1008.71 472.621 1008.71 471.212C1008.71 469.803 1009 468.559 1009.59 467.48C1010.17 466.401 1010.98 465.559 1012 464.955C1013.04 464.333 1014.23 464.022 1015.57 464.022C1016.81 464.022 1017.91 464.342 1018.86 464.983C1019.83 465.605 1020.58 466.501 1021.11 467.672C1021.66 468.825 1021.93 470.188 1021.93 471.761H1019.33C1019.35 470.59 1019.2 469.602 1018.89 468.797C1018.6 467.992 1018.16 467.388 1017.57 466.986C1017 466.565 1016.32 466.355 1015.51 466.355C1014.65 466.355 1013.91 466.556 1013.29 466.959C1012.67 467.343 1012.18 467.901 1011.84 468.633C1011.51 469.346 1011.34 470.224 1011.34 471.267C1011.34 472.237 1011.53 473.078 1011.92 473.792C1012.3 474.487 1012.82 475.036 1013.48 475.438C1014.14 475.823 1014.89 476.015 1015.73 476.015C1016.63 476.015 1017.37 475.804 1017.96 475.383C1018.56 474.963 1019.03 474.423 1019.38 473.764L1021.71 474.835C1021.35 475.548 1020.87 476.179 1020.29 476.728C1019.7 477.259 1019.01 477.67 1018.2 477.963C1017.42 478.256 1016.53 478.402 1015.54 478.402ZM1010.41 471.761L1010.44 469.62H1020.48V471.761H1010.41ZM1022.73 478.073L1028.36 470.197L1032.28 464.351H1035.36L1030.06 471.843L1025.86 478.073H1022.73ZM1032.58 478.073L1028.44 471.843L1023.09 464.351H1026.16L1030.11 470.197L1035.69 478.073H1032.58ZM1043.07 478.402C1041.7 478.402 1040.64 478.055 1039.89 477.359C1039.14 476.646 1038.76 475.63 1038.76 474.313V460.07H1041.37V473.929C1041.37 474.606 1041.54 475.127 1041.86 475.493C1042.21 475.841 1042.71 476.015 1043.35 476.015C1043.53 476.015 1043.73 475.978 1043.95 475.905C1044.17 475.832 1044.44 475.685 1044.75 475.466L1045.73 477.497C1045.26 477.808 1044.8 478.036 1044.36 478.183C1043.94 478.329 1043.51 478.402 1043.07 478.402ZM1036.43 466.602V464.351H1045.27V466.602H1036.43ZM1061.26 478.402C1059.89 478.402 1058.68 478.1 1057.61 477.497C1056.55 476.875 1055.72 476.024 1055.12 474.944C1054.53 473.865 1054.24 472.621 1054.24 471.212C1054.24 469.803 1054.53 468.559 1055.12 467.48C1055.72 466.401 1056.54 465.559 1057.59 464.955C1058.65 464.333 1059.86 464.022 1061.21 464.022C1062.55 464.022 1063.74 464.333 1064.8 464.955C1065.88 465.577 1066.69 466.465 1067.22 467.617L1064.86 468.605C1064.51 467.928 1064.01 467.398 1063.35 467.013C1062.71 466.629 1061.97 466.437 1061.13 466.437C1060.3 466.437 1059.57 466.638 1058.93 467.041C1058.29 467.443 1057.79 468.011 1057.42 468.742C1057.06 469.456 1056.87 470.279 1056.87 471.212C1056.87 472.145 1057.06 472.969 1057.42 473.682C1057.79 474.396 1058.3 474.963 1058.96 475.383C1059.62 475.786 1060.36 475.987 1061.18 475.987C1062.02 475.987 1062.77 475.777 1063.43 475.356C1064.09 474.917 1064.59 474.332 1064.91 473.6L1067.3 474.56C1066.77 475.768 1065.97 476.71 1064.89 477.387C1063.83 478.064 1062.62 478.402 1061.26 478.402ZM1076.08 478.402C1074.71 478.402 1073.5 478.1 1072.46 477.497C1071.42 476.875 1070.6 476.024 1069.99 474.944C1069.41 473.865 1069.11 472.621 1069.11 471.212C1069.11 469.803 1069.41 468.559 1069.99 467.48C1070.58 466.401 1071.39 465.559 1072.43 464.955C1073.48 464.333 1074.67 464.022 1076.03 464.022C1077.38 464.022 1078.58 464.333 1079.62 464.955C1080.67 465.559 1081.48 466.401 1082.07 467.48C1082.65 468.559 1082.94 469.803 1082.94 471.212C1082.94 472.621 1082.65 473.865 1082.07 474.944C1081.48 476.024 1080.67 476.875 1079.62 477.497C1078.6 478.1 1077.42 478.402 1076.08 478.402ZM1076.08 476.015C1076.91 476.015 1077.64 475.813 1078.28 475.411C1078.92 474.99 1079.41 474.423 1079.76 473.709C1080.13 472.996 1080.31 472.164 1080.31 471.212C1080.31 470.261 1080.13 469.428 1079.76 468.715C1079.41 468.001 1078.91 467.443 1078.25 467.041C1077.59 466.62 1076.85 466.41 1076.03 466.41C1075.19 466.41 1074.45 466.62 1073.81 467.041C1073.17 467.443 1072.66 468.001 1072.3 468.715C1071.93 469.428 1071.75 470.261 1071.75 471.212C1071.75 472.164 1071.93 472.996 1072.3 473.709C1072.66 474.423 1073.17 474.99 1073.83 475.411C1074.49 475.813 1075.24 476.015 1076.08 476.015ZM1085.8 478.073V458.863H1088.41V478.073H1085.8ZM1098.22 478.402C1096.85 478.402 1095.64 478.1 1094.6 477.497C1093.56 476.875 1092.73 476.024 1092.13 474.944C1091.54 473.865 1091.25 472.621 1091.25 471.212C1091.25 469.803 1091.54 468.559 1092.13 467.48C1092.71 466.401 1093.53 465.559 1094.57 464.955C1095.61 464.333 1096.81 464.022 1098.17 464.022C1099.52 464.022 1100.72 464.333 1101.76 464.955C1102.8 465.559 1103.62 466.401 1104.2 467.48C1104.79 468.559 1105.08 469.803 1105.08 471.212C1105.08 472.621 1104.79 473.865 1104.2 474.944C1103.62 476.024 1102.8 476.875 1101.76 477.497C1100.74 478.1 1099.56 478.402 1098.22 478.402ZM1098.22 476.015C1099.04 476.015 1099.78 475.813 1100.42 475.411C1101.06 474.99 1101.55 474.423 1101.9 473.709C1102.26 472.996 1102.45 472.164 1102.45 471.212C1102.45 470.261 1102.26 469.428 1101.9 468.715C1101.55 468.001 1101.05 467.443 1100.39 467.041C1099.73 466.62 1098.99 466.41 1098.17 466.41C1097.32 466.41 1096.58 466.62 1095.94 467.041C1095.3 467.443 1094.8 468.001 1094.43 468.715C1094.07 469.428 1093.88 470.261 1093.88 471.212C1093.88 472.164 1094.07 472.996 1094.43 473.709C1094.8 474.423 1095.31 474.99 1095.97 475.411C1096.63 475.813 1097.38 476.015 1098.22 476.015ZM1109.53 470.691C1109.53 469.209 1109.81 468.001 1110.38 467.068C1110.95 466.135 1111.68 465.44 1112.58 464.983C1113.47 464.525 1114.41 464.297 1115.4 464.297V466.766C1114.58 466.766 1113.79 466.895 1113.04 467.151C1112.31 467.388 1111.71 467.791 1111.23 468.358C1110.77 468.907 1110.54 469.657 1110.54 470.608L1109.53 470.691ZM1107.94 478.073V464.351H1110.54V478.073H1107.94Z" fill="black"/>
<path d="M395.891 993.77H944.747" stroke="#47D72F"/>
<path d="M395.891 623.291H944.747" stroke="#47D72F"/>
<path d="M395.891 932.023H944.747" stroke="#47D72F"/>
<path d="M395.891 870.277H944.747" stroke="#47D72F"/>
<path d="M395.891 808.53H944.747" stroke="#47D72F"/>
<path d="M395.891 746.784H944.747" stroke="#47D72F"/>
<path d="M395.891 685.038H944.747" stroke="#47D72F"/>
<path d="M486.223 562.688V1065.81" stroke="#47D72F"/>
<path d="M856.701 562.688V1065.81" stroke="#47D72F"/>
<path d="M547.97 562.688V1065.81" stroke="#47D72F"/>
<path d="M609.716 562.688V1065.81" stroke="#47D72F"/>
<path d="M671.462 562.688V1065.81" stroke="#47D72F"/>
<path d="M733.209 562.688V1065.81" stroke="#47D72F"/>
<path d="M794.955 562.688V1065.81" stroke="#47D72F"/>
<mask id="mask2_619_2450" style="mask-type:luminance" maskUnits="userSpaceOnUse" x="448" y="670" width="458" height="265">
<path d="M905.87 670.173H448.489V934.683H905.87V670.173Z" fill="white"/>
</mask>
<g mask="url(#mask2_619_2450)">
<path d="M579.857 934.683C578.427 934.683 577.021 934.136 575.953 933.185C575.114 932.412 574.526 931.458 574.254 930.415C573.005 930.21 571.825 929.574 570.94 928.643C569.874 927.509 569.307 926.057 569.353 924.536L569.488 920.698L568.786 920.655C565.927 920.495 563.592 918.089 563.592 915.251L563.455 777.902L553.836 687.674C553.679 686.154 554.154 684.676 555.154 683.633C556.082 682.657 557.331 682.181 558.646 682.27L563.341 682.566V675.076C563.341 673.669 563.885 672.329 564.861 671.399C565.769 670.536 566.949 670.104 568.173 670.196L710.674 678.639L771.604 671.012C773.896 670.717 776.164 671.376 777.957 672.851C779.885 674.417 781.109 676.823 781.315 679.458L781.676 684.315C781.994 684.541 782.312 684.814 782.607 685.086C784.4 686.833 785.442 689.33 785.419 691.965V697.435C788.187 699.022 790.025 702.201 789.888 705.832L787.78 763.714L798.372 901.429L800.458 916.115C800.641 917.362 800.392 918.656 799.779 919.77L800.392 927.692C800.527 929.325 799.914 930.983 798.757 932.208C797.579 933.457 795.944 934.159 794.265 934.159C794.245 934.159 794.199 934.159 794.176 934.159L630.146 931.435L580.195 934.706C580.083 934.706 579.946 934.706 579.834 934.706L579.857 934.683ZM575.205 930.482C575.454 931.255 575.932 931.936 576.543 932.503C577.519 933.388 578.834 933.864 580.149 933.775L619.123 931.232L575.182 930.505L575.205 930.482ZM641.148 930.665L794.199 933.205C795.695 933.251 797.101 932.615 798.123 931.527C799.097 930.482 799.619 929.075 799.507 927.692L798.985 920.858C797.828 922.153 796.195 922.901 794.471 922.924L784.512 923.084V925.579C784.512 927.214 783.832 928.735 782.607 929.869C781.381 931.028 779.748 931.641 778.069 931.55L694.071 927.145L641.125 930.619L641.148 930.665ZM701.76 926.692L778.138 930.688C779.544 930.754 780.951 930.232 781.994 929.256C783.016 928.282 783.604 926.987 783.604 925.601V923.106L746.97 923.719L701.76 926.669V926.692ZM574.979 929.574C574.979 929.574 575.07 929.574 575.114 929.574L630.146 930.482L686.426 926.804L656.596 925.24L584.915 926.42C584.915 926.42 584.847 926.42 584.824 926.42C581.762 926.42 579.129 924.149 578.7 921.153L574.615 920.95L574.933 929.167C574.933 929.302 574.933 929.439 574.979 929.574ZM570.373 920.721L570.238 924.536C570.192 925.807 570.668 927.033 571.576 928.007C572.257 928.712 573.119 929.212 574.071 929.439C574.071 929.347 574.071 929.279 574.071 929.19L573.753 920.904L570.419 920.721H570.373ZM669.684 925.011L694.071 926.283L728.46 924.037L669.684 925.011ZM579.605 921.199C580.037 923.651 582.26 925.512 584.801 925.512C584.824 925.512 584.87 925.512 584.892 925.512L643.485 924.536L579.605 921.199ZM579.493 920.291L656.596 924.332L746.924 922.832L776.437 920.904C779.092 920.721 781.223 918.544 781.315 915.955L783.899 844.862L784.059 807.229L768.293 696.39L649.859 688.921L628.627 689.808L578.88 696.026L572.779 857.212L579.493 920.291ZM783.81 872.623L782.22 915.978C782.108 919.043 779.59 921.606 776.505 921.812L765.434 922.537L783.627 922.242L783.832 872.646L783.81 872.623ZM784.829 844.862L784.512 922.199L794.448 922.038C795.944 922.016 797.396 921.334 798.372 920.177C798.553 919.973 798.713 919.747 798.848 919.518L797.465 901.475L785.76 819.123L784.829 844.885V844.862ZM574.569 920.042L578.585 920.246L572.552 863.475L572.438 866.245L574.569 920.019V920.042ZM570.396 919.813L573.664 919.996L571.985 877.89L570.396 919.813ZM564.317 786.437L564.452 915.251C564.452 917.613 566.403 919.633 568.786 919.747L569.488 919.79L571.507 866.291L570.737 846.77L564.317 786.46V786.437ZM799.415 915.32L799.575 917.318C799.596 916.955 799.596 916.568 799.553 916.205L799.438 915.342L799.415 915.32ZM785.918 814.014L796.376 887.536L787.462 771.659L785.918 814.014ZM571.622 846.701L572.074 850.968L577.927 696.163L569.035 697.275C567.13 697.524 565.747 699.251 565.838 701.339L571.622 846.701ZM564.294 777.856L570.192 833.195L564.953 701.384C564.861 698.841 566.563 696.685 568.944 696.39L577.972 695.256C578.178 692.827 580.014 690.965 582.352 690.874L628.513 688.944L635.614 688.059L564.18 683.542L564.271 777.879L564.294 777.856ZM784.921 813.401V817.102L785.01 814.06L784.921 813.379V813.401ZM784.944 807.16L785.193 808.976L786.849 763.691L785.193 742.242L784.944 807.16ZM769.201 696.436L784.059 800.986L784.331 731.073L781.722 697.229L769.178 696.436H769.201ZM558.351 683.133C557.376 683.133 556.491 683.519 555.81 684.224C554.993 685.086 554.609 686.289 554.744 687.537L563.455 769.276L563.364 683.451L558.6 683.156C558.6 683.156 558.442 683.156 558.374 683.156L558.351 683.133ZM785.305 731.027L787.212 755.703L789.026 705.741C789.14 702.654 787.711 699.953 785.442 698.455L785.305 731.05V731.027ZM782.721 697.343L784.443 719.883L784.534 697.934C783.967 697.661 783.354 697.456 782.721 697.343ZM782.652 696.413C783.309 696.527 783.944 696.708 784.557 696.957V691.919C784.58 689.534 783.649 687.265 782.039 685.699C781.971 685.63 781.902 685.561 781.836 685.495L782.675 696.413H782.652ZM769.132 695.528L781.744 696.321L780.859 684.768C779.567 683.929 778.092 683.519 776.528 683.588L765.684 684.041C767.044 685.404 767.975 687.265 768.27 689.376L769.155 695.528H769.132ZM658.524 688.559L768.224 695.482L767.385 689.513C767.067 687.288 765.979 685.381 764.391 684.109L658.524 688.559ZM617.739 690.261L582.464 691.736C580.673 691.805 579.221 693.234 578.972 695.118L617.739 690.261ZM640.512 688.308L639.515 688.445L641.308 688.377L640.512 688.331V688.308ZM645.322 687.697L649.927 687.992L763.076 683.247C762.169 682.794 761.169 682.499 760.103 682.431L710.743 679.501L645.322 687.697ZM564.249 682.588L640.489 687.4L705.822 679.229L568.15 671.081C567.153 671.035 566.222 671.376 565.497 672.057C564.704 672.805 564.249 673.919 564.249 675.076V682.611V682.588ZM776.823 682.68C778.207 682.68 779.544 683.021 780.77 683.679L780.452 679.501C780.269 677.095 779.181 674.984 777.434 673.532C775.824 672.215 773.804 671.625 771.764 671.897L715.667 678.934L760.172 681.568C761.851 681.658 763.392 682.248 764.686 683.201L776.482 682.703C776.594 682.703 776.732 682.703 776.846 682.703L776.823 682.68Z" fill="#EE6352"/>
<path d="M544.83 752.751C544.83 752.751 516.861 737.408 502.886 737.408C488.913 737.408 467.249 745.828 467.249 770.049C467.249 802.395 538.502 811.428 538.502 833.24C538.502 850.221 523.166 856.553 506.04 856.553C481.677 856.553 475.1 818.917 467.249 811.087C462.213 806.049 456.702 803.325 452.211 802.054C449.489 801.281 447.378 804.505 449.148 806.728C453.82 812.608 456.249 819.985 455.954 827.498C455.636 836.01 455.636 845.613 458.154 845.613C469.065 845.613 477.186 861.07 502.886 861.07C526.796 861.07 548.436 843.275 548.436 827.363C548.436 791.589 474.464 789.773 474.464 758.177C474.464 746.441 491.591 739.971 502.886 739.971C519.583 739.971 533.283 759.675 536.709 764.487C541.224 770.797 540.316 778.016 540.316 778.924C540.316 779.832 542.131 778.924 542.131 775.313C542.131 771.704 542.132 768.096 543.037 763.579C543.945 759.062 545.738 756.362 545.738 754.546C545.738 752.728 544.83 752.728 544.83 752.728V752.751Z" fill="#105535"/>
<path d="M615.173 828.566C615.173 828.566 609.75 858.346 588.564 858.346C581.601 858.346 576.428 856.599 572.641 854.239C566.514 850.447 562.885 843.682 562.773 836.488L561.956 777.108H551.135V774.408H551.633C570.258 773.907 568.421 746.601 568.261 744.74C568.261 744.694 568.307 744.671 568.353 744.694C568.783 744.875 571.097 747.303 575.474 745.556C579.989 743.74 579.083 742.855 584.503 741.04C589.109 739.496 591.105 740.584 591.604 740.948C591.65 740.994 591.604 741.039 591.558 741.062C590.742 741.085 590.106 741.38 589.607 741.744C588.654 742.469 588.155 743.626 588.109 744.831C587.522 763.92 571.097 771.682 562.455 774.451L612.474 774.497C611.203 774.497 610 774.474 608.865 774.474C608.662 774.474 607.688 774.68 607.527 774.815C606.915 775.293 605.917 776.109 606.167 776.29H607.052C607.573 776.562 608.095 776.859 608.593 777.175H578.198V828.157C578.198 828.157 577.132 855.691 590.833 855.691C607.21 855.691 614.288 827.704 614.288 827.704L615.195 828.612L615.173 828.566Z" fill="#105535"/>
<path d="M694.569 777.152C693.661 778.06 686.448 782.576 683.747 788.888C681.049 795.198 647.658 871.919 644.051 876.437C640.445 880.954 640.445 889.964 617.896 889.964C607.982 889.964 607.642 886.946 572.801 894.481C570.418 895.005 560.756 899.43 557.103 905.083C556.308 906.309 554.425 905.808 554.311 904.379C554.062 901.518 553.222 898.705 551.658 896.297C551.478 896.002 551.295 895.707 551.137 895.412C550.229 893.596 561.048 870.149 581.804 870.149C602.562 870.149 605.261 879.184 630.508 879.184C630.508 879.184 638.629 878.276 641.328 874.665C643.416 871.896 646.704 863.226 648.111 859.389C648.543 858.209 648.497 856.894 647.976 855.734L616.057 784.415C616.057 784.415 613.11 780.012 608.572 777.174C608.074 776.857 607.552 776.562 607.031 776.289H606.146C605.897 776.129 606.894 775.313 607.507 774.837C607.664 774.7 608.641 774.496 608.845 774.496C609.979 774.496 611.182 774.497 612.451 774.519C621.276 774.631 632.413 775.041 633.207 774.496C635.158 773.088 639.878 771.409 643.891 775.267C643.937 775.313 643.891 775.382 643.846 775.382C642.711 775.29 640.875 773.134 634.115 779.921C634.115 779.921 633.207 780.829 633.207 782.622C633.207 784.257 652.284 830.654 656.028 839.756C656.254 840.323 657.071 840.346 657.32 839.756L676.489 795.696C676.489 795.696 679.187 791.225 676.489 785.119C673.79 779.013 670.184 779.013 668.368 777.197C666.87 775.699 666.621 774.814 666.575 774.565C666.575 774.519 666.598 774.496 666.644 774.496C666.939 774.542 668.142 774.814 671.567 775.473C675.604 776.267 693.57 776.358 694.999 774.926C696.36 773.566 695.452 776.289 694.546 777.174L694.569 777.152Z" fill="#105535"/>
<path d="M612.474 774.474V777.129H608.596C608.095 776.811 607.573 776.516 607.052 776.244H606.167C605.918 776.086 606.917 775.268 607.528 774.792C607.688 774.655 608.662 774.451 608.868 774.451C610.002 774.451 611.203 774.451 612.474 774.474Z" fill="#105535"/>
<path d="M703.573 743.74C703.573 743.74 702.779 743.081 701.757 742.832C698.151 741.924 699.944 740.131 699.944 740.131C699.944 740.131 712.579 738.315 714.369 734.707C716.14 731.164 719.657 729.349 722.332 731.869C722.378 731.914 722.333 732.004 722.287 731.981C721.674 731.937 719.769 732.026 719.769 734.478V854.737H719.883C719.883 857.461 721.29 859.821 723.375 861.047H700.035C702.121 859.821 703.527 857.461 703.527 854.737V743.717L703.573 743.74Z" fill="#105535"/>
<path d="M731.656 861.07H754.996C752.911 859.844 751.504 857.484 751.504 854.76H751.39V779.626C751.39 776.699 754.091 777.152 754.091 777.152C751.39 774.451 747.784 776.244 745.97 779.853C744.154 783.464 731.542 785.279 731.542 785.279C731.542 785.279 729.728 787.095 733.358 787.98C734.174 788.184 734.741 788.387 735.171 788.57V854.76C735.171 857.484 733.765 859.844 731.679 861.07H731.656Z" fill="#105535"/>
<path d="M739.663 774.769C739.663 765.349 742.567 762.262 751.39 762.262C742.567 762.262 739.663 759.152 739.663 749.755C739.663 759.175 736.758 762.262 727.936 762.262C736.758 762.262 739.663 765.372 739.663 774.769Z" fill="#105535"/>
<path d="M879.466 909.259C879.466 899.84 882.368 896.752 891.193 896.752C882.368 896.752 879.466 893.642 879.466 884.245C879.466 893.665 876.561 896.752 867.738 896.752C876.561 896.752 879.466 899.862 879.466 909.259Z" fill="#105535"/>
<path d="M465.458 727.851C465.458 718.431 468.36 715.343 477.185 715.343C468.36 715.343 465.458 712.233 465.458 702.836C465.458 712.256 462.554 715.343 453.729 715.343C462.554 715.343 465.458 718.454 465.458 727.851Z" fill="#105535"/>
<path d="M776.571 758.109C776.571 749.164 776.64 739.564 788.367 739.564C800.095 739.564 801.887 748.257 805.494 752.773C809.1 757.29 816.608 757.178 817.358 757.223C818.106 757.29 820.828 733.819 820.828 733.819C818.129 736.52 817.221 739.246 810.916 738.338C804.609 737.43 800.98 733.819 788.367 733.819C773.916 733.819 766.726 747.349 766.726 756.382C766.726 766.893 773.077 773.271 780.837 776.244H763.12C760.419 776.244 762.372 778.265 762.372 778.265C762.372 778.265 767.634 779.852 770.333 781.668C771.421 782.395 771.922 784.847 772.149 787.548V854.783C772.149 857.506 770.742 859.867 768.654 861.092H791.997C789.909 859.867 788.502 857.506 788.502 854.783H788.39V778.059C789.593 778.197 790.817 778.265 791.997 778.265C803.724 778.265 819.06 778.945 819.06 778.945V776.244C819.06 776.244 802.816 775.336 796.511 775.336C789.298 775.336 776.594 769.026 776.594 758.109H776.571Z" fill="#105535"/>
<path d="M843.376 776.221C845.326 774.837 850.044 773.157 854.06 776.994C854.106 777.037 854.06 777.106 854.014 777.106C852.88 777.017 851.044 774.86 844.261 781.646C844.261 781.646 843.353 782.553 843.353 784.346C843.353 785.981 862.43 832.378 866.174 841.48C866.4 842.047 867.217 842.07 867.466 841.48L886.635 797.423C886.635 797.423 889.333 792.95 886.635 786.844C883.934 780.738 880.327 780.738 878.514 778.922C877.016 777.424 876.767 776.562 876.721 776.29C876.721 776.244 876.744 776.221 876.79 776.221C877.085 776.29 878.288 776.539 881.711 777.22C885.75 778.014 903.716 778.083 905.122 776.676C906.483 775.313 905.575 778.037 904.669 778.922C903.761 779.807 896.548 784.346 893.848 790.658C891.149 796.968 857.758 873.691 854.152 878.208C850.543 882.724 850.543 891.735 827.996 891.735C818.083 891.735 817.742 888.716 782.901 896.254C780.518 896.775 770.853 901.2 767.201 906.853C766.408 908.079 764.526 907.578 764.411 906.126C764.162 903.268 763.323 900.452 761.781 898.047C761.598 897.752 761.418 897.457 761.26 897.162C760.352 895.346 771.171 871.896 791.927 871.896C812.683 871.896 815.384 880.931 840.631 880.931C840.631 880.931 848.752 880.024 851.451 876.415C853.539 873.645 856.827 864.973 858.234 861.138C858.666 859.958 858.62 858.641 858.099 857.484L826.18 786.164C826.18 786.164 822.551 780.76 817.152 778.037H816.269C816.02 777.879 817.017 777.06 817.63 776.585C817.788 776.447 818.764 776.244 818.968 776.244C827.996 776.244 842.422 776.88 843.33 776.244L843.376 776.221Z" fill="#105535"/>
</g>
<path d="M583.572 1120.69V1101.48H586.262V1120.69H583.572ZM585.63 1120.69V1118.22H595.181V1120.69H585.63ZM603.535 1121.02C602.163 1121.02 600.955 1120.72 599.912 1120.12C598.869 1119.49 598.046 1118.64 597.442 1117.56C596.857 1116.48 596.564 1115.24 596.564 1113.83C596.564 1112.42 596.857 1111.18 597.442 1110.1C598.028 1109.02 598.842 1108.18 599.885 1107.57C600.928 1106.95 602.126 1106.64 603.48 1106.64C604.834 1106.64 606.032 1106.95 607.075 1107.57C608.118 1108.18 608.932 1109.02 609.517 1110.1C610.103 1111.18 610.395 1112.42 610.395 1113.83C610.395 1115.24 610.103 1116.48 609.517 1117.56C608.932 1118.64 608.118 1119.49 607.075 1120.12C606.05 1120.72 604.87 1121.02 603.535 1121.02ZM603.535 1118.63C604.358 1118.63 605.09 1118.43 605.73 1118.03C606.37 1117.61 606.864 1117.04 607.212 1116.33C607.578 1115.62 607.761 1114.78 607.761 1113.83C607.761 1112.88 607.578 1112.05 607.212 1111.33C606.864 1110.62 606.361 1110.06 605.703 1109.66C605.044 1109.24 604.303 1109.03 603.48 1109.03C602.638 1109.03 601.897 1109.24 601.257 1109.66C600.617 1110.06 600.113 1110.62 599.748 1111.33C599.382 1112.05 599.199 1112.88 599.199 1113.83C599.199 1114.78 599.382 1115.62 599.748 1116.33C600.113 1117.04 600.626 1117.61 601.284 1118.03C601.943 1118.43 602.693 1118.63 603.535 1118.63ZM618.932 1126.54C618.018 1126.54 617.185 1126.45 616.435 1126.26C615.685 1126.1 615.054 1125.91 614.542 1125.69C614.029 1125.47 613.645 1125.28 613.389 1125.11L614.377 1123C614.615 1123.14 614.953 1123.31 615.392 1123.49C615.831 1123.69 616.344 1123.86 616.929 1123.99C617.514 1124.13 618.164 1124.21 618.877 1124.21C619.719 1124.21 620.469 1124.03 621.128 1123.68C621.786 1123.35 622.299 1122.83 622.665 1122.12C623.049 1121.41 623.241 1120.49 623.241 1119.38V1106.97H625.848V1119.32C625.848 1120.89 625.546 1122.21 624.942 1123.27C624.357 1124.35 623.543 1125.17 622.5 1125.71C621.475 1126.26 620.286 1126.54 618.932 1126.54ZM618.685 1120.5C617.441 1120.5 616.353 1120.22 615.42 1119.65C614.505 1119.06 613.782 1118.26 613.252 1117.23C612.739 1116.19 612.483 1114.99 612.483 1113.64C612.483 1112.23 612.739 1111.01 613.252 1109.96C613.782 1108.92 614.505 1108.11 615.42 1107.52C616.353 1106.93 617.441 1106.64 618.685 1106.64C619.82 1106.64 620.808 1106.93 621.649 1107.52C622.509 1108.11 623.168 1108.93 623.625 1109.99C624.101 1111.03 624.339 1112.26 624.339 1113.67C624.339 1115.02 624.101 1116.22 623.625 1117.26C623.168 1118.29 622.509 1119.08 621.649 1119.65C620.808 1120.22 619.82 1120.5 618.685 1120.5ZM619.344 1118.31C620.112 1118.31 620.78 1118.1 621.347 1117.7C621.914 1117.28 622.363 1116.72 622.692 1116.03C623.021 1115.31 623.186 1114.5 623.186 1113.58C623.186 1112.67 623.021 1111.87 622.692 1111.17C622.363 1110.47 621.905 1109.93 621.32 1109.55C620.753 1109.15 620.085 1108.95 619.317 1108.95C618.512 1108.95 617.798 1109.15 617.176 1109.55C616.572 1109.93 616.097 1110.47 615.749 1111.17C615.401 1111.87 615.228 1112.67 615.228 1113.58C615.228 1114.5 615.401 1115.31 615.749 1116.03C616.115 1116.72 616.6 1117.28 617.203 1117.7C617.826 1118.1 618.539 1118.31 619.344 1118.31ZM635.668 1121.02C634.296 1121.02 633.088 1120.72 632.045 1120.12C631.003 1119.49 630.179 1118.64 629.576 1117.56C628.99 1116.48 628.697 1115.24 628.697 1113.83C628.697 1112.42 628.99 1111.18 629.576 1110.1C630.161 1109.02 630.975 1108.18 632.018 1107.57C633.061 1106.95 634.259 1106.64 635.613 1106.64C636.967 1106.64 638.165 1106.95 639.208 1107.57C640.251 1108.18 641.065 1109.02 641.65 1110.1C642.236 1111.18 642.529 1112.42 642.529 1113.83C642.529 1115.24 642.236 1116.48 641.65 1117.56C641.065 1118.64 640.251 1119.49 639.208 1120.12C638.183 1120.72 637.003 1121.02 635.668 1121.02ZM635.668 1118.63C636.491 1118.63 637.223 1118.43 637.863 1118.03C638.504 1117.61 638.998 1117.04 639.345 1116.33C639.711 1115.62 639.894 1114.78 639.894 1113.83C639.894 1112.88 639.711 1112.05 639.345 1111.33C638.998 1110.62 638.495 1110.06 637.836 1109.66C637.177 1109.24 636.436 1109.03 635.613 1109.03C634.771 1109.03 634.031 1109.24 633.39 1109.66C632.75 1110.06 632.247 1110.62 631.881 1111.33C631.515 1112.05 631.332 1112.88 631.332 1113.83C631.332 1114.78 631.515 1115.62 631.881 1116.33C632.247 1117.04 632.759 1117.61 633.418 1118.03C634.076 1118.43 634.826 1118.63 635.668 1118.63ZM664.654 1120.69L669.292 1106.97H671.899L667.234 1120.69H664.654ZM655.406 1120.69L659.962 1106.97H662.322L657.821 1120.69H655.406ZM655.214 1120.69L650.549 1106.97H653.183L657.711 1120.69H655.214ZM664.654 1120.69L660.154 1106.97H662.541L667.069 1120.69H664.654ZM674.145 1120.69L674.2 1106.97H676.78L676.752 1120.69H674.145ZM675.462 1104.06C675.041 1104.06 674.676 1103.91 674.365 1103.6C674.054 1103.27 673.898 1102.89 673.898 1102.47C673.898 1102.03 674.054 1101.67 674.365 1101.37C674.676 1101.06 675.041 1100.91 675.462 1100.91C675.901 1100.91 676.267 1101.06 676.56 1101.37C676.871 1101.67 677.027 1102.03 677.027 1102.47C677.027 1102.89 676.871 1103.27 676.56 1103.6C676.267 1103.91 675.901 1104.06 675.462 1104.06ZM685.87 1121.02C684.498 1121.02 683.437 1120.67 682.687 1119.98C681.937 1119.27 681.561 1118.25 681.561 1116.93V1102.69H684.169V1116.55C684.169 1117.23 684.333 1117.75 684.663 1118.11C685.01 1118.46 685.504 1118.63 686.144 1118.63C686.327 1118.63 686.529 1118.6 686.748 1118.52C686.968 1118.45 687.233 1118.3 687.544 1118.09L688.532 1120.12C688.056 1120.43 687.599 1120.66 687.16 1120.8C686.739 1120.95 686.309 1121.02 685.87 1121.02ZM679.229 1109.22V1106.97H688.065V1109.22H679.229ZM691.132 1120.69L691.105 1101.18H693.712V1120.69H691.132ZM700.627 1120.69V1113.67L703.207 1112.84V1120.69H700.627ZM700.627 1113.67C700.627 1112.42 700.481 1111.48 700.188 1110.84C699.896 1110.18 699.493 1109.72 698.981 1109.47C698.487 1109.21 697.92 1109.08 697.279 1109.06C696.145 1109.06 695.267 1109.45 694.645 1110.24C694.023 1111.02 693.712 1112.13 693.712 1113.56H692.614C692.614 1112.11 692.824 1110.88 693.245 1109.85C693.666 1108.81 694.27 1108.01 695.056 1107.47C695.861 1106.92 696.813 1106.64 697.911 1106.64C699.575 1106.64 700.874 1107.15 701.807 1108.18C702.759 1109.18 703.225 1110.74 703.207 1112.84L700.627 1113.67ZM718.87 1126.54C717.955 1126.54 717.123 1126.45 716.373 1126.26C715.623 1126.1 714.991 1125.91 714.479 1125.69C713.967 1125.47 713.583 1125.28 713.327 1125.11L714.314 1123C714.552 1123.14 714.891 1123.31 715.33 1123.49C715.769 1123.69 716.281 1123.86 716.867 1123.99C717.452 1124.13 718.102 1124.21 718.815 1124.21C719.657 1124.21 720.407 1124.03 721.065 1123.68C721.724 1123.35 722.236 1122.83 722.602 1122.12C722.986 1121.41 723.178 1120.49 723.178 1119.38V1106.97H725.786V1119.32C725.786 1120.89 725.484 1122.21 724.88 1123.27C724.295 1124.35 723.48 1125.17 722.438 1125.71C721.413 1126.26 720.224 1126.54 718.87 1126.54ZM718.623 1120.5C717.379 1120.5 716.29 1120.22 715.357 1119.65C714.443 1119.06 713.72 1118.26 713.189 1117.23C712.677 1116.19 712.421 1114.99 712.421 1113.64C712.421 1112.23 712.677 1111.01 713.189 1109.96C713.72 1108.92 714.443 1108.11 715.357 1107.52C716.29 1106.93 717.379 1106.64 718.623 1106.64C719.757 1106.64 720.745 1106.93 721.587 1107.52C722.447 1108.11 723.105 1108.93 723.563 1109.99C724.038 1111.03 724.276 1112.26 724.276 1113.67C724.276 1115.02 724.038 1116.22 723.563 1117.26C723.105 1118.29 722.447 1119.08 721.587 1119.65C720.745 1120.22 719.757 1120.5 718.623 1120.5ZM719.282 1118.31C720.05 1118.31 720.718 1118.1 721.285 1117.7C721.852 1117.28 722.3 1116.72 722.63 1116.03C722.959 1115.31 723.124 1114.5 723.124 1113.58C723.124 1112.67 722.959 1111.87 722.63 1111.17C722.3 1110.47 721.843 1109.93 721.257 1109.55C720.69 1109.15 720.023 1108.95 719.254 1108.95C718.449 1108.95 717.736 1109.15 717.114 1109.55C716.51 1109.93 716.034 1110.47 715.687 1111.17C715.339 1111.87 715.165 1112.67 715.165 1113.58C715.165 1114.5 715.339 1115.31 715.687 1116.03C716.053 1116.72 716.537 1117.28 717.141 1117.7C717.763 1118.1 718.477 1118.31 719.282 1118.31ZM730.993 1113.31C730.993 1111.83 731.276 1110.62 731.844 1109.69C732.411 1108.75 733.143 1108.06 734.039 1107.6C734.935 1107.14 735.878 1106.92 736.866 1106.92V1109.39C736.042 1109.39 735.256 1109.51 734.506 1109.77C733.774 1110.01 733.17 1110.41 732.694 1110.98C732.237 1111.53 732.008 1112.28 732.008 1113.23L730.993 1113.31ZM729.401 1120.69V1106.97H732.008V1120.69H729.401ZM739.134 1120.69L739.189 1106.97H741.769L741.741 1120.69H739.134ZM740.451 1104.06C740.031 1104.06 739.665 1103.91 739.354 1103.6C739.043 1103.27 738.887 1102.89 738.887 1102.47C738.887 1102.03 739.043 1101.67 739.354 1101.37C739.665 1101.06 740.031 1100.91 740.451 1100.91C740.891 1100.91 741.256 1101.06 741.549 1101.37C741.86 1101.67 742.016 1102.03 742.016 1102.47C742.016 1102.89 741.86 1103.27 741.549 1103.6C741.256 1103.91 740.891 1104.06 740.451 1104.06ZM755.607 1120.69L755.497 1118.14V1101.48H758.077V1120.69H755.607ZM750.996 1121.02C749.752 1121.02 748.664 1120.72 747.731 1120.12C746.816 1119.51 746.093 1118.67 745.563 1117.59C745.05 1116.51 744.794 1115.26 744.794 1113.83C744.794 1112.39 745.05 1111.13 745.563 1110.07C746.093 1108.99 746.816 1108.15 747.731 1107.55C748.664 1106.94 749.752 1106.64 750.996 1106.64C752.149 1106.64 753.146 1106.94 753.988 1107.55C754.848 1108.15 755.506 1108.99 755.964 1110.07C756.421 1111.13 756.65 1112.39 756.65 1113.83C756.65 1115.26 756.421 1116.51 755.964 1117.59C755.506 1118.67 754.848 1119.51 753.988 1120.12C753.146 1120.72 752.149 1121.02 750.996 1121.02ZM751.6 1118.66C752.369 1118.66 753.045 1118.46 753.631 1118.06C754.216 1117.64 754.674 1117.07 755.003 1116.36C755.332 1115.62 755.497 1114.78 755.497 1113.83C755.497 1112.88 755.332 1112.05 755.003 1111.33C754.674 1110.6 754.216 1110.04 753.631 1109.63C753.045 1109.21 752.359 1109 751.573 1109C750.768 1109 750.054 1109.21 749.432 1109.63C748.81 1110.04 748.325 1110.6 747.978 1111.33C747.63 1112.05 747.456 1112.88 747.456 1113.83C747.456 1114.78 747.63 1115.62 747.978 1116.36C748.344 1117.07 748.838 1117.64 749.46 1118.06C750.082 1118.46 750.795 1118.66 751.6 1118.66Z" fill="black"/>
</g>
<defs>
<clipPath id="clip0_619_2450">
<rect width="1100" height="983.368" fill="white" transform="translate(119.5 158.316)"/>
</clipPath>
</defs>
</svg>
