<svg width="883" height="697" viewBox="0 0 883 697" fill="none" xmlns="http://www.w3.org/2000/svg">
<rect width="883" height="697" fill="white"/>
<g clip-path="url(#clip0_614_27225)">
<mask id="mask0_614_27225" style="mask-type:luminance" maskUnits="userSpaceOnUse" x="162" y="98" width="234" height="135">
<path d="M395.347 98.1885H162.499V232.848H395.347V98.1885Z" fill="white"/>
</mask>
<g mask="url(#mask0_614_27225)">
<path d="M229.375 232.848C228.648 232.848 227.932 232.571 227.389 232.086C226.962 231.692 226.662 231.207 226.523 230.676C225.888 230.571 225.287 230.249 224.837 229.775C224.294 229.196 224.005 228.457 224.029 227.683L224.098 225.73L223.74 225.707C222.285 225.625 221.095 224.401 221.095 222.957L221.026 153.032L216.13 107.098C216.049 106.324 216.291 105.573 216.799 105.041C217.273 104.544 217.908 104.302 218.578 104.348L220.968 104.498V100.685C220.968 99.9684 221.245 99.2866 221.742 98.8129C222.204 98.3737 222.804 98.1542 223.428 98.2004L295.974 102.499L326.993 98.6164C328.159 98.4662 329.314 98.8013 330.227 99.5524C331.209 100.35 331.831 101.575 331.936 102.915L332.12 105.388C332.282 105.504 332.444 105.642 332.594 105.781C333.507 106.671 334.038 107.942 334.026 109.282V112.067C335.435 112.876 336.371 114.494 336.301 116.343L335.228 145.81L340.62 215.919L341.682 223.396C341.775 224.031 341.648 224.689 341.336 225.256L341.648 229.289C341.717 230.12 341.405 230.965 340.816 231.589C340.216 232.224 339.384 232.583 338.529 232.583C338.519 232.583 338.496 232.583 338.484 232.583L254.978 231.195L229.549 232.86C229.491 232.86 229.422 232.86 229.364 232.86L229.375 232.848ZM227.008 230.711C227.135 231.103 227.378 231.45 227.689 231.739C228.186 232.189 228.856 232.431 229.526 232.386L249.365 231.091L226.996 230.722L227.008 230.711ZM260.579 230.803L338.496 232.097C339.257 232.121 339.973 231.797 340.493 231.242C340.989 230.711 341.255 229.994 341.198 229.289L340.932 225.81C340.343 226.469 339.512 226.85 338.634 226.862L333.564 226.943V228.215C333.564 229.046 333.218 229.82 332.594 230.399C331.97 230.988 331.139 231.3 330.284 231.253L287.522 229.012L260.567 230.779L260.579 230.803ZM291.436 228.78L330.319 230.814C331.035 230.849 331.751 230.583 332.282 230.087C332.802 229.59 333.102 228.931 333.102 228.226V226.955L314.452 227.267L291.436 228.769V228.78ZM226.892 230.249C226.892 230.249 226.939 230.249 226.962 230.249L254.978 230.711L283.63 228.839L268.443 228.041L231.951 228.642C231.951 228.642 231.916 228.642 231.904 228.642C230.346 228.642 229.006 227.486 228.786 225.961L226.708 225.857L226.869 230.04C226.869 230.109 226.869 230.179 226.892 230.249ZM224.548 225.742L224.479 227.683C224.456 228.33 224.698 228.954 225.16 229.451C225.507 229.808 225.946 230.063 226.431 230.179C226.431 230.132 226.431 230.098 226.431 230.052L226.269 225.834L224.571 225.742H224.548ZM275.107 227.926L287.522 228.572L305.028 227.429L275.107 227.926ZM229.248 225.984C229.468 227.232 230.6 228.18 231.893 228.18C231.904 228.18 231.928 228.18 231.939 228.18L261.768 227.683L229.248 225.984ZM229.191 225.522L268.443 227.579L314.428 226.816L329.453 225.834C330.805 225.742 331.89 224.632 331.936 223.314L333.252 187.122L333.333 167.962L325.307 111.536L265.013 107.734L254.204 108.185L228.879 111.351L225.772 193.408L229.191 225.522ZM333.206 201.255L332.397 223.326C332.34 224.886 331.058 226.192 329.488 226.296L323.852 226.666L333.113 226.516L333.218 201.266L333.206 201.255ZM333.726 187.122L333.564 226.493L338.623 226.411C339.384 226.4 340.123 226.054 340.62 225.463C340.712 225.36 340.794 225.245 340.863 225.129L340.158 215.942L334.2 174.018L333.726 187.134V187.122ZM226.685 225.395L228.729 225.498L225.657 196.598L225.599 198.007L226.685 225.383V225.395ZM224.56 225.28L226.223 225.372L225.368 203.936L224.56 225.28ZM221.465 157.377L221.534 222.957C221.534 224.158 222.527 225.186 223.74 225.245L224.098 225.268L225.126 198.031L224.733 188.093L221.465 157.389V157.377ZM341.151 222.991L341.233 224.008C341.243 223.823 341.243 223.626 341.221 223.441L341.163 223.002L341.151 222.991ZM334.28 171.418L339.604 208.847L335.066 149.855L334.28 171.418ZM225.183 188.058L225.414 190.23L228.394 111.42L223.867 111.986C222.897 112.114 222.192 112.992 222.239 114.055L225.183 188.058ZM221.453 153.009L224.456 181.182L221.788 114.078C221.742 112.784 222.608 111.686 223.821 111.536L228.417 110.958C228.521 109.721 229.456 108.774 230.646 108.728L254.146 107.745L257.761 107.295L221.396 104.995L221.442 153.021L221.453 153.009ZM333.772 171.106V172.989L333.818 171.441L333.772 171.094V171.106ZM333.784 167.928L333.911 168.852L334.754 145.799L333.911 134.878L333.784 167.928ZM325.769 111.559L333.333 164.785L333.472 129.193L332.144 111.963L325.758 111.559H325.769ZM218.428 104.787C217.931 104.787 217.481 104.984 217.134 105.342C216.719 105.781 216.522 106.393 216.591 107.029L221.026 148.641L220.98 104.949L218.555 104.799C218.555 104.799 218.474 104.799 218.439 104.799L218.428 104.787ZM333.968 129.17L334.939 141.731L335.862 116.297C335.92 114.725 335.193 113.35 334.038 112.587L333.968 129.181V129.17ZM332.652 112.021L333.529 123.496L333.576 112.321C333.287 112.183 332.975 112.079 332.652 112.021ZM332.617 111.547C332.951 111.605 333.275 111.698 333.587 111.825V109.259C333.599 108.046 333.125 106.89 332.305 106.093C332.27 106.058 332.235 106.024 332.202 105.989L332.629 111.547H332.617ZM325.734 111.097L332.155 111.501L331.705 105.619C331.047 105.192 330.296 104.984 329.5 105.018L323.979 105.249C324.671 105.943 325.145 106.89 325.295 107.965L325.746 111.097H325.734ZM269.425 107.549L325.272 111.074L324.845 108.034C324.683 106.902 324.129 105.931 323.321 105.284L269.425 107.549ZM248.661 108.416L230.704 109.167C229.791 109.201 229.052 109.929 228.925 110.889L248.661 108.416ZM260.256 107.422L259.747 107.491L260.66 107.457L260.256 107.433V107.422ZM262.704 107.11L265.048 107.26L322.651 104.845C322.189 104.614 321.68 104.464 321.138 104.429L296.009 102.938L262.704 107.11ZM221.43 104.51L260.244 106.96L293.504 102.8L223.417 98.6511C222.908 98.628 222.435 98.8013 222.065 99.148C221.661 99.5293 221.43 100.096 221.43 100.685V104.521V104.51ZM329.65 104.556C330.354 104.556 331.035 104.729 331.659 105.065L331.497 102.938C331.404 101.713 330.85 100.639 329.961 99.8991C329.141 99.2289 328.113 98.9284 327.074 99.0671L298.516 102.649L321.173 103.99C322.027 104.036 322.812 104.336 323.471 104.822L329.476 104.568C329.533 104.568 329.603 104.568 329.661 104.568L329.65 104.556Z" fill="#EE6352"/>
<path d="M211.544 140.229C211.544 140.229 197.305 132.417 190.191 132.417C183.078 132.417 172.049 136.704 172.049 149.034C172.049 165.501 208.322 170.1 208.322 181.205C208.322 189.849 200.515 193.073 191.797 193.073C179.394 193.073 176.045 173.914 172.049 169.927C169.485 167.362 166.679 165.975 164.392 165.328C163.007 164.935 161.933 166.576 162.833 167.708C165.212 170.701 166.448 174.457 166.298 178.282C166.136 182.615 166.136 187.503 167.418 187.503C172.973 187.503 177.107 195.373 190.191 195.373C202.363 195.373 213.38 186.313 213.38 178.212C213.38 160.001 175.721 159.076 175.721 142.991C175.721 137.016 184.44 133.723 190.191 133.723C198.691 133.723 205.666 143.753 207.41 146.203C209.708 149.415 209.246 153.09 209.246 153.553C209.246 154.015 210.17 153.553 210.17 151.715C210.17 149.878 210.17 148.04 210.632 145.741C211.094 143.441 212.006 142.066 212.006 141.142C212.006 140.217 211.544 140.217 211.544 140.217V140.229Z" fill="#105535"/>
<path d="M247.355 178.826C247.355 178.826 244.595 193.987 233.809 193.987C230.263 193.987 227.63 193.097 225.702 191.895C222.584 189.965 220.736 186.522 220.678 182.859L220.262 152.629H214.754V151.254H215.008C224.489 150.999 223.554 137.098 223.473 136.15C223.473 136.127 223.496 136.116 223.519 136.127C223.738 136.22 224.916 137.456 227.145 136.566C229.443 135.642 228.981 135.191 231.741 134.267C234.086 133.481 235.102 134.036 235.356 134.22C235.379 134.243 235.356 134.267 235.333 134.278C234.917 134.29 234.594 134.44 234.34 134.625C233.855 134.995 233.601 135.584 233.578 136.196C233.277 145.915 224.916 149.867 220.516 151.277L245.98 151.3C245.334 151.3 244.722 151.288 244.144 151.288C244.04 151.288 243.544 151.392 243.463 151.462C243.151 151.704 242.643 152.12 242.77 152.213H243.22C243.486 152.351 243.752 152.502 244.006 152.663H228.531V178.618C228.531 178.618 227.988 192.635 234.963 192.635C243.301 192.635 246.904 178.386 246.904 178.386L247.366 178.849L247.355 178.826Z" fill="#105535"/>
<path d="M287.775 152.651C287.312 153.113 283.64 155.413 282.265 158.625C280.892 161.838 263.892 200.896 262.056 203.196C260.22 205.496 260.22 210.083 248.741 210.083C243.694 210.083 243.521 208.546 225.783 212.383C224.57 212.649 219.651 214.902 217.792 217.78C217.387 218.404 216.429 218.149 216.371 217.421C216.244 215.965 215.817 214.532 215.02 213.307C214.928 213.157 214.835 213.007 214.754 212.857C214.292 211.932 219.801 199.995 230.368 199.995C240.934 199.995 242.309 204.594 255.162 204.594C255.162 204.594 259.296 204.132 260.67 202.295C261.733 200.885 263.407 196.471 264.123 194.518C264.343 193.917 264.32 193.246 264.054 192.657L247.806 156.349C247.806 156.349 246.304 154.107 243.995 152.663C243.741 152.501 243.475 152.351 243.209 152.212H242.759C242.632 152.131 243.14 151.715 243.452 151.472C243.533 151.403 244.029 151.299 244.133 151.299C244.711 151.299 245.323 151.299 245.969 151.311C250.462 151.368 256.132 151.576 256.536 151.299C257.529 150.583 259.931 149.727 261.975 151.692C261.998 151.715 261.975 151.75 261.952 151.75C261.375 151.704 260.439 150.606 256.998 154.061C256.998 154.061 256.536 154.523 256.536 155.436C256.536 156.268 266.248 179.888 268.154 184.522C268.269 184.811 268.685 184.822 268.812 184.522L278.57 162.092C278.57 162.092 279.944 159.816 278.57 156.707C277.196 153.599 275.36 153.599 274.436 152.674C273.674 151.912 273.547 151.461 273.524 151.334C273.524 151.311 273.535 151.299 273.558 151.299C273.708 151.322 274.32 151.461 276.064 151.796C278.12 152.2 287.266 152.247 287.994 151.519C288.686 150.825 288.224 152.212 287.763 152.663L287.775 152.651Z" fill="#105535"/>
<path d="M245.98 151.288V152.64H244.006C243.752 152.478 243.486 152.328 243.22 152.189H242.77C242.643 152.108 243.151 151.692 243.463 151.449C243.544 151.38 244.04 151.276 244.144 151.276C244.722 151.276 245.334 151.276 245.98 151.288Z" fill="#105535"/>
<path d="M292.359 135.641C292.359 135.641 291.955 135.306 291.434 135.179C289.598 134.717 290.511 133.804 290.511 133.804C290.511 133.804 296.944 132.879 297.855 131.042C298.756 129.239 300.547 128.315 301.909 129.597C301.932 129.621 301.909 129.667 301.886 129.655C301.574 129.632 300.604 129.678 300.604 130.926V192.149H300.662C300.662 193.535 301.378 194.737 302.44 195.361H290.558C291.619 194.737 292.335 193.535 292.335 192.149V135.63L292.359 135.641Z" fill="#105535"/>
<path d="M306.656 195.373H318.538C317.477 194.749 316.761 193.547 316.761 192.16H316.702V153.911C316.702 152.42 318.077 152.651 318.077 152.651C316.702 151.276 314.866 152.189 313.943 154.026C313.019 155.864 306.598 156.788 306.598 156.788C306.598 156.788 305.675 157.713 307.522 158.163C307.938 158.267 308.227 158.371 308.446 158.464V192.16C308.446 193.547 307.73 194.749 306.668 195.373H306.656Z" fill="#105535"/>
<path d="M310.732 151.438C310.732 146.642 312.211 145.071 316.702 145.071C312.211 145.071 310.732 143.488 310.732 138.704C310.732 143.499 309.253 145.071 304.762 145.071C309.253 145.071 310.732 146.654 310.732 151.438Z" fill="#105535"/>
<path d="M381.904 219.905C381.904 215.11 383.381 213.539 387.874 213.539C383.381 213.539 381.904 211.955 381.904 207.171C381.904 211.967 380.425 213.539 375.934 213.539C380.425 213.539 381.904 215.122 381.904 219.905Z" fill="#105535"/>
<path d="M171.136 127.552C171.136 122.757 172.615 121.185 177.107 121.185C172.615 121.185 171.136 119.602 171.136 114.818C171.136 119.613 169.658 121.185 165.166 121.185C169.658 121.185 171.136 122.768 171.136 127.552Z" fill="#105535"/>
<path d="M329.522 142.956C329.522 138.403 329.557 133.515 335.527 133.515C341.497 133.515 342.41 137.941 344.246 140.24C346.082 142.54 349.904 142.482 350.286 142.505C350.667 142.54 352.052 130.591 352.052 130.591C350.678 131.967 350.216 133.353 347.006 132.891C343.795 132.429 341.948 130.591 335.527 130.591C328.17 130.591 324.51 137.479 324.51 142.078C324.51 147.428 327.743 150.675 331.693 152.189H322.674C321.299 152.189 322.293 153.218 322.293 153.218C322.293 153.218 324.972 154.026 326.346 154.951C326.9 155.321 327.155 156.569 327.27 157.944V192.172C327.27 193.559 326.554 194.76 325.491 195.384H337.374C336.311 194.76 335.595 193.559 335.595 192.172H335.538V153.114C336.151 153.183 336.774 153.218 337.374 153.218C343.345 153.218 351.152 153.564 351.152 153.564V152.189C351.152 152.189 342.882 151.727 339.673 151.727C336.001 151.727 329.533 148.514 329.533 142.956H329.522Z" fill="#105535"/>
<path d="M363.532 152.177C364.525 151.472 366.926 150.617 368.971 152.57C368.994 152.593 368.971 152.628 368.948 152.628C368.37 152.582 367.435 151.484 363.982 154.939C363.982 154.939 363.52 155.401 363.52 156.314C363.52 157.146 373.232 180.766 375.138 185.4C375.253 185.689 375.669 185.7 375.796 185.4L385.554 162.97C385.554 162.97 386.928 160.694 385.554 157.585C384.179 154.477 382.343 154.477 381.42 153.552C380.657 152.79 380.531 152.35 380.507 152.212C380.507 152.189 380.519 152.177 380.542 152.177C380.692 152.212 381.305 152.339 383.048 152.686C385.104 153.09 394.25 153.125 394.966 152.408C395.659 151.715 395.197 153.102 394.735 153.552C394.273 154.003 390.601 156.314 389.226 159.527C387.852 162.739 370.853 201.798 369.017 204.097C367.18 206.397 367.18 210.984 355.702 210.984C350.655 210.984 350.482 209.448 332.744 213.284C331.531 213.55 326.611 215.804 324.752 218.681C324.348 219.305 323.39 219.051 323.331 218.31C323.205 216.855 322.777 215.422 321.993 214.197C321.899 214.047 321.807 213.896 321.727 213.746C321.265 212.822 326.773 200.885 337.34 200.885C347.906 200.885 349.281 205.484 362.134 205.484C362.134 205.484 366.269 205.022 367.642 203.184C368.705 201.774 370.38 197.36 371.096 195.407C371.316 194.806 371.292 194.136 371.027 193.547L354.778 157.239C354.778 157.239 352.93 154.488 350.181 153.102H349.732C349.605 153.021 350.112 152.605 350.424 152.362C350.505 152.293 351.002 152.189 351.106 152.189C355.702 152.189 363.046 152.512 363.508 152.189L363.532 152.177Z" fill="#105535"/>
</g>
<path d="M204.491 260.79V251.01H205.86V260.79H204.491ZM205.539 260.79V259.532H210.401V260.79H205.539ZM214.654 260.957C213.955 260.957 213.341 260.804 212.81 260.496C212.279 260.18 211.86 259.747 211.552 259.197C211.254 258.648 211.105 258.014 211.105 257.297C211.105 256.58 211.254 255.947 211.552 255.397C211.85 254.848 212.265 254.419 212.796 254.112C213.327 253.795 213.937 253.637 214.626 253.637C215.315 253.637 215.925 253.795 216.456 254.112C216.987 254.419 217.401 254.848 217.7 255.397C217.998 255.947 218.147 256.58 218.147 257.297C218.147 258.014 217.998 258.648 217.7 259.197C217.401 259.747 216.987 260.18 216.456 260.496C215.935 260.804 215.334 260.957 214.654 260.957ZM214.654 259.742C215.073 259.742 215.446 259.64 215.772 259.435C216.098 259.22 216.349 258.932 216.526 258.568C216.712 258.205 216.805 257.781 216.805 257.297C216.805 256.813 216.712 256.389 216.526 256.026C216.349 255.662 216.093 255.378 215.758 255.174C215.422 254.959 215.045 254.852 214.626 254.852C214.197 254.852 213.82 254.959 213.494 255.174C213.168 255.378 212.912 255.662 212.726 256.026C212.54 256.389 212.446 256.813 212.446 257.297C212.446 257.781 212.54 258.205 212.726 258.568C212.912 258.932 213.173 259.22 213.508 259.435C213.844 259.64 214.225 259.742 214.654 259.742ZM222.493 263.766C222.027 263.766 221.603 263.719 221.221 263.626C220.839 263.542 220.518 263.444 220.257 263.333C219.996 263.221 219.801 263.123 219.67 263.039L220.173 261.963C220.295 262.038 220.467 262.122 220.69 262.215C220.914 262.317 221.175 262.401 221.473 262.466C221.771 262.541 222.101 262.578 222.465 262.578C222.893 262.578 223.275 262.49 223.61 262.313C223.946 262.145 224.206 261.88 224.393 261.516C224.588 261.153 224.686 260.687 224.686 260.119V253.804H226.013V260.091C226.013 260.892 225.86 261.563 225.552 262.103C225.254 262.653 224.84 263.067 224.309 263.346C223.787 263.626 223.182 263.766 222.493 263.766ZM222.367 260.692C221.734 260.692 221.179 260.548 220.704 260.259C220.239 259.961 219.871 259.551 219.601 259.029C219.34 258.499 219.209 257.889 219.209 257.199C219.209 256.482 219.34 255.858 219.601 255.327C219.871 254.796 220.239 254.382 220.704 254.084C221.179 253.786 221.734 253.637 222.367 253.637C222.944 253.637 223.447 253.786 223.876 254.084C224.313 254.382 224.649 254.801 224.882 255.341C225.124 255.872 225.245 256.496 225.245 257.213C225.245 257.902 225.124 258.513 224.882 259.043C224.649 259.565 224.313 259.97 223.876 260.259C223.447 260.548 222.944 260.692 222.367 260.692ZM222.702 259.574C223.093 259.574 223.433 259.472 223.722 259.267C224.011 259.053 224.239 258.769 224.407 258.415C224.574 258.052 224.658 257.637 224.658 257.171C224.658 256.706 224.574 256.296 224.407 255.942C224.239 255.588 224.006 255.313 223.708 255.118C223.419 254.913 223.079 254.81 222.688 254.81C222.278 254.81 221.915 254.913 221.598 255.118C221.291 255.313 221.049 255.588 220.872 255.942C220.695 256.296 220.607 256.706 220.607 257.171C220.607 257.637 220.695 258.052 220.872 258.415C221.058 258.769 221.305 259.053 221.612 259.267C221.929 259.472 222.292 259.574 222.702 259.574ZM231.012 260.957C230.314 260.957 229.699 260.804 229.168 260.496C228.637 260.18 228.218 259.747 227.911 259.197C227.613 258.648 227.464 258.014 227.464 257.297C227.464 256.58 227.613 255.947 227.911 255.397C228.209 254.848 228.623 254.419 229.154 254.112C229.685 253.795 230.295 253.637 230.984 253.637C231.674 253.637 232.284 253.795 232.815 254.112C233.345 254.419 233.76 254.848 234.058 255.397C234.356 255.947 234.505 256.58 234.505 257.297C234.505 258.014 234.356 258.648 234.058 259.197C233.76 259.747 233.345 260.18 232.815 260.496C232.293 260.804 231.692 260.957 231.012 260.957ZM231.012 259.742C231.431 259.742 231.804 259.64 232.13 259.435C232.456 259.22 232.707 258.932 232.884 258.568C233.071 258.205 233.164 257.781 233.164 257.297C233.164 256.813 233.071 256.389 232.884 256.026C232.707 255.662 232.451 255.378 232.116 255.174C231.781 254.959 231.403 254.852 230.984 254.852C230.556 254.852 230.179 254.959 229.853 255.174C229.527 255.378 229.271 255.662 229.084 256.026C228.898 256.389 228.805 256.813 228.805 257.297C228.805 257.781 228.898 258.205 229.084 258.568C229.271 258.932 229.531 259.22 229.867 259.435C230.202 259.64 230.584 259.742 231.012 259.742ZM245.769 260.79L248.13 253.804H249.457L247.082 260.79H245.769ZM241.06 260.79L243.38 253.804H244.581L242.29 260.79H241.06ZM240.963 260.79L238.588 253.804H239.929L242.234 260.79H240.963ZM245.769 260.79L243.477 253.804H244.693L246.998 260.79H245.769ZM250.601 260.79L250.628 253.804H251.942L251.928 260.79H250.601ZM251.271 252.323C251.057 252.323 250.871 252.244 250.712 252.086C250.554 251.918 250.475 251.727 250.475 251.513C250.475 251.29 250.554 251.103 250.712 250.954C250.871 250.796 251.057 250.717 251.271 250.717C251.495 250.717 251.681 250.796 251.83 250.954C251.988 251.103 252.067 251.29 252.067 251.513C252.067 251.727 251.988 251.918 251.83 252.086C251.681 252.244 251.495 252.323 251.271 252.323ZM256.569 260.957C255.871 260.957 255.331 260.78 254.949 260.427C254.567 260.063 254.376 259.546 254.376 258.876V251.625H255.703V258.68C255.703 259.025 255.787 259.29 255.955 259.477C256.132 259.654 256.383 259.742 256.709 259.742C256.802 259.742 256.905 259.723 257.016 259.686C257.128 259.649 257.263 259.574 257.422 259.463L257.925 260.496C257.682 260.655 257.45 260.771 257.226 260.846C257.012 260.92 256.793 260.957 256.569 260.957ZM253.188 254.95V253.804H257.687V254.95H253.188ZM259.249 260.79L259.235 250.857H260.562V260.79H259.249ZM264.083 260.79V257.213L265.396 256.794V260.79H264.083ZM264.083 257.213C264.083 256.58 264.008 256.1 263.859 255.774C263.71 255.439 263.505 255.206 263.245 255.076C262.993 254.945 262.704 254.875 262.378 254.866C261.801 254.866 261.354 255.066 261.037 255.467C260.72 255.867 260.562 256.431 260.562 257.157H260.003C260.003 256.422 260.11 255.793 260.325 255.271C260.539 254.74 260.846 254.335 261.247 254.056C261.657 253.776 262.141 253.637 262.7 253.637C263.547 253.637 264.209 253.897 264.684 254.419C265.168 254.931 265.405 255.723 265.396 256.794L264.083 257.213ZM270.547 263.584V253.804H271.79L271.874 255.09V263.584H270.547ZM274.165 260.957C273.579 260.957 273.066 260.804 272.629 260.496C272.2 260.189 271.869 259.761 271.637 259.211C271.404 258.662 271.287 258.024 271.287 257.297C271.287 256.561 271.404 255.923 271.637 255.383C271.869 254.834 272.2 254.405 272.629 254.098C273.066 253.79 273.579 253.637 274.165 253.637C274.789 253.637 275.339 253.79 275.814 254.098C276.289 254.405 276.657 254.834 276.918 255.383C277.188 255.923 277.323 256.561 277.323 257.297C277.323 258.024 277.188 258.662 276.918 259.211C276.657 259.761 276.289 260.189 275.814 260.496C275.339 260.804 274.789 260.957 274.165 260.957ZM273.844 259.756C274.263 259.756 274.631 259.654 274.948 259.449C275.264 259.234 275.511 258.946 275.688 258.582C275.874 258.21 275.968 257.781 275.968 257.297C275.968 256.813 275.879 256.389 275.702 256.026C275.525 255.653 275.278 255.364 274.962 255.16C274.645 254.945 274.277 254.838 273.858 254.838C273.476 254.838 273.131 254.945 272.824 255.16C272.526 255.364 272.293 255.653 272.126 256.026C271.958 256.398 271.874 256.822 271.874 257.297C271.874 257.781 271.958 258.21 272.126 258.582C272.293 258.946 272.526 259.234 272.824 259.449C273.122 259.654 273.462 259.756 273.844 259.756ZM279.583 257.032C279.583 256.277 279.728 255.662 280.016 255.187C280.305 254.712 280.678 254.359 281.134 254.126C281.59 253.893 282.07 253.776 282.573 253.776V255.034C282.154 255.034 281.753 255.099 281.371 255.229C280.999 255.35 280.691 255.555 280.449 255.844C280.216 256.124 280.1 256.505 280.1 256.99L279.583 257.032ZM278.773 260.79V253.804H280.1V260.79H278.773ZM283.727 260.79L283.755 253.804H285.068L285.054 260.79H283.727ZM284.397 252.323C284.183 252.323 283.997 252.244 283.838 252.086C283.68 251.918 283.601 251.727 283.601 251.513C283.601 251.29 283.68 251.103 283.838 250.954C283.997 250.796 284.183 250.717 284.397 250.717C284.621 250.717 284.807 250.796 284.956 250.954C285.114 251.103 285.194 251.29 285.194 251.513C285.194 251.727 285.114 251.918 284.956 252.086C284.807 252.244 284.621 252.323 284.397 252.323ZM286.999 260.79V253.804H288.243L288.327 255.09V260.79H286.999ZM291.833 260.79V257.213L293.161 256.794V260.79H291.833ZM296.667 260.79V257.213L297.98 256.794V260.79H296.667ZM291.833 257.213C291.833 256.58 291.759 256.1 291.61 255.774C291.47 255.439 291.27 255.206 291.009 255.076C290.758 254.945 290.464 254.875 290.129 254.866C289.561 254.866 289.118 255.066 288.802 255.467C288.485 255.867 288.327 256.431 288.327 257.157H287.754C287.754 256.422 287.861 255.793 288.075 255.271C288.289 254.74 288.597 254.335 288.997 254.056C289.407 253.776 289.896 253.637 290.464 253.637C291.302 253.637 291.959 253.897 292.434 254.419C292.918 254.931 293.161 255.723 293.161 256.794L291.833 257.213ZM296.667 257.213C296.667 256.58 296.593 256.1 296.444 255.774C296.295 255.439 296.094 255.206 295.843 255.076C295.591 254.945 295.298 254.875 294.963 254.866C294.395 254.866 293.952 255.066 293.636 255.467C293.319 255.867 293.161 256.431 293.161 257.157H292.588C292.588 256.422 292.695 255.793 292.909 255.271C293.123 254.74 293.431 254.335 293.831 254.056C294.241 253.776 294.73 253.637 295.298 253.637C296.136 253.637 296.793 253.897 297.268 254.419C297.752 254.931 297.99 255.723 297.98 256.794L296.667 257.213ZM303.95 260.79L303.88 259.574V257.143C303.88 256.631 303.819 256.207 303.698 255.872C303.586 255.527 303.409 255.267 303.167 255.09C302.934 254.913 302.622 254.824 302.231 254.824C301.868 254.824 301.547 254.899 301.267 255.048C300.997 255.197 300.773 255.43 300.597 255.746L299.395 255.299C299.563 254.983 299.777 254.698 300.038 254.447C300.298 254.196 300.61 254 300.974 253.86C301.346 253.711 301.775 253.637 302.259 253.637C302.911 253.637 303.456 253.762 303.894 254.014C304.341 254.265 304.671 254.643 304.886 255.146C305.109 255.639 305.216 256.254 305.207 256.99L305.193 260.79H303.95ZM301.91 260.957C301.081 260.957 300.434 260.771 299.968 260.399C299.511 260.017 299.283 259.491 299.283 258.82C299.283 258.103 299.521 257.558 299.996 257.185C300.48 256.803 301.151 256.613 302.008 256.613H303.95V257.66H302.371C301.728 257.66 301.276 257.763 301.016 257.968C300.755 258.163 300.624 258.438 300.624 258.792C300.624 259.118 300.746 259.374 300.988 259.56C301.239 259.737 301.584 259.826 302.022 259.826C302.403 259.826 302.729 259.737 303 259.56C303.279 259.383 303.493 259.151 303.642 258.862C303.801 258.564 303.88 258.233 303.88 257.87H304.508C304.508 258.82 304.289 259.574 303.852 260.133C303.414 260.683 302.767 260.957 301.91 260.957ZM307.688 257.032C307.688 256.277 307.832 255.662 308.121 255.187C308.41 254.712 308.782 254.359 309.239 254.126C309.695 253.893 310.175 253.776 310.678 253.776V255.034C310.259 255.034 309.858 255.099 309.476 255.229C309.104 255.35 308.796 255.555 308.554 255.844C308.321 256.124 308.205 256.505 308.205 256.99L307.688 257.032ZM306.878 260.79V253.804H308.205V260.79H306.878ZM312.601 263.752C312.396 263.752 312.168 263.714 311.916 263.64C311.674 263.565 311.423 263.468 311.162 263.346L311.651 262.257C311.856 262.35 312.033 262.42 312.182 262.466C312.34 262.513 312.466 262.536 312.559 262.536C312.792 262.536 312.988 262.471 313.146 262.341C313.314 262.21 313.449 262.029 313.551 261.796L314.361 259.882L316.848 253.804H318.273L314.962 261.656C314.785 262.084 314.599 262.457 314.403 262.774C314.208 263.09 313.966 263.333 313.677 263.5C313.397 263.668 313.039 263.752 312.601 263.752ZM313.998 260.79L310.938 253.804H312.35L314.878 259.868L315.283 260.79H313.998ZM325.89 260.957C325.191 260.957 324.572 260.804 324.032 260.496C323.491 260.18 323.068 259.747 322.76 259.197C322.462 258.648 322.313 258.014 322.313 257.297C322.313 256.58 322.462 255.947 322.76 255.397C323.068 254.848 323.487 254.419 324.018 254.112C324.558 253.795 325.172 253.637 325.862 253.637C326.542 253.637 327.152 253.795 327.692 254.112C328.241 254.428 328.651 254.88 328.921 255.467L327.72 255.97C327.543 255.625 327.287 255.355 326.951 255.16C326.625 254.964 326.248 254.866 325.82 254.866C325.401 254.866 325.028 254.969 324.702 255.174C324.376 255.378 324.12 255.667 323.934 256.04C323.747 256.403 323.654 256.822 323.654 257.297C323.654 257.772 323.747 258.191 323.934 258.554C324.12 258.918 324.381 259.206 324.716 259.421C325.051 259.626 325.429 259.728 325.848 259.728C326.276 259.728 326.658 259.621 326.993 259.407C327.329 259.183 327.58 258.885 327.748 258.513L328.963 259.002C328.693 259.616 328.283 260.096 327.734 260.441C327.194 260.785 326.579 260.957 325.89 260.957ZM333.434 260.957C332.735 260.957 332.121 260.804 331.59 260.496C331.059 260.18 330.64 259.747 330.332 259.197C330.034 258.648 329.885 258.014 329.885 257.297C329.885 256.58 330.034 255.947 330.332 255.397C330.63 254.848 331.045 254.419 331.576 254.112C332.107 253.795 332.717 253.637 333.406 253.637C334.095 253.637 334.705 253.795 335.236 254.112C335.767 254.419 336.182 254.848 336.48 255.397C336.778 255.947 336.927 256.58 336.927 257.297C336.927 258.014 336.778 258.648 336.48 259.197C336.182 259.747 335.767 260.18 335.236 260.496C334.715 260.804 334.114 260.957 333.434 260.957ZM333.434 259.742C333.853 259.742 334.226 259.64 334.552 259.435C334.878 259.22 335.129 258.932 335.306 258.568C335.492 258.205 335.585 257.781 335.585 257.297C335.585 256.813 335.492 256.389 335.306 256.026C335.129 255.662 334.873 255.378 334.538 255.174C334.202 254.959 333.825 254.852 333.406 254.852C332.978 254.852 332.6 254.959 332.274 255.174C331.948 255.378 331.692 255.662 331.506 256.026C331.32 256.389 331.227 256.813 331.227 257.297C331.227 257.781 331.32 258.205 331.506 258.568C331.692 258.932 331.953 259.22 332.288 259.435C332.624 259.64 333.006 259.742 333.434 259.742ZM338.381 260.79V251.01H339.708V260.79H338.381ZM344.703 260.957C344.004 260.957 343.389 260.804 342.858 260.496C342.328 260.18 341.908 259.747 341.601 259.197C341.303 258.648 341.154 258.014 341.154 257.297C341.154 256.58 341.303 255.947 341.601 255.397C341.899 254.848 342.314 254.419 342.845 254.112C343.375 253.795 343.985 253.637 344.675 253.637C345.364 253.637 345.974 253.795 346.505 254.112C347.036 254.419 347.45 254.848 347.748 255.397C348.046 255.947 348.195 256.58 348.195 257.297C348.195 258.014 348.046 258.648 347.748 259.197C347.45 259.747 347.036 260.18 346.505 260.496C345.983 260.804 345.383 260.957 344.703 260.957ZM344.703 259.742C345.122 259.742 345.494 259.64 345.82 259.435C346.146 259.22 346.398 258.932 346.575 258.568C346.761 258.205 346.854 257.781 346.854 257.297C346.854 256.813 346.761 256.389 346.575 256.026C346.398 255.662 346.142 255.378 345.806 255.174C345.471 254.959 345.094 254.852 344.675 254.852C344.246 254.852 343.869 254.959 343.543 255.174C343.217 255.378 342.961 255.662 342.775 256.026C342.588 256.389 342.495 256.813 342.495 257.297C342.495 257.781 342.588 258.205 342.775 258.568C342.961 258.932 343.222 259.22 343.557 259.435C343.892 259.64 344.274 259.742 344.703 259.742ZM350.46 257.032C350.46 256.277 350.604 255.662 350.893 255.187C351.182 254.712 351.554 254.359 352.011 254.126C352.467 253.893 352.947 253.776 353.45 253.776V255.034C353.03 255.034 352.63 255.099 352.248 255.229C351.876 255.35 351.568 255.555 351.326 255.844C351.093 256.124 350.977 256.505 350.977 256.99L350.46 257.032ZM349.649 260.79V253.804H350.977V260.79H349.649Z" fill="black"/>
<mask id="mask1_614_27225" style="mask-type:luminance" maskUnits="userSpaceOnUse" x="488" y="98" width="234" height="136">
<path d="M721.335 98.1885H488.486V233.032H721.335V98.1885Z" fill="white"/>
</mask>
<g mask="url(#mask1_614_27225)">
<path d="M555.364 233.032C554.637 233.032 553.921 232.755 553.377 232.268C552.95 231.875 552.651 231.389 552.512 230.857C551.876 230.753 551.276 230.429 550.825 229.954C550.282 229.375 549.994 228.635 550.017 227.86L550.086 225.905L549.728 225.881C548.273 225.8 547.084 224.574 547.084 223.127L547.014 153.108L542.118 107.111C542.037 106.335 542.279 105.583 542.788 105.051C543.261 104.553 543.897 104.31 544.566 104.356L546.956 104.507V100.688C546.956 99.9708 547.233 99.2881 547.73 98.8137C548.193 98.374 548.793 98.1541 549.416 98.2004L621.962 102.505L652.981 98.617C654.148 98.4665 655.303 98.8021 656.216 99.5543C657.197 100.353 657.82 101.579 657.925 102.922L658.109 105.398C658.27 105.514 658.432 105.652 658.583 105.791C659.495 106.682 660.026 107.955 660.015 109.298V112.086C661.423 112.896 662.359 114.516 662.289 116.368L661.216 145.875L666.609 216.08L667.671 223.567C667.764 224.203 667.637 224.863 667.325 225.43L667.637 229.468C667.705 230.301 667.393 231.146 666.804 231.771C666.205 232.407 665.372 232.766 664.518 232.766C664.507 232.766 664.484 232.766 664.472 232.766L580.966 231.378L555.537 233.044C555.48 233.044 555.41 233.044 555.353 233.044L555.364 233.032ZM552.996 230.891C553.123 231.285 553.367 231.632 553.677 231.922C554.175 232.373 554.844 232.615 555.515 232.57L575.354 231.273L552.985 230.903L552.996 230.891ZM586.567 230.984L664.484 232.28C665.245 232.303 665.961 231.98 666.482 231.424C666.978 230.891 667.243 230.174 667.186 229.468L666.921 225.985C666.332 226.645 665.5 227.027 664.623 227.039L659.552 227.119V228.392C659.552 229.225 659.207 230.001 658.583 230.579C657.958 231.169 657.127 231.481 656.273 231.435L613.51 229.19L586.556 230.961L586.567 230.984ZM617.424 228.959L656.308 230.996C657.024 231.031 657.74 230.764 658.271 230.267C658.791 229.769 659.09 229.11 659.09 228.403V227.131L640.44 227.443L617.424 228.948V228.959ZM552.881 230.429C552.881 230.429 552.928 230.429 552.95 230.429L580.966 230.891L609.618 229.017L594.432 228.218L557.94 228.82C557.94 228.82 557.905 228.82 557.893 228.82C556.334 228.82 554.994 227.663 554.775 226.135L552.696 226.032L552.858 230.221C552.858 230.289 552.858 230.359 552.881 230.429ZM550.536 225.915L550.468 227.86C550.444 228.508 550.686 229.133 551.149 229.63C551.496 229.989 551.935 230.244 552.419 230.359C552.419 230.313 552.419 230.279 552.419 230.232L552.257 226.008L550.56 225.915H550.536ZM601.095 228.103L613.51 228.751L631.017 227.606L601.095 228.103ZM555.236 226.159C555.456 227.409 556.588 228.358 557.881 228.358C557.893 228.358 557.916 228.358 557.928 228.358L587.757 227.86L555.236 226.159ZM555.179 225.696L594.432 227.756L640.417 226.992L655.441 226.008C656.793 225.915 657.878 224.805 657.925 223.485L659.24 187.244L659.322 168.058L651.296 111.554L591.002 107.747L580.193 108.198L554.867 111.369L551.761 193.539L555.179 225.696ZM659.195 201.396L658.386 223.497C658.329 225.06 657.047 226.367 655.476 226.472L649.84 226.842L659.102 226.691L659.207 201.407L659.195 201.396ZM659.714 187.244L659.552 226.668L664.611 226.587C665.372 226.575 666.112 226.228 666.609 225.638C666.701 225.533 666.782 225.418 666.851 225.303L666.147 216.103L660.188 174.122L659.714 187.255V187.244ZM552.673 225.568L554.717 225.673L551.646 196.732L551.588 198.144L552.673 225.557V225.568ZM550.548 225.453L552.212 225.545L551.357 204.08L550.548 225.453ZM547.453 157.458L547.522 223.127C547.522 224.331 548.515 225.36 549.728 225.418L550.086 225.441L551.114 198.167L550.721 188.216L547.453 157.47V157.458ZM667.14 223.162L667.221 224.181C667.232 223.995 667.232 223.799 667.21 223.614L667.151 223.173L667.14 223.162ZM660.268 171.518L665.592 208.998L661.054 149.925L660.268 171.518ZM551.172 188.181L551.402 190.356L554.382 111.438L549.855 112.005C548.885 112.133 548.181 113.012 548.228 114.077L551.172 188.181ZM547.442 153.084L550.444 181.296L547.777 114.1C547.73 112.804 548.597 111.704 549.809 111.554L554.405 110.975C554.51 109.737 555.445 108.788 556.635 108.742L580.135 107.759L583.75 107.307L547.384 105.004L547.43 153.096L547.442 153.084ZM659.761 171.205V173.092L659.806 171.541L659.761 171.194V171.205ZM659.772 168.023L659.899 168.949L660.742 145.864L659.899 134.929L659.772 168.023ZM651.758 111.577L659.322 164.876L659.46 129.235L658.132 111.982L651.746 111.577H651.758ZM544.416 104.796C543.92 104.796 543.469 104.993 543.122 105.352C542.707 105.791 542.511 106.405 542.58 107.041L547.014 148.71L546.968 104.958L544.543 104.808C544.543 104.808 544.462 104.808 544.428 104.808L544.416 104.796ZM659.956 129.212L660.927 141.791L661.851 116.321C661.909 114.748 661.181 113.371 660.026 112.607L659.956 129.224V129.212ZM658.641 112.04L659.517 123.531L659.564 112.341C659.275 112.202 658.963 112.098 658.641 112.04ZM658.606 111.566C658.94 111.623 659.264 111.716 659.576 111.843V109.274C659.587 108.059 659.113 106.902 658.294 106.104C658.259 106.069 658.224 106.034 658.19 106L658.617 111.566H658.606ZM651.723 111.114L658.144 111.519L657.693 105.629C657.035 105.201 656.284 104.993 655.488 105.028L649.967 105.259C650.66 105.953 651.134 106.902 651.284 107.978L651.734 111.114H651.723ZM595.413 107.562L651.261 111.091L650.833 108.048C650.672 106.914 650.117 105.942 649.309 105.294L595.413 107.562ZM574.65 108.43L556.692 109.182C555.78 109.217 555.041 109.946 554.914 110.906L574.65 108.43ZM586.244 107.435L585.736 107.504L586.649 107.469L586.244 107.446V107.435ZM588.692 107.122L591.037 107.273L648.64 104.854C648.178 104.623 647.669 104.472 647.126 104.437L621.997 102.945L588.692 107.122ZM547.418 104.518L586.232 106.972L619.492 102.806L549.405 98.6517C548.897 98.6286 548.423 98.8021 548.054 99.1493C547.65 99.5311 547.418 100.098 547.418 100.688V104.53V104.518ZM655.638 104.565C656.343 104.565 657.024 104.738 657.648 105.074L657.486 102.945C657.393 101.718 656.839 100.642 655.949 99.9014C655.129 99.2303 654.101 98.9294 653.063 99.0683L624.504 102.655L647.161 103.998C648.016 104.044 648.801 104.345 649.46 104.831L655.465 104.576C655.522 104.576 655.592 104.576 655.65 104.576L655.638 104.565Z" fill="#EE6352"/>
<path d="M537.532 140.286C537.532 140.286 523.294 132.464 516.179 132.464C509.066 132.464 498.037 136.757 498.037 149.104C498.037 165.593 534.311 170.199 534.311 181.319C534.311 189.975 526.504 193.203 517.785 193.203C505.382 193.203 502.034 174.017 498.037 170.025C495.473 167.456 492.667 166.068 490.381 165.42C488.995 165.026 487.921 166.67 488.822 167.803C491.2 170.8 492.437 174.561 492.287 178.391C492.125 182.731 492.125 187.626 493.407 187.626C498.961 187.626 503.095 195.506 516.179 195.506C528.351 195.506 539.369 186.434 539.369 178.322C539.369 160.085 501.71 159.16 501.71 143.052C501.71 137.069 510.429 133.772 516.179 133.772C524.679 133.772 531.654 143.816 533.398 146.269C535.696 149.486 535.234 153.165 535.234 153.628C535.234 154.091 536.159 153.628 536.159 151.788C536.159 149.949 536.159 148.109 536.62 145.806C537.082 143.503 537.995 142.126 537.995 141.2C537.995 140.275 537.532 140.275 537.532 140.275V140.286Z" fill="#24313A"/>
<path d="M573.343 178.935C573.343 178.935 570.583 194.117 559.797 194.117C556.252 194.117 553.619 193.226 551.691 192.023C548.572 190.09 546.724 186.642 546.667 182.974L546.251 152.703H540.742V151.326H540.996C550.478 151.071 549.543 137.15 549.461 136.202C549.461 136.179 549.484 136.167 549.508 136.179C549.727 136.271 550.905 137.509 553.133 136.618C555.431 135.692 554.97 135.241 557.73 134.316C560.074 133.529 561.091 134.084 561.345 134.269C561.368 134.292 561.345 134.316 561.321 134.327C560.906 134.339 560.582 134.489 560.328 134.674C559.843 135.044 559.589 135.635 559.566 136.248C559.266 145.98 550.905 149.937 546.505 151.349L571.969 151.372C571.322 151.372 570.71 151.36 570.132 151.36C570.029 151.36 569.533 151.465 569.451 151.534C569.139 151.777 568.632 152.193 568.758 152.286H569.209C569.474 152.425 569.74 152.575 569.994 152.737H554.52V178.727C554.52 178.727 553.977 192.763 560.952 192.763C569.289 192.763 572.893 178.496 572.893 178.496L573.355 178.959L573.343 178.935Z" fill="#24313A"/>
<path d="M613.764 152.726C613.302 153.189 609.63 155.491 608.255 158.708C606.881 161.925 589.882 201.037 588.046 203.34C586.21 205.643 586.21 210.236 574.73 210.236C569.683 210.236 569.51 208.697 551.773 212.539C550.559 212.805 545.64 215.062 543.781 217.943C543.376 218.568 542.418 218.313 542.36 217.584C542.233 216.126 541.805 214.692 541.009 213.465C540.917 213.315 540.824 213.164 540.744 213.014C540.281 212.088 545.79 200.135 556.356 200.135C566.924 200.135 568.298 204.74 581.151 204.74C581.151 204.74 585.285 204.277 586.659 202.437C587.722 201.026 589.396 196.605 590.112 194.65C590.332 194.048 590.309 193.377 590.043 192.787L573.794 156.429C573.794 156.429 572.293 154.184 569.984 152.737C569.73 152.575 569.464 152.425 569.199 152.286H568.748C568.621 152.205 569.129 151.789 569.441 151.546C569.521 151.476 570.019 151.372 570.122 151.372C570.7 151.372 571.312 151.372 571.958 151.383C576.451 151.441 582.121 151.65 582.525 151.372C583.518 150.655 585.921 149.798 587.964 151.765C587.987 151.789 587.964 151.823 587.941 151.823C587.363 151.777 586.429 150.678 582.987 154.137C582.987 154.137 582.525 154.6 582.525 155.515C582.525 156.348 592.237 180 594.143 184.64C594.258 184.929 594.674 184.941 594.801 184.64L604.559 162.18C604.559 162.18 605.933 159.9 604.559 156.787C603.185 153.675 601.349 153.675 600.425 152.749C599.662 151.985 599.536 151.534 599.512 151.407C599.512 151.383 599.524 151.372 599.547 151.372C599.697 151.395 600.31 151.534 602.054 151.87C604.109 152.274 613.255 152.321 613.983 151.592C614.675 150.898 614.213 152.286 613.752 152.737L613.764 152.726Z" fill="#24313A"/>
<path d="M571.969 151.36V152.714H569.995C569.74 152.552 569.474 152.402 569.209 152.263H568.758C568.631 152.182 569.14 151.765 569.451 151.522C569.532 151.453 570.028 151.349 570.133 151.349C570.711 151.349 571.322 151.349 571.969 151.36Z" fill="#24313A"/>
<path d="M618.347 135.693C618.347 135.693 617.943 135.357 617.423 135.23C615.587 134.767 616.499 133.853 616.499 133.853C616.499 133.853 622.932 132.927 623.843 131.087C624.744 129.282 626.535 128.356 627.897 129.641C627.921 129.664 627.897 129.71 627.874 129.699C627.562 129.675 626.592 129.722 626.592 130.971V192.278H626.65C626.65 193.666 627.366 194.87 628.428 195.494H616.546C617.608 194.87 618.324 193.666 618.324 192.278V135.681L618.347 135.693Z" fill="#24313A"/>
<path d="M632.644 195.506H644.527C643.465 194.881 642.749 193.678 642.749 192.289H642.691V153.987C642.691 152.494 644.066 152.726 644.066 152.726C642.691 151.349 640.855 152.263 639.931 154.103C639.007 155.943 632.586 156.869 632.586 156.869C632.586 156.869 631.663 157.794 633.511 158.245C633.926 158.35 634.215 158.454 634.434 158.546V192.289C634.434 193.678 633.718 194.881 632.656 195.506H632.644Z" fill="#24313A"/>
<path d="M636.72 151.511C636.72 146.709 638.199 145.135 642.69 145.135C638.199 145.135 636.72 143.55 636.72 138.759C636.72 143.561 635.242 145.135 630.75 145.135C635.242 145.135 636.72 146.72 636.72 151.511Z" fill="#24313A"/>
<path d="M707.892 220.072C707.892 215.271 709.37 213.696 713.862 213.696C709.37 213.696 707.892 212.111 707.892 207.32C707.892 212.123 706.414 213.696 701.922 213.696C706.414 213.696 707.892 215.281 707.892 220.072Z" fill="#24313A"/>
<path d="M497.125 127.592C497.125 122.79 498.602 121.216 503.095 121.216C498.602 121.216 497.125 119.631 497.125 114.84C497.125 119.643 495.646 121.216 491.153 121.216C495.646 121.216 497.125 122.802 497.125 127.592Z" fill="#24313A"/>
<path d="M655.51 143.017C655.51 138.458 655.545 133.563 661.515 133.563C667.485 133.563 668.398 137.995 670.234 140.298C672.07 142.601 675.892 142.543 676.274 142.566C676.655 142.601 678.04 130.636 678.04 130.636C676.666 132.013 676.204 133.401 672.994 132.938C669.783 132.476 667.936 130.636 661.515 130.636C654.158 130.636 650.498 137.532 650.498 142.138C650.498 147.496 653.731 150.747 657.681 152.263H648.662C647.287 152.263 648.281 153.293 648.281 153.293C648.281 153.293 650.96 154.103 652.334 155.029C652.888 155.399 653.143 156.649 653.258 158.026V192.301C653.258 193.689 652.542 194.893 651.479 195.518H663.363C662.3 194.893 661.584 193.689 661.584 192.301H661.527V153.189C662.139 153.258 662.762 153.293 663.363 153.293C669.333 153.293 677.14 153.64 677.14 153.64V152.263C677.14 152.263 668.871 151.8 665.661 151.8C661.989 151.8 655.522 148.583 655.522 143.017H655.51Z" fill="#24313A"/>
<path d="M689.52 152.251C690.513 151.545 692.915 150.689 694.959 152.644C694.982 152.668 694.959 152.702 694.936 152.702C694.358 152.656 693.423 151.557 689.97 155.017C689.97 155.017 689.508 155.479 689.508 156.394C689.508 157.227 699.22 180.879 701.126 185.519C701.241 185.809 701.657 185.82 701.784 185.519L711.543 163.059C711.543 163.059 712.916 160.779 711.543 157.667C710.168 154.554 708.332 154.554 707.408 153.628C706.646 152.864 706.519 152.425 706.496 152.286C706.496 152.263 706.507 152.251 706.531 152.251C706.681 152.286 707.293 152.413 709.036 152.76C711.092 153.165 720.238 153.2 720.954 152.483C721.647 151.788 721.185 153.177 720.724 153.628C720.262 154.079 716.59 156.394 715.215 159.611C713.841 162.827 696.842 201.939 695.006 204.242C693.169 206.545 693.169 211.139 681.69 211.139C676.643 211.139 676.47 209.6 658.733 213.441C657.519 213.708 652.599 215.964 650.74 218.846C650.336 219.47 649.378 219.216 649.32 218.476C649.193 217.017 648.766 215.583 647.981 214.356C647.888 214.205 647.796 214.055 647.715 213.904C647.253 212.979 652.761 201.025 663.328 201.025C673.894 201.025 675.269 205.631 688.123 205.631C688.123 205.631 692.257 205.168 693.631 203.328C694.694 201.916 696.368 197.496 697.084 195.54C697.304 194.939 697.281 194.267 697.015 193.677L680.766 157.319C680.766 157.319 678.918 154.565 676.169 153.177H675.72C675.593 153.096 676.101 152.679 676.413 152.436C676.493 152.367 676.99 152.263 677.094 152.263C681.69 152.263 689.034 152.587 689.496 152.263L689.52 152.251Z" fill="#24313A"/>
</g>
<path d="M543.285 260.974V251.194H544.654V260.974H543.285ZM544.333 260.974V259.717H549.195V260.974H544.333ZM553.448 261.142C552.749 261.142 552.135 260.988 551.604 260.68C551.073 260.364 550.654 259.931 550.346 259.381C550.048 258.832 549.899 258.198 549.899 257.481C549.899 256.764 550.048 256.131 550.346 255.581C550.644 255.032 551.059 254.603 551.59 254.296C552.121 253.979 552.731 253.821 553.42 253.821C554.109 253.821 554.719 253.979 555.25 254.296C555.781 254.603 556.195 255.032 556.493 255.581C556.792 256.131 556.941 256.764 556.941 257.481C556.941 258.198 556.792 258.832 556.493 259.381C556.195 259.931 555.781 260.364 555.25 260.68C554.728 260.988 554.128 261.142 553.448 261.142ZM553.448 259.926C553.867 259.926 554.239 259.824 554.565 259.619C554.891 259.404 555.143 259.116 555.32 258.753C555.506 258.389 555.599 257.965 555.599 257.481C555.599 256.997 555.506 256.573 555.32 256.21C555.143 255.847 554.887 255.562 554.552 255.358C554.216 255.143 553.839 255.036 553.42 255.036C552.991 255.036 552.614 255.143 552.288 255.358C551.962 255.562 551.706 255.847 551.52 256.21C551.334 256.573 551.24 256.997 551.24 257.481C551.24 257.965 551.334 258.389 551.52 258.753C551.706 259.116 551.967 259.404 552.302 259.619C552.638 259.824 553.019 259.926 553.448 259.926ZM561.287 263.95C560.821 263.95 560.397 263.903 560.015 263.81C559.633 263.726 559.312 263.628 559.051 263.517C558.791 263.405 558.595 263.307 558.465 263.223L558.967 262.147C559.089 262.222 559.261 262.306 559.484 262.399C559.708 262.501 559.969 262.585 560.267 262.65C560.565 262.725 560.895 262.762 561.259 262.762C561.687 262.762 562.069 262.674 562.404 262.497C562.74 262.329 563 262.064 563.187 261.7C563.382 261.337 563.48 260.871 563.48 260.303V253.988H564.807V260.275C564.807 261.076 564.654 261.747 564.346 262.287C564.048 262.837 563.634 263.251 563.103 263.531C562.581 263.81 561.976 263.95 561.287 263.95ZM561.161 260.876C560.528 260.876 559.973 260.732 559.498 260.443C559.033 260.145 558.665 259.735 558.395 259.214C558.134 258.683 558.003 258.073 558.003 257.383C558.003 256.666 558.134 256.042 558.395 255.511C558.665 254.98 559.033 254.566 559.498 254.268C559.973 253.97 560.528 253.821 561.161 253.821C561.738 253.821 562.241 253.97 562.67 254.268C563.108 254.566 563.443 254.985 563.676 255.525C563.918 256.056 564.039 256.68 564.039 257.397C564.039 258.087 563.918 258.697 563.676 259.228C563.443 259.749 563.108 260.154 562.67 260.443C562.241 260.732 561.738 260.876 561.161 260.876ZM561.496 259.758C561.887 259.758 562.227 259.656 562.516 259.451C562.805 259.237 563.033 258.953 563.201 258.599C563.368 258.236 563.452 257.821 563.452 257.355C563.452 256.89 563.368 256.48 563.201 256.126C563.033 255.772 562.8 255.497 562.502 255.302C562.213 255.097 561.873 254.994 561.482 254.994C561.072 254.994 560.709 255.097 560.393 255.302C560.085 255.497 559.843 255.772 559.666 256.126C559.489 256.48 559.401 256.89 559.401 257.355C559.401 257.821 559.489 258.236 559.666 258.599C559.852 258.953 560.099 259.237 560.406 259.451C560.723 259.656 561.086 259.758 561.496 259.758ZM569.807 261.142C569.108 261.142 568.493 260.988 567.962 260.68C567.432 260.364 567.012 259.931 566.705 259.381C566.407 258.832 566.258 258.198 566.258 257.481C566.258 256.764 566.407 256.131 566.705 255.581C567.003 255.032 567.418 254.603 567.948 254.296C568.479 253.979 569.089 253.821 569.779 253.821C570.468 253.821 571.078 253.979 571.609 254.296C572.14 254.603 572.554 255.032 572.852 255.581C573.15 256.131 573.299 256.764 573.299 257.481C573.299 258.198 573.15 258.832 572.852 259.381C572.554 259.931 572.14 260.364 571.609 260.68C571.087 260.988 570.486 261.142 569.807 261.142ZM569.807 259.926C570.226 259.926 570.598 259.824 570.924 259.619C571.25 259.404 571.502 259.116 571.679 258.753C571.865 258.389 571.958 257.965 571.958 257.481C571.958 256.997 571.865 256.573 571.679 256.21C571.502 255.847 571.246 255.562 570.91 255.358C570.575 255.143 570.198 255.036 569.779 255.036C569.35 255.036 568.973 255.143 568.647 255.358C568.321 255.562 568.065 255.847 567.879 256.21C567.692 256.573 567.599 256.997 567.599 257.481C567.599 257.965 567.692 258.389 567.879 258.753C568.065 259.116 568.326 259.404 568.661 259.619C568.996 259.824 569.378 259.926 569.807 259.926ZM584.563 260.974L586.924 253.988H588.252L585.877 260.974H584.563ZM579.855 260.974L582.174 253.988H583.376L581.085 260.974H579.855ZM579.757 260.974L577.382 253.988H578.723L581.029 260.974H579.757ZM584.563 260.974L582.272 253.988H583.488L585.793 260.974H584.563ZM589.395 260.974L589.423 253.988H590.736L590.722 260.974H589.395ZM590.066 252.508C589.851 252.508 589.665 252.428 589.507 252.27C589.348 252.102 589.269 251.911 589.269 251.697C589.269 251.474 589.348 251.287 589.507 251.138C589.665 250.98 589.851 250.901 590.066 250.901C590.289 250.901 590.475 250.98 590.624 251.138C590.783 251.287 590.862 251.474 590.862 251.697C590.862 251.911 590.783 252.102 590.624 252.27C590.475 252.428 590.289 252.508 590.066 252.508ZM595.364 261.142C594.665 261.142 594.125 260.965 593.743 260.611C593.361 260.247 593.171 259.73 593.171 259.06V251.809H594.498V258.864C594.498 259.209 594.582 259.474 594.749 259.661C594.926 259.838 595.178 259.926 595.504 259.926C595.597 259.926 595.699 259.907 595.811 259.87C595.923 259.833 596.058 259.758 596.216 259.647L596.719 260.68C596.477 260.839 596.244 260.955 596.021 261.03C595.806 261.104 595.588 261.142 595.364 261.142ZM591.983 255.134V253.988H596.482V255.134H591.983ZM598.043 260.974L598.029 251.041H599.356V260.974H598.043ZM602.877 260.974V257.397L604.19 256.978V260.974H602.877ZM602.877 257.397C602.877 256.764 602.802 256.284 602.653 255.958C602.504 255.623 602.299 255.39 602.039 255.26C601.787 255.129 601.498 255.06 601.172 255.05C600.595 255.05 600.148 255.25 599.831 255.651C599.515 256.051 599.356 256.615 599.356 257.341H598.797C598.797 256.606 598.904 255.977 599.119 255.455C599.333 254.924 599.64 254.519 600.041 254.24C600.451 253.961 600.935 253.821 601.494 253.821C602.341 253.821 603.003 254.082 603.478 254.603C603.962 255.115 604.199 255.907 604.19 256.978L602.877 257.397ZM611.968 261.142C611.27 261.142 610.73 260.965 610.348 260.611C609.966 260.247 609.775 259.73 609.775 259.06V251.809H611.102V258.864C611.102 259.209 611.186 259.474 611.354 259.661C611.531 259.838 611.782 259.926 612.108 259.926C612.201 259.926 612.304 259.907 612.415 259.87C612.527 259.833 612.662 259.758 612.821 259.647L613.324 260.68C613.081 260.839 612.849 260.955 612.625 261.03C612.411 261.104 612.192 261.142 611.968 261.142ZM608.587 255.134V253.988H613.086V255.134H608.587ZM617.666 261.142C616.986 261.142 616.386 260.988 615.864 260.68C615.342 260.364 614.933 259.931 614.635 259.381C614.336 258.832 614.187 258.198 614.187 257.481C614.187 256.764 614.336 256.131 614.635 255.581C614.933 255.032 615.342 254.603 615.864 254.296C616.395 253.979 617 253.821 617.68 253.821C618.314 253.821 618.872 253.984 619.357 254.31C619.85 254.626 620.232 255.083 620.502 255.679C620.782 256.266 620.921 256.96 620.921 257.761H619.594C619.604 257.164 619.529 256.662 619.371 256.252C619.222 255.842 618.998 255.535 618.7 255.33C618.411 255.115 618.062 255.008 617.652 255.008C617.214 255.008 616.837 255.111 616.521 255.316C616.204 255.511 615.957 255.795 615.78 256.168C615.612 256.531 615.529 256.978 615.529 257.509C615.529 258.003 615.626 258.431 615.822 258.794C616.018 259.148 616.283 259.428 616.618 259.633C616.954 259.828 617.336 259.926 617.764 259.926C618.22 259.926 618.598 259.819 618.896 259.605C619.203 259.391 619.445 259.116 619.622 258.78L620.81 259.325C620.623 259.689 620.381 260.01 620.083 260.289C619.785 260.559 619.431 260.769 619.021 260.918C618.621 261.067 618.169 261.142 617.666 261.142ZM615.054 257.761L615.068 256.671H620.181V257.761H615.054ZM621.328 260.974L624.192 256.964L626.19 253.988H627.754L625.058 257.802L622.92 260.974H621.328ZM626.343 260.974L624.234 257.802L621.509 253.988H623.074L625.086 256.964L627.922 260.974H626.343ZM631.682 261.142C630.984 261.142 630.444 260.965 630.062 260.611C629.68 260.247 629.489 259.73 629.489 259.06V251.809H630.816V258.864C630.816 259.209 630.9 259.474 631.068 259.661C631.245 259.838 631.496 259.926 631.822 259.926C631.915 259.926 632.018 259.907 632.13 259.87C632.241 259.833 632.376 259.758 632.535 259.647L633.038 260.68C632.796 260.839 632.563 260.955 632.339 261.03C632.125 261.104 631.906 261.142 631.682 261.142ZM628.302 255.134V253.988H632.8V255.134H628.302ZM640.944 261.142C640.246 261.142 639.626 260.988 639.086 260.68C638.546 260.364 638.122 259.931 637.815 259.381C637.517 258.832 637.367 258.198 637.367 257.481C637.367 256.764 637.517 256.131 637.815 255.581C638.122 255.032 638.541 254.603 639.072 254.296C639.612 253.979 640.227 253.821 640.916 253.821C641.596 253.821 642.206 253.979 642.746 254.296C643.296 254.612 643.706 255.064 643.976 255.651L642.774 256.154C642.597 255.809 642.341 255.539 642.006 255.344C641.68 255.148 641.303 255.05 640.874 255.05C640.455 255.05 640.082 255.153 639.757 255.358C639.431 255.562 639.174 255.851 638.988 256.224C638.802 256.587 638.709 257.006 638.709 257.481C638.709 257.956 638.802 258.375 638.988 258.739C639.174 259.102 639.435 259.391 639.77 259.605C640.106 259.81 640.483 259.912 640.902 259.912C641.331 259.912 641.712 259.805 642.048 259.591C642.383 259.367 642.635 259.069 642.802 258.697L644.018 259.186C643.748 259.8 643.338 260.28 642.788 260.625C642.248 260.969 641.633 261.142 640.944 261.142ZM648.488 261.142C647.79 261.142 647.175 260.988 646.644 260.68C646.113 260.364 645.694 259.931 645.387 259.381C645.089 258.832 644.94 258.198 644.94 257.481C644.94 256.764 645.089 256.131 645.387 255.581C645.685 255.032 646.099 254.603 646.63 254.296C647.161 253.979 647.771 253.821 648.46 253.821C649.15 253.821 649.76 253.979 650.291 254.296C650.821 254.603 651.236 255.032 651.534 255.581C651.832 256.131 651.981 256.764 651.981 257.481C651.981 258.198 651.832 258.832 651.534 259.381C651.236 259.931 650.821 260.364 650.291 260.68C649.769 260.988 649.168 261.142 648.488 261.142ZM648.488 259.926C648.907 259.926 649.28 259.824 649.606 259.619C649.932 259.404 650.183 259.116 650.36 258.753C650.547 258.389 650.64 257.965 650.64 257.481C650.64 256.997 650.547 256.573 650.36 256.21C650.183 255.847 649.927 255.562 649.592 255.358C649.257 255.143 648.88 255.036 648.46 255.036C648.032 255.036 647.655 255.143 647.329 255.358C647.003 255.562 646.747 255.847 646.56 256.21C646.374 256.573 646.281 256.997 646.281 257.481C646.281 257.965 646.374 258.389 646.56 258.753C646.747 259.116 647.007 259.404 647.343 259.619C647.678 259.824 648.06 259.926 648.488 259.926ZM653.435 260.974V251.194H654.762V260.974H653.435ZM659.758 261.142C659.06 261.142 658.445 260.988 657.914 260.68C657.383 260.364 656.964 259.931 656.657 259.381C656.359 258.832 656.21 258.198 656.21 257.481C656.21 256.764 656.359 256.131 656.657 255.581C656.955 255.032 657.369 254.603 657.9 254.296C658.431 253.979 659.041 253.821 659.73 253.821C660.419 253.821 661.03 253.979 661.56 254.296C662.091 254.603 662.506 255.032 662.804 255.581C663.102 256.131 663.251 256.764 663.251 257.481C663.251 258.198 663.102 258.832 662.804 259.381C662.506 259.931 662.091 260.364 661.56 260.68C661.039 260.988 660.438 261.142 659.758 261.142ZM659.758 259.926C660.177 259.926 660.55 259.824 660.876 259.619C661.202 259.404 661.453 259.116 661.63 258.753C661.817 258.389 661.91 257.965 661.91 257.481C661.91 256.997 661.817 256.573 661.63 256.21C661.453 255.847 661.197 255.562 660.862 255.358C660.527 255.143 660.149 255.036 659.73 255.036C659.302 255.036 658.925 255.143 658.599 255.358C658.273 255.562 658.016 255.847 657.83 256.21C657.644 256.573 657.551 256.997 657.551 257.481C657.551 257.965 657.644 258.389 657.83 258.753C658.016 259.116 658.277 259.404 658.613 259.619C658.948 259.824 659.33 259.926 659.758 259.926ZM665.515 257.216C665.515 256.461 665.66 255.847 665.948 255.372C666.237 254.897 666.61 254.543 667.066 254.31C667.522 254.077 668.002 253.96 668.505 253.96V255.218C668.086 255.218 667.686 255.283 667.304 255.413C666.931 255.535 666.624 255.739 666.382 256.028C666.149 256.308 666.032 256.689 666.032 257.174L665.515 257.216ZM664.705 260.974V253.988H666.032V260.974H664.705Z" fill="black"/>
<path d="M302.208 523.51H581.626" stroke="#47D72F"/>
<path d="M302.208 334.903H581.626" stroke="#47D72F"/>
<path d="M302.208 492.076H581.626" stroke="#47D72F"/>
<path d="M302.208 460.641H581.626" stroke="#47D72F"/>
<path d="M302.208 429.207H581.626" stroke="#47D72F"/>
<path d="M302.208 397.772H581.626" stroke="#47D72F"/>
<path d="M302.208 366.338H581.626" stroke="#47D72F"/>
<path d="M348.195 304.051V560.184" stroke="#47D72F"/>
<path d="M536.803 304.051V560.184" stroke="#47D72F"/>
<path d="M379.63 304.051V560.184" stroke="#47D72F"/>
<path d="M411.064 304.051V560.184" stroke="#47D72F"/>
<path d="M442.499 304.051V560.184" stroke="#47D72F"/>
<path d="M473.934 304.051V560.184" stroke="#47D72F"/>
<path d="M505.368 304.051V560.184" stroke="#47D72F"/>
<mask id="mask2_614_27225" style="mask-type:luminance" maskUnits="userSpaceOnUse" x="328" y="358" width="234" height="136">
<path d="M561.834 358.77H328.985V493.43H561.834V358.77Z" fill="white"/>
</mask>
<g mask="url(#mask2_614_27225)">
<path d="M395.863 493.43C395.136 493.43 394.42 493.151 393.876 492.667C393.449 492.273 393.15 491.788 393.011 491.257C392.375 491.152 391.775 490.829 391.324 490.355C390.781 489.777 390.493 489.038 390.516 488.264L390.585 486.31L390.227 486.288C388.772 486.207 387.583 484.982 387.583 483.537L387.513 413.614L382.617 367.68C382.536 366.906 382.778 366.154 383.287 365.623C383.76 365.125 384.396 364.883 385.065 364.929L387.455 365.079V361.266C387.455 360.55 387.732 359.868 388.229 359.394C388.692 358.955 389.292 358.735 389.915 358.782L462.461 363.08L493.48 359.197C494.647 359.047 495.802 359.382 496.715 360.133C497.696 360.931 498.319 362.155 498.424 363.497L498.608 365.97C498.77 366.085 498.931 366.223 499.082 366.362C499.994 367.251 500.525 368.523 500.514 369.864V372.649C501.922 373.457 502.858 375.075 502.788 376.924L501.715 406.391L507.108 476.5L508.17 483.977C508.263 484.612 508.136 485.271 507.824 485.837L508.136 489.87C508.205 490.702 507.893 491.546 507.303 492.17C506.704 492.805 505.871 493.163 505.017 493.163C505.006 493.163 504.983 493.163 504.971 493.163L421.465 491.776L396.036 493.441C395.979 493.441 395.909 493.441 395.852 493.441L395.863 493.43ZM393.495 491.291C393.622 491.684 393.866 492.031 394.176 492.32C394.674 492.771 395.343 493.013 396.012 492.967L415.853 491.673L393.484 491.302L393.495 491.291ZM427.066 491.384L504.983 492.677C505.745 492.701 506.461 492.377 506.981 491.823C507.477 491.291 507.742 490.575 507.685 489.87L507.42 486.392C506.831 487.051 505.999 487.431 505.122 487.443L500.051 487.524V488.795C500.051 489.627 499.706 490.401 499.082 490.979C498.458 491.569 497.626 491.881 496.772 491.835L454.009 489.592L427.055 491.361L427.066 491.384ZM457.923 489.362L496.807 491.396C497.523 491.429 498.239 491.164 498.77 490.667C499.29 490.171 499.589 489.512 499.589 488.806V487.536L480.939 487.848L457.923 489.35V489.362ZM393.38 490.829C393.38 490.829 393.427 490.829 393.449 490.829L421.465 491.291L450.117 489.419L434.931 488.622L398.439 489.223C398.439 489.223 398.404 489.223 398.392 489.223C396.833 489.223 395.493 488.067 395.274 486.542L393.195 486.438L393.357 490.621C393.357 490.69 393.357 490.76 393.38 490.829ZM391.035 486.322L390.967 488.264C390.943 488.911 391.185 489.535 391.648 490.031C391.995 490.39 392.434 490.645 392.918 490.76C392.918 490.713 392.918 490.678 392.918 490.633L392.756 486.415L391.059 486.322H391.035ZM441.594 488.506L454.009 489.153L471.516 488.01L441.594 488.506ZM395.735 486.565C395.955 487.813 397.087 488.761 398.38 488.761C398.392 488.761 398.415 488.761 398.427 488.761L428.256 488.264L395.735 486.565ZM395.678 486.103L434.931 488.16L480.916 487.396L495.94 486.415C497.292 486.322 498.377 485.213 498.424 483.896L499.739 447.703L499.821 428.544L491.795 372.117L431.501 368.314L420.692 368.766L395.366 371.932L392.26 453.99L395.678 486.103ZM499.694 461.835L498.885 483.907C498.828 485.467 497.546 486.772 495.975 486.877L490.339 487.246L499.601 487.096L499.706 461.847L499.694 461.835ZM500.213 447.703L500.051 487.074L505.11 486.992C505.871 486.981 506.611 486.634 507.108 486.045C507.2 485.941 507.281 485.826 507.35 485.709L506.646 476.524L500.687 434.599L500.213 447.714V447.703ZM393.172 485.976L395.216 486.08L392.145 457.179L392.087 458.588L393.172 485.964V485.976ZM391.047 485.86L392.711 485.953L391.856 464.517L391.047 485.86ZM387.952 417.959L388.021 483.537C388.021 484.74 389.014 485.768 390.227 485.826L390.585 485.848L391.613 458.612L391.22 448.674L387.952 417.97V417.959ZM507.639 483.572L507.72 484.589C507.731 484.404 507.731 484.208 507.709 484.022L507.65 483.584L507.639 483.572ZM500.767 431.998L506.091 469.428L501.553 410.435L500.767 431.998ZM391.671 448.639L391.901 450.811L394.881 372.001L390.354 372.567C389.384 372.694 388.68 373.573 388.727 374.636L391.671 448.639ZM387.941 413.59L390.943 441.763L388.276 374.659C388.229 373.365 389.096 372.267 390.308 372.117L394.904 371.539C395.009 370.303 395.944 369.355 397.134 369.309L420.634 368.326L424.249 367.875L387.883 365.576L387.929 413.602L387.941 413.59ZM500.26 431.686V433.57L500.305 432.022L500.26 431.675V431.686ZM500.271 428.509L500.398 429.433L501.241 406.379L500.398 395.46L500.271 428.509ZM492.257 372.14L499.821 425.366L499.959 389.774L498.631 372.544L492.245 372.14H492.257ZM384.915 365.368C384.419 365.368 383.968 365.564 383.621 365.923C383.206 366.362 383.01 366.974 383.079 367.61L387.513 409.222L387.467 365.529L385.042 365.379C385.042 365.379 384.961 365.379 384.927 365.379L384.915 365.368ZM500.455 389.75L501.426 402.313L502.35 376.877C502.408 375.306 501.68 373.931 500.525 373.168L500.455 389.762V389.75ZM499.14 372.602L500.016 384.077L500.063 372.903C499.774 372.764 499.462 372.659 499.14 372.602ZM499.105 372.128C499.439 372.187 499.763 372.279 500.075 372.405V369.841C500.086 368.626 499.612 367.471 498.793 366.674C498.758 366.639 498.723 366.604 498.689 366.57L499.116 372.128H499.105ZM492.222 371.678L498.643 372.082L498.192 366.2C497.534 365.773 496.783 365.564 495.987 365.599L490.466 365.83C491.159 366.524 491.633 367.471 491.783 368.546L492.233 371.678H492.222ZM435.912 368.13L491.76 371.655L491.332 368.616C491.171 367.483 490.616 366.512 489.808 365.865L435.912 368.13ZM415.149 368.997L397.191 369.748C396.279 369.782 395.54 370.51 395.413 371.469L415.149 368.997ZM426.743 368.002L426.235 368.072L427.148 368.037L426.743 368.014V368.002ZM429.191 367.691L431.536 367.842L489.139 365.426C488.677 365.195 488.168 365.045 487.625 365.01L462.496 363.519L429.191 367.691ZM387.917 365.091L426.731 367.54L459.991 363.38L389.904 359.232C389.396 359.209 388.922 359.382 388.553 359.729C388.149 360.11 387.917 360.677 387.917 361.266V365.102V365.091ZM496.137 365.137C496.842 365.137 497.523 365.311 498.147 365.646L497.985 363.519C497.892 362.294 497.338 361.219 496.448 360.48C495.628 359.81 494.6 359.509 493.562 359.648L465.003 363.23L487.66 364.571C488.515 364.617 489.3 364.917 489.959 365.403L495.964 365.149C496.021 365.149 496.091 365.149 496.149 365.149L496.137 365.137Z" fill="#EE6352"/>
<path d="M378.032 400.809C378.032 400.809 363.793 392.999 356.678 392.999C349.565 392.999 338.536 397.285 338.536 409.616C338.536 426.083 374.81 430.682 374.81 441.786C374.81 450.431 367.003 453.654 358.284 453.654C345.881 453.654 342.533 434.494 338.536 430.508C335.972 427.943 333.166 426.557 330.88 425.909C329.494 425.516 328.42 427.157 329.321 428.289C331.699 431.282 332.936 435.038 332.786 438.863C332.624 443.196 332.624 448.085 333.906 448.085C339.46 448.085 343.594 455.954 356.678 455.954C368.85 455.954 379.868 446.895 379.868 438.794C379.868 420.582 342.209 419.657 342.209 403.572C342.209 397.597 350.928 394.304 356.678 394.304C365.178 394.304 372.153 404.335 373.897 406.784C376.195 409.996 375.733 413.672 375.733 414.134C375.733 414.596 376.658 414.134 376.658 412.296C376.658 410.459 376.658 408.622 377.119 406.322C377.581 404.023 378.494 402.648 378.494 401.723C378.494 400.798 378.032 400.798 378.032 400.798V400.809Z" fill="#105535"/>
<path d="M413.842 439.406C413.842 439.406 411.082 454.567 400.296 454.567C396.751 454.567 394.118 453.678 392.19 452.476C389.071 450.546 387.223 447.102 387.166 443.439L386.75 413.21H381.241V411.835H381.495C390.977 411.58 390.042 397.679 389.96 396.731C389.96 396.708 389.983 396.696 390.007 396.708C390.226 396.8 391.404 398.036 393.632 397.147C395.93 396.222 395.469 395.772 398.229 394.847C400.573 394.062 401.59 394.616 401.844 394.801C401.867 394.824 401.844 394.847 401.82 394.859C401.405 394.871 401.081 395.021 400.827 395.206C400.342 395.575 400.088 396.164 400.065 396.778C399.765 406.496 391.404 410.447 387.004 411.857L412.468 411.88C411.821 411.88 411.209 411.869 410.631 411.869C410.528 411.869 410.032 411.973 409.95 412.042C409.638 412.285 409.131 412.701 409.258 412.793H409.708C409.974 412.932 410.239 413.083 410.493 413.244H395.019V439.198C395.019 439.198 394.476 453.215 401.451 453.215C409.788 453.215 413.392 438.967 413.392 438.967L413.854 439.43L413.842 439.406Z" fill="#105535"/>
<path d="M454.263 413.232C453.801 413.694 450.129 415.993 448.754 419.207C447.38 422.419 430.381 461.477 428.545 463.777C426.709 466.077 426.709 470.664 415.229 470.664C410.182 470.664 410.009 469.127 392.272 472.963C391.058 473.23 386.14 475.482 384.28 478.36C383.875 478.985 382.917 478.73 382.859 478.002C382.732 476.545 382.304 475.113 381.508 473.888C381.416 473.737 381.323 473.587 381.243 473.437C380.781 472.513 386.289 460.576 396.855 460.576C407.423 460.576 408.797 465.175 421.65 465.175C421.65 465.175 425.784 464.713 427.158 462.875C428.221 461.465 429.895 457.051 430.611 455.098C430.831 454.497 430.808 453.828 430.543 453.237L414.293 416.929C414.293 416.929 412.792 414.688 410.483 413.243C410.229 413.081 409.963 412.931 409.698 412.793H409.247C409.12 412.711 409.628 412.296 409.94 412.054C410.02 411.984 410.518 411.88 410.621 411.88C411.199 411.88 411.811 411.88 412.457 411.892C416.95 411.949 422.62 412.157 423.024 411.88C424.017 411.163 426.42 410.308 428.463 412.272C428.486 412.296 428.463 412.331 428.44 412.331C427.862 412.284 426.928 411.186 423.486 414.642C423.486 414.642 423.024 415.104 423.024 416.017C423.024 416.849 432.736 440.469 434.642 445.103C434.757 445.392 435.173 445.403 435.3 445.103L445.058 422.673C445.058 422.673 446.432 420.396 445.058 417.288C443.684 414.179 441.848 414.179 440.924 413.255C440.161 412.492 440.035 412.042 440.011 411.915C440.011 411.892 440.023 411.88 440.046 411.88C440.196 411.903 440.809 412.042 442.553 412.377C444.608 412.781 453.754 412.828 454.482 412.099C455.174 411.406 454.712 412.793 454.251 413.243L454.263 413.232Z" fill="#105535"/>
<path d="M412.468 411.869V413.22H410.494C410.239 413.058 409.973 412.908 409.708 412.77H409.257C409.13 412.689 409.639 412.273 409.95 412.03C410.031 411.961 410.527 411.857 410.632 411.857C411.21 411.857 411.821 411.857 412.468 411.869Z" fill="#105535"/>
<path d="M458.846 396.222C458.846 396.222 458.442 395.887 457.922 395.76C456.086 395.298 456.998 394.385 456.998 394.385C456.998 394.385 463.431 393.461 464.342 391.623C465.244 389.82 467.034 388.896 468.396 390.179C468.42 390.202 468.396 390.247 468.373 390.236C468.061 390.214 467.091 390.259 467.091 391.507V452.73H467.149C467.149 454.116 467.865 455.318 468.927 455.942H457.045C458.107 455.318 458.823 454.116 458.823 452.73V396.211L458.846 396.222Z" fill="#105535"/>
<path d="M473.143 455.954H485.026C483.964 455.33 483.248 454.128 483.248 452.741H483.19V414.491C483.19 413.001 484.565 413.232 484.565 413.232C483.19 411.857 481.354 412.77 480.43 414.607C479.506 416.445 473.085 417.369 473.085 417.369C473.085 417.369 472.162 418.294 474.01 418.744C474.425 418.848 474.714 418.952 474.933 419.045V452.741C474.933 454.128 474.217 455.33 473.155 455.954H473.143Z" fill="#105535"/>
<path d="M477.219 412.019C477.219 407.223 478.698 405.651 483.189 405.651C478.698 405.651 477.219 404.068 477.219 399.284C477.219 404.08 475.741 405.651 471.249 405.651C475.741 405.651 477.219 407.235 477.219 412.019Z" fill="#105535"/>
<path d="M548.391 480.486C548.391 475.691 549.869 474.119 554.361 474.119C549.869 474.119 548.391 472.536 548.391 467.752C548.391 472.547 546.913 474.119 542.421 474.119C546.913 474.119 548.391 475.703 548.391 480.486Z" fill="#105535"/>
<path d="M337.624 388.133C337.624 383.338 339.101 381.766 343.594 381.766C339.101 381.766 337.624 380.183 337.624 375.399C337.624 380.194 336.145 381.766 331.652 381.766C336.145 381.766 337.624 383.35 337.624 388.133Z" fill="#105535"/>
<path d="M496.009 403.537C496.009 398.984 496.044 394.096 502.014 394.096C507.984 394.096 508.897 398.522 510.733 400.821C512.569 403.12 516.391 403.063 516.773 403.087C517.154 403.12 518.539 391.172 518.539 391.172C517.165 392.547 516.703 393.935 513.493 393.472C510.283 393.01 508.435 391.172 502.014 391.172C494.657 391.172 490.997 398.06 490.997 402.658C490.997 408.009 494.23 411.256 498.18 412.77H489.161C487.786 412.77 488.78 413.799 488.78 413.799C488.78 413.799 491.459 414.607 492.833 415.531C493.387 415.902 493.642 417.15 493.757 418.525V452.753C493.757 454.14 493.041 455.341 491.978 455.965H503.862C502.799 455.341 502.083 454.14 502.083 452.753H502.026V413.694C502.638 413.764 503.261 413.799 503.862 413.799C509.832 413.799 517.639 414.145 517.639 414.145V412.77C517.639 412.77 509.37 412.308 506.16 412.308C502.488 412.308 496.021 409.095 496.021 403.537H496.009Z" fill="#105535"/>
<path d="M530.019 412.758C531.012 412.054 533.414 411.198 535.458 413.151C535.481 413.174 535.458 413.209 535.435 413.209C534.857 413.163 533.923 412.065 530.469 415.52C530.469 415.52 530.007 415.982 530.007 416.895C530.007 417.727 539.719 441.347 541.625 445.981C541.74 446.269 542.156 446.281 542.283 445.981L552.042 423.552C552.042 423.552 553.415 421.274 552.042 418.166C550.667 415.057 548.831 415.057 547.907 414.133C547.145 413.37 547.018 412.931 546.995 412.793C546.995 412.77 547.006 412.758 547.03 412.758C547.18 412.793 547.792 412.92 549.535 413.267C551.591 413.671 560.737 413.706 561.453 412.99C562.146 412.296 561.684 413.682 561.223 414.133C560.761 414.583 557.089 416.895 555.714 420.108C554.34 423.32 537.341 462.379 535.505 464.678C533.668 466.978 533.668 471.565 522.189 471.565C517.142 471.565 516.969 470.028 499.232 473.865C498.018 474.131 493.098 476.384 491.239 479.262C490.835 479.886 489.877 479.631 489.819 478.892C489.692 477.436 489.265 476.003 488.48 474.778C488.387 474.628 488.295 474.478 488.214 474.328C487.752 473.403 493.26 461.465 503.827 461.465C514.394 461.465 515.768 466.065 528.622 466.065C528.622 466.065 532.756 465.603 534.13 463.766C535.193 462.356 536.867 457.941 537.583 455.989C537.803 455.388 537.78 454.717 537.514 454.128L521.265 417.82C521.265 417.82 519.417 415.069 516.668 413.682H516.219C516.092 413.602 516.6 413.185 516.912 412.943C516.992 412.873 517.489 412.77 517.593 412.77C522.189 412.77 529.533 413.093 529.996 412.77L530.019 412.758Z" fill="#105535"/>
</g>
<path d="M397.755 588.126V578.346H399.124V588.126H397.755ZM398.803 588.126V586.868H403.665V588.126H398.803ZM407.918 588.293C407.219 588.293 406.604 588.14 406.073 587.832C405.542 587.516 405.123 587.083 404.816 586.533C404.518 585.984 404.369 585.35 404.369 584.633C404.369 583.916 404.518 583.282 404.816 582.733C405.114 582.183 405.529 581.755 406.059 581.448C406.59 581.131 407.2 580.973 407.89 580.973C408.579 580.973 409.189 581.131 409.72 581.448C410.251 581.755 410.665 582.183 410.963 582.733C411.261 583.282 411.41 583.916 411.41 584.633C411.41 585.35 411.261 585.984 410.963 586.533C410.665 587.083 410.251 587.516 409.72 587.832C409.198 588.14 408.597 588.293 407.918 588.293ZM407.918 587.078C408.337 587.078 408.709 586.975 409.035 586.771C409.361 586.556 409.613 586.268 409.79 585.904C409.976 585.541 410.069 585.117 410.069 584.633C410.069 584.149 409.976 583.725 409.79 583.362C409.613 582.998 409.357 582.714 409.021 582.509C408.686 582.295 408.309 582.188 407.89 582.188C407.461 582.188 407.084 582.295 406.758 582.509C406.432 582.714 406.176 582.998 405.99 583.362C405.803 583.725 405.71 584.149 405.71 584.633C405.71 585.117 405.803 585.541 405.99 585.904C406.176 586.268 406.437 586.556 406.772 586.771C407.107 586.975 407.489 587.078 407.918 587.078ZM415.756 591.102C415.291 591.102 414.867 591.055 414.485 590.962C414.103 590.878 413.782 590.78 413.521 590.668C413.26 590.557 413.065 590.459 412.934 590.375L413.437 589.299C413.558 589.374 413.731 589.458 413.954 589.551C414.178 589.653 414.438 589.737 414.737 589.802C415.035 589.877 415.365 589.914 415.728 589.914C416.157 589.914 416.539 589.826 416.874 589.649C417.209 589.481 417.47 589.215 417.656 588.852C417.852 588.489 417.95 588.023 417.95 587.455V581.14H419.277V587.427C419.277 588.228 419.123 588.899 418.816 589.439C418.518 589.989 418.103 590.403 417.573 590.682C417.051 590.962 416.446 591.102 415.756 591.102ZM415.631 588.028C414.997 588.028 414.443 587.884 413.968 587.595C413.502 587.297 413.135 586.887 412.864 586.365C412.604 585.835 412.473 585.224 412.473 584.535C412.473 583.818 412.604 583.194 412.864 582.663C413.135 582.132 413.502 581.718 413.968 581.42C414.443 581.122 414.997 580.973 415.631 580.973C416.208 580.973 416.711 581.122 417.14 581.42C417.577 581.718 417.913 582.137 418.145 582.677C418.388 583.208 418.509 583.832 418.509 584.549C418.509 585.238 418.388 585.849 418.145 586.379C417.913 586.901 417.577 587.306 417.14 587.595C416.711 587.884 416.208 588.028 415.631 588.028ZM415.966 586.91C416.357 586.91 416.697 586.808 416.986 586.603C417.275 586.389 417.503 586.105 417.67 585.751C417.838 585.387 417.922 584.973 417.922 584.507C417.922 584.042 417.838 583.632 417.67 583.278C417.503 582.924 417.27 582.649 416.972 582.454C416.683 582.249 416.343 582.146 415.952 582.146C415.542 582.146 415.179 582.249 414.862 582.454C414.555 582.649 414.313 582.924 414.136 583.278C413.959 583.632 413.87 584.042 413.87 584.507C413.87 584.973 413.959 585.387 414.136 585.751C414.322 586.105 414.569 586.389 414.876 586.603C415.193 586.808 415.556 586.91 415.966 586.91ZM424.276 588.293C423.578 588.293 422.963 588.14 422.432 587.832C421.901 587.516 421.482 587.083 421.175 586.533C420.877 585.984 420.728 585.35 420.728 584.633C420.728 583.916 420.877 583.282 421.175 582.733C421.473 582.183 421.887 581.755 422.418 581.448C422.949 581.131 423.559 580.973 424.248 580.973C424.938 580.973 425.548 581.131 426.079 581.448C426.609 581.755 427.024 582.183 427.322 582.733C427.62 583.282 427.769 583.916 427.769 584.633C427.769 585.35 427.62 585.984 427.322 586.533C427.024 587.083 426.609 587.516 426.079 587.832C425.557 588.14 424.956 588.293 424.276 588.293ZM424.276 587.078C424.695 587.078 425.068 586.975 425.394 586.771C425.72 586.556 425.971 586.268 426.148 585.904C426.335 585.541 426.428 585.117 426.428 584.633C426.428 584.149 426.335 583.725 426.148 583.362C425.971 582.998 425.715 582.714 425.38 582.509C425.045 582.295 424.667 582.188 424.248 582.188C423.82 582.188 423.443 582.295 423.117 582.509C422.791 582.714 422.535 582.998 422.348 583.362C422.162 583.725 422.069 584.149 422.069 584.633C422.069 585.117 422.162 585.541 422.348 585.904C422.535 586.268 422.795 586.556 423.131 586.771C423.466 586.975 423.848 587.078 424.276 587.078ZM439.033 588.126L441.394 581.14H442.721L440.346 588.126H439.033ZM434.325 588.126L436.644 581.14H437.846L435.554 588.126H434.325ZM434.227 588.126L431.852 581.14H433.193L435.498 588.126H434.227ZM439.033 588.126L436.742 581.14H437.957L440.262 588.126H439.033ZM443.865 588.126L443.893 581.14H445.206L445.192 588.126H443.865ZM444.535 579.659C444.321 579.659 444.135 579.58 443.976 579.422C443.818 579.254 443.739 579.063 443.739 578.849C443.739 578.626 443.818 578.439 443.976 578.29C444.135 578.132 444.321 578.053 444.535 578.053C444.759 578.053 444.945 578.132 445.094 578.29C445.252 578.439 445.332 578.626 445.332 578.849C445.332 579.063 445.252 579.254 445.094 579.422C444.945 579.58 444.759 579.659 444.535 579.659ZM449.834 588.293C449.135 588.293 448.595 588.116 448.213 587.763C447.831 587.399 447.64 586.882 447.64 586.212V578.961H448.968V586.016C448.968 586.361 449.051 586.626 449.219 586.812C449.396 586.989 449.647 587.078 449.973 587.078C450.067 587.078 450.169 587.059 450.281 587.022C450.393 586.985 450.528 586.91 450.686 586.799L451.189 587.832C450.947 587.991 450.714 588.107 450.49 588.182C450.276 588.256 450.057 588.293 449.834 588.293ZM446.453 582.286V581.14H450.951V582.286H446.453ZM452.513 588.126L452.499 578.192H453.826V588.126H452.513ZM457.347 588.126V584.549L458.66 584.13V588.126H457.347ZM457.347 584.549C457.347 583.916 457.272 583.436 457.123 583.11C456.974 582.775 456.769 582.542 456.508 582.412C456.257 582.281 455.968 582.211 455.642 582.202C455.065 582.202 454.618 582.402 454.301 582.803C453.984 583.203 453.826 583.767 453.826 584.493H453.267C453.267 583.757 453.374 583.129 453.588 582.607C453.803 582.076 454.11 581.671 454.51 581.392C454.92 581.112 455.405 580.973 455.963 580.973C456.811 580.973 457.472 581.233 457.947 581.755C458.432 582.267 458.669 583.059 458.66 584.13L457.347 584.549ZM466.634 591.102C466.168 591.102 465.744 591.055 465.362 590.962C464.981 590.878 464.659 590.78 464.398 590.668C464.138 590.557 463.942 590.459 463.812 590.375L464.315 589.299C464.436 589.374 464.608 589.458 464.831 589.551C465.055 589.653 465.316 589.737 465.614 589.802C465.912 589.877 466.243 589.914 466.606 589.914C467.034 589.914 467.416 589.826 467.751 589.649C468.087 589.481 468.347 589.215 468.534 588.852C468.729 588.489 468.827 588.023 468.827 587.455V581.14H470.154V587.427C470.154 588.228 470.001 588.899 469.693 589.439C469.395 589.989 468.981 590.403 468.45 590.682C467.928 590.962 467.323 591.102 466.634 591.102ZM466.508 588.028C465.875 588.028 465.32 587.884 464.845 587.595C464.38 587.297 464.012 586.887 463.742 586.365C463.481 585.835 463.351 585.224 463.351 584.535C463.351 583.818 463.481 583.194 463.742 582.663C464.012 582.132 464.38 581.718 464.845 581.42C465.32 581.122 465.875 580.973 466.508 580.973C467.085 580.973 467.588 581.122 468.017 581.42C468.455 581.718 468.79 582.137 469.023 582.677C469.265 583.208 469.386 583.832 469.386 584.549C469.386 585.238 469.265 585.849 469.023 586.379C468.79 586.901 468.455 587.306 468.017 587.595C467.588 587.884 467.085 588.028 466.508 588.028ZM466.843 586.91C467.234 586.91 467.574 586.808 467.863 586.603C468.152 586.389 468.38 586.105 468.548 585.751C468.715 585.387 468.799 584.973 468.799 584.507C468.799 584.042 468.715 583.632 468.548 583.278C468.38 582.924 468.147 582.649 467.849 582.454C467.56 582.249 467.221 582.146 466.829 582.146C466.42 582.146 466.056 582.249 465.74 582.454C465.432 582.649 465.19 582.924 465.013 583.278C464.836 583.632 464.748 584.042 464.748 584.507C464.748 584.973 464.836 585.387 465.013 585.751C465.199 586.105 465.446 586.389 465.754 586.603C466.07 586.808 466.433 586.91 466.843 586.91ZM472.805 584.368C472.805 583.613 472.95 582.998 473.238 582.523C473.527 582.048 473.9 581.694 474.356 581.462C474.813 581.229 475.292 581.112 475.795 581.112V582.37C475.376 582.37 474.976 582.435 474.594 582.565C474.221 582.686 473.914 582.891 473.672 583.18C473.439 583.459 473.322 583.841 473.322 584.326L472.805 584.368ZM471.995 588.126V581.14H473.322V588.126H471.995ZM476.95 588.126L476.978 581.14H478.291L478.277 588.126H476.95ZM477.621 579.659C477.406 579.659 477.22 579.58 477.062 579.422C476.904 579.254 476.824 579.063 476.824 578.849C476.824 578.626 476.904 578.439 477.062 578.29C477.22 578.132 477.406 578.053 477.621 578.053C477.844 578.053 478.03 578.132 478.18 578.29C478.338 578.439 478.417 578.626 478.417 578.849C478.417 579.063 478.338 579.254 478.18 579.422C478.03 579.58 477.844 579.659 477.621 579.659ZM485.336 588.126L485.28 586.826V578.346H486.593V588.126H485.336ZM482.989 588.293C482.356 588.293 481.801 588.14 481.326 587.832C480.861 587.525 480.493 587.097 480.223 586.547C479.962 585.998 479.832 585.36 479.832 584.633C479.832 583.897 479.962 583.259 480.223 582.719C480.493 582.169 480.861 581.741 481.326 581.434C481.801 581.126 482.356 580.973 482.989 580.973C483.576 580.973 484.083 581.126 484.512 581.434C484.95 581.741 485.285 582.169 485.518 582.719C485.751 583.259 485.867 583.897 485.867 584.633C485.867 585.36 485.751 585.998 485.518 586.547C485.285 587.097 484.95 587.525 484.512 587.832C484.083 588.14 483.576 588.293 482.989 588.293ZM483.296 587.092C483.688 587.092 484.032 586.989 484.33 586.785C484.628 586.57 484.861 586.282 485.029 585.918C485.196 585.546 485.28 585.117 485.28 584.633C485.28 584.149 485.196 583.725 485.029 583.362C484.861 582.989 484.628 582.7 484.33 582.495C484.032 582.281 483.683 582.174 483.282 582.174C482.873 582.174 482.509 582.281 482.193 582.495C481.876 582.7 481.629 582.989 481.452 583.362C481.275 583.725 481.187 584.149 481.187 584.633C481.187 585.117 481.275 585.546 481.452 585.918C481.638 586.282 481.89 586.57 482.207 586.785C482.523 586.989 482.887 587.092 483.296 587.092Z" fill="black"/>
</g>
<defs>
<clipPath id="clip0_614_27225">
<rect width="560" height="500.624" fill="white" transform="translate(161.5 98.1885)"/>
</clipPath>
</defs>
</svg>
