<svg width="221" height="185" viewBox="0 0 221 185" fill="none" xmlns="http://www.w3.org/2000/svg">
<path d="M118.794 84.6713C113.674 89.7633 105.367 89.7633 100.234 84.6713C100.151 84.5885 100.068 84.5057 99.9993 84.4367L88.5597 73.0385L88.4768 72.9557L83.3712 67.8638C82.9434 67.436 82.557 66.9944 82.1982 66.539C78.3068 61.4471 78.6656 54.1611 83.2884 49.4831C84.2405 48.5172 85.8136 48.3654 86.8762 49.2209C88.0905 50.2145 88.1595 52.0084 87.0694 53.0985C86.9038 53.2779 86.7381 53.4573 86.5863 53.6367C86.5312 53.7057 86.476 53.7609 86.4346 53.8299C85.9792 54.4095 85.6066 55.0442 85.3445 55.7066C85.2617 55.9136 85.1926 56.1206 85.1236 56.3276C85.1236 56.3552 85.1099 56.3828 85.0961 56.4104C85.0409 56.5897 84.9994 56.7691 84.958 56.9623C84.9166 57.1555 84.8753 57.3349 84.8477 57.5281C84.8063 57.7765 84.7924 58.0249 84.7786 58.2733C84.7786 58.3423 84.7786 58.425 84.7786 58.5078C84.7786 58.5492 84.7786 58.6044 84.7786 58.6458C84.7786 58.701 84.7786 58.7424 84.7786 58.7838C84.7786 58.8666 84.7786 58.9356 84.7786 59.0184C84.7786 59.046 84.7786 59.0736 84.7786 59.1012C84.7786 59.1012 84.7786 59.1288 84.7786 59.1426C84.7786 59.2254 84.7787 59.3082 84.7925 59.391C84.7925 59.46 84.7925 59.5152 84.8063 59.5704C84.8063 59.6394 84.8201 59.6946 84.8339 59.7636C84.8477 59.8602 84.8615 59.9568 84.8891 60.0534C84.8891 60.081 84.8891 60.1086 84.8891 60.1362C84.9029 60.219 84.9304 60.288 84.9442 60.3708C84.9442 60.4122 84.9581 60.4536 84.9719 60.4949C84.9719 60.5501 84.9994 60.6191 85.027 60.6743C85.0408 60.7433 85.0547 60.7985 85.0823 60.8675C85.1099 60.9365 85.1375 61.0193 85.1651 61.1021C85.1651 61.1435 85.1926 61.1849 85.2064 61.2263C85.234 61.3229 85.2754 61.4057 85.303 61.5023C85.303 61.5299 85.3306 61.5575 85.3306 61.5851C85.372 61.6679 85.4135 61.7645 85.4549 61.8611C85.4549 61.8887 85.4824 61.9163 85.4824 61.9439C85.5376 62.0543 85.579 62.1509 85.6342 62.2475C85.6342 62.2475 85.6342 62.2751 85.648 62.2889C85.7584 62.5096 85.8826 62.7166 86.0206 62.9236C86.0206 62.9236 86.0206 62.9512 86.0344 62.9512C86.0896 63.034 86.1448 63.103 86.2 63.1858C86.2138 63.2134 86.2414 63.241 86.2552 63.2686C86.3932 63.4618 86.545 63.6412 86.7106 63.8344C86.7244 63.8482 86.7381 63.8758 86.7657 63.8896C86.8485 63.9724 86.9313 64.0552 87.0141 64.1518L87.0417 64.1794C87.0417 64.1794 87.0694 64.207 87.0832 64.2208L94.8936 72.0036L103.918 80.9869C108.306 85.3475 116.558 83.4846 117.649 75.412C117.869 73.7837 117.317 72.1554 116.145 70.9962L111.674 66.5528L107.63 62.5234C107.63 62.5234 107.63 62.5234 107.603 62.4958C107.589 62.482 107.575 62.4682 107.561 62.4544C106.871 61.7231 106.623 60.6743 106.913 59.7084C107.354 58.2457 107.603 56.7277 107.672 55.1684C107.975 55.472 108.238 55.7342 108.458 55.9412L108.569 56.0516C108.569 56.0516 108.638 56.1206 108.665 56.1482C108.734 56.2034 108.789 56.2586 108.831 56.3138C108.886 56.369 108.927 56.4104 108.969 56.4518C109.024 56.5069 109.314 56.7967 109.314 56.7967L118.532 65.9733L118.766 66.2079C123.886 71.3136 123.886 79.5794 118.766 84.6851L118.794 84.6713Z" fill="#FA0476"/>
<path d="M118.712 46.7473C118.629 46.8301 118.546 46.8991 118.477 46.9819L108.983 56.4206C108.983 56.4206 108.901 56.3378 108.845 56.2826C108.79 56.2274 108.735 56.1722 108.68 56.117C108.652 56.0894 108.611 56.048 108.583 56.0204L108.473 55.91C108.252 55.703 108.004 55.4408 107.686 55.1373C107.686 54.9165 107.7 54.6819 107.7 54.4611V54.3369C107.7 53.5365 107.645 52.7362 107.548 51.9634C107.438 51.1079 107.741 50.2661 108.349 49.6589L114.986 43.0629C119.153 38.9231 117.677 31.2921 110.556 29.6085C108.349 29.0842 106.03 29.8155 104.43 31.4024L100 35.8182C99.5308 36.2874 98.9099 36.522 98.2889 36.522C97.7094 36.522 97.1298 36.315 96.6606 35.901C95.4739 34.8247 95.4325 32.9756 96.564 31.844L99.9034 28.5184L100.138 28.2838C105.258 23.1919 113.565 23.1919 118.698 28.2838C123.818 33.3895 123.818 41.6553 118.698 46.7611L118.712 46.7473Z" fill="#6ED29D"/>
<path d="M107.615 55.0684C107.615 55.0684 107.67 55.1227 107.697 55.1498C107.67 55.1227 107.642 55.0955 107.615 55.0684Z" fill="#3D9546"/>
<path d="M97.6557 63.4861C96.7035 64.452 95.1305 64.6038 94.0679 63.7483C92.8398 62.7547 92.7845 60.9608 93.8609 59.8707C94.0265 59.6913 94.192 59.5119 94.3438 59.3325C94.399 59.2635 94.4543 59.2083 94.4957 59.1393C94.9511 58.5597 95.3236 57.925 95.5858 57.2626C95.6686 57.0556 95.7376 56.8486 95.8066 56.6416C95.8066 56.614 95.8204 56.5864 95.8342 56.5588C95.8894 56.3794 95.9308 56.2001 95.9722 56.0069C96.0136 55.8275 96.055 55.6343 96.0826 55.4411C96.124 55.1927 96.1378 54.9443 96.1516 54.6959C96.1516 54.6269 96.1516 54.5441 96.1516 54.4613C96.1516 54.4199 96.1516 54.3647 96.1516 54.3233C96.1516 54.2681 96.1516 54.2268 96.1516 54.1854C96.1516 54.1026 96.1516 54.0336 96.1516 53.9508C96.1516 53.9232 96.1516 53.8956 96.1516 53.868V53.8266C96.1516 53.7438 96.1516 53.661 96.1378 53.5782C96.1378 53.5092 96.1378 53.454 96.124 53.3988C96.124 53.3298 96.1102 53.2746 96.0964 53.2056C96.0826 53.109 96.0688 53.0124 96.0412 52.9158C96.0412 52.8882 96.0412 52.8606 96.0412 52.833C96.0274 52.7502 95.9997 52.6812 95.9859 52.5984C95.9859 52.557 95.9722 52.5156 95.9584 52.4742C95.9584 52.419 95.9308 52.35 95.9032 52.2948C95.8894 52.2258 95.8756 52.1707 95.848 52.1017C95.8204 52.0327 95.7928 51.9499 95.7652 51.8671C95.7652 51.8257 95.7376 51.7843 95.7238 51.7429C95.6962 51.6463 95.6548 51.5635 95.6272 51.4669C95.6272 51.4393 95.5996 51.4117 95.5996 51.3841C95.5582 51.3013 95.5168 51.2047 95.4754 51.1081C95.4754 51.0805 95.4478 51.0529 95.4478 51.0253C95.3926 50.9149 95.3512 50.8183 95.296 50.7217C95.296 50.7217 95.2961 50.6941 95.2823 50.6803C95.1719 50.4595 95.0476 50.2526 94.9096 50.0456C94.9096 50.0456 94.9096 50.018 94.8958 50.018C94.8406 49.9352 94.7854 49.8662 94.7302 49.7834C94.7164 49.7558 94.6889 49.7282 94.6751 49.7006C94.5371 49.5074 94.3853 49.328 94.2197 49.1348C94.2059 49.121 94.1921 49.0934 94.1645 49.0796C94.0817 48.9968 93.9988 48.914 93.9161 48.8174L93.8885 48.7898C93.8885 48.7898 93.8609 48.7622 93.8471 48.7484L86.0367 40.9656L85.9677 40.8966L76.9982 31.9685C72.61 27.6079 64.358 29.4708 63.2678 37.5434C63.0471 39.1717 63.599 40.8 64.772 41.9592L73.2862 50.4319L73.3137 50.4595C74.0451 51.1909 74.3073 52.2534 74.0175 53.247C73.5759 54.7097 73.3275 56.2276 73.2585 57.787C73.1757 57.718 73.1068 57.6352 73.0378 57.5662C72.9688 57.4972 72.8998 57.4282 72.8308 57.3592C72.7066 57.2212 72.5824 57.1108 72.472 57.0004C72.3892 56.9314 72.3339 56.8624 72.2649 56.7934C72.2373 56.7658 72.2097 56.7244 72.1821 56.7106C72.1545 56.683 72.127 56.6554 72.0994 56.6278C72.0442 56.5726 72.0028 56.5312 71.9614 56.4898C71.9062 56.4346 71.6164 56.1449 71.6164 56.1449L62.3985 46.9683L62.1639 46.7337C57.0443 41.628 57.0443 33.3622 62.1639 28.2565C67.2834 23.1645 75.5906 23.1645 80.7239 28.2565C80.8067 28.3393 80.8758 28.422 80.9586 28.491L97.6005 45.064C98.0283 45.4918 98.4147 45.9334 98.7734 46.3887C102.679 51.4807 102.306 58.7667 97.6833 63.4585L97.6557 63.4861Z" fill="#FDB800"/>
<path d="M84.3564 81.1296L81.0308 84.4414L80.7962 84.676C75.6767 89.7679 67.3695 89.7679 62.2361 84.676C57.1166 79.5702 57.1166 71.3044 62.2361 66.1987C62.3189 66.1159 62.4017 66.0469 62.4707 65.9641L71.9508 56.5254C71.9508 56.5254 72.0337 56.6082 72.0889 56.6634C72.1165 56.691 72.1441 56.7186 72.1717 56.7462C72.1993 56.7738 72.2269 56.8014 72.2545 56.829C72.3234 56.898 72.3786 56.9532 72.4614 57.036C72.5718 57.1464 72.6822 57.2568 72.8202 57.3947L73.0272 57.6017C73.0962 57.6707 73.179 57.7397 73.248 57.8225C73.248 58.0433 73.2341 58.2641 73.2341 58.4987V58.6229C73.2341 59.4232 73.2894 60.2236 73.386 60.9964C73.4964 61.8519 73.1928 62.6937 72.5856 63.3008L65.9482 69.8969C61.7808 74.0505 63.2572 81.6677 70.3777 83.3512C72.5856 83.8618 74.9039 83.1443 76.5046 81.5573L80.9342 77.1416C81.4034 76.6724 82.0243 76.4378 82.6453 76.4378C83.2249 76.4378 83.8044 76.6448 84.2736 77.0588C85.4603 78.1351 85.5017 79.9842 84.3702 81.1158L84.3564 81.1296Z" fill="#A361FF"/>
<path d="M73.3217 57.8861C73.3217 57.8861 73.2674 57.8318 73.2402 57.8047C73.2674 57.8318 73.2945 57.859 73.3217 57.8861Z" fill="#3D9546"/>
<path d="M196.313 184.409C193.484 182.103 191.616 178.835 189.359 176.021C185.094 170.612 180.259 165.477 175.214 160.851C169.96 155.469 162.727 153.094 155.286 152.833C140.751 151.9 126.174 153.218 111.639 153.341C100.198 154.138 88.7287 156.43 77.2736 154.412C68.8424 153.314 58.2652 152.284 56.5929 142.207C55.6732 138.844 51.4367 121.395 56.2167 121.011C57.2479 120.928 58.1538 122.136 57.2061 122.85C56.1888 128.108 57.4848 133.421 58.4882 138.569C59.4637 142.509 60.2859 147.109 64.2994 149.154C68.1875 151.296 72.6887 151.364 76.9531 152.147C84.6456 153.451 92.4774 153.163 100.184 152.216C110.19 150.76 120.293 151.09 130.369 150.664C140.946 150.294 151.662 149.731 162.128 151.474C170.044 152.614 176.203 157.885 181.499 163.432C187.199 168.964 191.965 175.252 196.828 181.471C197.413 173.275 194.543 165.258 193.957 157.117C193.456 153.945 193.957 151.529 197.609 151.117C202.918 150.307 209.119 148.962 211.67 143.773C213.927 138.514 214.736 132.529 215.516 126.983C216.227 113.021 216.993 99.0449 217.007 85.0555C216.296 72.59 221.48 55.7588 206.82 49.4849C200.605 47.1922 193.609 47.1373 187.115 47.8512C186.488 47.9336 185.666 47.6178 185.526 46.9451C185.373 44.7897 191.003 45.6821 192.494 45.3114C196.884 45.2153 201.343 45.586 205.594 46.7117C220.463 51.352 220.686 63.3507 219.822 76.4203C219.934 92.0708 219.237 107.68 218.54 123.303C218.345 128.438 217.425 133.517 216.268 138.528C215.446 141.603 214.666 144.926 212.339 147.273C208.52 151.831 202.361 152.257 196.954 153.588C194.585 157.94 204.869 186.358 196.257 184.382L196.313 184.409Z" fill="#2A3950"/>
<path d="M205.023 47.4068C219.785 53.7092 214.565 70.6165 215.281 83.1384C215.281 97.1911 214.495 111.23 213.779 125.255C212.993 130.827 212.179 136.839 209.906 142.121C207.324 147.334 201.094 148.685 195.748 149.499C192.058 149.913 191.567 152.326 192.072 155.526C192.647 163.703 195.552 171.757 194.948 179.99C190.065 173.729 185.252 167.427 179.513 161.869C174.181 156.298 167.979 151.002 160.009 149.858C149.457 148.12 138.667 148.672 128.03 149.044C117.885 149.485 107.712 149.14 97.6373 150.602C89.8777 151.54 81.9917 151.83 74.2462 150.533C69.9384 149.747 65.4061 149.678 61.4912 147.527C57.464 145.458 56.6362 140.852 55.6539 136.894C54.6296 131.709 53.3387 126.386 54.349 121.104C54.8822 120.704 54.8401 120.153 54.5033 119.753C55.2891 119.394 56.103 119.132 56.9308 118.939C57.0711 119.504 57.7587 119.808 58.306 119.808C69.307 119.78 80.308 119.808 91.309 119.408C110.476 119.173 129.672 119.601 148.826 118.622C158.395 117.463 173.002 118.939 176.749 107.893C180.06 99.2597 180.355 89.8958 180.902 80.7802C181.323 69.9408 181.829 59.1151 181.674 48.2619C181.674 47.2965 181.674 46.3312 181.674 45.352C182.32 45.3245 183.091 45.352 183.807 45.2969C184.116 45.683 184.705 45.8347 185.182 45.7795C191.721 45.0624 198.765 45.1176 205.009 47.4206L205.023 47.4068Z" fill="#E5FFF1"/>
<path d="M179.687 48.4504C179.755 62.8511 179.351 77.2793 178.313 91.6389C177.707 97.8047 176.885 104.176 174.272 109.862C173.14 112.438 170.634 114.028 168.007 114.768C158.832 117.193 149.011 117.166 139.486 117.481C121.703 118.097 103.906 117.453 86.1225 118.125C81.5823 118.179 77.0422 118.193 72.502 118.221C72.502 118.221 73.5125 118.221 72.502 118.221C60.8889 117.81 57.4131 118.275 50.0707 126.894C41.8796 134.91 34.1734 143.802 27.2487 153.051C26.5481 146.063 24.8506 139.226 23.6785 132.306C21.981 126.51 20.7955 117.714 13.7225 116.549C10.5565 116.097 8.10459 113.781 6.4475 111.123C5.35625 108.15 5.42359 104.875 4.7904 101.778C2.00164 88.2134 1.43581 74.4293 0.667886 60.6451C-0.153923 50.4646 -0.0596235 40.243 0.829546 30.0625C1.46274 23.8281 1.31458 17.3608 3.30848 11.3594C4.42668 7.72835 6.91904 4.70022 9.99071 2.54902C10.5027 2.86417 11.2706 2.91897 11.7152 2.53532C21.1053 1.37066 30.7515 1.79542 40.2225 1.80912C55.2306 2.01465 70.2117 1.02811 85.2064 1.17883C99.8238 1.17883 114.441 1.23364 129.045 0.58965C139.89 0.425227 150.628 -0.095446 161.406 1.79542C169.058 2.50792 173.032 6.687 176.616 13.2639C178.461 17.3471 178.232 21.7454 178.69 26.1848C179.297 32.4603 179.634 38.7632 179.687 45.0661C179.593 45.2305 179.539 45.436 179.566 45.6963C179.593 45.806 179.634 45.9156 179.687 46.0115C179.687 46.8199 179.701 47.6283 179.687 48.4367V48.4504Z" fill="#2A3950"/>
<path d="M121.104 89.0043C115.419 94.662 106.201 94.662 100.515 89.0043C100.433 88.9215 100.336 88.8249 100.253 88.7421L87.5579 76.1019L87.4613 76.0053L81.7898 70.3614C81.3206 69.8922 80.8929 69.3955 80.4927 68.8849C76.1735 63.241 76.5737 55.1546 81.707 49.9522C82.7696 48.8759 84.5083 48.7103 85.6812 49.6625C87.0336 50.7664 87.1163 52.7535 85.902 53.954C85.7088 54.1472 85.5294 54.3404 85.3638 54.5474C85.3086 54.6164 85.2396 54.6854 85.1982 54.7682C84.6876 55.4168 84.2874 56.1205 83.9839 56.8519C83.8873 57.0727 83.8183 57.3073 83.7355 57.5281C83.7355 57.5557 83.7079 57.5833 83.7079 57.6247C83.6527 57.8316 83.5975 58.0248 83.5561 58.2318C83.5147 58.4388 83.4733 58.6458 83.4319 58.8528C83.3905 59.1288 83.3629 59.4048 83.3491 59.6807C83.3491 59.7635 83.3491 59.8463 83.3491 59.9429C83.3491 59.9981 83.3491 60.0533 83.3491 60.0947C83.3491 60.1499 83.3491 60.2051 83.3491 60.2603C83.3491 60.3431 83.3491 60.4259 83.3491 60.5225C83.3491 60.5501 83.3491 60.5915 83.3491 60.6191C83.3491 60.6191 83.3491 60.6467 83.3491 60.6605C83.3491 60.7571 83.3492 60.8399 83.3768 60.9365C83.3768 61.0055 83.3905 61.0745 83.4043 61.1435C83.4043 61.2125 83.4181 61.2815 83.4319 61.3505C83.4457 61.4609 83.4733 61.5712 83.4871 61.6816C83.4871 61.7092 83.4871 61.7368 83.5009 61.7644C83.5147 61.8472 83.5423 61.9438 83.5561 62.0266C83.5561 62.068 83.5837 62.1232 83.5837 62.1646C83.5975 62.2336 83.6251 62.3026 83.6389 62.3578C83.6527 62.4268 83.6665 62.4958 83.6941 62.5648C83.7217 62.6476 83.7493 62.7304 83.7769 62.827C83.7907 62.8684 83.8045 62.9236 83.8183 62.965C83.8597 63.0616 83.8873 63.172 83.9287 63.2686C83.9425 63.2962 83.9563 63.3376 83.9701 63.3652C84.0115 63.4618 84.0529 63.5722 84.1081 63.6687C84.1219 63.6963 84.1357 63.7239 84.1495 63.7515C84.2047 63.8619 84.2599 63.9861 84.3151 64.0965C84.3151 64.0965 84.3289 64.1241 84.3427 64.1379C84.4668 64.3725 84.6049 64.6071 84.7567 64.8417C84.7567 64.8555 84.7704 64.8693 84.7842 64.8831C84.8394 64.9659 84.9084 65.0625 84.9636 65.1453C84.9912 65.1729 85.005 65.2143 85.0326 65.2419C85.1844 65.4489 85.3638 65.6558 85.5432 65.8628C85.557 65.8766 85.5846 65.9042 85.5984 65.9318C85.6812 66.0284 85.7778 66.125 85.8744 66.2216C85.8882 66.2216 85.902 66.2492 85.9158 66.263C85.9158 66.263 85.9434 66.2906 85.9572 66.3044L94.6232 74.9428L104.641 84.9197C109.499 89.7632 118.675 87.6933 119.876 78.7376C120.124 76.9437 119.503 75.1222 118.206 73.8388L113.252 68.8987L108.767 64.4277C108.767 64.4277 108.767 64.4277 108.74 64.4001C108.726 64.3863 108.712 64.3725 108.685 64.3449C107.912 63.5446 107.636 62.3716 107.953 61.2953C108.436 59.6669 108.726 57.9834 108.795 56.2585C109.14 56.6035 109.416 56.8933 109.664 57.1141L109.789 57.2245C109.789 57.2245 109.858 57.2935 109.899 57.3349C109.968 57.4039 110.037 57.4591 110.092 57.5143C110.147 57.5695 110.203 57.6246 110.244 57.666C110.299 57.7212 110.63 58.0524 110.63 58.0524L120.856 68.2363L121.118 68.4985C126.803 74.1562 126.803 83.3328 121.118 88.9905L121.104 89.0043Z" fill="#FA0476"/>
<path d="M121.023 46.9265C120.94 47.0093 120.844 47.1059 120.761 47.1887L110.232 57.6624C110.232 57.6624 110.135 57.5658 110.08 57.5106C110.025 57.4554 109.956 57.4002 109.887 57.3312C109.859 57.2898 109.818 57.2622 109.776 57.2208L109.652 57.1104C109.418 56.8758 109.128 56.5861 108.783 56.2549C108.783 56.0065 108.797 55.7581 108.811 55.4959V55.3579C108.811 54.461 108.755 53.5778 108.645 52.7222C108.521 51.7839 108.866 50.8317 109.542 50.1694L116.897 42.8419C121.52 38.2468 119.878 29.774 111.984 27.9111C109.542 27.3315 106.961 28.1319 105.181 29.8982L100.269 34.7969C99.7444 35.3213 99.0545 35.5835 98.3783 35.5835C97.7297 35.5835 97.0812 35.3489 96.5706 34.8935C95.2459 33.693 95.2044 31.6507 96.4602 30.395L100.158 26.7106L100.421 26.4484C106.106 20.7906 115.324 20.7906 121.009 26.4484C126.694 32.1061 126.694 41.2826 121.009 46.9403L121.023 46.9265Z" fill="#6ED29D"/>
<path d="M108.699 56.1582C108.699 56.1582 108.754 56.2125 108.781 56.2397C108.754 56.2125 108.726 56.1854 108.699 56.1582Z" fill="#3D9546"/>
<path d="M97.6471 65.5001C96.5845 66.5765 94.8458 66.7421 93.6729 65.7899C92.3205 64.686 92.2378 62.6989 93.4521 61.4983C93.6453 61.3052 93.8246 61.112 93.9902 60.905C94.0454 60.836 94.1145 60.767 94.1559 60.6842C94.6665 60.0356 95.0666 59.3319 95.3702 58.6005C95.4668 58.3797 95.5358 58.1451 95.6186 57.9243C95.6186 57.8967 95.6462 57.8691 95.6462 57.8277C95.7014 57.6207 95.7566 57.4275 95.798 57.2206C95.8394 57.0136 95.8808 56.8066 95.9222 56.5996C95.9636 56.3236 95.9912 56.0476 96.005 55.7716C96.005 55.6888 96.005 55.606 96.005 55.5094C96.005 55.4543 96.005 55.3991 96.005 55.3577C96.005 55.3025 96.005 55.2473 96.005 55.1921C96.005 55.1093 96.005 55.0265 96.005 54.9299C96.005 54.9023 96.005 54.8609 96.005 54.8333V54.7919C96.005 54.6953 96.0049 54.6125 95.9773 54.5159C95.9773 54.4469 95.9636 54.3779 95.9498 54.3089C95.9498 54.2399 95.936 54.1709 95.9222 54.1019C95.9084 53.9915 95.8808 53.8811 95.867 53.7707C95.867 53.7431 95.867 53.7155 95.8532 53.6879C95.8394 53.6051 95.8118 53.5085 95.798 53.4258C95.798 53.3844 95.7704 53.3292 95.7704 53.2878C95.7566 53.2188 95.7289 53.1498 95.7151 53.0946C95.7013 53.0256 95.6876 52.9566 95.66 52.8876C95.6324 52.8048 95.6048 52.722 95.5772 52.6254C95.5634 52.584 95.5496 52.5288 95.5358 52.4874C95.4944 52.3908 95.4668 52.2804 95.4254 52.1838C95.4116 52.1562 95.3978 52.1148 95.384 52.0872C95.3426 51.9906 95.3012 51.8802 95.246 51.7836C95.2322 51.756 95.2184 51.7284 95.2046 51.7008C95.1494 51.5904 95.0942 51.4662 95.039 51.3559C95.039 51.3559 95.0252 51.3283 95.0114 51.3145C94.8873 51.0799 94.7492 50.8453 94.5974 50.6107C94.5974 50.5969 94.5837 50.5831 94.5699 50.5693C94.5147 50.4865 94.4457 50.3899 94.3905 50.3071C94.3629 50.2795 94.3491 50.2381 94.3215 50.2105C94.1697 50.0035 93.9903 49.7965 93.8109 49.5895C93.7971 49.5757 93.7695 49.5481 93.7557 49.5343C93.6729 49.4378 93.5763 49.3412 93.4797 49.2446C93.4659 49.2446 93.4521 49.217 93.4383 49.2032C93.4383 49.2032 93.4107 49.1756 93.3969 49.1618L84.7309 40.5372L84.662 40.4682L74.7126 30.5603C69.8553 25.7167 60.6787 27.7866 59.4782 36.7424C59.2298 38.5363 59.8508 40.3578 61.1479 41.6411L70.6005 51.0523L70.628 51.0799C71.4422 51.8802 71.732 53.0808 71.4008 54.1709C70.9178 55.7992 70.628 57.4827 70.559 59.2077C70.4762 59.1249 70.3935 59.0421 70.3107 58.9731C70.2279 58.8903 70.1589 58.8213 70.0899 58.7523C69.9519 58.6005 69.8139 58.4763 69.7035 58.3521C69.6207 58.2693 69.5517 58.2003 69.4827 58.1313C69.4551 58.0899 69.4137 58.0623 69.3861 58.0347C69.3585 58.0071 69.3171 57.9795 69.3033 57.9519C69.2481 57.8967 69.1929 57.8415 69.1515 57.8001C69.0963 57.7311 68.7651 57.4138 68.7651 57.4138L58.5398 47.2299L58.2777 46.9677C52.5923 41.31 52.5923 32.1334 58.2777 26.4757C63.963 20.818 73.1809 20.818 78.8662 26.4757C78.949 26.5585 79.0456 26.6551 79.1284 26.7379L97.5919 45.1186C98.0611 45.5877 98.4889 46.0845 98.889 46.5951C103.222 52.239 102.808 60.3392 97.6747 65.5277L97.6471 65.5001Z" fill="#FDB800"/>
<path d="M82.8989 85.0703L79.2007 88.7547L78.9385 89.0169C73.2532 94.6746 64.0352 94.6746 58.3499 89.0169C52.6646 83.3592 52.6646 74.1826 58.3499 68.5249C58.4327 68.4421 58.5293 68.3455 58.6121 68.2627L69.141 57.7891C69.141 57.7891 69.2376 57.8857 69.2928 57.9409C69.3204 57.9685 69.348 57.9961 69.3756 58.0237C69.4032 58.0513 69.4446 58.0926 69.4722 58.1202C69.5412 58.1892 69.6101 58.2582 69.6929 58.341C69.8171 58.4514 69.9413 58.5894 70.0793 58.7412L70.3001 58.962C70.3829 59.0448 70.4657 59.1276 70.5485 59.2104C70.5485 59.4588 70.5209 59.7072 70.5209 59.9556V60.0935C70.5209 60.9905 70.5761 61.8737 70.6865 62.7292C70.8107 63.6676 70.4657 64.6197 69.7895 65.2821L62.4345 72.6095C57.8117 77.2047 59.4538 85.6775 67.347 87.5404C69.8033 88.1199 72.37 87.3196 74.1501 85.5533L79.0627 80.6545C79.5871 80.1301 80.277 79.868 80.9532 79.868C81.6018 79.868 82.2503 80.1025 82.7609 80.5579C84.0718 81.7447 84.127 83.8008 82.8712 85.0565L82.8989 85.0703Z" fill="#A361FF"/>
<path d="M70.6498 59.2826C70.6498 59.2826 70.5955 59.2283 70.5684 59.2012C70.5955 59.2283 70.6227 59.2555 70.6498 59.2826Z" fill="#3D9546"/>
</svg>
