<svg width="166" height="185" viewBox="0 0 166 185" fill="none" xmlns="http://www.w3.org/2000/svg">
<path d="M54.9502 103.043C23.0536 102.44 0.941687 69.8846 12.3743 40.0433C24.6451 7.52591 67.6165 -0.483312 90.8208 25.3346C112.17 48.6649 103.864 86.6757 74.8678 99.1606C74.9055 99.1418 74.9432 99.1324 74.9808 99.1135C68.6901 101.884 61.8154 103.222 54.9502 103.052V103.043ZM58.6417 101.497C90.5383 99.7354 110.352 65.5502 96.4901 36.8867C78.1357 -0.247739 24.7958 4.38818 12.9959 44.0196C4.40727 73.5406 27.8941 103.382 58.6417 101.497Z" fill="black"/>
<path d="M50.1583 112.073C2.58182 106.787 -17.0439 48.5745 17.8756 15.718C22.5372 11.393 27.9521 7.8124 33.7815 5.28715C34.7609 4.95735 36.1358 3.78895 37.0022 4.81602C37.2471 5.23061 36.9363 5.65463 36.5408 5.80539C33.8192 6.87957 31.2388 8.16103 28.7149 9.64038C22.1793 13.5036 16.3782 18.8462 12.0368 24.9804C0.133296 41.4228 -0.883778 63.0947 7.56358 80.5454C7.63892 80.7433 7.72368 80.9317 7.82727 81.1202C7.90261 81.2615 7.96853 81.4028 8.0627 81.5442C8.04387 81.5159 8.03446 81.4971 8.01563 81.4688C8.02504 81.4876 8.04389 81.5065 8.0533 81.5348C11.5377 88.3756 16.5006 94.5379 22.8573 99.4188C29.7603 104.856 38.1135 108.587 46.7209 110.085C47.9546 110.302 49.1977 110.481 50.4502 110.603C50.8646 110.651 51.326 110.98 51.2412 111.451C51.1565 111.885 50.7044 112.083 50.2901 112.083C50.2524 112.083 50.2053 112.083 50.1677 112.083L50.1583 112.073Z" fill="black"/>
<path d="M98.7406 91.4201C98.3451 91.2223 98.185 90.7605 98.4675 90.3931C99.1927 89.4602 99.899 88.5085 100.577 87.538C105.841 79.9434 109.128 70.992 109.994 61.7861C112.951 33.9894 93.0525 7.62501 65.5351 2.96082C56.5132 1.37783 47.1242 2.13164 38.4979 5.07149C38.0647 5.22225 37.4902 5.13744 37.2454 4.71343C36.7368 3.46964 39.0817 3.45079 39.788 3.07389C43.3666 1.99971 47.0582 1.27418 50.7781 0.925539C53.7163 0.652284 56.6639 0.605168 59.5739 0.774774C90.7359 2.38604 115.108 30.7198 111.887 61.7672C111.049 71.2087 107.602 80.5276 102.216 88.2824C101.519 89.2718 100.794 90.2423 100.05 91.2034C99.7577 91.5803 99.1456 91.6274 98.7406 91.4201V91.4201Z" fill="black"/>
<path d="M55.0338 112.343C50.457 112.258 46.012 111.636 41.6612 110.477C40.8419 110.1 38.1673 110.025 38.4781 108.818C38.8077 108.083 39.7212 108.291 40.3145 108.517C44.3357 109.732 48.6112 110.515 52.7831 110.76C59.8838 111.193 67.1633 110.213 73.812 107.886C74.9703 107.518 76.1004 107.056 77.2305 106.595C77.626 106.425 78.1723 106.501 78.4548 106.849C79.566 108.074 74.5936 109.082 73.7932 109.525C67.7661 111.504 61.3811 112.493 55.0432 112.343H55.0338Z" fill="black"/>
<path d="M81.4508 105.563C80.5279 104.441 82.8163 103.999 83.4379 103.443C85.5662 102.171 87.6098 100.767 89.465 99.3155C101.029 90.2698 108.554 76.5788 109.976 62.002C110.174 61.0786 111.935 61.2011 111.841 62.2187C110.475 76.0605 103.685 89.1956 93.2319 98.345C90.4632 100.785 87.4591 102.943 84.2666 104.799C83.4002 105.195 82.3926 106.298 81.4508 105.563V105.563Z" fill="black"/>
<path d="M84.166 105.461C84.166 104.981 84.684 104.717 85.1078 104.717C85.5315 104.717 86.0495 104.981 86.0495 105.461C86.0495 105.942 85.5315 106.206 85.1078 106.206C84.684 106.206 84.166 105.942 84.166 105.461Z" fill="black"/>
<path d="M151.378 181.51C143.976 173.623 136.97 165.397 129.775 157.322C124.661 151.018 119.651 144.639 114.246 138.58C110.206 133.897 106.476 128.969 102.427 124.305C96.3905 118.114 90.3539 112.046 83.9595 106.232C83.4793 106.148 83.1967 105.761 83.2532 105.281C83.2532 105.281 83.2532 105.29 83.2532 105.281C83.1402 104.376 84.6188 104.112 85.0331 104.847C85.2026 105.064 85.3627 105.224 85.5228 105.394C92.228 111.537 98.7071 117.926 104.941 124.512C110.074 131.004 115.461 137.28 120.819 143.584C120.819 143.593 120.828 143.612 120.838 143.621C120.866 143.772 120.913 143.904 120.979 144.045C121.149 144.403 121.384 144.667 121.685 144.903C121.789 144.988 121.902 145.072 122.006 145.167C122.156 145.289 122.298 145.402 122.458 145.525C123.155 146.344 123.842 147.164 124.539 147.984C126.347 150.34 128.202 152.658 130.095 154.938C130.378 155.532 130.83 156.04 131.253 156.54C131.235 156.521 131.216 156.493 131.197 156.464C131.545 156.879 131.894 157.303 132.336 157.604C138.674 165.067 145.351 172.238 151.84 179.55C152.235 180.077 152.895 180.379 153.026 181.02C152.998 181.5 152.527 181.764 152.066 181.764C151.802 181.764 151.548 181.679 151.369 181.5L151.378 181.51Z" fill="black"/>
<path d="M163.936 175.931C157.306 168.195 151.326 159.922 144.489 152.346C136.955 142.594 128.752 133.407 120.701 124.097C116.811 119.311 112.602 114.788 108.552 110.142C104.352 105.507 100.529 100.466 95.7258 96.4421C95.0666 96.2442 95.1043 95.2831 95.7823 95.1135C96.6675 94.8025 97.2985 95.6223 97.9201 96.1123C106.151 103.98 113.11 113.026 120.785 121.421C129.402 131.673 138.415 141.576 146.627 152.177C151.853 158.085 156.75 164.266 161.628 170.457C162.645 171.879 164.924 174.216 165.603 175.441C165.565 176.195 164.425 176.412 163.945 175.931H163.936Z" fill="black"/>
<path d="M158.464 184.661C155.705 184.868 153.595 182.955 151.448 181.542C151.26 181.419 151.1 181.212 151.1 180.957C151.147 180.175 152.267 180.006 152.766 180.477C154.085 181.278 155.271 182.352 156.703 182.964C158.822 183.699 160.573 182.559 162.061 181.184C163.333 180.317 164.199 178.724 164.011 177.179C163.983 176.284 163.728 175.436 163.295 174.654C163.097 174.22 163.54 173.815 163.926 173.73C165.527 173.466 165.772 175.964 165.885 177.113C166.12 179.214 164.915 181.212 163.21 182.361C161.864 183.52 160.338 184.717 158.464 184.651V184.661Z" fill="black"/>
<path d="M76.8099 107.385C76.7251 106.791 77.4126 106.527 77.8458 106.301C79.3432 105.83 80.5486 104.86 81.8953 104.096C83.2796 103.559 83.9953 105.067 82.4509 105.604C81.2361 106.461 79.9553 107.177 78.5709 107.696C78.0812 108.148 77.0077 108.148 76.8193 107.385H76.8099Z" fill="black"/>
<path d="M35.3789 5.14672C35.3789 4.66617 35.8969 4.40234 36.3206 4.40234C36.7444 4.40234 37.2624 4.66617 37.2624 5.14672C37.2624 5.62727 36.7444 5.89112 36.3206 5.89112C35.8969 5.89112 35.3789 5.62727 35.3789 5.14672Z" fill="black"/>
<path d="M35.9626 4.75176C35.9626 4.16756 36.6312 4.04507 37.055 3.82835C37.6953 3.60221 38.5052 3.33837 38.9384 3.99795C39.3151 4.75175 38.3828 5.04386 37.8272 5.17577C37.2433 5.57152 36.0567 5.66575 35.9531 4.74234L35.9626 4.75176Z" fill="black"/>
<path d="M112.979 159.26C112.979 159.26 113.007 159.269 113.016 159.279C113.232 159.372 113.429 159.476 113.635 159.579C113.391 159.551 113.138 159.448 112.979 159.269V159.26Z" fill="black"/>
<path d="M164.015 177.185C164.213 178.72 163.337 180.313 162.075 181.189C160.587 182.565 158.835 183.705 156.707 182.97C155.275 182.358 154.089 181.283 152.77 180.482C152.77 180.482 152.761 180.482 152.752 180.473C152.488 180.153 152.102 179.908 151.848 179.55C145.359 172.238 138.682 165.058 132.344 157.604C132.175 157.491 132.024 157.359 131.873 157.218L131.732 157.077C131.685 157.03 131.638 156.973 131.6 156.926C131.487 156.794 131.374 156.662 131.261 156.53C131.242 156.511 131.224 156.483 131.214 156.464C131.111 156.342 131.007 156.219 130.894 156.097C130.593 155.729 130.31 155.352 130.103 154.928C128.21 152.648 126.355 150.33 124.547 147.975C124.01 147.334 123.464 146.693 122.917 146.043C122.955 146.043 122.993 146.033 123.03 146.024L122.993 145.986C122.861 145.864 122.739 145.741 122.607 145.619C122.588 145.6 122.578 145.591 122.56 145.581C122.531 145.562 122.503 145.534 122.475 145.515C122.324 145.393 122.173 145.28 122.023 145.157C121.91 145.072 121.806 144.988 121.703 144.893C121.665 144.865 121.627 144.827 121.59 144.799C121.335 144.582 121.138 144.337 120.987 144.026C120.921 143.895 120.874 143.753 120.846 143.602C120.846 143.593 120.836 143.584 120.827 143.565C115.468 137.261 110.082 130.976 104.949 124.493C98.8467 118.048 92.5088 111.782 85.9449 105.761C86.0015 105.667 86.0391 105.563 86.0391 105.432C86.0391 104.951 85.5212 104.687 85.0974 104.687C85.0503 104.687 84.9938 104.687 84.9467 104.697C84.8808 104.621 84.8055 104.565 84.7207 104.518C87.7437 102.727 90.5971 100.654 93.234 98.3269C93.9968 97.6579 94.7502 96.9606 95.4753 96.2539C95.5412 96.3199 95.6354 96.3764 95.739 96.4047C100.542 100.428 104.365 105.46 108.565 110.105C112.615 114.75 116.824 119.273 120.714 124.06C128.766 133.369 136.978 142.557 144.502 152.309C151.273 159.809 157.197 167.998 163.751 175.668C163.911 176.148 164.005 176.647 164.024 177.166L164.015 177.185Z" fill="#2A3950"/>
<path d="M74.9967 99.1189C103.899 86.5869 112.158 48.6421 90.8367 25.34C67.6323 -0.468461 24.6609 7.53134 12.3901 40.0487C0.957476 69.89 23.0694 102.455 54.966 103.048C61.8312 103.218 68.7059 101.889 74.9967 99.1095V99.1189ZM65.5511 2.96138C93.0686 7.62556 112.958 33.99 110.01 61.7866C110.01 61.8526 110.001 61.9185 109.992 61.9845C109.992 61.9939 109.992 62.0033 109.982 62.0222C109.916 62.71 109.831 63.3885 109.747 64.0669C109.662 64.7453 109.549 65.4143 109.426 66.0833C109.342 66.5545 109.257 67.0256 109.153 67.4967C109.078 67.8736 108.993 68.2505 108.909 68.6274C108.748 69.3435 108.57 70.0502 108.372 70.7569C105.33 81.9604 98.6813 92.1085 89.4617 99.3262C87.6065 100.787 85.5629 102.191 83.4346 103.463C83.2368 103.642 82.8602 103.811 82.474 103.99C82.3045 103.99 82.1068 104.028 81.8996 104.103C80.5529 104.867 79.3475 105.837 77.8501 106.308C77.7089 106.384 77.5299 106.459 77.3698 106.553C77.3227 106.563 77.2662 106.582 77.2191 106.6C76.0891 107.062 74.959 107.524 73.8007 107.891C67.1426 110.209 59.8724 111.189 52.7623 110.765C48.8729 110.53 44.8894 109.842 41.1036 108.758C40.8305 108.683 40.5669 108.607 40.3032 108.523C40.1619 108.476 40.0018 108.419 39.8323 108.372C39.8323 108.372 39.8323 108.372 39.8229 108.372C33.7016 106.431 27.8817 103.369 22.8434 99.3922C16.4867 94.5113 11.5238 88.3583 8.04875 81.5269C8.04875 81.5269 8.04875 81.527 8.04875 81.5175C8.03933 81.4987 8.02991 81.4798 8.01107 81.4704C8.01107 81.4704 8.01107 81.461 8.01107 81.4516C7.94515 81.3385 7.87925 81.2254 7.82274 81.1029C7.77566 81.0087 7.72855 80.9145 7.68146 80.8202C7.63437 80.726 7.5967 80.6318 7.55903 80.5376C7.55903 80.5376 7.55903 80.5376 7.55903 80.5281C7.5402 80.4716 7.51197 80.4057 7.49313 80.3397C7.44605 80.2172 7.38954 80.0853 7.34245 79.9628H7.28595C-0.869473 62.6064 0.260588 41.2171 12.0323 24.9537C16.3737 18.8196 22.1842 13.477 28.7104 9.61374C31.1495 8.18151 33.6357 6.94713 36.2537 5.8918C36.2725 5.8918 36.2914 5.8918 36.3196 5.8918C36.6398 5.8918 37.0353 5.73162 37.186 5.43952C37.4215 5.40183 37.6569 5.3076 37.8264 5.18511C37.9017 5.16626 37.9865 5.14741 38.0807 5.11914C38.2219 5.11914 38.3632 5.10031 38.5044 5.05319C47.1307 2.12277 56.5198 1.36896 65.5416 2.94253L65.5511 2.96138Z" fill="#2A3950"/>
<path d="M96.4918 36.9169C110.345 65.5804 90.5401 99.7656 58.6341 101.528C27.8959 103.412 4.39962 73.5613 12.9882 44.0498C24.7882 4.41834 78.128 -0.21758 96.4824 36.9169H96.4918Z" fill="#E5FFF1"/>
</svg>
