<svg width="701" height="513" viewBox="0 0 701 513" fill="none" xmlns="http://www.w3.org/2000/svg">
<rect x="0.446045" y="0.908691" width="700" height="511.538" fill="#CFE1F6"/>
<path d="M238.069 226.545C221.781 226.545 208.529 239.737 208.529 255.961C208.525 261.373 210.024 266.68 212.859 271.291C212.946 272.722 210.801 278.485 208.68 283.121L206.677 287.499L210.967 285.292C214.58 283.428 220.424 280.824 222.226 280.783C226.965 283.784 232.46 285.374 238.069 285.365C254.358 285.365 267.61 272.175 267.61 255.959C267.61 239.743 254.352 226.543 238.069 226.543M248.748 279.761L214.209 245.195C215.631 242.086 217.648 239.284 220.146 236.95L257.151 273.795C254.769 276.321 251.912 278.35 248.742 279.765M223.844 277.862C223.369 277.57 222.818 277.426 222.261 277.447C220.306 277.447 216.502 278.982 213.492 280.348C213.743 279.736 214.002 279.084 214.255 278.423C216.703 272.001 216.357 270.586 215.794 269.681C213.799 266.483 212.527 262.888 212.065 259.147L234.852 281.823C230.932 281.346 227.171 279.989 223.85 277.851M230.361 231.026C232.859 230.261 235.457 229.874 238.069 229.878C252.514 229.878 264.268 241.576 264.268 255.959C264.268 258.558 263.877 261.142 263.108 263.624L230.361 231.026Z" fill="black"/>
<path d="M234.852 281.831C230.932 281.355 227.171 279.997 223.85 277.86C223.375 277.568 222.824 277.424 222.268 277.445C220.312 277.445 216.509 278.98 213.499 280.346C213.749 279.734 214.008 279.082 214.261 278.421C216.71 271.999 216.364 270.584 215.8 269.679C213.805 266.481 212.533 262.886 212.071 259.145L234.852 281.831Z" fill="#FEE600"/>
<path d="M257.151 273.795C254.769 276.321 251.912 278.35 248.742 279.766L214.209 245.195C215.631 242.086 217.648 239.285 220.146 236.951L257.151 273.795Z" fill="#FEE600"/>
<path d="M264.268 255.953C264.268 258.552 263.877 261.135 263.108 263.618L230.361 231.026C232.859 230.261 235.457 229.874 238.069 229.878C252.514 229.878 264.268 241.576 264.268 255.959" fill="#FEE600"/>
<path fill-rule="evenodd" clip-rule="evenodd" d="M251.236 239.242C250.974 239.501 250.619 239.647 250.25 239.647C249.881 239.647 249.527 239.501 249.264 239.242C249.071 239.047 248.939 238.799 248.886 238.53C248.833 238.261 248.861 237.982 248.967 237.728C249.072 237.475 249.25 237.258 249.479 237.106C249.707 236.953 249.976 236.872 250.25 236.872C250.525 236.872 250.793 236.953 251.021 237.106C251.25 237.258 251.428 237.475 251.533 237.728C251.639 237.982 251.667 238.261 251.614 238.53C251.561 238.799 251.43 239.047 251.236 239.242Z" fill="black"/>
<path fill-rule="evenodd" clip-rule="evenodd" d="M256.736 244.715C256.542 244.91 256.294 245.043 256.025 245.097C255.755 245.151 255.475 245.124 255.221 245.019C254.966 244.914 254.749 244.736 254.596 244.507C254.443 244.278 254.361 244.009 254.361 243.734C254.361 243.459 254.443 243.19 254.596 242.961C254.749 242.732 254.966 242.554 255.221 242.449C255.475 242.344 255.755 242.317 256.025 242.371C256.294 242.425 256.542 242.558 256.736 242.753C256.994 243.014 257.139 243.367 257.139 243.734C257.139 244.101 256.994 244.454 256.736 244.715Z" fill="black"/>
<path d="M257.697 232.387C257.412 232.386 257.134 232.299 256.9 232.136C256.75 232.032 256.622 231.9 256.524 231.746C256.426 231.592 256.359 231.421 256.327 231.241C256.295 231.061 256.299 230.877 256.339 230.699C256.379 230.521 256.453 230.353 256.558 230.204L260.879 224.078C261.092 223.776 261.416 223.571 261.78 223.507C262.144 223.444 262.518 223.527 262.82 223.738C263.12 223.948 263.323 224.268 263.387 224.629C263.45 224.989 263.368 225.359 263.158 225.659L258.841 231.795C258.712 231.978 258.541 232.127 258.342 232.23C258.143 232.334 257.922 232.387 257.697 232.387Z" fill="black"/>
<path d="M263.137 237.943C262.841 237.946 262.551 237.855 262.311 237.681C262.07 237.508 261.892 237.262 261.801 236.98C261.711 236.698 261.713 236.394 261.809 236.113C261.904 235.832 262.086 235.589 262.329 235.42L268.501 231.121C268.804 230.91 269.178 230.827 269.542 230.891C269.906 230.955 270.229 231.161 270.442 231.463C270.547 231.612 270.623 231.781 270.663 231.96C270.703 232.139 270.707 232.323 270.675 232.503C270.643 232.684 270.575 232.856 270.476 233.01C270.377 233.164 270.248 233.296 270.098 233.4L263.935 237.692C263.701 237.856 263.423 237.944 263.137 237.943Z" fill="black"/>
<path d="M287.018 224.687C294.876 223.746 298.94 223.475 304.223 223.475C318.38 223.475 325.56 227.784 325.56 236.132C325.56 240.439 323.867 242.931 319.531 245.084C324.476 246.768 327.196 250.536 327.196 255.648C327.196 261.776 323.467 266.017 316.698 267.833C313.65 268.573 309.24 268.979 303.421 268.979C297.527 268.979 293.463 268.639 287.029 267.564L287.018 224.687ZM302.124 241.585H307.135C308.424 241.585 309.982 239.499 309.982 237.817C309.982 234.987 308.152 233.508 304.697 233.508C304.223 233.508 303.073 233.574 302.124 233.642V241.585ZM302.124 258.076C302.907 258.208 303.7 258.277 304.494 258.284C309.033 258.284 310.794 257.072 310.794 253.908C310.794 251.215 308.424 249.531 304.562 249.531H302.124V258.076Z" fill="black"/>
<path d="M365.996 254.039V255.922C366.065 258.482 367.082 259.491 369.725 259.491L367.966 267.904C365.869 268.702 363.639 269.091 361.395 269.049C356.382 269.049 353.604 267.568 352.115 263.935C349.068 267.433 345.546 269.049 340.939 269.049C336.265 269.049 332.066 266.963 330.44 263.8C329.357 261.78 329.019 259.559 329.019 254.778V235.66H344.328V252.154C344.328 254.981 345.138 255.99 347.238 255.99C348.593 255.99 349.474 255.52 350.692 254.242V235.66H366.001L365.996 254.039Z" fill="black"/>
<path d="M403.792 240.507L391.533 256.866H404.876L403.115 267.904H371.958L370.264 262.855L382.457 246.498H371.755V235.662H401.828L403.792 240.507Z" fill="black"/>
<path d="M439.692 240.507L427.433 256.866H440.776L439.015 267.904H407.857L406.164 262.855L418.357 246.498H407.654V235.662H437.728L439.692 240.507Z" fill="black"/>
<path d="M459.132 223.746H442.808V267.906H459.132V223.746Z" fill="black"/>
<path d="M491.508 246.498H481.618V251.145C481.618 255.52 482.77 256.933 486.429 256.933C487.916 256.933 489.273 256.665 491.777 255.922L494.218 265.414C489.95 267.837 485.345 268.983 480.197 268.983C470.714 268.983 466.921 265.213 466.921 255.922V246.498H461.027V237.006C468.139 236.2 472.541 232.497 475.047 225.294H481.618V235.651H491.508V246.498Z" fill="black"/>
<path d="M491.487 227.637C491.492 228.102 491.359 228.557 491.104 228.946C490.849 229.334 490.484 229.638 490.055 229.819C489.627 229.999 489.154 230.048 488.698 229.959C488.242 229.87 487.823 229.647 487.494 229.319C487.164 228.991 486.94 228.572 486.85 228.116C486.76 227.66 486.808 227.187 486.987 226.759C487.166 226.33 487.469 225.964 487.857 225.708C488.245 225.452 488.7 225.317 489.165 225.321C489.471 225.315 489.775 225.371 490.059 225.485C490.343 225.599 490.601 225.769 490.818 225.986C491.035 226.202 491.206 226.459 491.321 226.743C491.436 227.027 491.492 227.331 491.487 227.637ZM491.104 227.637C491.111 227.378 491.066 227.121 490.971 226.88C490.876 226.64 490.733 226.421 490.55 226.238C490.368 226.054 490.15 225.91 489.91 225.813C489.67 225.716 489.413 225.669 489.155 225.675C488.894 225.67 488.635 225.718 488.394 225.816C488.152 225.913 487.933 226.059 487.749 226.244C487.566 226.428 487.421 226.648 487.324 226.89C487.228 227.132 487.181 227.391 487.187 227.651C487.179 227.914 487.225 228.175 487.32 228.42C487.416 228.665 487.559 228.888 487.743 229.076C487.926 229.264 488.146 229.413 488.388 229.515C488.63 229.616 488.89 229.668 489.153 229.667C489.416 229.666 489.675 229.612 489.917 229.509C490.158 229.405 490.377 229.255 490.559 229.065C490.741 228.876 490.883 228.652 490.976 228.406C491.07 228.161 491.113 227.899 491.104 227.637ZM489.83 228.051L490.414 228.946H489.845L489.327 228.15H488.736V228.946H488.167V226.344H489.254C489.944 226.344 490.354 226.702 490.354 227.253C490.364 227.426 490.319 227.598 490.225 227.744C490.13 227.889 489.992 228 489.83 228.061V228.051ZM489.221 227.707C489.592 227.707 489.805 227.533 489.805 227.243C489.805 226.953 489.598 226.785 489.221 226.785H488.73V227.707H489.221Z" fill="black"/>
<path d="M295.889 272.525C298.453 272.525 300.461 273.192 301.913 274.527C303.364 275.861 304.091 277.702 304.092 280.051C304.092 282.399 303.366 284.238 301.913 285.568C300.46 286.898 298.452 287.564 295.889 287.567C293.332 287.567 291.326 286.901 289.871 285.568C288.415 284.235 287.685 282.396 287.681 280.051C287.681 277.704 288.41 275.862 289.867 274.527C291.324 273.191 293.331 272.524 295.889 272.525ZM295.889 275.245C294.635 275.245 293.662 275.666 292.972 276.507C292.281 277.348 291.936 278.533 291.936 280.062C291.936 281.581 292.281 282.762 292.972 283.606C293.662 284.45 294.635 284.867 295.889 284.857C297.15 284.857 298.125 284.437 298.816 283.596C299.506 282.755 299.852 281.573 299.852 280.051C299.852 278.524 299.506 277.339 298.816 276.497C298.125 275.654 297.15 275.237 295.889 275.245Z" fill="#231F20" stroke="#231F20" stroke-width="4" stroke-miterlimit="10"/>
<path d="M307.86 276.41H311.589L313.596 283.907L315.614 276.41H318.808L320.818 283.828L322.819 276.41H326.548L323.397 287.285H319.214L317.197 279.803L315.187 287.279H311.011L307.86 276.41Z" fill="#231F20" stroke="#231F20" stroke-width="4" stroke-miterlimit="10"/>
<path d="M343.068 280.663V287.292H339.224V282.216C339.236 281.568 339.213 280.92 339.153 280.275C339.133 279.998 339.051 279.729 338.913 279.488C338.761 279.26 338.551 279.078 338.304 278.96C338.031 278.829 337.732 278.764 337.43 278.769C337.072 278.753 336.716 278.82 336.389 278.966C336.063 279.112 335.775 279.333 335.549 279.61C335.093 280.17 334.865 280.944 334.865 281.935V287.285H331.041V276.41H334.865V278.003C335.378 277.417 336.003 276.94 336.703 276.6C337.376 276.293 338.109 276.139 338.849 276.149C340.23 276.149 341.279 276.533 341.995 277.302C342.712 278.072 343.07 279.192 343.068 280.663Z" fill="#231F20" stroke="#231F20" stroke-width="4" stroke-miterlimit="10"/>
<path d="M356.308 272.789H371.016V275.614H365.717V287.285H361.605V275.614H356.308V272.789Z" fill="#231F20" stroke="#231F20" stroke-width="4" stroke-miterlimit="10"/>
<path d="M386.89 280.662V287.291H383.045V282.237C383.057 281.582 383.034 280.927 382.975 280.275C382.955 279.998 382.872 279.729 382.735 279.488C382.583 279.26 382.373 279.077 382.126 278.96C381.852 278.829 381.552 278.764 381.249 278.769C380.892 278.752 380.536 278.819 380.21 278.965C379.883 279.111 379.596 279.332 379.371 279.61C378.915 280.169 378.687 280.944 378.687 281.934V287.285H374.863V272.175H378.687V278.003C379.199 277.417 379.824 276.94 380.524 276.6C381.198 276.293 381.931 276.139 382.671 276.149C384.052 276.149 385.1 276.533 385.817 277.302C386.534 278.072 386.892 279.192 386.89 280.662Z" fill="#231F20" stroke="#231F20" stroke-width="4" stroke-miterlimit="10"/>
<path d="M404.281 281.818V282.809H395.34C395.433 283.625 395.756 284.237 396.312 284.644C396.869 285.058 397.644 285.265 398.642 285.265C399.476 285.261 400.307 285.151 401.114 284.938C402.013 284.701 402.885 284.372 403.715 283.954V286.633C402.831 286.939 401.923 287.174 401.002 287.337C400.106 287.495 399.198 287.575 398.288 287.575C396.124 287.575 394.442 287.075 393.242 286.075C392.041 285.075 391.441 283.672 391.441 281.866C391.441 280.093 392.031 278.698 393.211 277.681C394.39 276.665 396.011 276.157 398.075 276.157C399.956 276.157 401.46 276.671 402.588 277.7C403.717 278.729 404.281 280.102 404.281 281.818ZM400.345 280.662C400.357 280.366 400.306 280.071 400.197 279.796C400.087 279.521 399.921 279.272 399.709 279.065C399.259 278.651 398.663 278.433 398.052 278.458C397.402 278.429 396.763 278.63 396.247 279.026C395.763 279.443 395.454 280.027 395.382 280.662H400.345Z" fill="#231F20" stroke="#231F20" stroke-width="4" stroke-miterlimit="10"/>
<path d="M418.769 272.789H429.867V275.614H422.875V278.307H429.444V281.133H422.875V284.447H430.097V287.273H418.763L418.769 272.789Z" fill="#231F20" stroke="#231F20" stroke-width="4" stroke-miterlimit="10"/>
<path d="M433.939 276.41H437.761L440.742 283.925L443.713 276.41H447.548L442.837 287.285H438.638L433.939 276.41Z" fill="#231F20" stroke="#231F20" stroke-width="4" stroke-miterlimit="10"/>
<path d="M463.55 281.818V282.809H454.61C454.701 283.625 455.025 284.237 455.581 284.644C456.138 285.051 456.914 285.258 457.91 285.265C458.745 285.261 459.576 285.151 460.383 284.938C461.282 284.701 462.153 284.372 462.983 283.954V286.633C462.098 286.939 461.191 287.175 460.269 287.337C459.374 287.495 458.467 287.575 457.557 287.575C455.392 287.575 453.71 287.075 452.511 286.075C451.312 285.075 450.712 283.672 450.711 281.866C450.711 280.093 451.3 278.698 452.478 277.681C453.656 276.665 455.278 276.157 457.344 276.157C459.222 276.157 460.726 276.671 461.856 277.7C462.986 278.729 463.55 280.102 463.55 281.818ZM459.614 280.662C459.627 280.366 459.576 280.071 459.467 279.796C459.357 279.521 459.191 279.272 458.979 279.065C458.756 278.86 458.495 278.701 458.21 278.597C457.926 278.493 457.624 278.446 457.321 278.458C456.672 278.429 456.033 278.63 455.517 279.026C455.033 279.444 454.724 280.028 454.651 280.662H459.614Z" fill="#231F20" stroke="#231F20" stroke-width="4" stroke-miterlimit="10"/>
<path d="M480.374 280.663V287.292H476.529V282.216C476.541 281.568 476.518 280.921 476.46 280.275C476.439 279.998 476.357 279.73 476.22 279.488C476.069 279.26 475.858 279.078 475.611 278.96C475.338 278.829 475.038 278.764 474.735 278.769C474.377 278.753 474.021 278.82 473.694 278.966C473.368 279.112 473.08 279.333 472.854 279.61C472.398 280.17 472.171 280.944 472.172 281.935V287.285H468.348V276.41H472.178V278.003C472.69 277.417 473.315 276.94 474.014 276.6C474.688 276.293 475.421 276.139 476.162 276.149C477.543 276.149 478.591 276.533 479.307 277.302C480.022 278.072 480.378 279.192 480.374 280.663Z" fill="#231F20" stroke="#231F20" stroke-width="4" stroke-miterlimit="10"/>
<path d="M489.994 273.323V276.41H493.93V278.895H489.994V283.509C489.994 284.014 490.104 284.354 490.325 284.532C490.547 284.71 490.984 284.799 491.639 284.799H493.605V287.285H490.325C488.814 287.285 487.745 286.999 487.116 286.426C486.488 285.852 486.173 284.88 486.17 283.509V278.895H484.268V276.41H486.17V273.323H489.994Z" fill="#231F20" stroke="#231F20" stroke-width="4" stroke-miterlimit="10"/>
</svg>
